<?xml version="1.0" encoding="UTF-8" standalone="no"?>
<svg
   xmlns:dc="http://purl.org/dc/elements/1.1/"
   xmlns:cc="http://creativecommons.org/ns#"
   xmlns:rdf="http://www.w3.org/1999/02/22-rdf-syntax-ns#"
   xmlns:svg="http://www.w3.org/2000/svg"
   xmlns="http://www.w3.org/2000/svg"
   xmlns:sodipodi="http://sodipodi.sourceforge.net/DTD/sodipodi-0.dtd"
   xmlns:inkscape="http://www.inkscape.org/namespaces/inkscape"
   width="600mm"
   height="400mm"
   viewBox="0 0 600 400"
   version="1.1"
   id="svg8"
   inkscape:version="1.0.2 (e86c870879, 2021-01-15)"
   sodipodi:docname="0_4x_small_arc.svg">
  <metadata
     id="metadata1033">
    <rdf:RDF>
      <cc:Work
         rdf:about="">
        <dc:format>image/svg+xml</dc:format>
        <dc:type
           rdf:resource="http://purl.org/dc/dcmitype/StillImage" />
        <dc:title></dc:title>
      </cc:Work>
    </rdf:RDF>
  </metadata>
  <defs
     id="defs1031" />
  <sodipodi:namedview
     id="base"
     pagecolor="#ffffff"
     bordercolor="#666666"
     borderopacity="1.0"
     inkscape:pageopacity="0.0"
     inkscape:pageshadow="2"
     inkscape:zoom="0.175"
     inkscape:cx="1494.568"
     inkscape:cy="1648.9946"
     inkscape:document-units="mm"
     inkscape:current-layer="g1096"
     inkscape:document-rotation="0"
     showgrid="false"
     showguides="true"
     inkscape:guide-bbox="true"
     inkscape:snap-center="true"
     inkscape:snap-intersection-paths="true"
     inkscape:snap-midpoints="true"
     inkscape:window-width="1364"
     inkscape:window-height="750"
     inkscape:window-x="1"
     inkscape:window-y="17"
     inkscape:window-maximized="0"
     inkscape:object-paths="true"
     inkscape:snap-smooth-nodes="true"
     inkscape:snap-global="true"
     inkscape:snap-bbox="true"
     inkscape:snap-bbox-edge-midpoints="false" />
  <g
     inkscape:label="test1"
     inkscape:groupmode="layer"
     id="g1096"
     style="display:inline">
    <g
       id="g27508"
       transform="translate(-90)">
      <g
         id="g1724"
         transform="rotate(-112.30757,188.51397,10.963296)"
         inkscape:transform-center-x="-4.9356352e-05"
         inkscape:transform-center-y="20.033312">
        <path
           id="path1720"
           style="fill:none;stroke:#000000;stroke-width:0.999999px;stroke-linecap:butt;stroke-linejoin:miter;stroke-opacity:1"
           d="m 458.87695,10.408203 -16.03711,0.002 V 21.748047 H 431.50195 V 150.25195 h 11.33789 l 0.002,11.33789 h 66.72265 l 0.002,-25.35742 h 22.75586 A 50.233702,50.233702 0 0 0 582.55664,85.998047 50.233702,50.233702 0 0 0 532.32227,35.765625 H 532.08789 470.2168 V 21.746094 h -11.33985 z"
           transform="matrix(0.1004301,-0.24478181,0.24478181,0.1004301,136.47175,54.055003)" />
        <circle
           style="opacity:0.997512;fill:none;fill-opacity:1;stroke:#0000ff;stroke-width:0.0999997;stroke-linecap:square;stroke-linejoin:round;stroke-miterlimit:4;stroke-dasharray:none;stroke-opacity:1;paint-order:markers stroke fill;stop-color:#000000"
           id="circle1722"
           cx="210.98398"
           cy="-67.611115"
           r="3" />
      </g>
      <g
         id="g1730"
         transform="rotate(67.69243,75.394549,-78.620872)"
         inkscape:transform-center-x="4.8156593e-05"
         inkscape:transform-center-y="-20.033312">
        <path
           id="path1726"
           style="fill:none;stroke:#000000;stroke-width:0.999999px;stroke-linecap:butt;stroke-linejoin:miter;stroke-opacity:1"
           d="m 458.87695,10.408203 -16.03711,0.002 V 21.748047 H 431.50195 V 150.25195 h 11.33789 l 0.002,11.33789 h 66.72265 l 0.002,-25.35742 h 22.75586 A 50.233702,50.233702 0 0 0 582.55664,85.998047 50.233702,50.233702 0 0 0 532.32227,35.765625 H 532.08789 470.2168 V 21.746094 h -11.33985 z"
           transform="matrix(0.1004301,-0.24478181,0.24478181,0.1004301,136.47175,54.055003)" />
        <circle
           style="opacity:0.997512;fill:none;fill-opacity:1;stroke:#0000ff;stroke-width:0.0999997;stroke-linecap:square;stroke-linejoin:round;stroke-miterlimit:4;stroke-dasharray:none;stroke-opacity:1;paint-order:markers stroke fill;stop-color:#000000"
           id="circle1728"
           cx="210.98398"
           cy="-67.611115"
           r="3" />
      </g>
      <g
         id="g1736"
         transform="rotate(-112.30757,210.64411,43.963298)"
         inkscape:transform-center-x="-4.9356352e-05"
         inkscape:transform-center-y="20.033312">
        <path
           id="path1732"
           style="fill:none;stroke:#000000;stroke-width:0.999999px;stroke-linecap:butt;stroke-linejoin:miter;stroke-opacity:1"
           d="m 458.87695,10.408203 -16.03711,0.002 V 21.748047 H 431.50195 V 150.25195 h 11.33789 l 0.002,11.33789 h 66.72265 l 0.002,-25.35742 h 22.75586 A 50.233702,50.233702 0 0 0 582.55664,85.998047 50.233702,50.233702 0 0 0 532.32227,35.765625 H 532.08789 470.2168 V 21.746094 h -11.33985 z"
           transform="matrix(0.1004301,-0.24478181,0.24478181,0.1004301,136.47175,54.055003)" />
        <circle
           style="opacity:0.997512;fill:none;fill-opacity:1;stroke:#0000ff;stroke-width:0.0999997;stroke-linecap:square;stroke-linejoin:round;stroke-miterlimit:4;stroke-dasharray:none;stroke-opacity:1;paint-order:markers stroke fill;stop-color:#000000"
           id="circle1734"
           cx="210.98398"
           cy="-67.611115"
           r="3" />
      </g>
      <g
         id="g1742"
         transform="rotate(67.69243,26.185645,-45.620872)"
         inkscape:transform-center-x="4.8156593e-05"
         inkscape:transform-center-y="-20.033312">
        <path
           id="path1738"
           style="fill:none;stroke:#000000;stroke-width:0.999999px;stroke-linecap:butt;stroke-linejoin:miter;stroke-opacity:1"
           d="m 458.87695,10.408203 -16.03711,0.002 V 21.748047 H 431.50195 V 150.25195 h 11.33789 l 0.002,11.33789 h 66.72265 l 0.002,-25.35742 h 22.75586 A 50.233702,50.233702 0 0 0 582.55664,85.998047 50.233702,50.233702 0 0 0 532.32227,35.765625 H 532.08789 470.2168 V 21.746094 h -11.33985 z"
           transform="matrix(0.1004301,-0.24478181,0.24478181,0.1004301,136.47175,54.055003)" />
        <circle
           style="opacity:0.997512;fill:none;fill-opacity:1;stroke:#0000ff;stroke-width:0.0999997;stroke-linecap:square;stroke-linejoin:round;stroke-miterlimit:4;stroke-dasharray:none;stroke-opacity:1;paint-order:markers stroke fill;stop-color:#000000"
           id="circle1740"
           cx="210.98398"
           cy="-67.611115"
           r="3" />
      </g>
      <g
         id="g3081"
         transform="rotate(-112.30757,232.77425,76.963293)"
         inkscape:transform-center-x="-4.9356352e-05"
         inkscape:transform-center-y="20.033312">
        <path
           id="path3077"
           style="fill:none;stroke:#000000;stroke-width:0.999999px;stroke-linecap:butt;stroke-linejoin:miter;stroke-opacity:1"
           d="m 458.87695,10.408203 -16.03711,0.002 V 21.748047 H 431.50195 V 150.25195 h 11.33789 l 0.002,11.33789 h 66.72265 l 0.002,-25.35742 h 22.75586 A 50.233702,50.233702 0 0 0 582.55664,85.998047 50.233702,50.233702 0 0 0 532.32227,35.765625 H 532.08789 470.2168 V 21.746094 h -11.33985 z"
           transform="matrix(0.1004301,-0.24478181,0.24478181,0.1004301,136.47175,54.055003)" />
        <circle
           style="opacity:0.997512;fill:none;fill-opacity:1;stroke:#0000ff;stroke-width:0.0999997;stroke-linecap:square;stroke-linejoin:round;stroke-miterlimit:4;stroke-dasharray:none;stroke-opacity:1;paint-order:markers stroke fill;stop-color:#000000"
           id="circle3079"
           cx="210.98398"
           cy="-67.611115"
           r="3" />
      </g>
      <g
         id="g27461"
         transform="rotate(67.69243,-23.023251,-12.620878)"
         inkscape:transform-center-x="4.8156593e-05"
         inkscape:transform-center-y="-20.033312">
        <path
           id="path27457"
           style="fill:none;stroke:#000000;stroke-width:0.999999px;stroke-linecap:butt;stroke-linejoin:miter;stroke-opacity:1"
           d="m 458.87695,10.408203 -16.03711,0.002 V 21.748047 H 431.50195 V 150.25195 h 11.33789 l 0.002,11.33789 h 66.72265 l 0.002,-25.35742 h 22.75586 A 50.233702,50.233702 0 0 0 582.55664,85.998047 50.233702,50.233702 0 0 0 532.32227,35.765625 H 532.08789 470.2168 V 21.746094 h -11.33985 z"
           transform="matrix(0.1004301,-0.24478181,0.24478181,0.1004301,136.47175,54.055003)" />
        <circle
           style="opacity:0.997512;fill:none;fill-opacity:1;stroke:#0000ff;stroke-width:0.0999997;stroke-linecap:square;stroke-linejoin:round;stroke-miterlimit:4;stroke-dasharray:none;stroke-opacity:1;paint-order:markers stroke fill;stop-color:#000000"
           id="circle27459"
           cx="210.98398"
           cy="-67.611115"
           r="3" />
      </g>
      <g
         id="g27467"
         transform="rotate(-112.30757,254.90439,109.9633)"
         inkscape:transform-center-x="-4.9356352e-05"
         inkscape:transform-center-y="20.033312">
        <path
           id="path27463"
           style="fill:none;stroke:#000000;stroke-width:0.999999px;stroke-linecap:butt;stroke-linejoin:miter;stroke-opacity:1"
           d="m 458.87695,10.408203 -16.03711,0.002 V 21.748047 H 431.50195 V 150.25195 h 11.33789 l 0.002,11.33789 h 66.72265 l 0.002,-25.35742 h 22.75586 A 50.233702,50.233702 0 0 0 582.55664,85.998047 50.233702,50.233702 0 0 0 532.32227,35.765625 H 532.08789 470.2168 V 21.746094 h -11.33985 z"
           transform="matrix(0.1004301,-0.24478181,0.24478181,0.1004301,136.47175,54.055003)" />
        <circle
           style="opacity:0.997512;fill:none;fill-opacity:1;stroke:#0000ff;stroke-width:0.0999997;stroke-linecap:square;stroke-linejoin:round;stroke-miterlimit:4;stroke-dasharray:none;stroke-opacity:1;paint-order:markers stroke fill;stop-color:#000000"
           id="circle27465"
           cx="210.98398"
           cy="-67.611115"
           r="3" />
      </g>
      <g
         id="g27473"
         transform="rotate(67.69243,-72.23215,20.379122)"
         inkscape:transform-center-x="4.8156593e-05"
         inkscape:transform-center-y="-20.033312">
        <path
           id="path27469"
           style="fill:none;stroke:#000000;stroke-width:0.999999px;stroke-linecap:butt;stroke-linejoin:miter;stroke-opacity:1"
           d="m 458.87695,10.408203 -16.03711,0.002 V 21.748047 H 431.50195 V 150.25195 h 11.33789 l 0.002,11.33789 h 66.72265 l 0.002,-25.35742 h 22.75586 A 50.233702,50.233702 0 0 0 582.55664,85.998047 50.233702,50.233702 0 0 0 532.32227,35.765625 H 532.08789 470.2168 V 21.746094 h -11.33985 z"
           transform="matrix(0.1004301,-0.24478181,0.24478181,0.1004301,136.47175,54.055003)" />
        <circle
           style="opacity:0.997512;fill:none;fill-opacity:1;stroke:#0000ff;stroke-width:0.0999997;stroke-linecap:square;stroke-linejoin:round;stroke-miterlimit:4;stroke-dasharray:none;stroke-opacity:1;paint-order:markers stroke fill;stop-color:#000000"
           id="circle27471"
           cx="210.98398"
           cy="-67.611115"
           r="3" />
      </g>
      <g
         id="g27479"
         transform="rotate(-112.30757,277.03453,142.9633)"
         inkscape:transform-center-x="-4.9356352e-05"
         inkscape:transform-center-y="20.033312">
        <path
           id="path27475"
           style="fill:none;stroke:#000000;stroke-width:0.999999px;stroke-linecap:butt;stroke-linejoin:miter;stroke-opacity:1"
           d="m 458.87695,10.408203 -16.03711,0.002 V 21.748047 H 431.50195 V 150.25195 h 11.33789 l 0.002,11.33789 h 66.72265 l 0.002,-25.35742 h 22.75586 A 50.233702,50.233702 0 0 0 582.55664,85.998047 50.233702,50.233702 0 0 0 532.32227,35.765625 H 532.08789 470.2168 V 21.746094 h -11.33985 z"
           transform="matrix(0.1004301,-0.24478181,0.24478181,0.1004301,136.47175,54.055003)" />
        <circle
           style="opacity:0.997512;fill:none;fill-opacity:1;stroke:#0000ff;stroke-width:0.0999997;stroke-linecap:square;stroke-linejoin:round;stroke-miterlimit:4;stroke-dasharray:none;stroke-opacity:1;paint-order:markers stroke fill;stop-color:#000000"
           id="circle27477"
           cx="210.98398"
           cy="-67.611115"
           r="3" />
      </g>
    </g>
    <path
       style="fill:none;stroke:#0000ff;stroke-width:0.264583px;stroke-linecap:butt;stroke-linejoin:miter;stroke-opacity:1"
       d=""
       id="path952" />
    <path
       style="fill:none;stroke:#0000ff;stroke-width:0.264583px;stroke-linecap:butt;stroke-linejoin:miter;stroke-opacity:1"
       d=""
       id="path1032" />
    <g
       id="g2425"
       transform="rotate(-14.573281,-314.83781,-386.4536)">
      <path
         id="path2421"
         style="fill:none;stroke:#0000ff;stroke-width:0.264583px;stroke-linecap:butt;stroke-linejoin:miter;stroke-opacity:1"
         d="m 117.13112,296.36662 v 3 h 4.5 v -3 z m 13.90255,0.71635 -0.45449,2.96537 4.44806,0.68173 0.45449,-2.96538 z m 68.57548,10.51008 -0.45448,2.96537 4.44806,0.68173 0.45449,-2.96538 z m 13.63356,2.81423 -0.89847,2.8623 4.29345,1.34771 0.89847,-2.8623 z m 66.19179,20.77755 -0.89848,2.8623 4.29345,1.34771 0.89847,-2.8623 z m 13.04986,4.84716 -1.32172,2.69314 4.03972,1.98259 1.32172,-2.69315 z m 13.04003,6.39969 -1.32172,2.69315 4.03972,1.98258 1.32172,-2.69315 z" />
      <path
         id="path2423"
         style="fill:none;stroke:#000000;stroke-width:0.264583px;stroke-linecap:butt;stroke-linejoin:miter;stroke-opacity:1"
         d="m 128.03581,274.36657 -1.60972,21.12481 h -7.51117 v -3.49951 l -2.99982,-3.50007 h -2.99981 l -3.00034,3.50007 v 22.37486 h 11.84476 v 2.99982 h 2.99981 l 2.96572,0.45474 0.45423,-2.96572 73.27822,11.23085 -0.45476,2.96571 2.9652,0.45424 2.86235,0.89866 0.89866,-2.86237 70.73056,22.20227 -0.89813,2.86234 2.86184,0.89816 2.69337,1.32186 1.32188,-2.69285 18.54151,9.09971 -1.32137,2.69285 2.69286,1.32188 18.94458,-38.60178 -2.69286,-1.32189 -1.32188,2.69338 -21.27725,-10.44276 1.32136,-2.69287 -2.89801,-1.42264 -3.08043,-0.96687 -0.89866,2.86237 -76.54571,-24.02747 0.89813,-2.86237 -3.07991,-0.96687 -3.19154,-0.48937 -0.45423,2.96571 -79.30265,-12.15429 0.45423,-2.96522 z" />
    </g>
    <g
       id="g2431"
       transform="rotate(-14.573281,-488.65261,-408.67856)">
      <path
         id="path2427"
         style="fill:none;stroke:#0000ff;stroke-width:0.264583px;stroke-linecap:butt;stroke-linejoin:miter;stroke-opacity:1"
         d="m 117.13112,296.36662 v 3 h 4.5 v -3 z m 13.90255,0.71635 -0.45449,2.96537 4.44806,0.68173 0.45449,-2.96538 z m 68.57548,10.51008 -0.45448,2.96537 4.44806,0.68173 0.45449,-2.96538 z m 13.63356,2.81423 -0.89847,2.8623 4.29345,1.34771 0.89847,-2.8623 z m 66.19179,20.77755 -0.89848,2.8623 4.29345,1.34771 0.89847,-2.8623 z m 13.04986,4.84716 -1.32172,2.69314 4.03972,1.98259 1.32172,-2.69315 z m 13.04003,6.39969 -1.32172,2.69315 4.03972,1.98258 1.32172,-2.69315 z" />
      <path
         id="path2429"
         style="fill:none;stroke:#000000;stroke-width:0.264583px;stroke-linecap:butt;stroke-linejoin:miter;stroke-opacity:1"
         d="m 128.03581,274.36657 -1.60972,21.12481 h -7.51117 v -3.49951 l -2.99982,-3.50007 h -2.99981 l -3.00034,3.50007 v 22.37486 h 11.84476 v 2.99982 h 2.99981 l 2.96572,0.45474 0.45423,-2.96572 73.27822,11.23085 -0.45476,2.96571 2.9652,0.45424 2.86235,0.89866 0.89866,-2.86237 70.73056,22.20227 -0.89813,2.86234 2.86184,0.89816 2.69337,1.32186 1.32188,-2.69285 18.54151,9.09971 -1.32137,2.69285 2.69286,1.32188 18.94458,-38.60178 -2.69286,-1.32189 -1.32188,2.69338 -21.27725,-10.44276 1.32136,-2.69287 -2.89801,-1.42264 -3.08043,-0.96687 -0.89866,2.86237 -76.54571,-24.02747 0.89813,-2.86237 -3.07991,-0.96687 -3.19154,-0.48937 -0.45423,2.96571 -79.30265,-12.15429 0.45423,-2.96522 z" />
    </g>
    <g
       id="g2437"
       transform="rotate(-14.573281,-660.39823,-430.63897)">
      <path
         id="path2433"
         style="fill:none;stroke:#0000ff;stroke-width:0.264583px;stroke-linecap:butt;stroke-linejoin:miter;stroke-opacity:1"
         d="m 117.13112,296.36662 v 3 h 4.5 v -3 z m 13.90255,0.71635 -0.45449,2.96537 4.44806,0.68173 0.45449,-2.96538 z m 68.57548,10.51008 -0.45448,2.96537 4.44806,0.68173 0.45449,-2.96538 z m 13.63356,2.81423 -0.89847,2.8623 4.29345,1.34771 0.89847,-2.8623 z m 66.19179,20.77755 -0.89848,2.8623 4.29345,1.34771 0.89847,-2.8623 z m 13.04986,4.84716 -1.32172,2.69314 4.03972,1.98259 1.32172,-2.69315 z m 13.04003,6.39969 -1.32172,2.69315 4.03972,1.98258 1.32172,-2.69315 z" />
      <path
         id="path2435"
         style="fill:none;stroke:#000000;stroke-width:0.264583px;stroke-linecap:butt;stroke-linejoin:miter;stroke-opacity:1"
         d="m 128.03581,274.36657 -1.60972,21.12481 h -7.51117 v -3.49951 l -2.99982,-3.50007 h -2.99981 l -3.00034,3.50007 v 22.37486 h 11.84476 v 2.99982 h 2.99981 l 2.96572,0.45474 0.45423,-2.96572 73.27822,11.23085 -0.45476,2.96571 2.9652,0.45424 2.86235,0.89866 0.89866,-2.86237 70.73056,22.20227 -0.89813,2.86234 2.86184,0.89816 2.69337,1.32186 1.32188,-2.69285 18.54151,9.09971 -1.32137,2.69285 2.69286,1.32188 18.94458,-38.60178 -2.69286,-1.32189 -1.32188,2.69338 -21.27725,-10.44276 1.32136,-2.69287 -2.89801,-1.42264 -3.08043,-0.96687 -0.89866,2.86237 -76.54571,-24.02747 0.89813,-2.86237 -3.07991,-0.96687 -3.19154,-0.48937 -0.45423,2.96571 -79.30265,-12.15429 0.45423,-2.96522 z" />
    </g>
    <g
       id="g2443"
       transform="rotate(-14.573281,-834.21302,-452.86393)">
      <path
         id="path2439"
         style="fill:none;stroke:#0000ff;stroke-width:0.264583px;stroke-linecap:butt;stroke-linejoin:miter;stroke-opacity:1"
         d="m 117.13112,296.36662 v 3 h 4.5 v -3 z m 13.90255,0.71635 -0.45449,2.96537 4.44806,0.68173 0.45449,-2.96538 z m 68.57548,10.51008 -0.45448,2.96537 4.44806,0.68173 0.45449,-2.96538 z m 13.63356,2.81423 -0.89847,2.8623 4.29345,1.34771 0.89847,-2.8623 z m 66.19179,20.77755 -0.89848,2.8623 4.29345,1.34771 0.89847,-2.8623 z m 13.04986,4.84716 -1.32172,2.69314 4.03972,1.98259 1.32172,-2.69315 z m 13.04003,6.39969 -1.32172,2.69315 4.03972,1.98258 1.32172,-2.69315 z" />
      <path
         id="path2441"
         style="fill:none;stroke:#000000;stroke-width:0.264583px;stroke-linecap:butt;stroke-linejoin:miter;stroke-opacity:1"
         d="m 128.03581,274.36657 -1.60972,21.12481 h -7.51117 v -3.49951 l -2.99982,-3.50007 h -2.99981 l -3.00034,3.50007 v 22.37486 h 11.84476 v 2.99982 h 2.99981 l 2.96572,0.45474 0.45423,-2.96572 73.27822,11.23085 -0.45476,2.96571 2.9652,0.45424 2.86235,0.89866 0.89866,-2.86237 70.73056,22.20227 -0.89813,2.86234 2.86184,0.89816 2.69337,1.32186 1.32188,-2.69285 18.54151,9.09971 -1.32137,2.69285 2.69286,1.32188 18.94458,-38.60178 -2.69286,-1.32189 -1.32188,2.69338 -21.27725,-10.44276 1.32136,-2.69287 -2.89801,-1.42264 -3.08043,-0.96687 -0.89866,2.86237 -76.54571,-24.02747 0.89813,-2.86237 -3.07991,-0.96687 -3.19154,-0.48937 -0.45423,2.96571 -79.30265,-12.15429 0.45423,-2.96522 z" />
    </g>
    <g
       id="g2807"
       transform="rotate(-14.573281,376.28299,-298.08289)">
      <path
         id="path2803"
         style="fill:none;stroke:#0000ff;stroke-width:0.264583px;stroke-linecap:butt;stroke-linejoin:miter;stroke-opacity:1"
         d="m 117.13112,296.36662 v 3 h 4.5 v -3 z m 13.90255,0.71635 -0.45449,2.96537 4.44806,0.68173 0.45449,-2.96538 z m 68.57548,10.51008 -0.45448,2.96537 4.44806,0.68173 0.45449,-2.96538 z m 13.63356,2.81423 -0.89847,2.8623 4.29345,1.34771 0.89847,-2.8623 z m 66.19179,20.77755 -0.89848,2.8623 4.29345,1.34771 0.89847,-2.8623 z m 13.04986,4.84716 -1.32172,2.69314 4.03972,1.98259 1.32172,-2.69315 z m 13.04003,6.39969 -1.32172,2.69315 4.03972,1.98258 1.32172,-2.69315 z" />
      <path
         id="path2805"
         style="fill:none;stroke:#000000;stroke-width:0.264583px;stroke-linecap:butt;stroke-linejoin:miter;stroke-opacity:1"
         d="m 128.03581,274.36657 -1.60972,21.12481 h -7.51117 v -3.49951 l -2.99982,-3.50007 h -2.99981 l -3.00034,3.50007 v 22.37486 h 11.84476 v 2.99982 h 2.99981 l 2.96572,0.45474 0.45423,-2.96572 73.27822,11.23085 -0.45476,2.96571 2.9652,0.45424 2.86235,0.89866 0.89866,-2.86237 70.73056,22.20227 -0.89813,2.86234 2.86184,0.89816 2.69337,1.32186 1.32188,-2.69285 18.54151,9.09971 -1.32137,2.69285 2.69286,1.32188 18.94458,-38.60178 -2.69286,-1.32189 -1.32188,2.69338 -21.27725,-10.44276 1.32136,-2.69287 -2.89801,-1.42264 -3.08043,-0.96687 -0.89866,2.86237 -76.54571,-24.02747 0.89813,-2.86237 -3.07991,-0.96687 -3.19154,-0.48937 -0.45423,2.96571 -79.30265,-12.15429 0.45423,-2.96522 z" />
    </g>
    <g
       id="g2813"
       transform="rotate(-14.573281,202.46819,-320.30785)">
      <path
         id="path2809"
         style="fill:none;stroke:#0000ff;stroke-width:0.264583px;stroke-linecap:butt;stroke-linejoin:miter;stroke-opacity:1"
         d="m 117.13112,296.36662 v 3 h 4.5 v -3 z m 13.90255,0.71635 -0.45449,2.96537 4.44806,0.68173 0.45449,-2.96538 z m 68.57548,10.51008 -0.45448,2.96537 4.44806,0.68173 0.45449,-2.96538 z m 13.63356,2.81423 -0.89847,2.8623 4.29345,1.34771 0.89847,-2.8623 z m 66.19179,20.77755 -0.89848,2.8623 4.29345,1.34771 0.89847,-2.8623 z m 13.04986,4.84716 -1.32172,2.69314 4.03972,1.98259 1.32172,-2.69315 z m 13.04003,6.39969 -1.32172,2.69315 4.03972,1.98258 1.32172,-2.69315 z" />
      <path
         id="path2811"
         style="fill:none;stroke:#000000;stroke-width:0.264583px;stroke-linecap:butt;stroke-linejoin:miter;stroke-opacity:1"
         d="m 128.03581,274.36657 -1.60972,21.12481 h -7.51117 v -3.49951 l -2.99982,-3.50007 h -2.99981 l -3.00034,3.50007 v 22.37486 h 11.84476 v 2.99982 h 2.99981 l 2.96572,0.45474 0.45423,-2.96572 73.27822,11.23085 -0.45476,2.96571 2.9652,0.45424 2.86235,0.89866 0.89866,-2.86237 70.73056,22.20227 -0.89813,2.86234 2.86184,0.89816 2.69337,1.32186 1.32188,-2.69285 18.54151,9.09971 -1.32137,2.69285 2.69286,1.32188 18.94458,-38.60178 -2.69286,-1.32189 -1.32188,2.69338 -21.27725,-10.44276 1.32136,-2.69287 -2.89801,-1.42264 -3.08043,-0.96687 -0.89866,2.86237 -76.54571,-24.02747 0.89813,-2.86237 -3.07991,-0.96687 -3.19154,-0.48937 -0.45423,2.96571 -79.30265,-12.15429 0.45423,-2.96522 z" />
    </g>
    <g
       id="g2819"
       transform="rotate(-14.573281,30.722599,-342.26826)">
      <path
         id="path2815"
         style="fill:none;stroke:#0000ff;stroke-width:0.264583px;stroke-linecap:butt;stroke-linejoin:miter;stroke-opacity:1"
         d="m 117.13112,296.36662 v 3 h 4.5 v -3 z m 13.90255,0.71635 -0.45449,2.96537 4.44806,0.68173 0.45449,-2.96538 z m 68.57548,10.51008 -0.45448,2.96537 4.44806,0.68173 0.45449,-2.96538 z m 13.63356,2.81423 -0.89847,2.8623 4.29345,1.34771 0.89847,-2.8623 z m 66.19179,20.77755 -0.89848,2.8623 4.29345,1.34771 0.89847,-2.8623 z m 13.04986,4.84716 -1.32172,2.69314 4.03972,1.98259 1.32172,-2.69315 z m 13.04003,6.39969 -1.32172,2.69315 4.03972,1.98258 1.32172,-2.69315 z" />
      <path
         id="path2817"
         style="fill:none;stroke:#000000;stroke-width:0.264583px;stroke-linecap:butt;stroke-linejoin:miter;stroke-opacity:1"
         d="m 128.03581,274.36657 -1.60972,21.12481 h -7.51117 v -3.49951 l -2.99982,-3.50007 h -2.99981 l -3.00034,3.50007 v 22.37486 h 11.84476 v 2.99982 h 2.99981 l 2.96572,0.45474 0.45423,-2.96572 73.27822,11.23085 -0.45476,2.96571 2.9652,0.45424 2.86235,0.89866 0.89866,-2.86237 70.73056,22.20227 -0.89813,2.86234 2.86184,0.89816 2.69337,1.32186 1.32188,-2.69285 18.54151,9.09971 -1.32137,2.69285 2.69286,1.32188 18.94458,-38.60178 -2.69286,-1.32189 -1.32188,2.69338 -21.27725,-10.44276 1.32136,-2.69287 -2.89801,-1.42264 -3.08043,-0.96687 -0.89866,2.86237 -76.54571,-24.02747 0.89813,-2.86237 -3.07991,-0.96687 -3.19154,-0.48937 -0.45423,2.96571 -79.30265,-12.15429 0.45423,-2.96522 z" />
    </g>
    <g
       id="g2825"
       transform="rotate(-14.573281,-143.0922,-364.49322)">
      <path
         id="path2821"
         style="fill:none;stroke:#0000ff;stroke-width:0.264583px;stroke-linecap:butt;stroke-linejoin:miter;stroke-opacity:1"
         d="m 117.13112,296.36662 v 3 h 4.5 v -3 z m 13.90255,0.71635 -0.45449,2.96537 4.44806,0.68173 0.45449,-2.96538 z m 68.57548,10.51008 -0.45448,2.96537 4.44806,0.68173 0.45449,-2.96538 z m 13.63356,2.81423 -0.89847,2.8623 4.29345,1.34771 0.89847,-2.8623 z m 66.19179,20.77755 -0.89848,2.8623 4.29345,1.34771 0.89847,-2.8623 z m 13.04986,4.84716 -1.32172,2.69314 4.03972,1.98259 1.32172,-2.69315 z m 13.04003,6.39969 -1.32172,2.69315 4.03972,1.98258 1.32172,-2.69315 z" />
      <path
         id="path2823"
         style="fill:none;stroke:#000000;stroke-width:0.264583px;stroke-linecap:butt;stroke-linejoin:miter;stroke-opacity:1"
         d="m 128.03581,274.36657 -1.60972,21.12481 h -7.51117 v -3.49951 l -2.99982,-3.50007 h -2.99981 l -3.00034,3.50007 v 22.37486 h 11.84476 v 2.99982 h 2.99981 l 2.96572,0.45474 0.45423,-2.96572 73.27822,11.23085 -0.45476,2.96571 2.9652,0.45424 2.86235,0.89866 0.89866,-2.86237 70.73056,22.20227 -0.89813,2.86234 2.86184,0.89816 2.69337,1.32186 1.32188,-2.69285 18.54151,9.09971 -1.32137,2.69285 2.69286,1.32188 18.94458,-38.60178 -2.69286,-1.32189 -1.32188,2.69338 -21.27725,-10.44276 1.32136,-2.69287 -2.89801,-1.42264 -3.08043,-0.96687 -0.89866,2.86237 -76.54571,-24.02747 0.89813,-2.86237 -3.07991,-0.96687 -3.19154,-0.48937 -0.45423,2.96571 -79.30265,-12.15429 0.45423,-2.96522 z" />
    </g>
    <g
       id="g5289"
       transform="rotate(90,-310.58007,1612.5984)" />
    <g
       id="g5829"
       transform="rotate(-14.573281,-423.31684,461.92824)">
      <path
         id="path5825"
         style="fill:none;stroke:#0000ff;stroke-width:0.264583px;stroke-linecap:butt;stroke-linejoin:miter;stroke-opacity:1"
         d="m 117.13112,296.36662 v 3 h 4.5 v -3 z m 13.90255,0.71635 -0.45449,2.96537 4.44806,0.68173 0.45449,-2.96538 z m 68.57548,10.51008 -0.45448,2.96537 4.44806,0.68173 0.45449,-2.96538 z m 13.63356,2.81423 -0.89847,2.8623 4.29345,1.34771 0.89847,-2.8623 z m 66.19179,20.77755 -0.89848,2.8623 4.29345,1.34771 0.89847,-2.8623 z m 13.04986,4.84716 -1.32172,2.69314 4.03972,1.98259 1.32172,-2.69315 z m 13.04003,6.39969 -1.32172,2.69315 4.03972,1.98258 1.32172,-2.69315 z" />
      <path
         id="path5827"
         style="fill:none;stroke:#000000;stroke-width:0.264583px;stroke-linecap:butt;stroke-linejoin:miter;stroke-opacity:1"
         d="m 128.03581,274.36657 -1.60972,21.12481 h -7.51117 v -3.49951 l -2.99982,-3.50007 h -2.99981 l -3.00034,3.50007 v 22.37486 h 11.84476 v 2.99982 h 2.99981 l 2.96572,0.45474 0.45423,-2.96572 73.27822,11.23085 -0.45476,2.96571 2.9652,0.45424 2.86235,0.89866 0.89866,-2.86237 70.73056,22.20227 -0.89813,2.86234 2.86184,0.89816 2.69337,1.32186 1.32188,-2.69285 18.54151,9.09971 -1.32137,2.69285 2.69286,1.32188 18.94458,-38.60178 -2.69286,-1.32189 -1.32188,2.69338 -21.27725,-10.44276 1.32136,-2.69287 -2.89801,-1.42264 -3.08043,-0.96687 -0.89866,2.86237 -76.54571,-24.02747 0.89813,-2.86237 -3.07991,-0.96687 -3.19154,-0.48937 -0.45423,2.96571 -79.30265,-12.15429 0.45423,-2.96522 z" />
    </g>
    <g
       id="g5835"
       transform="rotate(-14.573281,-597.13164,439.70327)">
      <path
         id="path5831"
         style="fill:none;stroke:#0000ff;stroke-width:0.264583px;stroke-linecap:butt;stroke-linejoin:miter;stroke-opacity:1"
         d="m 117.13112,296.36662 v 3 h 4.5 v -3 z m 13.90255,0.71635 -0.45449,2.96537 4.44806,0.68173 0.45449,-2.96538 z m 68.57548,10.51008 -0.45448,2.96537 4.44806,0.68173 0.45449,-2.96538 z m 13.63356,2.81423 -0.89847,2.8623 4.29345,1.34771 0.89847,-2.8623 z m 66.19179,20.77755 -0.89848,2.8623 4.29345,1.34771 0.89847,-2.8623 z m 13.04986,4.84716 -1.32172,2.69314 4.03972,1.98259 1.32172,-2.69315 z m 13.04003,6.39969 -1.32172,2.69315 4.03972,1.98258 1.32172,-2.69315 z" />
      <path
         id="path5833"
         style="fill:none;stroke:#000000;stroke-width:0.264583px;stroke-linecap:butt;stroke-linejoin:miter;stroke-opacity:1"
         d="m 128.03581,274.36657 -1.60972,21.12481 h -7.51117 v -3.49951 l -2.99982,-3.50007 h -2.99981 l -3.00034,3.50007 v 22.37486 h 11.84476 v 2.99982 h 2.99981 l 2.96572,0.45474 0.45423,-2.96572 73.27822,11.23085 -0.45476,2.96571 2.9652,0.45424 2.86235,0.89866 0.89866,-2.86237 70.73056,22.20227 -0.89813,2.86234 2.86184,0.89816 2.69337,1.32186 1.32188,-2.69285 18.54151,9.09971 -1.32137,2.69285 2.69286,1.32188 18.94458,-38.60178 -2.69286,-1.32189 -1.32188,2.69338 -21.27725,-10.44276 1.32136,-2.69287 -2.89801,-1.42264 -3.08043,-0.96687 -0.89866,2.86237 -76.54571,-24.02747 0.89813,-2.86237 -3.07991,-0.96687 -3.19154,-0.48937 -0.45423,2.96571 -79.30265,-12.15429 0.45423,-2.96522 z" />
    </g>
    <g
       id="g5841"
       transform="rotate(-14.573281,-768.87726,417.74286)">
      <path
         id="path5837"
         style="fill:none;stroke:#0000ff;stroke-width:0.264583px;stroke-linecap:butt;stroke-linejoin:miter;stroke-opacity:1"
         d="m 117.13112,296.36662 v 3 h 4.5 v -3 z m 13.90255,0.71635 -0.45449,2.96537 4.44806,0.68173 0.45449,-2.96538 z m 68.57548,10.51008 -0.45448,2.96537 4.44806,0.68173 0.45449,-2.96538 z m 13.63356,2.81423 -0.89847,2.8623 4.29345,1.34771 0.89847,-2.8623 z m 66.19179,20.77755 -0.89848,2.8623 4.29345,1.34771 0.89847,-2.8623 z m 13.04986,4.84716 -1.32172,2.69314 4.03972,1.98259 1.32172,-2.69315 z m 13.04003,6.39969 -1.32172,2.69315 4.03972,1.98258 1.32172,-2.69315 z" />
      <path
         id="path5839"
         style="fill:none;stroke:#000000;stroke-width:0.264583px;stroke-linecap:butt;stroke-linejoin:miter;stroke-opacity:1"
         d="m 128.03581,274.36657 -1.60972,21.12481 h -7.51117 v -3.49951 l -2.99982,-3.50007 h -2.99981 l -3.00034,3.50007 v 22.37486 h 11.84476 v 2.99982 h 2.99981 l 2.96572,0.45474 0.45423,-2.96572 73.27822,11.23085 -0.45476,2.96571 2.9652,0.45424 2.86235,0.89866 0.89866,-2.86237 70.73056,22.20227 -0.89813,2.86234 2.86184,0.89816 2.69337,1.32186 1.32188,-2.69285 18.54151,9.09971 -1.32137,2.69285 2.69286,1.32188 18.94458,-38.60178 -2.69286,-1.32189 -1.32188,2.69338 -21.27725,-10.44276 1.32136,-2.69287 -2.89801,-1.42264 -3.08043,-0.96687 -0.89866,2.86237 -76.54571,-24.02747 0.89813,-2.86237 -3.07991,-0.96687 -3.19154,-0.48937 -0.45423,2.96571 -79.30265,-12.15429 0.45423,-2.96522 z" />
    </g>
    <g
       id="g5847"
       transform="rotate(-14.573281,-942.69205,395.5179)">
      <path
         id="path5843"
         style="fill:none;stroke:#0000ff;stroke-width:0.264583px;stroke-linecap:butt;stroke-linejoin:miter;stroke-opacity:1"
         d="m 117.13112,296.36662 v 3 h 4.5 v -3 z m 13.90255,0.71635 -0.45449,2.96537 4.44806,0.68173 0.45449,-2.96538 z m 68.57548,10.51008 -0.45448,2.96537 4.44806,0.68173 0.45449,-2.96538 z m 13.63356,2.81423 -0.89847,2.8623 4.29345,1.34771 0.89847,-2.8623 z m 66.19179,20.77755 -0.89848,2.8623 4.29345,1.34771 0.89847,-2.8623 z m 13.04986,4.84716 -1.32172,2.69314 4.03972,1.98259 1.32172,-2.69315 z m 13.04003,6.39969 -1.32172,2.69315 4.03972,1.98258 1.32172,-2.69315 z" />
      <path
         id="path5845"
         style="fill:none;stroke:#000000;stroke-width:0.264583px;stroke-linecap:butt;stroke-linejoin:miter;stroke-opacity:1"
         d="m 128.03581,274.36657 -1.60972,21.12481 h -7.51117 v -3.49951 l -2.99982,-3.50007 h -2.99981 l -3.00034,3.50007 v 22.37486 h 11.84476 v 2.99982 h 2.99981 l 2.96572,0.45474 0.45423,-2.96572 73.27822,11.23085 -0.45476,2.96571 2.9652,0.45424 2.86235,0.89866 0.89866,-2.86237 70.73056,22.20227 -0.89813,2.86234 2.86184,0.89816 2.69337,1.32186 1.32188,-2.69285 18.54151,9.09971 -1.32137,2.69285 2.69286,1.32188 18.94458,-38.60178 -2.69286,-1.32189 -1.32188,2.69338 -21.27725,-10.44276 1.32136,-2.69287 -2.89801,-1.42264 -3.08043,-0.96687 -0.89866,2.86237 -76.54571,-24.02747 0.89813,-2.86237 -3.07991,-0.96687 -3.19154,-0.48937 -0.45423,2.96571 -79.30265,-12.15429 0.45423,-2.96522 z" />
    </g>
    <g
       id="g5853"
       transform="rotate(-14.573281,267.80396,550.29895)">
      <path
         id="path5849"
         style="fill:none;stroke:#0000ff;stroke-width:0.264583px;stroke-linecap:butt;stroke-linejoin:miter;stroke-opacity:1"
         d="m 117.13112,296.36662 v 3 h 4.5 v -3 z m 13.90255,0.71635 -0.45449,2.96537 4.44806,0.68173 0.45449,-2.96538 z m 68.57548,10.51008 -0.45448,2.96537 4.44806,0.68173 0.45449,-2.96538 z m 13.63356,2.81423 -0.89847,2.8623 4.29345,1.34771 0.89847,-2.8623 z m 66.19179,20.77755 -0.89848,2.8623 4.29345,1.34771 0.89847,-2.8623 z m 13.04986,4.84716 -1.32172,2.69314 4.03972,1.98259 1.32172,-2.69315 z m 13.04003,6.39969 -1.32172,2.69315 4.03972,1.98258 1.32172,-2.69315 z" />
      <path
         id="path5851"
         style="fill:none;stroke:#000000;stroke-width:0.264583px;stroke-linecap:butt;stroke-linejoin:miter;stroke-opacity:1"
         d="m 128.03581,274.36657 -1.60972,21.12481 h -7.51117 v -3.49951 l -2.99982,-3.50007 h -2.99981 l -3.00034,3.50007 v 22.37486 h 11.84476 v 2.99982 h 2.99981 l 2.96572,0.45474 0.45423,-2.96572 73.27822,11.23085 -0.45476,2.96571 2.9652,0.45424 2.86235,0.89866 0.89866,-2.86237 70.73056,22.20227 -0.89813,2.86234 2.86184,0.89816 2.69337,1.32186 1.32188,-2.69285 18.54151,9.09971 -1.32137,2.69285 2.69286,1.32188 18.94458,-38.60178 -2.69286,-1.32189 -1.32188,2.69338 -21.27725,-10.44276 1.32136,-2.69287 -2.89801,-1.42264 -3.08043,-0.96687 -0.89866,2.86237 -76.54571,-24.02747 0.89813,-2.86237 -3.07991,-0.96687 -3.19154,-0.48937 -0.45423,2.96571 -79.30265,-12.15429 0.45423,-2.96522 z" />
    </g>
    <g
       id="g5859"
       transform="rotate(-14.573281,93.98916,528.07399)">
      <path
         id="path5855"
         style="fill:none;stroke:#0000ff;stroke-width:0.264583px;stroke-linecap:butt;stroke-linejoin:miter;stroke-opacity:1"
         d="m 117.13112,296.36662 v 3 h 4.5 v -3 z m 13.90255,0.71635 -0.45449,2.96537 4.44806,0.68173 0.45449,-2.96538 z m 68.57548,10.51008 -0.45448,2.96537 4.44806,0.68173 0.45449,-2.96538 z m 13.63356,2.81423 -0.89847,2.8623 4.29345,1.34771 0.89847,-2.8623 z m 66.19179,20.77755 -0.89848,2.8623 4.29345,1.34771 0.89847,-2.8623 z m 13.04986,4.84716 -1.32172,2.69314 4.03972,1.98259 1.32172,-2.69315 z m 13.04003,6.39969 -1.32172,2.69315 4.03972,1.98258 1.32172,-2.69315 z" />
      <path
         id="path5857"
         style="fill:none;stroke:#000000;stroke-width:0.264583px;stroke-linecap:butt;stroke-linejoin:miter;stroke-opacity:1"
         d="m 128.03581,274.36657 -1.60972,21.12481 h -7.51117 v -3.49951 l -2.99982,-3.50007 h -2.99981 l -3.00034,3.50007 v 22.37486 h 11.84476 v 2.99982 h 2.99981 l 2.96572,0.45474 0.45423,-2.96572 73.27822,11.23085 -0.45476,2.96571 2.9652,0.45424 2.86235,0.89866 0.89866,-2.86237 70.73056,22.20227 -0.89813,2.86234 2.86184,0.89816 2.69337,1.32186 1.32188,-2.69285 18.54151,9.09971 -1.32137,2.69285 2.69286,1.32188 18.94458,-38.60178 -2.69286,-1.32189 -1.32188,2.69338 -21.27725,-10.44276 1.32136,-2.69287 -2.89801,-1.42264 -3.08043,-0.96687 -0.89866,2.86237 -76.54571,-24.02747 0.89813,-2.86237 -3.07991,-0.96687 -3.19154,-0.48937 -0.45423,2.96571 -79.30265,-12.15429 0.45423,-2.96522 z" />
    </g>
    <g
       id="g5865"
       transform="rotate(-14.573281,-77.756557,506.11359)">
      <path
         id="path5861"
         style="fill:none;stroke:#0000ff;stroke-width:0.264583px;stroke-linecap:butt;stroke-linejoin:miter;stroke-opacity:1"
         d="m 117.13112,296.36662 v 3 h 4.5 v -3 z m 13.90255,0.71635 -0.45449,2.96537 4.44806,0.68173 0.45449,-2.96538 z m 68.57548,10.51008 -0.45448,2.96537 4.44806,0.68173 0.45449,-2.96538 z m 13.63356,2.81423 -0.89847,2.8623 4.29345,1.34771 0.89847,-2.8623 z m 66.19179,20.77755 -0.89848,2.8623 4.29345,1.34771 0.89847,-2.8623 z m 13.04986,4.84716 -1.32172,2.69314 4.03972,1.98259 1.32172,-2.69315 z m 13.04003,6.39969 -1.32172,2.69315 4.03972,1.98258 1.32172,-2.69315 z" />
      <path
         id="path5863"
         style="fill:none;stroke:#000000;stroke-width:0.264583px;stroke-linecap:butt;stroke-linejoin:miter;stroke-opacity:1"
         d="m 128.03581,274.36657 -1.60972,21.12481 h -7.51117 v -3.49951 l -2.99982,-3.50007 h -2.99981 l -3.00034,3.50007 v 22.37486 h 11.84476 v 2.99982 h 2.99981 l 2.96572,0.45474 0.45423,-2.96572 73.27822,11.23085 -0.45476,2.96571 2.9652,0.45424 2.86235,0.89866 0.89866,-2.86237 70.73056,22.20227 -0.89813,2.86234 2.86184,0.89816 2.69337,1.32186 1.32188,-2.69285 18.54151,9.09971 -1.32137,2.69285 2.69286,1.32188 18.94458,-38.60178 -2.69286,-1.32189 -1.32188,2.69338 -21.27725,-10.44276 1.32136,-2.69287 -2.89801,-1.42264 -3.08043,-0.96687 -0.89866,2.86237 -76.54571,-24.02747 0.89813,-2.86237 -3.07991,-0.96687 -3.19154,-0.48937 -0.45423,2.96571 -79.30265,-12.15429 0.45423,-2.96522 z" />
    </g>
    <g
       id="g5871"
       transform="rotate(-14.573281,-251.57126,483.88862)">
      <path
         id="path5867"
         style="fill:none;stroke:#0000ff;stroke-width:0.264583px;stroke-linecap:butt;stroke-linejoin:miter;stroke-opacity:1"
         d="m 117.13112,296.36662 v 3 h 4.5 v -3 z m 13.90255,0.71635 -0.45449,2.96537 4.44806,0.68173 0.45449,-2.96538 z m 68.57548,10.51008 -0.45448,2.96537 4.44806,0.68173 0.45449,-2.96538 z m 13.63356,2.81423 -0.89847,2.8623 4.29345,1.34771 0.89847,-2.8623 z m 66.19179,20.77755 -0.89848,2.8623 4.29345,1.34771 0.89847,-2.8623 z m 13.04986,4.84716 -1.32172,2.69314 4.03972,1.98259 1.32172,-2.69315 z m 13.04003,6.39969 -1.32172,2.69315 4.03972,1.98258 1.32172,-2.69315 z" />
      <path
         id="path5869"
         style="fill:none;stroke:#000000;stroke-width:0.264583px;stroke-linecap:butt;stroke-linejoin:miter;stroke-opacity:1"
         d="m 128.03581,274.36657 -1.60972,21.12481 h -7.51117 v -3.49951 l -2.99982,-3.50007 h -2.99981 l -3.00034,3.50007 v 22.37486 h 11.84476 v 2.99982 h 2.99981 l 2.96572,0.45474 0.45423,-2.96572 73.27822,11.23085 -0.45476,2.96571 2.9652,0.45424 2.86235,0.89866 0.89866,-2.86237 70.73056,22.20227 -0.89813,2.86234 2.86184,0.89816 2.69337,1.32186 1.32188,-2.69285 18.54151,9.09971 -1.32137,2.69285 2.69286,1.32188 18.94458,-38.60178 -2.69286,-1.32189 -1.32188,2.69338 -21.27725,-10.44276 1.32136,-2.69287 -2.89801,-1.42264 -3.08043,-0.96687 -0.89866,2.86237 -76.54571,-24.02747 0.89813,-2.86237 -3.07991,-0.96687 -3.19154,-0.48937 -0.45423,2.96571 -79.30265,-12.15429 0.45423,-2.96522 z" />
    </g>
  </g>
  <g
     id="g941"
     transform="translate(-0.4552025,23.827198)" />
</svg>
