<?xml version="1.0" encoding="UTF-8" standalone="no"?>
<svg
   xmlns:dc="http://purl.org/dc/elements/1.1/"
   xmlns:cc="http://creativecommons.org/ns#"
   xmlns:rdf="http://www.w3.org/1999/02/22-rdf-syntax-ns#"
   xmlns:svg="http://www.w3.org/2000/svg"
   xmlns="http://www.w3.org/2000/svg"
   xmlns:xlink="http://www.w3.org/1999/xlink"
   xmlns:sodipodi="http://sodipodi.sourceforge.net/DTD/sodipodi-0.dtd"
   xmlns:inkscape="http://www.inkscape.org/namespaces/inkscape"
   width="600mm"
   height="400mm"
   viewBox="0 0 600 400"
   version="1.1"
   id="svg8"
   inkscape:version="1.0.2 (e86c870879, 2021-01-15)"
   sodipodi:docname="1_8x_big_arc.svg">
  <metadata
     id="metadata1033">
    <rdf:RDF>
      <cc:Work
         rdf:about="">
        <dc:format>image/svg+xml</dc:format>
        <dc:type
           rdf:resource="http://purl.org/dc/dcmitype/StillImage" />
        <dc:title></dc:title>
      </cc:Work>
    </rdf:RDF>
  </metadata>
  <defs
     id="defs1031" />
  <sodipodi:namedview
     id="base"
     pagecolor="#ffffff"
     bordercolor="#666666"
     borderopacity="1.0"
     inkscape:pageopacity="0.0"
     inkscape:pageshadow="2"
     inkscape:zoom="0.0875"
     inkscape:cx="1416.8693"
     inkscape:cy="2283.7401"
     inkscape:document-units="mm"
     inkscape:current-layer="g1096"
     inkscape:document-rotation="0"
     showgrid="false"
     showguides="true"
     inkscape:guide-bbox="true"
     inkscape:snap-center="true"
     inkscape:snap-intersection-paths="true"
     inkscape:snap-midpoints="true"
     inkscape:window-width="1364"
     inkscape:window-height="750"
     inkscape:window-x="1"
     inkscape:window-y="17"
     inkscape:window-maximized="0"
     inkscape:object-paths="true"
     inkscape:snap-smooth-nodes="true"
     inkscape:snap-global="true"
     inkscape:snap-bbox="true"
     inkscape:snap-bbox-edge-midpoints="false" />
  <g
     inkscape:label="test1"
     inkscape:groupmode="layer"
     id="g1096"
     style="display:inline">
    <path
       style="fill:none;stroke:#0000ff;stroke-width:0.264583px;stroke-linecap:butt;stroke-linejoin:miter;stroke-opacity:1"
       d=""
       id="path952" />
    <path
       id="path984"
       style="fill:none;stroke:#000000;stroke-width:0.264583px;stroke-linecap:butt;stroke-linejoin:miter;stroke-opacity:1"
       d="m 29.177025,1.12498 v 15.00013 h 4.999694 v -2.99982 h 25.999964 v 2.99982 H 79.189992 V 1.12498 h -23.39392 v 2.5001 c 0,2.7700302 -2.230212,5.0002302 -5.000212,5.0002302 h -9.999906 c -2.77,0 -5.000213,-2.2302 -5.000213,-5.0002302 v -2.5001 z" />
    <path
       id="path986"
       style="fill:none;stroke:#000000;stroke-width:0.264583px;stroke-linecap:butt;stroke-linejoin:miter;stroke-opacity:1"
       d="M 0,0 V 16.12511 H 25.472863 L 26.701728,0 H 2.9998169 Z" />
    <g
       id="g1115"
       transform="rotate(26.181152,525.23071,521.00497)">
      <path
         id="path1002"
         style="fill:none;stroke:#000000;stroke-width:0.999999px;stroke-linecap:butt;stroke-linejoin:miter;stroke-opacity:1"
         d="m 1325.5449,264.56641 -12.0605,1.84961 1.7168,11.20703 -299.7246,45.9375 -1.7188,-11.20899 -12.0605,1.84961 -11.64261,3.6543 3.39453,10.81836 -289.30664,90.8125 -3.39649,-10.81836 -11.64062,3.65625 -10.95508,5.375 4.99609,10.17969 -272.21093,133.59375 -4.9961,-10.17969 -10.95312,5.37695 -10.01367,6.97266 6.47851,9.30469 -248.83008,173.28906 -6.47851,-9.30469 -10.01367,6.97461 -8.8418,8.41016 7.81445,8.21484 -219.705076,208.98633 -7.814454,-8.21485 -8.8418,8.41016 -7.46484,9.65234 8.96875,6.93555 -16.85937,21.79882 -8.96875,-6.9375 -6.9375,8.9688 65.773433,50.8691 10.40625,-13.4531 8.96875,6.9375 -10.404297,13.4531 53.8125,41.6211 6.9375002,-8.9688 -8.9687502,-6.9375 9.8125002,-12.6855 8.96875,6.9355 6.9355469,-8.9687 8.2167969,-7.8145 -7.814453,-8.2148 203.013673,-193.10938 7.81445,8.21485 8.2168,-7.81446 9.30469,-6.48047 -6.48047,-9.30468 229.92578,-160.125 6.48047,9.30468 9.30468,-6.47851 10.17774,-4.9961 -4.99414,-10.17968 251.5293,-123.44336 4.99609,10.17773 10.17969,-4.99414 10.81836,-3.39648 -3.39649,-10.81836 267.32813,-83.91406 3.3965,10.81835 10.8183,-3.39648 11.2071,-1.7168 -1.7168,-11.20898 276.9551,-42.44727 1.7168,11.20899 11.2089,-1.71875 h 11.3379 v -11.33789 h 16.0391 v 11.33789 h 11.3379 V 347.7168 h -3.7793 v -56.75196 h -11.3379 l -11.3399,13.22852 v 13.22852 h -20.6132 z"
         transform="scale(0.26458333)" />
      <path
         style="fill:none;stroke:#0000ff;stroke-width:0.264583px;stroke-linecap:butt;stroke-linejoin:miter;stroke-opacity:1"
         d="m 347.71943,92.716349 0.45448,2.965374 -4.44806,0.681723 -0.45448,-2.965374 z m -68.57549,10.510081 0.45449,2.96537 -4.44806,0.68173 -0.45449,-2.96538 z m -13.63356,2.81423 0.89848,2.8623 -4.29345,1.34771 -0.89847,-2.8623 z m -66.19178,20.77755 0.89847,2.8623 -4.29344,1.34771 -0.89848,-2.8623 z m -13.04987,4.84716 1.32173,2.69314 -4.03972,1.98259 -1.32173,-2.69315 z m -62.28013,30.5654 1.32172,2.69314 -4.03972,1.98259 -1.32172,-2.69315 z m -12.16493,6.76818 1.71446,2.46183 -3.69274,2.5717 -1.71447,-2.46183 z m -56.93084,39.64768 1.71447,2.46184 -3.69275,2.57169 -1.71446,-2.46183 z m -10.99918,8.53299 2.06762,2.17368 -3.26052,3.10145 -2.06763,-2.17369 z m -50.26737,47.81476 2.06763,2.17368 -3.26053,3.10145 -2.06763,-2.17369 z"
         id="path1004" />
    </g>
    <path
       style="fill:none;stroke:#0000ff;stroke-width:0.264583px;stroke-linecap:butt;stroke-linejoin:miter;stroke-opacity:1"
       d=""
       id="path1032" />
    <g
       id="g2359"
       transform="rotate(26.181152,430.79106,542.96535)">
      <path
         id="path2355"
         style="fill:none;stroke:#000000;stroke-width:0.999999px;stroke-linecap:butt;stroke-linejoin:miter;stroke-opacity:1"
         d="m 1325.5449,264.56641 -12.0605,1.84961 1.7168,11.20703 -299.7246,45.9375 -1.7188,-11.20899 -12.0605,1.84961 -11.64261,3.6543 3.39453,10.81836 -289.30664,90.8125 -3.39649,-10.81836 -11.64062,3.65625 -10.95508,5.375 4.99609,10.17969 -272.21093,133.59375 -4.9961,-10.17969 -10.95312,5.37695 -10.01367,6.97266 6.47851,9.30469 -248.83008,173.28906 -6.47851,-9.30469 -10.01367,6.97461 -8.8418,8.41016 7.81445,8.21484 -219.705076,208.98633 -7.814454,-8.21485 -8.8418,8.41016 -7.46484,9.65234 8.96875,6.93555 -16.85937,21.79882 -8.96875,-6.9375 -6.9375,8.9688 65.773433,50.8691 10.40625,-13.4531 8.96875,6.9375 -10.404297,13.4531 53.8125,41.6211 6.9375002,-8.9688 -8.9687502,-6.9375 9.8125002,-12.6855 8.96875,6.9355 6.9355469,-8.9687 8.2167969,-7.8145 -7.814453,-8.2148 203.013673,-193.10938 7.81445,8.21485 8.2168,-7.81446 9.30469,-6.48047 -6.48047,-9.30468 229.92578,-160.125 6.48047,9.30468 9.30468,-6.47851 10.17774,-4.9961 -4.99414,-10.17968 251.5293,-123.44336 4.99609,10.17773 10.17969,-4.99414 10.81836,-3.39648 -3.39649,-10.81836 267.32813,-83.91406 3.3965,10.81835 10.8183,-3.39648 11.2071,-1.7168 -1.7168,-11.20898 276.9551,-42.44727 1.7168,11.20899 11.2089,-1.71875 h 11.3379 v -11.33789 h 16.0391 v 11.33789 h 11.3379 V 347.7168 h -3.7793 v -56.75196 h -11.3379 l -11.3399,13.22852 v 13.22852 h -20.6132 z"
         transform="scale(0.26458333)" />
      <path
         style="fill:none;stroke:#0000ff;stroke-width:0.264583px;stroke-linecap:butt;stroke-linejoin:miter;stroke-opacity:1"
         d="m 347.71943,92.716349 0.45448,2.965374 -4.44806,0.681723 -0.45448,-2.965374 z m -68.57549,10.510081 0.45449,2.96537 -4.44806,0.68173 -0.45449,-2.96538 z m -13.63356,2.81423 0.89848,2.8623 -4.29345,1.34771 -0.89847,-2.8623 z m -66.19178,20.77755 0.89847,2.8623 -4.29344,1.34771 -0.89848,-2.8623 z m -13.04987,4.84716 1.32173,2.69314 -4.03972,1.98259 -1.32173,-2.69315 z m -62.28013,30.5654 1.32172,2.69314 -4.03972,1.98259 -1.32172,-2.69315 z m -12.16493,6.76818 1.71446,2.46183 -3.69274,2.5717 -1.71447,-2.46183 z m -56.93084,39.64768 1.71447,2.46184 -3.69275,2.57169 -1.71446,-2.46183 z m -10.99918,8.53299 2.06762,2.17368 -3.26052,3.10145 -2.06763,-2.17369 z m -50.26737,47.81476 2.06763,2.17368 -3.26053,3.10145 -2.06763,-2.17369 z"
         id="path2357" />
    </g>
    <g
       id="g2365"
       transform="rotate(26.181152,336.35144,564.92576)">
      <path
         id="path2361"
         style="fill:none;stroke:#000000;stroke-width:0.999999px;stroke-linecap:butt;stroke-linejoin:miter;stroke-opacity:1"
         d="m 1325.5449,264.56641 -12.0605,1.84961 1.7168,11.20703 -299.7246,45.9375 -1.7188,-11.20899 -12.0605,1.84961 -11.64261,3.6543 3.39453,10.81836 -289.30664,90.8125 -3.39649,-10.81836 -11.64062,3.65625 -10.95508,5.375 4.99609,10.17969 -272.21093,133.59375 -4.9961,-10.17969 -10.95312,5.37695 -10.01367,6.97266 6.47851,9.30469 -248.83008,173.28906 -6.47851,-9.30469 -10.01367,6.97461 -8.8418,8.41016 7.81445,8.21484 -219.705076,208.98633 -7.814454,-8.21485 -8.8418,8.41016 -7.46484,9.65234 8.96875,6.93555 -16.85937,21.79882 -8.96875,-6.9375 -6.9375,8.9688 65.773433,50.8691 10.40625,-13.4531 8.96875,6.9375 -10.404297,13.4531 53.8125,41.6211 6.9375002,-8.9688 -8.9687502,-6.9375 9.8125002,-12.6855 8.96875,6.9355 6.9355469,-8.9687 8.2167969,-7.8145 -7.814453,-8.2148 203.013673,-193.10938 7.81445,8.21485 8.2168,-7.81446 9.30469,-6.48047 -6.48047,-9.30468 229.92578,-160.125 6.48047,9.30468 9.30468,-6.47851 10.17774,-4.9961 -4.99414,-10.17968 251.5293,-123.44336 4.99609,10.17773 10.17969,-4.99414 10.81836,-3.39648 -3.39649,-10.81836 267.32813,-83.91406 3.3965,10.81835 10.8183,-3.39648 11.2071,-1.7168 -1.7168,-11.20898 276.9551,-42.44727 1.7168,11.20899 11.2089,-1.71875 h 11.3379 v -11.33789 h 16.0391 v 11.33789 h 11.3379 V 347.7168 h -3.7793 v -56.75196 h -11.3379 l -11.3399,13.22852 v 13.22852 h -20.6132 z"
         transform="scale(0.26458333)" />
      <path
         style="fill:none;stroke:#0000ff;stroke-width:0.264583px;stroke-linecap:butt;stroke-linejoin:miter;stroke-opacity:1"
         d="m 347.71943,92.716349 0.45448,2.965374 -4.44806,0.681723 -0.45448,-2.965374 z m -68.57549,10.510081 0.45449,2.96537 -4.44806,0.68173 -0.45449,-2.96538 z m -13.63356,2.81423 0.89848,2.8623 -4.29345,1.34771 -0.89847,-2.8623 z m -66.19178,20.77755 0.89847,2.8623 -4.29344,1.34771 -0.89848,-2.8623 z m -13.04987,4.84716 1.32173,2.69314 -4.03972,1.98259 -1.32173,-2.69315 z m -62.28013,30.5654 1.32172,2.69314 -4.03972,1.98259 -1.32172,-2.69315 z m -12.16493,6.76818 1.71446,2.46183 -3.69274,2.5717 -1.71447,-2.46183 z m -56.93084,39.64768 1.71447,2.46184 -3.69275,2.57169 -1.71446,-2.46183 z m -10.99918,8.53299 2.06762,2.17368 -3.26052,3.10145 -2.06763,-2.17369 z m -50.26737,47.81476 2.06763,2.17368 -3.26053,3.10145 -2.06763,-2.17369 z"
         id="path2363" />
    </g>
    <g
       id="g2371"
       transform="rotate(26.181152,241.91179,586.88614)">
      <path
         id="path2367"
         style="fill:none;stroke:#000000;stroke-width:0.999999px;stroke-linecap:butt;stroke-linejoin:miter;stroke-opacity:1"
         d="m 1325.5449,264.56641 -12.0605,1.84961 1.7168,11.20703 -299.7246,45.9375 -1.7188,-11.20899 -12.0605,1.84961 -11.64261,3.6543 3.39453,10.81836 -289.30664,90.8125 -3.39649,-10.81836 -11.64062,3.65625 -10.95508,5.375 4.99609,10.17969 -272.21093,133.59375 -4.9961,-10.17969 -10.95312,5.37695 -10.01367,6.97266 6.47851,9.30469 -248.83008,173.28906 -6.47851,-9.30469 -10.01367,6.97461 -8.8418,8.41016 7.81445,8.21484 -219.705076,208.98633 -7.814454,-8.21485 -8.8418,8.41016 -7.46484,9.65234 8.96875,6.93555 -16.85937,21.79882 -8.96875,-6.9375 -6.9375,8.9688 65.773433,50.8691 10.40625,-13.4531 8.96875,6.9375 -10.404297,13.4531 53.8125,41.6211 6.9375002,-8.9688 -8.9687502,-6.9375 9.8125002,-12.6855 8.96875,6.9355 6.9355469,-8.9687 8.2167969,-7.8145 -7.814453,-8.2148 203.013673,-193.10938 7.81445,8.21485 8.2168,-7.81446 9.30469,-6.48047 -6.48047,-9.30468 229.92578,-160.125 6.48047,9.30468 9.30468,-6.47851 10.17774,-4.9961 -4.99414,-10.17968 251.5293,-123.44336 4.99609,10.17773 10.17969,-4.99414 10.81836,-3.39648 -3.39649,-10.81836 267.32813,-83.91406 3.3965,10.81835 10.8183,-3.39648 11.2071,-1.7168 -1.7168,-11.20898 276.9551,-42.44727 1.7168,11.20899 11.2089,-1.71875 h 11.3379 v -11.33789 h 16.0391 v 11.33789 h 11.3379 V 347.7168 h -3.7793 v -56.75196 h -11.3379 l -11.3399,13.22852 v 13.22852 h -20.6132 z"
         transform="scale(0.26458333)" />
      <path
         style="fill:none;stroke:#0000ff;stroke-width:0.264583px;stroke-linecap:butt;stroke-linejoin:miter;stroke-opacity:1"
         d="m 347.71943,92.716349 0.45448,2.965374 -4.44806,0.681723 -0.45448,-2.965374 z m -68.57549,10.510081 0.45449,2.96537 -4.44806,0.68173 -0.45449,-2.96538 z m -13.63356,2.81423 0.89848,2.8623 -4.29345,1.34771 -0.89847,-2.8623 z m -66.19178,20.77755 0.89847,2.8623 -4.29344,1.34771 -0.89848,-2.8623 z m -13.04987,4.84716 1.32173,2.69314 -4.03972,1.98259 -1.32173,-2.69315 z m -62.28013,30.5654 1.32172,2.69314 -4.03972,1.98259 -1.32172,-2.69315 z m -12.16493,6.76818 1.71446,2.46183 -3.69274,2.5717 -1.71447,-2.46183 z m -56.93084,39.64768 1.71447,2.46184 -3.69275,2.57169 -1.71446,-2.46183 z m -10.99918,8.53299 2.06762,2.17368 -3.26052,3.10145 -2.06763,-2.17369 z m -50.26737,47.81476 2.06763,2.17368 -3.26053,3.10145 -2.06763,-2.17369 z"
         id="path2369" />
    </g>
    <g
       id="g2783"
       transform="rotate(26.181152,147.47214,608.84652)">
      <path
         id="path2779"
         style="fill:none;stroke:#000000;stroke-width:0.999999px;stroke-linecap:butt;stroke-linejoin:miter;stroke-opacity:1"
         d="m 1325.5449,264.56641 -12.0605,1.84961 1.7168,11.20703 -299.7246,45.9375 -1.7188,-11.20899 -12.0605,1.84961 -11.64261,3.6543 3.39453,10.81836 -289.30664,90.8125 -3.39649,-10.81836 -11.64062,3.65625 -10.95508,5.375 4.99609,10.17969 -272.21093,133.59375 -4.9961,-10.17969 -10.95312,5.37695 -10.01367,6.97266 6.47851,9.30469 -248.83008,173.28906 -6.47851,-9.30469 -10.01367,6.97461 -8.8418,8.41016 7.81445,8.21484 -219.705076,208.98633 -7.814454,-8.21485 -8.8418,8.41016 -7.46484,9.65234 8.96875,6.93555 -16.85937,21.79882 -8.96875,-6.9375 -6.9375,8.9688 65.773433,50.8691 10.40625,-13.4531 8.96875,6.9375 -10.404297,13.4531 53.8125,41.6211 6.9375002,-8.9688 -8.9687502,-6.9375 9.8125002,-12.6855 8.96875,6.9355 6.9355469,-8.9687 8.2167969,-7.8145 -7.814453,-8.2148 203.013673,-193.10938 7.81445,8.21485 8.2168,-7.81446 9.30469,-6.48047 -6.48047,-9.30468 229.92578,-160.125 6.48047,9.30468 9.30468,-6.47851 10.17774,-4.9961 -4.99414,-10.17968 251.5293,-123.44336 4.99609,10.17773 10.17969,-4.99414 10.81836,-3.39648 -3.39649,-10.81836 267.32813,-83.91406 3.3965,10.81835 10.8183,-3.39648 11.2071,-1.7168 -1.7168,-11.20898 276.9551,-42.44727 1.7168,11.20899 11.2089,-1.71875 h 11.3379 v -11.33789 h 16.0391 v 11.33789 h 11.3379 V 347.7168 h -3.7793 v -56.75196 h -11.3379 l -11.3399,13.22852 v 13.22852 h -20.6132 z"
         transform="scale(0.26458333)" />
      <path
         style="fill:none;stroke:#0000ff;stroke-width:0.264583px;stroke-linecap:butt;stroke-linejoin:miter;stroke-opacity:1"
         d="m 347.71943,92.716349 0.45448,2.965374 -4.44806,0.681723 -0.45448,-2.965374 z m -68.57549,10.510081 0.45449,2.96537 -4.44806,0.68173 -0.45449,-2.96538 z m -13.63356,2.81423 0.89848,2.8623 -4.29345,1.34771 -0.89847,-2.8623 z m -66.19178,20.77755 0.89847,2.8623 -4.29344,1.34771 -0.89848,-2.8623 z m -13.04987,4.84716 1.32173,2.69314 -4.03972,1.98259 -1.32173,-2.69315 z m -62.28013,30.5654 1.32172,2.69314 -4.03972,1.98259 -1.32172,-2.69315 z m -12.16493,6.76818 1.71446,2.46183 -3.69274,2.5717 -1.71447,-2.46183 z m -56.93084,39.64768 1.71447,2.46184 -3.69275,2.57169 -1.71446,-2.46183 z m -10.99918,8.53299 2.06762,2.17368 -3.26052,3.10145 -2.06763,-2.17369 z m -50.26737,47.81476 2.06763,2.17368 -3.26053,3.10145 -2.06763,-2.17369 z"
         id="path2781" />
    </g>
    <g
       id="g2789"
       transform="rotate(26.181152,53.03246,630.8069)">
      <path
         id="path2785"
         style="fill:none;stroke:#000000;stroke-width:0.999999px;stroke-linecap:butt;stroke-linejoin:miter;stroke-opacity:1"
         d="m 1325.5449,264.56641 -12.0605,1.84961 1.7168,11.20703 -299.7246,45.9375 -1.7188,-11.20899 -12.0605,1.84961 -11.64261,3.6543 3.39453,10.81836 -289.30664,90.8125 -3.39649,-10.81836 -11.64062,3.65625 -10.95508,5.375 4.99609,10.17969 -272.21093,133.59375 -4.9961,-10.17969 -10.95312,5.37695 -10.01367,6.97266 6.47851,9.30469 -248.83008,173.28906 -6.47851,-9.30469 -10.01367,6.97461 -8.8418,8.41016 7.81445,8.21484 -219.705076,208.98633 -7.814454,-8.21485 -8.8418,8.41016 -7.46484,9.65234 8.96875,6.93555 -16.85937,21.79882 -8.96875,-6.9375 -6.9375,8.9688 65.773433,50.8691 10.40625,-13.4531 8.96875,6.9375 -10.404297,13.4531 53.8125,41.6211 6.9375002,-8.9688 -8.9687502,-6.9375 9.8125002,-12.6855 8.96875,6.9355 6.9355469,-8.9687 8.2167969,-7.8145 -7.814453,-8.2148 203.013673,-193.10938 7.81445,8.21485 8.2168,-7.81446 9.30469,-6.48047 -6.48047,-9.30468 229.92578,-160.125 6.48047,9.30468 9.30468,-6.47851 10.17774,-4.9961 -4.99414,-10.17968 251.5293,-123.44336 4.99609,10.17773 10.17969,-4.99414 10.81836,-3.39648 -3.39649,-10.81836 267.32813,-83.91406 3.3965,10.81835 10.8183,-3.39648 11.2071,-1.7168 -1.7168,-11.20898 276.9551,-42.44727 1.7168,11.20899 11.2089,-1.71875 h 11.3379 v -11.33789 h 16.0391 v 11.33789 h 11.3379 V 347.7168 h -3.7793 v -56.75196 h -11.3379 l -11.3399,13.22852 v 13.22852 h -20.6132 z"
         transform="scale(0.26458333)" />
      <path
         style="fill:none;stroke:#0000ff;stroke-width:0.264583px;stroke-linecap:butt;stroke-linejoin:miter;stroke-opacity:1"
         d="m 347.71943,92.716349 0.45448,2.965374 -4.44806,0.681723 -0.45448,-2.965374 z m -68.57549,10.510081 0.45449,2.96537 -4.44806,0.68173 -0.45449,-2.96538 z m -13.63356,2.81423 0.89848,2.8623 -4.29345,1.34771 -0.89847,-2.8623 z m -66.19178,20.77755 0.89847,2.8623 -4.29344,1.34771 -0.89848,-2.8623 z m -13.04987,4.84716 1.32173,2.69314 -4.03972,1.98259 -1.32173,-2.69315 z m -62.28013,30.5654 1.32172,2.69314 -4.03972,1.98259 -1.32172,-2.69315 z m -12.16493,6.76818 1.71446,2.46183 -3.69274,2.5717 -1.71447,-2.46183 z m -56.93084,39.64768 1.71447,2.46184 -3.69275,2.57169 -1.71446,-2.46183 z m -10.99918,8.53299 2.06762,2.17368 -3.26052,3.10145 -2.06763,-2.17369 z m -50.26737,47.81476 2.06763,2.17368 -3.26053,3.10145 -2.06763,-2.17369 z"
         id="path2787" />
    </g>
    <g
       id="g2795"
       transform="rotate(26.181152,-41.40716,652.76731)">
      <path
         id="path2791"
         style="fill:none;stroke:#000000;stroke-width:0.999999px;stroke-linecap:butt;stroke-linejoin:miter;stroke-opacity:1"
         d="m 1325.5449,264.56641 -12.0605,1.84961 1.7168,11.20703 -299.7246,45.9375 -1.7188,-11.20899 -12.0605,1.84961 -11.64261,3.6543 3.39453,10.81836 -289.30664,90.8125 -3.39649,-10.81836 -11.64062,3.65625 -10.95508,5.375 4.99609,10.17969 -272.21093,133.59375 -4.9961,-10.17969 -10.95312,5.37695 -10.01367,6.97266 6.47851,9.30469 -248.83008,173.28906 -6.47851,-9.30469 -10.01367,6.97461 -8.8418,8.41016 7.81445,8.21484 -219.705076,208.98633 -7.814454,-8.21485 -8.8418,8.41016 -7.46484,9.65234 8.96875,6.93555 -16.85937,21.79882 -8.96875,-6.9375 -6.9375,8.9688 65.773433,50.8691 10.40625,-13.4531 8.96875,6.9375 -10.404297,13.4531 53.8125,41.6211 6.9375002,-8.9688 -8.9687502,-6.9375 9.8125002,-12.6855 8.96875,6.9355 6.9355469,-8.9687 8.2167969,-7.8145 -7.814453,-8.2148 203.013673,-193.10938 7.81445,8.21485 8.2168,-7.81446 9.30469,-6.48047 -6.48047,-9.30468 229.92578,-160.125 6.48047,9.30468 9.30468,-6.47851 10.17774,-4.9961 -4.99414,-10.17968 251.5293,-123.44336 4.99609,10.17773 10.17969,-4.99414 10.81836,-3.39648 -3.39649,-10.81836 267.32813,-83.91406 3.3965,10.81835 10.8183,-3.39648 11.2071,-1.7168 -1.7168,-11.20898 276.9551,-42.44727 1.7168,11.20899 11.2089,-1.71875 h 11.3379 v -11.33789 h 16.0391 v 11.33789 h 11.3379 V 347.7168 h -3.7793 v -56.75196 h -11.3379 l -11.3399,13.22852 v 13.22852 h -20.6132 z"
         transform="scale(0.26458333)" />
      <path
         style="fill:none;stroke:#0000ff;stroke-width:0.264583px;stroke-linecap:butt;stroke-linejoin:miter;stroke-opacity:1"
         d="m 347.71943,92.716349 0.45448,2.965374 -4.44806,0.681723 -0.45448,-2.965374 z m -68.57549,10.510081 0.45449,2.96537 -4.44806,0.68173 -0.45449,-2.96538 z m -13.63356,2.81423 0.89848,2.8623 -4.29345,1.34771 -0.89847,-2.8623 z m -66.19178,20.77755 0.89847,2.8623 -4.29344,1.34771 -0.89848,-2.8623 z m -13.04987,4.84716 1.32173,2.69314 -4.03972,1.98259 -1.32173,-2.69315 z m -62.28013,30.5654 1.32172,2.69314 -4.03972,1.98259 -1.32172,-2.69315 z m -12.16493,6.76818 1.71446,2.46183 -3.69274,2.5717 -1.71447,-2.46183 z m -56.93084,39.64768 1.71447,2.46184 -3.69275,2.57169 -1.71446,-2.46183 z m -10.99918,8.53299 2.06762,2.17368 -3.26052,3.10145 -2.06763,-2.17369 z m -50.26737,47.81476 2.06763,2.17368 -3.26053,3.10145 -2.06763,-2.17369 z"
         id="path2793" />
    </g>
    <g
       id="g2801"
       transform="rotate(26.181152,-135.84678,674.72769)">
      <path
         id="path2797"
         style="fill:none;stroke:#000000;stroke-width:0.999999px;stroke-linecap:butt;stroke-linejoin:miter;stroke-opacity:1"
         d="m 1325.5449,264.56641 -12.0605,1.84961 1.7168,11.20703 -299.7246,45.9375 -1.7188,-11.20899 -12.0605,1.84961 -11.64261,3.6543 3.39453,10.81836 -289.30664,90.8125 -3.39649,-10.81836 -11.64062,3.65625 -10.95508,5.375 4.99609,10.17969 -272.21093,133.59375 -4.9961,-10.17969 -10.95312,5.37695 -10.01367,6.97266 6.47851,9.30469 -248.83008,173.28906 -6.47851,-9.30469 -10.01367,6.97461 -8.8418,8.41016 7.81445,8.21484 -219.705076,208.98633 -7.814454,-8.21485 -8.8418,8.41016 -7.46484,9.65234 8.96875,6.93555 -16.85937,21.79882 -8.96875,-6.9375 -6.9375,8.9688 65.773433,50.8691 10.40625,-13.4531 8.96875,6.9375 -10.404297,13.4531 53.8125,41.6211 6.9375002,-8.9688 -8.9687502,-6.9375 9.8125002,-12.6855 8.96875,6.9355 6.9355469,-8.9687 8.2167969,-7.8145 -7.814453,-8.2148 203.013673,-193.10938 7.81445,8.21485 8.2168,-7.81446 9.30469,-6.48047 -6.48047,-9.30468 229.92578,-160.125 6.48047,9.30468 9.30468,-6.47851 10.17774,-4.9961 -4.99414,-10.17968 251.5293,-123.44336 4.99609,10.17773 10.17969,-4.99414 10.81836,-3.39648 -3.39649,-10.81836 267.32813,-83.91406 3.3965,10.81835 10.8183,-3.39648 11.2071,-1.7168 -1.7168,-11.20898 276.9551,-42.44727 1.7168,11.20899 11.2089,-1.71875 h 11.3379 v -11.33789 h 16.0391 v 11.33789 h 11.3379 V 347.7168 h -3.7793 v -56.75196 h -11.3379 l -11.3399,13.22852 v 13.22852 h -20.6132 z"
         transform="scale(0.26458333)" />
      <path
         style="fill:none;stroke:#0000ff;stroke-width:0.264583px;stroke-linecap:butt;stroke-linejoin:miter;stroke-opacity:1"
         d="m 347.71943,92.716349 0.45448,2.965374 -4.44806,0.681723 -0.45448,-2.965374 z m -68.57549,10.510081 0.45449,2.96537 -4.44806,0.68173 -0.45449,-2.96538 z m -13.63356,2.81423 0.89848,2.8623 -4.29345,1.34771 -0.89847,-2.8623 z m -66.19178,20.77755 0.89847,2.8623 -4.29344,1.34771 -0.89848,-2.8623 z m -13.04987,4.84716 1.32173,2.69314 -4.03972,1.98259 -1.32173,-2.69315 z m -62.28013,30.5654 1.32172,2.69314 -4.03972,1.98259 -1.32172,-2.69315 z m -12.16493,6.76818 1.71446,2.46183 -3.69274,2.5717 -1.71447,-2.46183 z m -56.93084,39.64768 1.71447,2.46184 -3.69275,2.57169 -1.71446,-2.46183 z m -10.99918,8.53299 2.06762,2.17368 -3.26052,3.10145 -2.06763,-2.17369 z m -50.26737,47.81476 2.06763,2.17368 -3.26053,3.10145 -2.06763,-2.17369 z"
         id="path2799" />
    </g>
    <g
       id="g5289"
       transform="rotate(90,-110.58001,1412.5983)" />
    <g
       id="g5256"
       transform="translate(-283.03747,133.43353)">
      <path
         id="path5250"
         style="fill:none;stroke:#000000;stroke-width:0.264583px;stroke-linecap:butt;stroke-linejoin:miter;stroke-opacity:1"
         d="m 340.13387,57.299905 1.06558,13.984671 h 5.45391 v -3.500047 l 3.00035,-3.500047 h 2.99982 v 15.015621 h 0.99994 6.00014 V 60.300235 h -6.00014 v -3.00033 h -2.99982 v 3.00033 h -7.29104 v -3.00033 z" />
      <path
         id="path5254"
         style="display:inline;fill:none;stroke:#000000;stroke-width:0.264583px;stroke-linecap:butt;stroke-linejoin:miter;stroke-opacity:1"
         d="m 322.1958,51.833527 1.29553,18.499646 v 18.50016 h 18.99587 l -1.1e-4,-2.99981 h 17.76169 l -2e-5,2.99981 h 5.00022 l 1.6e-4,-3 h 4.99967 l -1.3e-4,-12.000114 h -8.38086 v 2.500106 c 0,2.769998 -2.23023,5.000208 -5.00023,5.000208 h -9.9999 c -2.77,0 -5.0002,-2.23021 -5.0002,-5.000208 v -2.500106 h -9.38075 v -2.999817 h 6.00025 V 51.833527 Z"
         sodipodi:nodetypes="ccccccccccccsssscccccc" />
    </g>
    <use
       x="0"
       y="0"
       xlink:href="#g5256"
       id="use5318"
       transform="rotate(180,82.759221,267.26697)"
       width="100%"
       height="100%" />
    <use
       x="0"
       y="0"
       xlink:href="#g5256"
       id="use5324"
       transform="rotate(180,82.759221,246.1003)"
       width="100%"
       height="100%" />
    <use
       x="0"
       y="0"
       xlink:href="#g5256"
       id="use5326"
       transform="translate(-3e-7,42.333331)"
       width="100%"
       height="100%" />
    <use
       x="0"
       y="0"
       xlink:href="#g5256"
       id="use5328"
       transform="rotate(180,82.759221,224.93363)"
       width="100%"
       height="100%" />
    <use
       x="0"
       y="0"
       xlink:href="#g5256"
       id="use5330"
       transform="translate(-3e-7,84.666671)"
       width="100%"
       height="100%" />
    <use
       x="0"
       y="0"
       xlink:href="#g5256"
       id="use5332"
       transform="rotate(180,82.759221,203.76696)"
       width="100%"
       height="100%" />
    <use
       x="0"
       y="0"
       xlink:href="#g5256"
       id="use5334"
       transform="translate(-3e-7,127.00002)"
       width="100%"
       height="100%" />
    <g
       id="g5408"
       transform="translate(-15.875002,-445.83315)">
      <g
         id="g1148"
         transform="translate(99.483333,150.59585)"
         style="display:inline">
        <path
           id="path976"
           style="fill:none;stroke:#000000;stroke-width:0.999999px;stroke-linecap:butt;stroke-linejoin:miter;stroke-opacity:1"
           d="m 0,1122.5195 v 162.5196 h 11.337891 v -11.3379 h 33.296875 v -84.5664 l 11.339843,-13.2286 H 67.3125 l 11.337891,13.2286 v 13.2265 h 28.388669 l 6.08399,-79.8418 h -12.20313 v 11.3379 H 11.337891 v -11.3379 z"
           transform="scale(0.26458333)" />
        <path
           style="fill:none;stroke:#0000ff;stroke-width:0.264583px;stroke-linecap:butt;stroke-linejoin:miter;stroke-opacity:1"
           d="m 4.5,319 v 3 H 9 v -3 z"
           id="path978" />
      </g>
    </g>
    <use
       x="0"
       y="0"
       xlink:href="#g5408"
       id="use5412"
       transform="rotate(180,106.51645,23.262686)"
       width="100%"
       height="100%" />
    <use
       x="0"
       y="0"
       xlink:href="#g5408"
       id="use5414"
       transform="translate(0,45.625351)"
       width="100%"
       height="100%" />
    <use
       x="0"
       y="0"
       xlink:href="#g5408"
       id="use5416"
       transform="rotate(180,106.51645,46.075326)"
       width="100%"
       height="100%" />
    <use
       x="0"
       y="0"
       xlink:href="#g5408"
       id="use5418"
       transform="translate(0,91.250381)"
       width="100%"
       height="100%" />
    <use
       x="0"
       y="0"
       xlink:href="#g5408"
       id="use5420"
       transform="rotate(180,106.51645,68.887806)"
       width="100%"
       height="100%" />
    <use
       x="0"
       y="0"
       xlink:href="#g5408"
       id="use5422"
       transform="translate(0,136.87548)"
       width="100%"
       height="100%" />
    <use
       x="0"
       y="0"
       xlink:href="#g5408"
       id="use5424"
       transform="rotate(180,106.51645,91.700306)"
       width="100%"
       height="100%" />
    <path
       id="path27048"
       style="fill:none;stroke:#000000;stroke-width:0.264583px;stroke-linecap:butt;stroke-linejoin:miter;stroke-opacity:1"
       d="m 29.177025,19.12498 v 15.00013 h 4.999694 v -2.99982 h 25.999964 v 2.99982 H 79.189992 V 19.12498 h -23.39392 v 2.5001 c 0,2.77003 -2.230212,5.00023 -5.000212,5.00023 h -9.999906 c -2.77,0 -5.000213,-2.2302 -5.000213,-5.00023 v -2.5001 z" />
    <path
       id="path27050"
       style="fill:none;stroke:#000000;stroke-width:0.264583px;stroke-linecap:butt;stroke-linejoin:miter;stroke-opacity:1"
       d="M 0,18 V 34.12511 H 25.472863 L 26.701728,18 H 2.9998169 Z" />
    <path
       id="path27054"
       style="fill:none;stroke:#000000;stroke-width:0.264583px;stroke-linecap:butt;stroke-linejoin:miter;stroke-opacity:1"
       d="m 29.177025,37.12498 v 15.00013 h 4.999694 v -2.99982 h 25.999964 v 2.99982 H 79.189992 V 37.12498 h -23.39392 v 2.5001 c 0,2.77003 -2.230212,5.00023 -5.000212,5.00023 h -9.999906 c -2.77,0 -5.000213,-2.2302 -5.000213,-5.00023 v -2.5001 z" />
    <path
       id="path27056"
       style="fill:none;stroke:#000000;stroke-width:0.264583px;stroke-linecap:butt;stroke-linejoin:miter;stroke-opacity:1"
       d="M 0,36 V 52.12511 H 25.472863 L 26.701728,36 H 2.9998169 Z" />
    <path
       id="path27060"
       style="fill:none;stroke:#000000;stroke-width:0.264583px;stroke-linecap:butt;stroke-linejoin:miter;stroke-opacity:1"
       d="m 29.177025,55.12498 v 15.00013 h 4.999694 v -2.99982 h 25.999964 v 2.99982 H 79.189992 V 55.12498 h -23.39392 v 2.5001 c 0,2.77003 -2.230212,5.00023 -5.000212,5.00023 h -9.999906 c -2.77,0 -5.000213,-2.2302 -5.000213,-5.00023 v -2.5001 z" />
    <path
       id="path27062"
       style="fill:none;stroke:#000000;stroke-width:0.264583px;stroke-linecap:butt;stroke-linejoin:miter;stroke-opacity:1"
       d="M 0,54 V 70.12511 H 25.472863 L 26.701728,54 H 2.9998169 Z" />
    <path
       id="path27066"
       style="fill:none;stroke:#000000;stroke-width:0.264583px;stroke-linecap:butt;stroke-linejoin:miter;stroke-opacity:1"
       d="m 29.177025,73.12498 v 15.00013 h 4.999694 v -2.99982 h 25.999964 v 2.99982 H 79.189992 V 73.12498 h -23.39392 v 2.5001 c 0,2.77003 -2.230212,5.00023 -5.000212,5.00023 h -9.999906 c -2.77,0 -5.000213,-2.2302 -5.000213,-5.00023 v -2.5001 z" />
    <path
       id="path27068"
       style="fill:none;stroke:#000000;stroke-width:0.264583px;stroke-linecap:butt;stroke-linejoin:miter;stroke-opacity:1"
       d="M 0,72 V 88.12511 H 25.472863 L 26.701728,72 H 2.9998169 Z" />
    <path
       id="path27072"
       style="fill:none;stroke:#000000;stroke-width:0.264583px;stroke-linecap:butt;stroke-linejoin:miter;stroke-opacity:1"
       d="m 29.177025,91.12498 v 15.00013 h 4.999694 v -2.99982 h 25.999964 v 2.99982 H 79.189992 V 91.12498 h -23.39392 v 2.5001 c 0,2.770031 -2.230212,5.000231 -5.000212,5.000231 h -9.999906 c -2.77,0 -5.000213,-2.2302 -5.000213,-5.000231 v -2.5001 z" />
    <path
       id="path27074"
       style="fill:none;stroke:#000000;stroke-width:0.264583px;stroke-linecap:butt;stroke-linejoin:miter;stroke-opacity:1"
       d="m 0,90 v 16.12511 H 25.472863 L 26.701728,90 H 2.9998169 Z" />
    <path
       id="path27078"
       style="fill:none;stroke:#000000;stroke-width:0.264583px;stroke-linecap:butt;stroke-linejoin:miter;stroke-opacity:1"
       d="m 29.177025,109.12498 v 15.00013 h 4.999694 v -2.99982 h 25.999964 v 2.99982 h 19.013309 v -15.00013 h -23.39392 v 2.5001 c 0,2.77003 -2.230212,5.00023 -5.000212,5.00023 h -9.999906 c -2.77,0 -5.000213,-2.2302 -5.000213,-5.00023 v -2.5001 z" />
    <path
       id="path27080"
       style="fill:none;stroke:#000000;stroke-width:0.264583px;stroke-linecap:butt;stroke-linejoin:miter;stroke-opacity:1"
       d="m 0,108 v 16.12511 H 25.472863 L 26.701728,108 H 2.9998169 Z" />
    <path
       id="path27084"
       style="fill:none;stroke:#000000;stroke-width:0.264583px;stroke-linecap:butt;stroke-linejoin:miter;stroke-opacity:1"
       d="m 29.177025,127.12498 v 15.00013 h 4.999694 v -2.99982 h 25.999964 v 2.99982 h 19.013309 v -15.00013 h -23.39392 v 2.5001 c 0,2.77003 -2.230212,5.00023 -5.000212,5.00023 h -9.999906 c -2.77,0 -5.000213,-2.2302 -5.000213,-5.00023 v -2.5001 z" />
    <path
       id="path27086"
       style="fill:none;stroke:#000000;stroke-width:0.264583px;stroke-linecap:butt;stroke-linejoin:miter;stroke-opacity:1"
       d="m 0,126 v 16.12511 H 25.472863 L 26.701728,126 H 2.9998169 Z" />
    <g
       id="g27098"
       transform="rotate(67.69181,-38.211921,40.1562)">
      <path
         id="path27090"
         style="color:#000000;font-style:normal;font-variant:normal;font-weight:normal;font-stretch:normal;font-size:medium;line-height:normal;font-family:sans-serif;font-variant-ligatures:normal;font-variant-position:normal;font-variant-caps:normal;font-variant-numeric:normal;font-variant-alternates:normal;font-variant-east-asian:normal;font-feature-settings:normal;font-variation-settings:normal;text-indent:0;text-align:start;text-decoration:none;text-decoration-line:none;text-decoration-style:solid;text-decoration-color:#000000;letter-spacing:normal;word-spacing:normal;text-transform:none;writing-mode:lr-tb;direction:ltr;text-orientation:mixed;dominant-baseline:auto;baseline-shift:baseline;text-anchor:start;white-space:normal;shape-padding:0;shape-margin:0;inline-size:0;clip-rule:nonzero;display:inline;overflow:visible;visibility:visible;opacity:1;isolation:auto;mix-blend-mode:normal;color-interpolation:sRGB;color-interpolation-filters:linearRGB;solid-color:#000000;solid-opacity:1;vector-effect:none;fill:none;fill-opacity:1;fill-rule:nonzero;stroke:#000000;stroke-width:0.755906;stroke-linecap:butt;stroke-linejoin:round;stroke-miterlimit:4;stroke-dasharray:none;stroke-dashoffset:0;stroke-opacity:1;color-rendering:auto;image-rendering:auto;shape-rendering:auto;text-rendering:auto;enable-background:accumulate;stop-color:#000000;stop-opacity:1"
         d="m 304.24805,2834.6445 h -17.00586 v 11.3379 h -18 v 7.5586 c 2e-4,10.9764 -8.86735,19.8436 -19.84375,19.8438 h -13.42383 -20.92578 c 0.014,-3e-4 0.0103,0 -0.0117,0 -9.9602,0 -17.94747,7.9923 -17.94727,17.9531 h -0.006 v 37.7949 c 0,2.4905 0.4985,4.8535 1.4043,7.002 2.7173,6.4454 9.07518,10.9493 16.54688,10.9492 h 13.14453 1.65625 28.625 c 9.683,-2e-4 17.71977,6.9007 19.48047,16.0625 h 43.3164 11.33789 v -22.6777 h -11.33789 v -94.4883 h -17.00976 z"
         transform="matrix(-0.10043277,0.24478072,-0.24478072,-0.10043277,860.34415,271.98176)" />
      <path
         id="path27092"
         style="fill:none;stroke:#ff0000;stroke-width:0.264583px;stroke-linecap:butt;stroke-linejoin:miter;stroke-opacity:1"
         d="m 126.57464,45.026921 3.70066,1.518278 m -16.65294,-6.832267 3.70066,1.518278 m 3.01219,19.003634 12.56562,-30.627304 M 111.08358,56.439133 123.6492,25.811829" />
      <rect
         style="display:inline;fill:none;stroke:#0000ff;stroke-width:0.0999996;stroke-linejoin:round;stroke-miterlimit:4;stroke-dasharray:none;stroke-opacity:1;stop-color:#000000"
         id="rect27094"
         width="6"
         height="2"
         x="2.0477605"
         y="-136.69344"
         transform="rotate(112.30819)"
         rx="1"
         ry="1" />
      <rect
         style="display:inline;fill:none;stroke:#0000ff;stroke-width:0.0999996;stroke-linejoin:round;stroke-miterlimit:4;stroke-dasharray:none;stroke-opacity:1;stop-color:#000000"
         id="rect27096"
         width="6.9999995"
         height="2.5"
         x="-0.068905741"
         y="-121.87677"
         transform="rotate(112.30819)"
         rx="1.25"
         ry="1.25" />
    </g>
    <g
       id="g27108"
       transform="rotate(-112.30819,109.88612,138.62077)">
      <path
         id="path27100"
         style="color:#000000;font-style:normal;font-variant:normal;font-weight:normal;font-stretch:normal;font-size:medium;line-height:normal;font-family:sans-serif;font-variant-ligatures:normal;font-variant-position:normal;font-variant-caps:normal;font-variant-numeric:normal;font-variant-alternates:normal;font-variant-east-asian:normal;font-feature-settings:normal;font-variation-settings:normal;text-indent:0;text-align:start;text-decoration:none;text-decoration-line:none;text-decoration-style:solid;text-decoration-color:#000000;letter-spacing:normal;word-spacing:normal;text-transform:none;writing-mode:lr-tb;direction:ltr;text-orientation:mixed;dominant-baseline:auto;baseline-shift:baseline;text-anchor:start;white-space:normal;shape-padding:0;shape-margin:0;inline-size:0;clip-rule:nonzero;display:inline;overflow:visible;visibility:visible;opacity:1;isolation:auto;mix-blend-mode:normal;color-interpolation:sRGB;color-interpolation-filters:linearRGB;solid-color:#000000;solid-opacity:1;vector-effect:none;fill:none;fill-opacity:1;fill-rule:nonzero;stroke:#000000;stroke-width:0.755906;stroke-linecap:butt;stroke-linejoin:round;stroke-miterlimit:4;stroke-dasharray:none;stroke-dashoffset:0;stroke-opacity:1;color-rendering:auto;image-rendering:auto;shape-rendering:auto;text-rendering:auto;enable-background:accumulate;stop-color:#000000;stop-opacity:1"
         d="m 304.24805,2834.6445 h -17.00586 v 11.3379 h -18 v 7.5586 c 2e-4,10.9764 -8.86735,19.8436 -19.84375,19.8438 h -13.42383 -20.92578 c 0.014,-3e-4 0.0103,0 -0.0117,0 -9.9602,0 -17.94747,7.9923 -17.94727,17.9531 h -0.006 v 37.7949 c 0,2.4905 0.4985,4.8535 1.4043,7.002 2.7173,6.4454 9.07518,10.9493 16.54688,10.9492 h 13.14453 1.65625 28.625 c 9.683,-2e-4 17.71977,6.9007 19.48047,16.0625 h 43.3164 11.33789 v -22.6777 h -11.33789 v -94.4883 h -17.00976 z"
         transform="matrix(-0.10043277,0.24478072,-0.24478072,-0.10043277,860.34415,271.98176)" />
      <path
         id="path27102"
         style="fill:none;stroke:#ff0000;stroke-width:0.264583px;stroke-linecap:butt;stroke-linejoin:miter;stroke-opacity:1"
         d="m 126.57464,45.026921 3.70066,1.518278 m -16.65294,-6.832267 3.70066,1.518278 m 3.01219,19.003634 12.56562,-30.627304 M 111.08358,56.439133 123.6492,25.811829" />
      <rect
         style="display:inline;fill:none;stroke:#0000ff;stroke-width:0.0999996;stroke-linejoin:round;stroke-miterlimit:4;stroke-dasharray:none;stroke-opacity:1;stop-color:#000000"
         id="rect27104"
         width="6"
         height="2"
         x="2.0477605"
         y="-136.69344"
         transform="rotate(112.30819)"
         rx="1"
         ry="1" />
      <rect
         style="display:inline;fill:none;stroke:#0000ff;stroke-width:0.0999996;stroke-linejoin:round;stroke-miterlimit:4;stroke-dasharray:none;stroke-opacity:1;stop-color:#000000"
         id="rect27106"
         width="6.9999995"
         height="2.5"
         x="-0.068905741"
         y="-121.87677"
         transform="rotate(112.30819)"
         rx="1.25"
         ry="1.25" />
    </g>
    <g
       id="g27118"
       transform="rotate(67.69181,-81.456571,69.15612)">
      <path
         id="path27110"
         style="color:#000000;font-style:normal;font-variant:normal;font-weight:normal;font-stretch:normal;font-size:medium;line-height:normal;font-family:sans-serif;font-variant-ligatures:normal;font-variant-position:normal;font-variant-caps:normal;font-variant-numeric:normal;font-variant-alternates:normal;font-variant-east-asian:normal;font-feature-settings:normal;font-variation-settings:normal;text-indent:0;text-align:start;text-decoration:none;text-decoration-line:none;text-decoration-style:solid;text-decoration-color:#000000;letter-spacing:normal;word-spacing:normal;text-transform:none;writing-mode:lr-tb;direction:ltr;text-orientation:mixed;dominant-baseline:auto;baseline-shift:baseline;text-anchor:start;white-space:normal;shape-padding:0;shape-margin:0;inline-size:0;clip-rule:nonzero;display:inline;overflow:visible;visibility:visible;opacity:1;isolation:auto;mix-blend-mode:normal;color-interpolation:sRGB;color-interpolation-filters:linearRGB;solid-color:#000000;solid-opacity:1;vector-effect:none;fill:none;fill-opacity:1;fill-rule:nonzero;stroke:#000000;stroke-width:0.755906;stroke-linecap:butt;stroke-linejoin:round;stroke-miterlimit:4;stroke-dasharray:none;stroke-dashoffset:0;stroke-opacity:1;color-rendering:auto;image-rendering:auto;shape-rendering:auto;text-rendering:auto;enable-background:accumulate;stop-color:#000000;stop-opacity:1"
         d="m 304.24805,2834.6445 h -17.00586 v 11.3379 h -18 v 7.5586 c 2e-4,10.9764 -8.86735,19.8436 -19.84375,19.8438 h -13.42383 -20.92578 c 0.014,-3e-4 0.0103,0 -0.0117,0 -9.9602,0 -17.94747,7.9923 -17.94727,17.9531 h -0.006 v 37.7949 c 0,2.4905 0.4985,4.8535 1.4043,7.002 2.7173,6.4454 9.07518,10.9493 16.54688,10.9492 h 13.14453 1.65625 28.625 c 9.683,-2e-4 17.71977,6.9007 19.48047,16.0625 h 43.3164 11.33789 v -22.6777 h -11.33789 v -94.4883 h -17.00976 z"
         transform="matrix(-0.10043277,0.24478072,-0.24478072,-0.10043277,860.34415,271.98176)" />
      <path
         id="path27112"
         style="fill:none;stroke:#ff0000;stroke-width:0.264583px;stroke-linecap:butt;stroke-linejoin:miter;stroke-opacity:1"
         d="m 126.57464,45.026921 3.70066,1.518278 m -16.65294,-6.832267 3.70066,1.518278 m 3.01219,19.003634 12.56562,-30.627304 M 111.08358,56.439133 123.6492,25.811829" />
      <rect
         style="display:inline;fill:none;stroke:#0000ff;stroke-width:0.0999996;stroke-linejoin:round;stroke-miterlimit:4;stroke-dasharray:none;stroke-opacity:1;stop-color:#000000"
         id="rect27114"
         width="6"
         height="2"
         x="2.0477605"
         y="-136.69344"
         transform="rotate(112.30819)"
         rx="1"
         ry="1" />
      <rect
         style="display:inline;fill:none;stroke:#0000ff;stroke-width:0.0999996;stroke-linejoin:round;stroke-miterlimit:4;stroke-dasharray:none;stroke-opacity:1;stop-color:#000000"
         id="rect27116"
         width="6.9999995"
         height="2.5"
         x="-0.068905741"
         y="-121.87677"
         transform="rotate(112.30819)"
         rx="1.25"
         ry="1.25" />
    </g>
    <g
       id="g27128"
       transform="rotate(-112.30819,129.33359,167.62077)">
      <path
         id="path27120"
         style="color:#000000;font-style:normal;font-variant:normal;font-weight:normal;font-stretch:normal;font-size:medium;line-height:normal;font-family:sans-serif;font-variant-ligatures:normal;font-variant-position:normal;font-variant-caps:normal;font-variant-numeric:normal;font-variant-alternates:normal;font-variant-east-asian:normal;font-feature-settings:normal;font-variation-settings:normal;text-indent:0;text-align:start;text-decoration:none;text-decoration-line:none;text-decoration-style:solid;text-decoration-color:#000000;letter-spacing:normal;word-spacing:normal;text-transform:none;writing-mode:lr-tb;direction:ltr;text-orientation:mixed;dominant-baseline:auto;baseline-shift:baseline;text-anchor:start;white-space:normal;shape-padding:0;shape-margin:0;inline-size:0;clip-rule:nonzero;display:inline;overflow:visible;visibility:visible;opacity:1;isolation:auto;mix-blend-mode:normal;color-interpolation:sRGB;color-interpolation-filters:linearRGB;solid-color:#000000;solid-opacity:1;vector-effect:none;fill:none;fill-opacity:1;fill-rule:nonzero;stroke:#000000;stroke-width:0.755906;stroke-linecap:butt;stroke-linejoin:round;stroke-miterlimit:4;stroke-dasharray:none;stroke-dashoffset:0;stroke-opacity:1;color-rendering:auto;image-rendering:auto;shape-rendering:auto;text-rendering:auto;enable-background:accumulate;stop-color:#000000;stop-opacity:1"
         d="m 304.24805,2834.6445 h -17.00586 v 11.3379 h -18 v 7.5586 c 2e-4,10.9764 -8.86735,19.8436 -19.84375,19.8438 h -13.42383 -20.92578 c 0.014,-3e-4 0.0103,0 -0.0117,0 -9.9602,0 -17.94747,7.9923 -17.94727,17.9531 h -0.006 v 37.7949 c 0,2.4905 0.4985,4.8535 1.4043,7.002 2.7173,6.4454 9.07518,10.9493 16.54688,10.9492 h 13.14453 1.65625 28.625 c 9.683,-2e-4 17.71977,6.9007 19.48047,16.0625 h 43.3164 11.33789 v -22.6777 h -11.33789 v -94.4883 h -17.00976 z"
         transform="matrix(-0.10043277,0.24478072,-0.24478072,-0.10043277,860.34415,271.98176)" />
      <path
         id="path27122"
         style="fill:none;stroke:#ff0000;stroke-width:0.264583px;stroke-linecap:butt;stroke-linejoin:miter;stroke-opacity:1"
         d="m 126.57464,45.026921 3.70066,1.518278 m -16.65294,-6.832267 3.70066,1.518278 m 3.01219,19.003634 12.56562,-30.627304 M 111.08358,56.439133 123.6492,25.811829" />
      <rect
         style="display:inline;fill:none;stroke:#0000ff;stroke-width:0.0999996;stroke-linejoin:round;stroke-miterlimit:4;stroke-dasharray:none;stroke-opacity:1;stop-color:#000000"
         id="rect27124"
         width="6"
         height="2"
         x="2.0477605"
         y="-136.69344"
         transform="rotate(112.30819)"
         rx="1"
         ry="1" />
      <rect
         style="display:inline;fill:none;stroke:#0000ff;stroke-width:0.0999996;stroke-linejoin:round;stroke-miterlimit:4;stroke-dasharray:none;stroke-opacity:1;stop-color:#000000"
         id="rect27126"
         width="6.9999995"
         height="2.5"
         x="-0.068905741"
         y="-121.87677"
         transform="rotate(112.30819)"
         rx="1.25"
         ry="1.25" />
    </g>
    <g
       id="g27138"
       transform="rotate(67.69181,-125.01204,98.36446)">
      <path
         id="path27130"
         style="color:#000000;font-style:normal;font-variant:normal;font-weight:normal;font-stretch:normal;font-size:medium;line-height:normal;font-family:sans-serif;font-variant-ligatures:normal;font-variant-position:normal;font-variant-caps:normal;font-variant-numeric:normal;font-variant-alternates:normal;font-variant-east-asian:normal;font-feature-settings:normal;font-variation-settings:normal;text-indent:0;text-align:start;text-decoration:none;text-decoration-line:none;text-decoration-style:solid;text-decoration-color:#000000;letter-spacing:normal;word-spacing:normal;text-transform:none;writing-mode:lr-tb;direction:ltr;text-orientation:mixed;dominant-baseline:auto;baseline-shift:baseline;text-anchor:start;white-space:normal;shape-padding:0;shape-margin:0;inline-size:0;clip-rule:nonzero;display:inline;overflow:visible;visibility:visible;opacity:1;isolation:auto;mix-blend-mode:normal;color-interpolation:sRGB;color-interpolation-filters:linearRGB;solid-color:#000000;solid-opacity:1;vector-effect:none;fill:none;fill-opacity:1;fill-rule:nonzero;stroke:#000000;stroke-width:0.755906;stroke-linecap:butt;stroke-linejoin:round;stroke-miterlimit:4;stroke-dasharray:none;stroke-dashoffset:0;stroke-opacity:1;color-rendering:auto;image-rendering:auto;shape-rendering:auto;text-rendering:auto;enable-background:accumulate;stop-color:#000000;stop-opacity:1"
         d="m 304.24805,2834.6445 h -17.00586 v 11.3379 h -18 v 7.5586 c 2e-4,10.9764 -8.86735,19.8436 -19.84375,19.8438 h -13.42383 -20.92578 c 0.014,-3e-4 0.0103,0 -0.0117,0 -9.9602,0 -17.94747,7.9923 -17.94727,17.9531 h -0.006 v 37.7949 c 0,2.4905 0.4985,4.8535 1.4043,7.002 2.7173,6.4454 9.07518,10.9493 16.54688,10.9492 h 13.14453 1.65625 28.625 c 9.683,-2e-4 17.71977,6.9007 19.48047,16.0625 h 43.3164 11.33789 v -22.6777 h -11.33789 v -94.4883 h -17.00976 z"
         transform="matrix(-0.10043277,0.24478072,-0.24478072,-0.10043277,860.34415,271.98176)" />
      <path
         id="path27132"
         style="fill:none;stroke:#ff0000;stroke-width:0.264583px;stroke-linecap:butt;stroke-linejoin:miter;stroke-opacity:1"
         d="m 126.57464,45.026921 3.70066,1.518278 m -16.65294,-6.832267 3.70066,1.518278 m 3.01219,19.003634 12.56562,-30.627304 M 111.08358,56.439133 123.6492,25.811829" />
      <rect
         style="display:inline;fill:none;stroke:#0000ff;stroke-width:0.0999996;stroke-linejoin:round;stroke-miterlimit:4;stroke-dasharray:none;stroke-opacity:1;stop-color:#000000"
         id="rect27134"
         width="6"
         height="2"
         x="2.0477605"
         y="-136.69344"
         transform="rotate(112.30819)"
         rx="1"
         ry="1" />
      <rect
         style="display:inline;fill:none;stroke:#0000ff;stroke-width:0.0999996;stroke-linejoin:round;stroke-miterlimit:4;stroke-dasharray:none;stroke-opacity:1;stop-color:#000000"
         id="rect27136"
         width="6.9999995"
         height="2.5"
         x="-0.068905741"
         y="-121.87677"
         transform="rotate(112.30819)"
         rx="1.25"
         ry="1.25" />
    </g>
    <g
       id="g27148"
       transform="rotate(-112.30819,148.92072,196.82903)">
      <path
         id="path27140"
         style="color:#000000;font-style:normal;font-variant:normal;font-weight:normal;font-stretch:normal;font-size:medium;line-height:normal;font-family:sans-serif;font-variant-ligatures:normal;font-variant-position:normal;font-variant-caps:normal;font-variant-numeric:normal;font-variant-alternates:normal;font-variant-east-asian:normal;font-feature-settings:normal;font-variation-settings:normal;text-indent:0;text-align:start;text-decoration:none;text-decoration-line:none;text-decoration-style:solid;text-decoration-color:#000000;letter-spacing:normal;word-spacing:normal;text-transform:none;writing-mode:lr-tb;direction:ltr;text-orientation:mixed;dominant-baseline:auto;baseline-shift:baseline;text-anchor:start;white-space:normal;shape-padding:0;shape-margin:0;inline-size:0;clip-rule:nonzero;display:inline;overflow:visible;visibility:visible;opacity:1;isolation:auto;mix-blend-mode:normal;color-interpolation:sRGB;color-interpolation-filters:linearRGB;solid-color:#000000;solid-opacity:1;vector-effect:none;fill:none;fill-opacity:1;fill-rule:nonzero;stroke:#000000;stroke-width:0.755906;stroke-linecap:butt;stroke-linejoin:round;stroke-miterlimit:4;stroke-dasharray:none;stroke-dashoffset:0;stroke-opacity:1;color-rendering:auto;image-rendering:auto;shape-rendering:auto;text-rendering:auto;enable-background:accumulate;stop-color:#000000;stop-opacity:1"
         d="m 304.24805,2834.6445 h -17.00586 v 11.3379 h -18 v 7.5586 c 2e-4,10.9764 -8.86735,19.8436 -19.84375,19.8438 h -13.42383 -20.92578 c 0.014,-3e-4 0.0103,0 -0.0117,0 -9.9602,0 -17.94747,7.9923 -17.94727,17.9531 h -0.006 v 37.7949 c 0,2.4905 0.4985,4.8535 1.4043,7.002 2.7173,6.4454 9.07518,10.9493 16.54688,10.9492 h 13.14453 1.65625 28.625 c 9.683,-2e-4 17.71977,6.9007 19.48047,16.0625 h 43.3164 11.33789 v -22.6777 h -11.33789 v -94.4883 h -17.00976 z"
         transform="matrix(-0.10043277,0.24478072,-0.24478072,-0.10043277,860.34415,271.98176)" />
      <path
         id="path27142"
         style="fill:none;stroke:#ff0000;stroke-width:0.264583px;stroke-linecap:butt;stroke-linejoin:miter;stroke-opacity:1"
         d="m 126.57464,45.026921 3.70066,1.518278 m -16.65294,-6.832267 3.70066,1.518278 m 3.01219,19.003634 12.56562,-30.627304 M 111.08358,56.439133 123.6492,25.811829" />
      <rect
         style="display:inline;fill:none;stroke:#0000ff;stroke-width:0.0999996;stroke-linejoin:round;stroke-miterlimit:4;stroke-dasharray:none;stroke-opacity:1;stop-color:#000000"
         id="rect27144"
         width="6"
         height="2"
         x="2.0477605"
         y="-136.69344"
         transform="rotate(112.30819)"
         rx="1"
         ry="1" />
      <rect
         style="display:inline;fill:none;stroke:#0000ff;stroke-width:0.0999996;stroke-linejoin:round;stroke-miterlimit:4;stroke-dasharray:none;stroke-opacity:1;stop-color:#000000"
         id="rect27146"
         width="6.9999995"
         height="2.5"
         x="-0.068905741"
         y="-121.87677"
         transform="rotate(112.30819)"
         rx="1.25"
         ry="1.25" />
    </g>
    <g
       id="g27168"
       transform="rotate(-112.30819,168.36819,225.82903)">
      <path
         id="path27160"
         style="color:#000000;font-style:normal;font-variant:normal;font-weight:normal;font-stretch:normal;font-size:medium;line-height:normal;font-family:sans-serif;font-variant-ligatures:normal;font-variant-position:normal;font-variant-caps:normal;font-variant-numeric:normal;font-variant-alternates:normal;font-variant-east-asian:normal;font-feature-settings:normal;font-variation-settings:normal;text-indent:0;text-align:start;text-decoration:none;text-decoration-line:none;text-decoration-style:solid;text-decoration-color:#000000;letter-spacing:normal;word-spacing:normal;text-transform:none;writing-mode:lr-tb;direction:ltr;text-orientation:mixed;dominant-baseline:auto;baseline-shift:baseline;text-anchor:start;white-space:normal;shape-padding:0;shape-margin:0;inline-size:0;clip-rule:nonzero;display:inline;overflow:visible;visibility:visible;opacity:1;isolation:auto;mix-blend-mode:normal;color-interpolation:sRGB;color-interpolation-filters:linearRGB;solid-color:#000000;solid-opacity:1;vector-effect:none;fill:none;fill-opacity:1;fill-rule:nonzero;stroke:#000000;stroke-width:0.755906;stroke-linecap:butt;stroke-linejoin:round;stroke-miterlimit:4;stroke-dasharray:none;stroke-dashoffset:0;stroke-opacity:1;color-rendering:auto;image-rendering:auto;shape-rendering:auto;text-rendering:auto;enable-background:accumulate;stop-color:#000000;stop-opacity:1"
         d="m 304.24805,2834.6445 h -17.00586 v 11.3379 h -18 v 7.5586 c 2e-4,10.9764 -8.86735,19.8436 -19.84375,19.8438 h -13.42383 -20.92578 c 0.014,-3e-4 0.0103,0 -0.0117,0 -9.9602,0 -17.94747,7.9923 -17.94727,17.9531 h -0.006 v 37.7949 c 0,2.4905 0.4985,4.8535 1.4043,7.002 2.7173,6.4454 9.07518,10.9493 16.54688,10.9492 h 13.14453 1.65625 28.625 c 9.683,-2e-4 17.71977,6.9007 19.48047,16.0625 h 43.3164 11.33789 v -22.6777 h -11.33789 v -94.4883 h -17.00976 z"
         transform="matrix(-0.10043277,0.24478072,-0.24478072,-0.10043277,860.34415,271.98176)" />
      <path
         id="path27162"
         style="fill:none;stroke:#ff0000;stroke-width:0.264583px;stroke-linecap:butt;stroke-linejoin:miter;stroke-opacity:1"
         d="m 126.57464,45.026921 3.70066,1.518278 m -16.65294,-6.832267 3.70066,1.518278 m 3.01219,19.003634 12.56562,-30.627304 M 111.08358,56.439133 123.6492,25.811829" />
      <rect
         style="display:inline;fill:none;stroke:#0000ff;stroke-width:0.0999996;stroke-linejoin:round;stroke-miterlimit:4;stroke-dasharray:none;stroke-opacity:1;stop-color:#000000"
         id="rect27164"
         width="6"
         height="2"
         x="2.0477605"
         y="-136.69344"
         transform="rotate(112.30819)"
         rx="1"
         ry="1" />
      <rect
         style="display:inline;fill:none;stroke:#0000ff;stroke-width:0.0999996;stroke-linejoin:round;stroke-miterlimit:4;stroke-dasharray:none;stroke-opacity:1;stop-color:#000000"
         id="rect27166"
         width="6.9999995"
         height="2.5"
         x="-0.068905741"
         y="-121.87677"
         transform="rotate(112.30819)"
         rx="1.25"
         ry="1.25" />
    </g>
    <g
       id="g27394"
       transform="translate(-19.271142,-403.28311)">
      <g
         id="g27174"
         transform="translate(284.18,466)">
        <circle
           style="opacity:0.997512;fill:none;fill-opacity:1;stroke:#000000;stroke-width:0.0999997;stroke-linecap:square;stroke-linejoin:round;stroke-miterlimit:4;stroke-dasharray:none;stroke-opacity:1;paint-order:markers stroke fill;stop-color:#000000"
           id="circle27170"
           cx="12.999998"
           cy="-309"
           r="9"
           transform="scale(1,-1)" />
        <path
           inkscape:randomized="0"
           inkscape:rounded="0"
           inkscape:flatsided="true"
           sodipodi:arg2="1.5707963"
           sodipodi:arg1="1.0471976"
           sodipodi:r2="5"
           sodipodi:r1="5.7735023"
           sodipodi:cy="-309"
           sodipodi:cx="12.999998"
           sodipodi:sides="6"
           id="path27172"
           style="fill:none;fill-opacity:1;stroke:#0000ff;stroke-width:0.1;stroke-miterlimit:4;stroke-dasharray:none;stroke-opacity:1"
           sodipodi:type="star"
           transform="scale(1,-1)"
           d="m 15.886749,-304 -5.773502,0 -2.8867513,-5 2.8867513,-5 5.773503,0 2.88675,5 z" />
      </g>
      <g
         id="g27180"
         transform="translate(304.18,466)">
        <circle
           style="opacity:0.997512;fill:none;fill-opacity:1;stroke:#000000;stroke-width:0.0999997;stroke-linecap:square;stroke-linejoin:round;stroke-miterlimit:4;stroke-dasharray:none;stroke-opacity:1;paint-order:markers stroke fill;stop-color:#000000"
           id="circle27176"
           cx="12.999998"
           cy="-309"
           r="9"
           transform="scale(1,-1)" />
        <path
           inkscape:randomized="0"
           inkscape:rounded="0"
           inkscape:flatsided="true"
           sodipodi:arg2="1.5707963"
           sodipodi:arg1="1.0471976"
           sodipodi:r2="5"
           sodipodi:r1="5.7735023"
           sodipodi:cy="-309"
           sodipodi:cx="12.999998"
           sodipodi:sides="6"
           id="path27178"
           style="fill:none;fill-opacity:1;stroke:#0000ff;stroke-width:0.1;stroke-miterlimit:4;stroke-dasharray:none;stroke-opacity:1"
           sodipodi:type="star"
           transform="scale(1,-1)"
           d="m 15.886749,-304 -5.773502,0 -2.8867513,-5 2.8867513,-5 5.773503,0 2.88675,5 z" />
      </g>
      <g
         id="g27186"
         transform="translate(324.18,466)">
        <circle
           style="opacity:0.997512;fill:none;fill-opacity:1;stroke:#000000;stroke-width:0.0999997;stroke-linecap:square;stroke-linejoin:round;stroke-miterlimit:4;stroke-dasharray:none;stroke-opacity:1;paint-order:markers stroke fill;stop-color:#000000"
           id="circle27182"
           cx="12.999998"
           cy="-309"
           r="9"
           transform="scale(1,-1)" />
        <path
           inkscape:randomized="0"
           inkscape:rounded="0"
           inkscape:flatsided="true"
           sodipodi:arg2="1.5707963"
           sodipodi:arg1="1.0471976"
           sodipodi:r2="5"
           sodipodi:r1="5.7735023"
           sodipodi:cy="-309"
           sodipodi:cx="12.999998"
           sodipodi:sides="6"
           id="path27184"
           style="fill:none;fill-opacity:1;stroke:#0000ff;stroke-width:0.1;stroke-miterlimit:4;stroke-dasharray:none;stroke-opacity:1"
           sodipodi:type="star"
           transform="scale(1,-1)"
           d="m 15.886749,-304 -5.773502,0 -2.8867513,-5 2.8867513,-5 5.773503,0 2.88675,5 z" />
      </g>
      <g
         id="g27192"
         transform="translate(344.18,466)">
        <circle
           style="opacity:0.997512;fill:none;fill-opacity:1;stroke:#000000;stroke-width:0.0999997;stroke-linecap:square;stroke-linejoin:round;stroke-miterlimit:4;stroke-dasharray:none;stroke-opacity:1;paint-order:markers stroke fill;stop-color:#000000"
           id="circle27188"
           cx="12.999998"
           cy="-309"
           r="9"
           transform="scale(1,-1)" />
        <path
           inkscape:randomized="0"
           inkscape:rounded="0"
           inkscape:flatsided="true"
           sodipodi:arg2="1.5707963"
           sodipodi:arg1="1.0471976"
           sodipodi:r2="5"
           sodipodi:r1="5.7735023"
           sodipodi:cy="-309"
           sodipodi:cx="12.999998"
           sodipodi:sides="6"
           id="path27190"
           style="fill:none;fill-opacity:1;stroke:#0000ff;stroke-width:0.1;stroke-miterlimit:4;stroke-dasharray:none;stroke-opacity:1"
           sodipodi:type="star"
           transform="scale(1,-1)"
           d="m 15.886749,-304 -5.773502,0 -2.8867513,-5 2.8867513,-5 5.773503,0 2.88675,5 z" />
      </g>
      <g
         id="g27198"
         transform="translate(364.18,466)">
        <circle
           style="opacity:0.997512;fill:none;fill-opacity:1;stroke:#000000;stroke-width:0.0999997;stroke-linecap:square;stroke-linejoin:round;stroke-miterlimit:4;stroke-dasharray:none;stroke-opacity:1;paint-order:markers stroke fill;stop-color:#000000"
           id="circle27194"
           cx="12.999998"
           cy="-309"
           r="9"
           transform="scale(1,-1)" />
        <path
           inkscape:randomized="0"
           inkscape:rounded="0"
           inkscape:flatsided="true"
           sodipodi:arg2="1.5707963"
           sodipodi:arg1="1.0471976"
           sodipodi:r2="5"
           sodipodi:r1="5.7735023"
           sodipodi:cy="-309"
           sodipodi:cx="12.999998"
           sodipodi:sides="6"
           id="path27196"
           style="fill:none;fill-opacity:1;stroke:#0000ff;stroke-width:0.1;stroke-miterlimit:4;stroke-dasharray:none;stroke-opacity:1"
           sodipodi:type="star"
           transform="scale(1,-1)"
           d="m 15.886749,-304 -5.773502,0 -2.8867513,-5 2.8867513,-5 5.773503,0 2.88675,5 z" />
      </g>
      <g
         id="g27204"
         transform="translate(384.18,466)">
        <circle
           style="opacity:0.997512;fill:none;fill-opacity:1;stroke:#000000;stroke-width:0.0999997;stroke-linecap:square;stroke-linejoin:round;stroke-miterlimit:4;stroke-dasharray:none;stroke-opacity:1;paint-order:markers stroke fill;stop-color:#000000"
           id="circle27200"
           cx="12.999998"
           cy="-309"
           r="9"
           transform="scale(1,-1)" />
        <path
           inkscape:randomized="0"
           inkscape:rounded="0"
           inkscape:flatsided="true"
           sodipodi:arg2="1.5707963"
           sodipodi:arg1="1.0471976"
           sodipodi:r2="5"
           sodipodi:r1="5.7735023"
           sodipodi:cy="-309"
           sodipodi:cx="12.999998"
           sodipodi:sides="6"
           id="path27202"
           style="fill:none;fill-opacity:1;stroke:#0000ff;stroke-width:0.1;stroke-miterlimit:4;stroke-dasharray:none;stroke-opacity:1"
           sodipodi:type="star"
           transform="scale(1,-1)"
           d="m 15.886749,-304 -5.773502,0 -2.8867513,-5 2.8867513,-5 5.773503,0 2.88675,5 z" />
      </g>
      <g
         id="g27350"
         transform="translate(404.18,466)">
        <circle
           style="opacity:0.997512;fill:none;fill-opacity:1;stroke:#000000;stroke-width:0.0999997;stroke-linecap:square;stroke-linejoin:round;stroke-miterlimit:4;stroke-dasharray:none;stroke-opacity:1;paint-order:markers stroke fill;stop-color:#000000"
           id="circle27346"
           cx="12.999998"
           cy="-309"
           r="9"
           transform="scale(1,-1)" />
        <path
           inkscape:randomized="0"
           inkscape:rounded="0"
           inkscape:flatsided="true"
           sodipodi:arg2="1.5707963"
           sodipodi:arg1="1.0471976"
           sodipodi:r2="5"
           sodipodi:r1="5.7735023"
           sodipodi:cy="-309"
           sodipodi:cx="12.999998"
           sodipodi:sides="6"
           id="path27348"
           style="fill:none;fill-opacity:1;stroke:#0000ff;stroke-width:0.1;stroke-miterlimit:4;stroke-dasharray:none;stroke-opacity:1"
           sodipodi:type="star"
           transform="scale(1,-1)"
           d="m 15.886749,-304 -5.773502,0 -2.8867513,-5 2.8867513,-5 5.773503,0 2.88675,5 z" />
      </g>
      <g
         id="g27356"
         transform="translate(424.18,466)">
        <circle
           style="opacity:0.997512;fill:none;fill-opacity:1;stroke:#000000;stroke-width:0.0999997;stroke-linecap:square;stroke-linejoin:round;stroke-miterlimit:4;stroke-dasharray:none;stroke-opacity:1;paint-order:markers stroke fill;stop-color:#000000"
           id="circle27352"
           cx="12.999998"
           cy="-309"
           r="9"
           transform="scale(1,-1)" />
        <path
           inkscape:randomized="0"
           inkscape:rounded="0"
           inkscape:flatsided="true"
           sodipodi:arg2="1.5707963"
           sodipodi:arg1="1.0471976"
           sodipodi:r2="5"
           sodipodi:r1="5.7735023"
           sodipodi:cy="-309"
           sodipodi:cx="12.999998"
           sodipodi:sides="6"
           id="path27354"
           style="fill:none;fill-opacity:1;stroke:#0000ff;stroke-width:0.1;stroke-miterlimit:4;stroke-dasharray:none;stroke-opacity:1"
           sodipodi:type="star"
           transform="scale(1,-1)"
           d="m 15.886749,-304 -5.773502,0 -2.8867513,-5 2.8867513,-5 5.773503,0 2.88675,5 z" />
      </g>
    </g>
    <g
       id="g27404"
       transform="rotate(67.69181,3.4120683,51.04756)">
      <path
         id="path27396"
         style="color:#000000;font-style:normal;font-variant:normal;font-weight:normal;font-stretch:normal;font-size:medium;line-height:normal;font-family:sans-serif;font-variant-ligatures:normal;font-variant-position:normal;font-variant-caps:normal;font-variant-numeric:normal;font-variant-alternates:normal;font-variant-east-asian:normal;font-feature-settings:normal;font-variation-settings:normal;text-indent:0;text-align:start;text-decoration:none;text-decoration-line:none;text-decoration-style:solid;text-decoration-color:#000000;letter-spacing:normal;word-spacing:normal;text-transform:none;writing-mode:lr-tb;direction:ltr;text-orientation:mixed;dominant-baseline:auto;baseline-shift:baseline;text-anchor:start;white-space:normal;shape-padding:0;shape-margin:0;inline-size:0;clip-rule:nonzero;display:inline;overflow:visible;visibility:visible;opacity:1;isolation:auto;mix-blend-mode:normal;color-interpolation:sRGB;color-interpolation-filters:linearRGB;solid-color:#000000;solid-opacity:1;vector-effect:none;fill:none;fill-opacity:1;fill-rule:nonzero;stroke:#000000;stroke-width:0.755906;stroke-linecap:butt;stroke-linejoin:round;stroke-miterlimit:4;stroke-dasharray:none;stroke-dashoffset:0;stroke-opacity:1;color-rendering:auto;image-rendering:auto;shape-rendering:auto;text-rendering:auto;enable-background:accumulate;stop-color:#000000;stop-opacity:1"
         d="m 304.24805,2834.6445 h -17.00586 v 11.3379 h -18 v 7.5586 c 2e-4,10.9764 -8.86735,19.8436 -19.84375,19.8438 h -13.42383 -20.92578 c 0.014,-3e-4 0.0103,0 -0.0117,0 -9.9602,0 -17.94747,7.9923 -17.94727,17.9531 h -0.006 v 37.7949 c 0,2.4905 0.4985,4.8535 1.4043,7.002 2.7173,6.4454 9.07518,10.9493 16.54688,10.9492 h 13.14453 1.65625 28.625 c 9.683,-2e-4 17.71977,6.9007 19.48047,16.0625 h 43.3164 11.33789 v -22.6777 h -11.33789 v -94.4883 h -17.00976 z"
         transform="matrix(-0.10043277,0.24478072,-0.24478072,-0.10043277,860.34415,271.98176)" />
      <path
         id="path27398"
         style="fill:none;stroke:#ff0000;stroke-width:0.264583px;stroke-linecap:butt;stroke-linejoin:miter;stroke-opacity:1"
         d="m 126.57464,45.026921 3.70066,1.518278 m -16.65294,-6.832267 3.70066,1.518278 m 3.01219,19.003634 12.56562,-30.627304 M 111.08358,56.439133 123.6492,25.811829" />
      <rect
         style="display:inline;fill:none;stroke:#0000ff;stroke-width:0.0999996;stroke-linejoin:round;stroke-miterlimit:4;stroke-dasharray:none;stroke-opacity:1;stop-color:#000000"
         id="rect27400"
         width="6"
         height="2"
         x="2.0477605"
         y="-136.69344"
         transform="rotate(112.30819)"
         rx="1"
         ry="1" />
      <rect
         style="display:inline;fill:none;stroke:#0000ff;stroke-width:0.0999996;stroke-linejoin:round;stroke-miterlimit:4;stroke-dasharray:none;stroke-opacity:1;stop-color:#000000"
         id="rect27402"
         width="6.9999995"
         height="2.5"
         x="-0.068905741"
         y="-121.87677"
         transform="rotate(112.30819)"
         rx="1.25"
         ry="1.25" />
    </g>
  </g>
  <g
     id="g941"
     transform="translate(-0.4552025,23.827198)" />
</svg>
