<?xml version="1.0" encoding="UTF-8" standalone="no"?>
<svg
   xmlns:dc="http://purl.org/dc/elements/1.1/"
   xmlns:cc="http://creativecommons.org/ns#"
   xmlns:rdf="http://www.w3.org/1999/02/22-rdf-syntax-ns#"
   xmlns:svg="http://www.w3.org/2000/svg"
   xmlns="http://www.w3.org/2000/svg"
   xmlns:xlink="http://www.w3.org/1999/xlink"
   xmlns:sodipodi="http://sodipodi.sourceforge.net/DTD/sodipodi-0.dtd"
   xmlns:inkscape="http://www.inkscape.org/namespaces/inkscape"
   width="600mm"
   height="400mm"
   viewBox="0 0 600 400"
   version="1.1"
   id="svg8"
   inkscape:version="1.0.2 (e86c870879, 2021-01-15)"
   sodipodi:docname="2_8x_rect0.svg">
  <metadata
     id="metadata1033">
    <rdf:RDF>
      <cc:Work
         rdf:about="">
        <dc:format>image/svg+xml</dc:format>
        <dc:type
           rdf:resource="http://purl.org/dc/dcmitype/StillImage" />
        <dc:title></dc:title>
      </cc:Work>
    </rdf:RDF>
  </metadata>
  <defs
     id="defs1031" />
  <sodipodi:namedview
     id="base"
     pagecolor="#ffffff"
     bordercolor="#666666"
     borderopacity="1.0"
     inkscape:pageopacity="0.0"
     inkscape:pageshadow="2"
     inkscape:zoom="0.0875"
     inkscape:cx="1416.8693"
     inkscape:cy="4582.4495"
     inkscape:document-units="mm"
     inkscape:current-layer="g1096"
     inkscape:document-rotation="0"
     showgrid="false"
     showguides="true"
     inkscape:guide-bbox="true"
     inkscape:snap-center="true"
     inkscape:snap-intersection-paths="true"
     inkscape:snap-midpoints="true"
     inkscape:window-width="1364"
     inkscape:window-height="750"
     inkscape:window-x="1"
     inkscape:window-y="17"
     inkscape:window-maximized="0"
     inkscape:object-paths="true"
     inkscape:snap-smooth-nodes="true"
     inkscape:snap-global="true"
     inkscape:snap-bbox="true"
     inkscape:snap-bbox-edge-midpoints="false" />
  <g
     inkscape:label="test1"
     inkscape:groupmode="layer"
     id="g1096"
     style="display:inline">
    <path
       style="fill:none;stroke:#0000ff;stroke-width:0.264583px;stroke-linecap:butt;stroke-linejoin:miter;stroke-opacity:1"
       d=""
       id="path952" />
    <path
       style="fill:none;stroke:#0000ff;stroke-width:0.264583px;stroke-linecap:butt;stroke-linejoin:miter;stroke-opacity:1"
       d=""
       id="path1032" />
    <g
       id="g5289"
       transform="rotate(90,-110.58001,1412.5983)" />
    <g
       id="g5195"
       transform="matrix(-1,0,0,1,168.46667,439.8003)">
      <path
         style="fill:none;stroke:#0000ff;stroke-width:0.2;stroke-linejoin:round;stroke-opacity:1;stop-color:#000000"
         d="m 116.78765,-89.1713 2.77502,1.138431 -1.89755,4.626075 -2.77554,-1.138949 z"
         id="path5187" />
      <path
         style="fill:none;stroke:#0000ff;stroke-width:0.2;stroke-linejoin:round;stroke-opacity:1;stop-color:#000000"
         d="m 152.92601,-95.583313 2.77503,1.138433 -1.89756,4.625557 -2.77554,-1.13843 z"
         id="path5189" />
      <path
         style="fill:none;stroke:#000000;stroke-width:0.2;stroke-linejoin:round;stroke-opacity:1;stop-color:#000000"
         d="m 94.333216,-96.800293 v 33.600016 h 11.798754 l 2.0159,-4.913394 2.77554,1.138949 -1.54874,3.774445 h 4.29948 a 13.390848,13.390848 0 0 0 7.56078,7.97781 13.390848,13.390848 0 0 0 17.47128,-7.306014 13.390848,13.390848 0 0 0 0.25425,-0.671796 h 0.67902 l 1.51981,-3.703132 2.77502,1.138431 -1.05213,2.564701 h 25.58449 v -33.600016 z"
         id="path5191" />
      <circle
         style="opacity:0.997512;fill:none;fill-opacity:1;stroke:#0000ff;stroke-width:0.0999997;stroke-linecap:square;stroke-linejoin:round;stroke-miterlimit:4;stroke-dasharray:none;stroke-opacity:1;paint-order:markers stroke fill;stop-color:#000000"
         id="circle5193"
         cx="126.31724"
         cy="-67.611115"
         r="3" />
    </g>
    <g
       id="g6166"
       transform="translate(0,-800)">
      <g
         id="g6124">
        <g
           transform="translate(380.06675,820)"
           id="g1739">
          <path
             style="fill:none;stroke:#000000;stroke-width:0.264583px;stroke-linecap:butt;stroke-linejoin:miter;stroke-opacity:1"
             d="m 40.066747,-17 v 34 h -3 v 3 h -74.133494 v -3 h -3 v -34 h 3 v -3 h 74.133494 v 3 z"
             id="path1735" />
          <path
             style="fill:none;stroke:#0000ff;stroke-width:0.264583px;stroke-linecap:butt;stroke-linejoin:miter;stroke-opacity:1"
             d=""
             id="path1737" />
        </g>
        <g
           id="g2021"
           transform="translate(-180,800)">
          <path
             id="path2013"
             style="fill:none;stroke:#ff0000;stroke-width:0.264583px;stroke-linecap:butt;stroke-linejoin:miter;stroke-opacity:1"
             d="m 416.43813,29 v -4 m 0,-10 v -4 m -16.66667,18 v -4 m 0,-10 v -4 m -16.66667,18 v -4 m 0,-10 v -4 m -16.66667,18 v -4 m 0,-10 v -4 m -16.43811,14 h 82.87622 M 350,15 h 82.87623"
             sodipodi:nodetypes="cccccccccccccccccccc" />
          <g
             transform="translate(391.43811,20)"
             id="g2019">
            <path
               style="fill:none;stroke:#000000;stroke-width:0.264583px;stroke-linecap:butt;stroke-linejoin:miter;stroke-opacity:1"
               d="m -36.938107,-17 v -3 h 4.5 v 3 h 64.876214 v -3 h 4.5 v 3 h 4.5 v 34 h -4.5 v 3 h -4.5 v -3 h -64.876214 v 3 h -4.5 v -3 h -4.5 v -34 z"
               id="path2015" />
            <path
               style="fill:none;stroke:#0000ff;stroke-width:0.264583px;stroke-linecap:butt;stroke-linejoin:miter;stroke-opacity:1"
               d=""
               id="path2017" />
          </g>
        </g>
        <g
           id="g2622"
           transform="translate(-265,799.99979)">
          <path
             id="path2614"
             style="fill:none;stroke:#ff0000;stroke-width:0.264583px;stroke-linecap:butt;stroke-linejoin:miter;stroke-opacity:1"
             d="m 416.43813,29 v -4 m 0,-10 v -4 m -16.66667,18 v -4 m 0,-10 v -4 m -16.66667,18 v -4 m 0,-10 v -4 m -16.66667,18 v -4 m 0,-10 v -4 m -16.43811,14 h 82.87622 M 350,15 h 82.87623"
             sodipodi:nodetypes="cccccccccccccccccccc" />
          <g
             transform="translate(391.43811,20)"
             id="g2620">
            <path
               id="path2616"
               style="fill:none;stroke:#000000;stroke-width:0.999999px;stroke-linecap:butt;stroke-linejoin:miter;stroke-opacity:1"
               d="m 338.26758,2834.6465 v 11.3379 h -17.00781 v 94.4883 h 11.33593 v 22.6777 h -11.33593 v 11.3379 h 17.00781 v 11.3379 h 17.00781 v -11.3379 h 245.20117 v 11.3379 h 17.00782 v -11.3379 h 17.00781 v -128.5039 h -17.00781 v -11.3379 h -17.00782 v 11.3379 H 355.27539 v -11.3379 z"
               transform="matrix(0.26458333,0,0,0.26458333,-126.43811,-770)" />
            <path
               style="fill:none;stroke:#0000ff;stroke-width:0.264583px;stroke-linecap:butt;stroke-linejoin:miter;stroke-opacity:1"
               d=""
               id="path2618" />
          </g>
          <circle
             style="display:inline;fill:none;stroke:#0000ff;stroke-width:0.1;stroke-linejoin:round;stroke-opacity:1;stop-color:#000000"
             id="circle2714"
             cx="426.77606"
             cy="29.50021"
             r="1.1" />
          <circle
             style="display:inline;fill:none;stroke:#0000ff;stroke-width:0.1;stroke-linejoin:round;stroke-opacity:1;stop-color:#000000"
             id="circle8351"
             cx="426.77606"
             cy="10.50021"
             r="1.1" />
          <circle
             style="display:inline;fill:none;stroke:#0000ff;stroke-width:0.1;stroke-linejoin:round;stroke-opacity:1;stop-color:#000000"
             id="circle8353"
             cx="376.776"
             cy="29.50021"
             r="1.1" />
          <circle
             style="display:inline;fill:none;stroke:#0000ff;stroke-width:0.1;stroke-linejoin:round;stroke-opacity:1;stop-color:#000000"
             id="circle8355"
             cx="376.776"
             cy="10.50021"
             r="1.1" />
        </g>
        <use
           x="0"
           y="0"
           xlink:href="#g1739"
           id="use6090"
           transform="translate(81.999997)"
           width="100%"
           height="100%" />
        <g
           id="g4872"
           transform="translate(-95,800)">
          <path
             id="path4864"
             style="fill:none;stroke:#ff0000;stroke-width:0.264583px;stroke-linecap:butt;stroke-linejoin:miter;stroke-opacity:1"
             d="m 416.43813,29 v -4 m 0,-10 v -4 m -16.66667,18 v -4 m 0,-10 v -4 m -16.66667,18 v -4 m 0,-10 v -4 m -16.66667,18 v -4 m 0,-10 v -4 m -16.43811,14 h 82.87622 M 350,15 h 82.87623"
             sodipodi:nodetypes="cccccccccccccccccccc" />
          <g
             transform="translate(391.43811,20)"
             id="g4870">
            <path
               style="fill:none;stroke:#000000;stroke-width:0.264583px;stroke-linecap:butt;stroke-linejoin:miter;stroke-opacity:1"
               d="m -36.938107,-17 v -3 h 4.5 v 3 h 64.876214 v -3 h 4.5 v 3 h 4.5 v 34 h -4.5 v 3 h -4.5 v -3 h -64.876214 v 3 h -4.5 v -3 h -4.5 v -34 z"
               id="path4866" />
            <path
               style="fill:none;stroke:#0000ff;stroke-width:0.264583px;stroke-linecap:butt;stroke-linejoin:miter;stroke-opacity:1"
               d=""
               id="path4868" />
          </g>
        </g>
        <use
           x="0"
           y="0"
           xlink:href="#g1739"
           id="use4874"
           transform="translate(164)"
           width="100%"
           height="100%" />
      </g>
      <use
         x="0"
         y="0"
         xlink:href="#g3155"
         id="use6128"
         transform="rotate(180,41.438245,841.50009)"
         width="100%"
         height="100%" />
      <g
         id="g3155"
         transform="translate(-89.999991,800.00018)">
        <path
           id="path3151"
           style="fill:none;stroke:#000000;stroke-width:0.999999px;stroke-linecap:butt;stroke-linejoin:miter;stroke-opacity:1"
           d="M 357.16602,0 V 11.337891 H 340.1582 V 139.8418 h 26.89063 v 11.33984 h 17.00781 l 9.40039,3.85547 0.60352,-0.36133 a 0.94497639,0.94497639 0 0 1 0.8457,-0.0644 l 6.99219,2.86719 c 9.21662,3.78135 19.64052,-0.57828 23.42187,-9.79493 l 10.86524,-26.48242 0.6289,-1.5332 4.99024,-12.16016 c 3.12471,-7.616138 10.40449,-12.249776 18.14062,-12.324216 2.57875,-0.02481 5.21122,0.45645 7.75,1.498047 l 34.9668,14.345699 c 10.15101,4.16471 14.9878,15.72481 10.83008,25.87696 -0.003,0.007 -0.0142,0.0311 -0.0274,0.0586 0.008,-0.0164 0.0145,-0.0255 0.0195,-0.0352 l -7.94336,19.36133 -5.09571,12.41992 c -3.78135,9.21663 0.57828,19.64052 9.79492,23.42188 l 6.99219,2.86914 6.83203,-16.65234 10.49024,4.30273 6.45508,-15.73437 -10.49024,-4.30274 6.45703,-15.73633 10.49024,4.30469 V 139.8418 h 17.00781 v 11.33984 h 17.00781 V 139.8418 H 619.375 v 11.33984 h 17.00781 V 139.8418 h 17.00781 V 11.337891 H 636.38281 V 0 H 619.375 V 11.337891 H 374.17383 V 0 Z"
           transform="scale(0.26458333)" />
        <path
           id="path3153"
           style="fill:none;stroke:#ff0000;stroke-width:0.264583px;stroke-linecap:butt;stroke-linejoin:miter;stroke-opacity:1"
           d="m 156.43811,29 v -4 m 0,-10 v -4 m -16.66667,18 v -4 m 0,-10 v -4 m -16.66667,4 V 11 M 106.4381,15 V 11 M 89.999993,25 H 172.87621 M 89.999991,15 H 172.87621 M 106.4381,29 v -4" />
      </g>
      <use
         x="0"
         y="0"
         xlink:href="#g6124"
         id="use6126"
         transform="translate(0,43)"
         width="100%"
         height="100%" />
    </g>
    <use
       x="0"
       y="0"
       xlink:href="#g6166"
       id="use6168"
       transform="translate(0,86)"
       width="100%"
       height="100%" />
    <use
       x="0"
       y="0"
       xlink:href="#g5195"
       id="use6174"
       transform="translate(75)"
       width="100%"
       height="100%" />
    <use
       x="0"
       y="0"
       xlink:href="#g6166"
       id="use6250"
       transform="translate(0,172)"
       width="100%"
       height="100%" />
    <use
       x="0"
       y="0"
       xlink:href="#g6166"
       id="use6252"
       transform="translate(0,258)"
       width="100%"
       height="100%" />
    <use
       x="0"
       y="0"
       xlink:href="#g5195"
       id="use6254"
       transform="translate(150)"
       width="100%"
       height="100%" />
    <use
       x="0"
       y="0"
       xlink:href="#g5195"
       id="use6256"
       transform="translate(225)"
       width="100%"
       height="100%" />
    <use
       x="0"
       y="0"
       xlink:href="#g5195"
       id="use6258"
       transform="translate(300)"
       width="100%"
       height="100%" />
    <use
       x="0"
       y="0"
       xlink:href="#g5195"
       id="use6260"
       transform="translate(375)"
       width="100%"
       height="100%" />
    <use
       x="0"
       y="0"
       xlink:href="#g5195"
       id="use6262"
       transform="translate(450)"
       width="100%"
       height="100%" />
    <use
       x="0"
       y="0"
       xlink:href="#g5195"
       id="use6264"
       transform="translate(525)"
       width="100%"
       height="100%" />
  </g>
  <g
     id="g941"
     transform="translate(-0.4552025,23.827198)" />
</svg>
