<?xml version="1.0" encoding="UTF-8" standalone="no"?>
<svg
   xmlns:dc="http://purl.org/dc/elements/1.1/"
   xmlns:cc="http://creativecommons.org/ns#"
   xmlns:rdf="http://www.w3.org/1999/02/22-rdf-syntax-ns#"
   xmlns:svg="http://www.w3.org/2000/svg"
   xmlns="http://www.w3.org/2000/svg"
   xmlns:sodipodi="http://sodipodi.sourceforge.net/DTD/sodipodi-0.dtd"
   xmlns:inkscape="http://www.inkscape.org/namespaces/inkscape"
   width="600mm"
   height="400mm"
   viewBox="0 0 600 400"
   version="1.1"
   id="svg8"
   inkscape:version="1.0.2 (e86c870879, 2021-01-15)"
   sodipodi:docname="3_1x_rect1.svg">
  <metadata
     id="metadata1033">
    <rdf:RDF>
      <cc:Work
         rdf:about="">
        <dc:format>image/svg+xml</dc:format>
        <dc:type
           rdf:resource="http://purl.org/dc/dcmitype/StillImage" />
        <dc:title></dc:title>
      </cc:Work>
    </rdf:RDF>
  </metadata>
  <defs
     id="defs1031" />
  <sodipodi:namedview
     id="base"
     pagecolor="#ffffff"
     bordercolor="#666666"
     borderopacity="1.0"
     inkscape:pageopacity="0.0"
     inkscape:pageshadow="2"
     inkscape:zoom="0.175"
     inkscape:cx="1416.8693"
     inkscape:cy="1152.901"
     inkscape:document-units="mm"
     inkscape:current-layer="g1096"
     inkscape:document-rotation="0"
     showgrid="false"
     showguides="true"
     inkscape:guide-bbox="true"
     inkscape:snap-center="true"
     inkscape:snap-intersection-paths="true"
     inkscape:snap-midpoints="true"
     inkscape:window-width="1364"
     inkscape:window-height="750"
     inkscape:window-x="1"
     inkscape:window-y="17"
     inkscape:window-maximized="0"
     inkscape:object-paths="true"
     inkscape:snap-smooth-nodes="true"
     inkscape:snap-global="true"
     inkscape:snap-bbox="true"
     inkscape:snap-bbox-edge-midpoints="false" />
  <g
     inkscape:label="test1"
     inkscape:groupmode="layer"
     id="g1096"
     style="display:inline">
    <path
       style="fill:none;stroke:#0000ff;stroke-width:0.264583px;stroke-linecap:butt;stroke-linejoin:miter;stroke-opacity:1"
       d=""
       id="path952" />
    <path
       style="fill:none;stroke:#0000ff;stroke-width:0.264583px;stroke-linecap:butt;stroke-linejoin:miter;stroke-opacity:1"
       d=""
       id="path1032" />
    <path
       id="path3903"
       style="fill:none;stroke:#000000;stroke-width:0.264583px;stroke-linecap:butt;stroke-linejoin:miter;stroke-opacity:1"
       d="m 159.13379,170.2208 v -3.0004 h 2.99982 v -34 h -2.99982 v -2.9998 h -4.24367 v 2.9998 h -2.99981 v -2.9998 l -2.77554,-1.1384 -3.29489,-1.3519 -6.28127,15.1841 a 13.39105,13.39105 0 0 1 -12.39615,8.3086 13.39105,13.39105 0 0 1 -5.07566,-1.0026 13.39105,13.39105 0 0 1 -7.30601,-17.4713 l 2.28565,-5.5707 -6.11436,-2.5089 -1.13895,2.7756 2.77554,1.1389 -1.13843,2.7756 -2.77554,-1.139 v 2.9998 h -2.99982 v -2.9998 H 85.00033 v 2.9998 H 82 v 34 h 3.00033 v 3.0004 z" />
    <path
       id="path3905"
       style="fill:none;stroke:#000000;stroke-width:0.264583px;stroke-linecap:butt;stroke-linejoin:miter;stroke-opacity:1"
       d="m 84.99982,86 v 3.0004 H 82 v 34 h 2.99982 v 2.9998 h 4.24367 v -2.9998 h 2.99982 v 2.9998 l 2.77554,1.1384 3.29489,1.3519 6.28127,-15.1841 a 13.39105,13.39105 0 0 1 12.39614,-8.3085 13.39105,13.39105 0 0 1 5.07566,1.0025 13.39105,13.39105 0 0 1 7.30601,17.4713 l -2.28565,5.5707 6.11436,2.5089 1.13895,-2.7756 -2.77554,-1.1389 1.13843,-2.7755 2.77554,1.1389 v -2.9998 h 2.99982 v 2.9998 h 20.65455 v -2.9998 h 3.00033 v -34 h -3.00033 V 86 Z" />
    <path
       id="path3907"
       style="fill:none;stroke:#000000;stroke-width:0.264583px;stroke-linecap:butt;stroke-linejoin:miter;stroke-opacity:1"
       d="m 77.13343,170.2208 v -3.0004 h 2.99982 v -34 h -2.99982 v -2.9998 h -4.24367 v 2.9998 h -2.99981 v -2.9998 l -2.77554,-1.1384 -3.29489,-1.3519 -6.28127,15.1841 a 13.39105,13.39105 0 0 1 -12.39615,8.3086 13.39105,13.39105 0 0 1 -5.07566,-1.0026 13.39105,13.39105 0 0 1 -7.30601,-17.4713 l 2.28565,-5.5707 -6.11436,-2.5089 -1.13895,2.7756 2.77554,1.1389 -1.13843,2.7756 -2.77554,-1.139 v 2.9998 h -2.99982 v -2.9998 H 2.99997 v 2.9998 H -3.6e-4 v 34 h 3.00033 v 3.0004 z" />
    <path
       id="path3909"
       style="fill:none;stroke:#000000;stroke-width:0.264583px;stroke-linecap:butt;stroke-linejoin:miter;stroke-opacity:1"
       d="m 2.99946,86 v 3.0004 H -3.6e-4 v 34 h 2.99982 v 2.9998 h 4.24367 v -2.9998 h 2.99982 v 2.9998 l 2.77554,1.1384 3.29489,1.3519 6.28127,-15.1841 a 13.39105,13.39105 0 0 1 12.39614,-8.3085 13.39105,13.39105 0 0 1 5.07566,1.0025 13.39105,13.39105 0 0 1 7.30601,17.4713 l -2.28565,5.5707 6.11436,2.5089 1.13895,-2.7756 -2.77554,-1.1389 1.13843,-2.7755 2.77554,1.1389 v -2.9998 h 2.99982 v 2.9998 h 20.65455 v -2.9998 h 3.00033 v -34 H 77.13292 V 86 Z" />
    <path
       id="path3935"
       style="fill:none;stroke:#000000;stroke-width:0.264583px;stroke-linecap:butt;stroke-linejoin:miter;stroke-opacity:1"
       d="m 159.13379,84.2207 v -3.0003 h 2.99982 v -34 h -2.99982 v -2.9998 h -4.24367 v 2.9998 h -2.99981 v -2.9998 l -2.77554,-1.1385 -3.29489,-1.3518 -6.28127,15.1841 a 13.39105,13.39105 0 0 1 -12.39615,8.3085 13.39105,13.39105 0 0 1 -5.07566,-1.0025 13.39105,13.39105 0 0 1 -7.30601,-17.4713 l 2.28565,-5.5707 -6.11436,-2.5089 -1.13895,2.7755 2.77554,1.139 -1.13843,2.7755 -2.77554,-1.1389 v 2.9998 h -2.99982 V 44.2206 H 85.00033 v 2.9998 H 82 v 34 h 3.00033 v 3.0003 z" />
    <path
       id="path3937"
       style="fill:none;stroke:#000000;stroke-width:0.264583px;stroke-linecap:butt;stroke-linejoin:miter;stroke-opacity:1"
       d="M 84.99982,0 V 3.0003 H 82 v 34 h 2.99982 v 2.9998 h 4.24367 v -2.9998 h 2.99982 v 2.9998 l 2.77554,1.1385 3.29489,1.3518 6.28127,-15.1841 a 13.39105,13.39105 0 0 1 12.39614,-8.3085 13.39105,13.39105 0 0 1 5.07566,1.0025 13.39105,13.39105 0 0 1 7.30601,17.4713 l -2.28565,5.5707 6.11436,2.5089 1.13895,-2.7755 -2.77554,-1.139 1.13843,-2.7755 2.77554,1.1389 v -2.9998 h 2.99982 v 2.9998 h 20.65455 v -2.9998 h 3.00033 v -34 h -3.00033 V 0 Z" />
    <path
       id="path3939"
       style="fill:none;stroke:#000000;stroke-width:0.264583px;stroke-linecap:butt;stroke-linejoin:miter;stroke-opacity:1"
       d="m 77.13343,84.2207 v -3.0003 h 2.99982 v -34 h -2.99982 v -2.9998 h -4.24367 v 2.9998 H 69.88995 V 44.2206 L 67.11441,43.0821 63.81952,41.7303 57.53825,56.9144 A 13.39105,13.39105 0 0 1 45.1421,65.2229 13.39105,13.39105 0 0 1 40.06644,64.2204 13.39105,13.39105 0 0 1 32.76043,46.7491 l 2.28565,-5.5707 -6.11436,-2.5089 -1.13895,2.7755 2.77554,1.139 -1.13843,2.7755 -2.77554,-1.1389 v 2.9998 H 23.65452 V 44.2206 H 2.99997 v 2.9998 H -3.6e-4 v 34 h 3.00033 v 3.0003 z" />
    <path
       id="path3941"
       style="fill:none;stroke:#000000;stroke-width:0.264583px;stroke-linecap:butt;stroke-linejoin:miter;stroke-opacity:1"
       d="M 2.99946,0 V 3.0003 H -3.6e-4 v 34 h 2.99982 v 2.9998 h 4.24367 v -2.9998 h 2.99982 v 2.9998 l 2.77554,1.1385 3.29489,1.3518 6.28127,-15.1841 a 13.39105,13.39105 0 0 1 12.39614,-8.3085 13.39105,13.39105 0 0 1 5.07566,1.0025 13.39105,13.39105 0 0 1 7.30601,17.4713 l -2.28565,5.5707 6.11436,2.5089 1.13895,-2.7755 -2.77554,-1.139 1.13843,-2.7755 2.77554,1.1389 v -2.9998 h 2.99982 v 2.9998 h 20.65455 v -2.9998 h 3.00033 v -34 H 77.13292 V 0 Z" />
    <path
       id="path5237"
       style="fill:none;stroke:#000000;stroke-width:0.264583px;stroke-linecap:butt;stroke-linejoin:miter;stroke-opacity:1"
       d="m 323.13379,170.2208 v -3.0003 h 2.99982 v -34 h -2.99982 v -2.9999 h -4.24367 v 2.9999 h -2.99981 v -2.9999 l -2.77554,-1.1384 -3.29489,-1.3518 -6.28127,15.1841 a 13.39105,13.39105 0 0 1 -12.39615,8.3085 13.39105,13.39105 0 0 1 -5.07566,-1.0025 13.39105,13.39105 0 0 1 -7.30601,-17.4713 l 2.28565,-5.5707 -6.11436,-2.5089 -1.13895,2.7755 2.77554,1.139 -1.13843,2.7755 -2.77554,-1.139 v 2.9999 h -2.99982 v -2.9999 h -20.65455 v 2.9999 H 246 v 34 h 3.00033 v 3.0003 z" />
    <path
       id="path5239"
       style="fill:none;stroke:#000000;stroke-width:0.264583px;stroke-linecap:butt;stroke-linejoin:miter;stroke-opacity:1"
       d="m 248.99982,86.0001 v 3.0003 H 246 v 34 h 2.99982 v 2.9998 h 4.24367 v -2.9998 h 2.99982 v 2.9998 l 2.77554,1.1385 3.29489,1.3518 6.28127,-15.1841 a 13.39105,13.39105 0 0 1 12.39614,-8.3085 13.39105,13.39105 0 0 1 5.07566,1.0025 13.39105,13.39105 0 0 1 7.30601,17.4713 l -2.28565,5.5707 6.11436,2.5089 1.13895,-2.7755 -2.77554,-1.139 1.13843,-2.7755 2.77554,1.1389 v -2.9998 h 2.99982 v 2.9998 h 20.65455 v -2.9998 h 3.00033 v -34 h -3.00033 v -3.0003 z" />
    <path
       id="path5241"
       style="fill:none;stroke:#000000;stroke-width:0.264583px;stroke-linecap:butt;stroke-linejoin:miter;stroke-opacity:1"
       d="m 241.13379,170.2208 v -3.0003 h 2.99982 v -34 h -2.99982 v -2.9999 h -4.24367 v 2.9999 h -2.99981 v -2.9999 l -2.77554,-1.1384 -3.29489,-1.3518 -6.28127,15.1841 a 13.39105,13.39105 0 0 1 -12.39615,8.3085 13.39105,13.39105 0 0 1 -5.07566,-1.0025 13.39105,13.39105 0 0 1 -7.30601,-17.4713 l 2.28565,-5.5707 -6.11436,-2.5089 -1.13895,2.7755 2.77554,1.139 -1.13843,2.7755 -2.77554,-1.139 v 2.9999 h -2.99982 v -2.9999 h -20.65455 v 2.9999 H 164 v 34 h 3.00033 v 3.0003 z" />
    <path
       id="path5243"
       style="fill:none;stroke:#000000;stroke-width:0.264583px;stroke-linecap:butt;stroke-linejoin:miter;stroke-opacity:1"
       d="m 166.99982,86.0001 v 3.0003 H 164 v 34 h 2.99982 v 2.9998 h 4.24367 v -2.9998 h 2.99982 v 2.9998 l 2.77554,1.1385 3.29489,1.3518 6.28127,-15.1841 a 13.39105,13.39105 0 0 1 12.39614,-8.3085 13.39105,13.39105 0 0 1 5.07566,1.0025 13.39105,13.39105 0 0 1 7.30601,17.4713 l -2.28565,5.5707 6.11436,2.5089 1.13895,-2.7755 -2.77554,-1.139 1.13843,-2.7755 2.77554,1.1389 v -2.9998 h 2.99982 v 2.9998 h 20.65455 v -2.9998 h 3.00033 v -34 h -3.00033 v -3.0003 z" />
    <path
       id="path5245"
       style="fill:none;stroke:#000000;stroke-width:0.264583px;stroke-linecap:butt;stroke-linejoin:miter;stroke-opacity:1"
       d="m 323.13379,84.2208 v -3.0004 h 2.99982 v -34 h -2.99982 v -2.9998 h -4.24367 v 2.9998 h -2.99981 v -2.9998 l -2.77554,-1.1384 -3.29489,-1.3519 -6.28127,15.1841 a 13.39105,13.39105 0 0 1 -12.39615,8.3085 13.39105,13.39105 0 0 1 -5.07566,-1.0025 13.39105,13.39105 0 0 1 -7.30601,-17.4713 l 2.28565,-5.5707 -6.11436,-2.5089 -1.13895,2.7756 2.77554,1.1389 -1.13843,2.7755 -2.77554,-1.1389 v 2.9998 h -2.99982 v -2.9998 h -20.65455 v 2.9998 H 246 v 34 h 3.00033 v 3.0004 z" />
    <path
       id="path5247"
       style="fill:none;stroke:#000000;stroke-width:0.264583px;stroke-linecap:butt;stroke-linejoin:miter;stroke-opacity:1"
       d="M 248.99982,0 V 3.0003 H 246 v 34.0001 h 2.99982 v 2.9998 h 4.24367 v -2.9998 h 2.99982 v 2.9998 l 2.77554,1.1384 3.29489,1.3519 6.28127,-15.1841 a 13.39105,13.39105 0 0 1 12.39614,-8.3086 13.39105,13.39105 0 0 1 5.07566,1.0025 13.39105,13.39105 0 0 1 7.30601,17.4714 l -2.28565,5.5707 6.11436,2.5089 1.13895,-2.7756 -2.77554,-1.1389 1.13843,-2.7756 2.77554,1.139 v -2.9998 h 2.99982 v 2.9998 h 20.65455 v -2.9998 h 3.00033 V 3.0003 h -3.00033 V 0 Z" />
    <path
       id="path5249"
       style="fill:none;stroke:#000000;stroke-width:0.264583px;stroke-linecap:butt;stroke-linejoin:miter;stroke-opacity:1"
       d="m 241.13379,84.2208 v -3.0004 h 2.99982 v -34 h -2.99982 v -2.9998 h -4.24367 v 2.9998 h -2.99981 v -2.9998 l -2.77554,-1.1384 -3.29489,-1.3519 -6.28127,15.1841 a 13.39105,13.39105 0 0 1 -12.39615,8.3085 13.39105,13.39105 0 0 1 -5.07566,-1.0025 13.39105,13.39105 0 0 1 -7.30601,-17.4713 l 2.28565,-5.5707 -6.11436,-2.5089 -1.13895,2.7756 2.77554,1.1389 -1.13843,2.7755 -2.77554,-1.1389 v 2.9998 h -2.99982 v -2.9998 h -20.65455 v 2.9998 H 164 v 34 h 3.00033 v 3.0004 z" />
    <path
       id="path5251"
       style="fill:none;stroke:#000000;stroke-width:0.264583px;stroke-linecap:butt;stroke-linejoin:miter;stroke-opacity:1"
       d="M 166.99982,0 V 3.0003 H 164 v 34.0001 h 2.99982 v 2.9998 h 4.24367 v -2.9998 h 2.99982 v 2.9998 l 2.77554,1.1384 3.29489,1.3519 6.28127,-15.1841 a 13.39105,13.39105 0 0 1 12.39614,-8.3086 13.39105,13.39105 0 0 1 5.07566,1.0025 13.39105,13.39105 0 0 1 7.30601,17.4714 l -2.28565,5.5707 6.11436,2.5089 1.13895,-2.7756 -2.77554,-1.1389 1.13843,-2.7756 2.77554,1.139 v -2.9998 h 2.99982 v 2.9998 h 20.65455 v -2.9998 h 3.00033 V 3.0003 h -3.00033 V 0 Z" />
    <path
       id="path5255"
       style="fill:none;stroke:#000000;stroke-width:0.264583px;stroke-linecap:butt;stroke-linejoin:miter;stroke-opacity:1"
       d="m 487.13379,170.2208 v -3.0003 h 2.99982 v -34 h -2.99982 v -2.9999 h -4.24367 v 2.9999 h -2.99981 v -2.9999 l -2.77554,-1.1384 -3.29489,-1.3518 -6.28127,15.1841 a 13.39105,13.39105 0 0 1 -12.39615,8.3085 13.39105,13.39105 0 0 1 -5.07566,-1.0025 13.39105,13.39105 0 0 1 -7.30601,-17.4713 l 2.28565,-5.5707 -6.11436,-2.5089 -1.13895,2.7755 2.77554,1.139 -1.13843,2.7755 -2.77554,-1.139 v 2.9999 h -2.99982 v -2.9999 h -20.65455 v 2.9999 H 410 v 34 h 3.00033 v 3.0003 z" />
    <path
       id="path5257"
       style="fill:none;stroke:#000000;stroke-width:0.264583px;stroke-linecap:butt;stroke-linejoin:miter;stroke-opacity:1"
       d="m 412.99982,86.0001 v 3.0003 H 410 v 34 h 2.99982 v 2.9998 h 4.24367 v -2.9998 h 2.99982 v 2.9998 l 2.77554,1.1385 3.29489,1.3518 6.28127,-15.1841 a 13.39105,13.39105 0 0 1 12.39614,-8.3085 13.39105,13.39105 0 0 1 5.07566,1.0025 13.39105,13.39105 0 0 1 7.30601,17.4713 l -2.28565,5.5707 6.11436,2.5089 1.13895,-2.7755 -2.77554,-1.139 1.13843,-2.7755 2.77554,1.1389 v -2.9998 h 2.99982 v 2.9998 h 20.65455 v -2.9998 h 3.00033 v -34 h -3.00033 v -3.0003 z" />
    <path
       id="path5259"
       style="fill:none;stroke:#000000;stroke-width:0.264583px;stroke-linecap:butt;stroke-linejoin:miter;stroke-opacity:1"
       d="m 405.13379,170.2208 v -3.0003 h 2.99982 v -34 h -2.99982 v -2.9999 h -4.24367 v 2.9999 h -2.99981 v -2.9999 l -2.77554,-1.1384 -3.29489,-1.3518 -6.28127,15.1841 a 13.39105,13.39105 0 0 1 -12.39615,8.3085 13.39105,13.39105 0 0 1 -5.07566,-1.0025 13.39105,13.39105 0 0 1 -7.30601,-17.4713 l 2.28565,-5.5707 -6.11436,-2.5089 -1.13895,2.7755 2.77554,1.139 -1.13843,2.7755 -2.77554,-1.139 v 2.9999 h -2.99982 v -2.9999 h -20.65455 v 2.9999 H 328 v 34 h 3.00033 v 3.0003 z" />
    <path
       id="path5261"
       style="fill:none;stroke:#000000;stroke-width:0.264583px;stroke-linecap:butt;stroke-linejoin:miter;stroke-opacity:1"
       d="m 330.99982,86.0001 v 3.0003 H 328 v 34 h 2.99982 v 2.9998 h 4.24367 v -2.9998 h 2.99982 v 2.9998 l 2.77554,1.1385 3.29489,1.3518 6.28127,-15.1841 a 13.39105,13.39105 0 0 1 12.39614,-8.3085 13.39105,13.39105 0 0 1 5.07566,1.0025 13.39105,13.39105 0 0 1 7.30601,17.4713 l -2.28565,5.5707 6.11436,2.5089 1.13895,-2.7755 -2.77554,-1.139 1.13843,-2.7755 2.77554,1.1389 v -2.9998 h 2.99982 v 2.9998 h 20.65455 v -2.9998 h 3.00033 v -34 h -3.00033 v -3.0003 z" />
    <path
       id="path5263"
       style="fill:none;stroke:#000000;stroke-width:0.264583px;stroke-linecap:butt;stroke-linejoin:miter;stroke-opacity:1"
       d="m 487.13379,84.2208 v -3.0004 h 2.99982 v -34 h -2.99982 v -2.9998 h -4.24367 v 2.9998 h -2.99981 v -2.9998 l -2.77554,-1.1384 -3.29489,-1.3519 -6.28127,15.1841 a 13.39105,13.39105 0 0 1 -12.39615,8.3085 13.39105,13.39105 0 0 1 -5.07566,-1.0025 13.39105,13.39105 0 0 1 -7.30601,-17.4713 l 2.28565,-5.5707 -6.11436,-2.5089 -1.13895,2.7756 2.77554,1.1389 -1.13843,2.7755 -2.77554,-1.1389 v 2.9998 h -2.99982 v -2.9998 h -20.65455 v 2.9998 H 410 v 34 h 3.00033 v 3.0004 z" />
    <path
       id="path5265"
       style="fill:none;stroke:#000000;stroke-width:0.264583px;stroke-linecap:butt;stroke-linejoin:miter;stroke-opacity:1"
       d="M 412.99982,0 V 3.0003 H 410 v 34.0001 h 2.99982 v 2.9998 h 4.24367 v -2.9998 h 2.99982 v 2.9998 l 2.77554,1.1384 3.29489,1.3519 6.28127,-15.1841 a 13.39105,13.39105 0 0 1 12.39614,-8.3086 13.39105,13.39105 0 0 1 5.07566,1.0025 13.39105,13.39105 0 0 1 7.30601,17.4714 l -2.28565,5.5707 6.11436,2.5089 1.13895,-2.7756 -2.77554,-1.1389 1.13843,-2.7756 2.77554,1.139 v -2.9998 h 2.99982 v 2.9998 h 20.65455 v -2.9998 h 3.00033 V 3.0003 h -3.00033 V 0 Z" />
    <path
       id="path5267"
       style="fill:none;stroke:#000000;stroke-width:0.264583px;stroke-linecap:butt;stroke-linejoin:miter;stroke-opacity:1"
       d="m 405.13379,84.2208 v -3.0004 h 2.99982 v -34 h -2.99982 v -2.9998 h -4.24367 v 2.9998 h -2.99981 v -2.9998 l -2.77554,-1.1384 -3.29489,-1.3519 -6.28127,15.1841 a 13.39105,13.39105 0 0 1 -12.39615,8.3085 13.39105,13.39105 0 0 1 -5.07566,-1.0025 13.39105,13.39105 0 0 1 -7.30601,-17.4713 l 2.28565,-5.5707 -6.11436,-2.5089 -1.13895,2.7756 2.77554,1.1389 -1.13843,2.7755 -2.77554,-1.1389 v 2.9998 h -2.99982 v -2.9998 h -20.65455 v 2.9998 H 328 v 34 h 3.00033 v 3.0004 z" />
    <path
       id="path5269"
       style="fill:none;stroke:#000000;stroke-width:0.264583px;stroke-linecap:butt;stroke-linejoin:miter;stroke-opacity:1"
       d="M 330.99982,0 V 3.0003 H 328 v 34.0001 h 2.99982 v 2.9998 h 4.24367 v -2.9998 h 2.99982 v 2.9998 l 2.77554,1.1384 3.29489,1.3519 6.28127,-15.1841 a 13.39105,13.39105 0 0 1 12.39614,-8.3086 13.39105,13.39105 0 0 1 5.07566,1.0025 13.39105,13.39105 0 0 1 7.30601,17.4714 l -2.28565,5.5707 6.11436,2.5089 1.13895,-2.7756 -2.77554,-1.1389 1.13843,-2.7756 2.77554,1.139 v -2.9998 h 2.99982 v 2.9998 h 20.65455 v -2.9998 h 3.00033 V 3.0003 h -3.00033 V 0 Z" />
    <g
       id="g5289"
       transform="rotate(90,-110.58001,1412.5983)" />
    <path
       id="path5679"
       style="fill:none;stroke:#000000;stroke-width:0.264583px;stroke-linecap:butt;stroke-linejoin:miter;stroke-opacity:1"
       d="m 159.13379,342.22081 v -3.0004 h 2.99982 v -34 h -2.99982 v -2.9998 h -4.24367 v 2.9998 h -2.99981 v -2.9998 l -2.77554,-1.1384 -3.29489,-1.3519 -6.28127,15.1841 a 13.39105,13.39105 0 0 1 -12.39615,8.3086 13.39105,13.39105 0 0 1 -5.07566,-1.0026 13.39105,13.39105 0 0 1 -7.30601,-17.4713 l 2.28565,-5.5707 -6.11436,-2.5089 -1.13895,2.7756 2.77554,1.1389 -1.13843,2.7756 -2.77554,-1.139 v 2.9998 h -2.99982 v -2.9998 H 85.00033 v 2.9998 H 82 v 34 h 3.00033 v 3.0004 z" />
    <path
       id="path5681"
       style="fill:none;stroke:#000000;stroke-width:0.264583px;stroke-linecap:butt;stroke-linejoin:miter;stroke-opacity:1"
       d="m 84.99982,258.00001 v 3.0004 H 82 v 34 h 2.99982 v 2.9998 h 4.24367 v -2.9998 h 2.99982 v 2.9998 l 2.77554,1.1384 3.29489,1.3519 6.28127,-15.1841 a 13.39105,13.39105 0 0 1 12.39614,-8.3085 13.39105,13.39105 0 0 1 5.07566,1.0025 13.39105,13.39105 0 0 1 7.30601,17.4713 l -2.28565,5.5707 6.11436,2.5089 1.13895,-2.7756 -2.77554,-1.1389 1.13843,-2.7755 2.77554,1.1389 v -2.9998 h 2.99982 v 2.9998 h 20.65455 v -2.9998 h 3.00033 v -34 h -3.00033 v -3.0004 z" />
    <path
       id="path5683"
       style="fill:none;stroke:#000000;stroke-width:0.264583px;stroke-linecap:butt;stroke-linejoin:miter;stroke-opacity:1"
       d="m 77.13343,342.22081 v -3.0004 h 2.99982 v -34 h -2.99982 v -2.9998 h -4.24367 v 2.9998 h -2.99981 v -2.9998 l -2.77554,-1.1384 -3.29489,-1.3519 -6.28127,15.1841 a 13.39105,13.39105 0 0 1 -12.39615,8.3086 13.39105,13.39105 0 0 1 -5.07566,-1.0026 13.39105,13.39105 0 0 1 -7.30601,-17.4713 l 2.28565,-5.5707 -6.11436,-2.5089 -1.13895,2.7756 2.77554,1.1389 -1.13843,2.7756 -2.77554,-1.139 v 2.9998 h -2.99982 v -2.9998 H 2.99997 v 2.9998 H -3.6e-4 v 34 h 3.00033 v 3.0004 z" />
    <path
       id="path5685"
       style="fill:none;stroke:#000000;stroke-width:0.264583px;stroke-linecap:butt;stroke-linejoin:miter;stroke-opacity:1"
       d="m 2.99946,258.00001 v 3.0004 H -3.6e-4 v 34 h 2.99982 v 2.9998 h 4.24367 v -2.9998 h 2.99982 v 2.9998 l 2.77554,1.1384 3.29489,1.3519 6.28127,-15.1841 a 13.39105,13.39105 0 0 1 12.39614,-8.3085 13.39105,13.39105 0 0 1 5.07566,1.0025 13.39105,13.39105 0 0 1 7.30601,17.4713 l -2.28565,5.5707 6.11436,2.5089 1.13895,-2.7756 -2.77554,-1.1389 1.13843,-2.7755 2.77554,1.1389 v -2.9998 h 2.99982 v 2.9998 h 20.65455 v -2.9998 h 3.00033 v -34 h -3.00033 v -3.0004 z" />
    <path
       id="path5687"
       style="fill:none;stroke:#000000;stroke-width:0.264583px;stroke-linecap:butt;stroke-linejoin:miter;stroke-opacity:1"
       d="m 159.13379,256.22071 v -3.0003 h 2.99982 v -34 h -2.99982 v -2.9998 h -4.24367 v 2.9998 h -2.99981 v -2.9998 l -2.77554,-1.1385 -3.29489,-1.3518 -6.28127,15.1841 a 13.39105,13.39105 0 0 1 -12.39615,8.3085 13.39105,13.39105 0 0 1 -5.07566,-1.0025 13.39105,13.39105 0 0 1 -7.30601,-17.4713 l 2.28565,-5.5707 -6.11436,-2.5089 -1.13895,2.7755 2.77554,1.139 -1.13843,2.7755 -2.77554,-1.1389 v 2.9998 h -2.99982 v -2.9998 H 85.00033 v 2.9998 H 82 v 34 h 3.00033 v 3.0003 z" />
    <path
       id="path5689"
       style="fill:none;stroke:#000000;stroke-width:0.264583px;stroke-linecap:butt;stroke-linejoin:miter;stroke-opacity:1"
       d="m 84.99982,172 v 3.0003 H 82 v 34.00001 h 2.99982 v 2.9998 h 4.24367 v -2.9998 h 2.99982 v 2.9998 l 2.77554,1.1385 3.29489,1.3518 6.28127,-15.1841 a 13.39105,13.39105 0 0 1 12.39614,-8.3085 13.39105,13.39105 0 0 1 5.07566,1.0025 13.39105,13.39105 0 0 1 7.30601,17.4713 l -2.28565,5.5707 6.11436,2.5089 1.13895,-2.7755 -2.77554,-1.139 1.13843,-2.7755 2.77554,1.1389 v -2.9998 h 2.99982 v 2.9998 h 20.65455 v -2.9998 h 3.00033 V 175.0003 h -3.00033 V 172 Z" />
    <path
       id="path5691"
       style="fill:none;stroke:#000000;stroke-width:0.264583px;stroke-linecap:butt;stroke-linejoin:miter;stroke-opacity:1"
       d="m 77.13343,256.22071 v -3.0003 h 2.99982 v -34 h -2.99982 v -2.9998 h -4.24367 v 2.9998 h -2.99981 v -2.9998 l -2.77554,-1.1385 -3.29489,-1.3518 -6.28127,15.1841 a 13.39105,13.39105 0 0 1 -12.39615,8.3085 13.39105,13.39105 0 0 1 -5.07566,-1.0025 13.39105,13.39105 0 0 1 -7.30601,-17.4713 l 2.28565,-5.5707 -6.11436,-2.5089 -1.13895,2.7755 2.77554,1.139 -1.13843,2.7755 -2.77554,-1.1389 v 2.9998 h -2.99982 v -2.9998 H 2.99997 v 2.9998 H -3.6e-4 v 34 h 3.00033 v 3.0003 z" />
    <path
       id="path5693"
       style="fill:none;stroke:#000000;stroke-width:0.264583px;stroke-linecap:butt;stroke-linejoin:miter;stroke-opacity:1"
       d="m 2.99946,172 v 3.0003 H -3.6e-4 v 34.00001 h 2.99982 v 2.9998 h 4.24367 v -2.9998 h 2.99982 v 2.9998 l 2.77554,1.1385 3.29489,1.3518 6.28127,-15.1841 a 13.39105,13.39105 0 0 1 12.39614,-8.3085 13.39105,13.39105 0 0 1 5.07566,1.0025 13.39105,13.39105 0 0 1 7.30601,17.4713 l -2.28565,5.5707 6.11436,2.5089 1.13895,-2.7755 -2.77554,-1.139 1.13843,-2.7755 2.77554,1.1389 v -2.9998 h 2.99982 v 2.9998 h 20.65455 v -2.9998 h 3.00033 V 175.0003 H 77.13292 V 172 Z" />
    <path
       id="path5695"
       style="fill:none;stroke:#000000;stroke-width:0.264583px;stroke-linecap:butt;stroke-linejoin:miter;stroke-opacity:1"
       d="m 323.13379,342.22081 v -3.0003 h 2.99982 v -34 h -2.99982 v -2.9999 h -4.24367 v 2.9999 h -2.99981 v -2.9999 l -2.77554,-1.1384 -3.29489,-1.3518 -6.28127,15.1841 a 13.39105,13.39105 0 0 1 -12.39615,8.3085 13.39105,13.39105 0 0 1 -5.07566,-1.0025 13.39105,13.39105 0 0 1 -7.30601,-17.4713 l 2.28565,-5.5707 -6.11436,-2.5089 -1.13895,2.7755 2.77554,1.139 -1.13843,2.7755 -2.77554,-1.139 v 2.9999 h -2.99982 v -2.9999 h -20.65455 v 2.9999 H 246 v 34 h 3.00033 v 3.0003 z" />
    <path
       id="path5697"
       style="fill:none;stroke:#000000;stroke-width:0.264583px;stroke-linecap:butt;stroke-linejoin:miter;stroke-opacity:1"
       d="m 248.99982,258.00011 v 3.0003 H 246 v 34 h 2.99982 v 2.9998 h 4.24367 v -2.9998 h 2.99982 v 2.9998 l 2.77554,1.1385 3.29489,1.3518 6.28127,-15.1841 a 13.39105,13.39105 0 0 1 12.39614,-8.3085 13.39105,13.39105 0 0 1 5.07566,1.0025 13.39105,13.39105 0 0 1 7.30601,17.4713 l -2.28565,5.5707 6.11436,2.5089 1.13895,-2.7755 -2.77554,-1.139 1.13843,-2.7755 2.77554,1.1389 v -2.9998 h 2.99982 v 2.9998 h 20.65455 v -2.9998 h 3.00033 v -34 h -3.00033 v -3.0003 z" />
    <path
       id="path5699"
       style="fill:none;stroke:#000000;stroke-width:0.264583px;stroke-linecap:butt;stroke-linejoin:miter;stroke-opacity:1"
       d="m 241.13379,342.22081 v -3.0003 h 2.99982 v -34 h -2.99982 v -2.9999 h -4.24367 v 2.9999 h -2.99981 v -2.9999 l -2.77554,-1.1384 -3.29489,-1.3518 -6.28127,15.1841 a 13.39105,13.39105 0 0 1 -12.39615,8.3085 13.39105,13.39105 0 0 1 -5.07566,-1.0025 13.39105,13.39105 0 0 1 -7.30601,-17.4713 l 2.28565,-5.5707 -6.11436,-2.5089 -1.13895,2.7755 2.77554,1.139 -1.13843,2.7755 -2.77554,-1.139 v 2.9999 h -2.99982 v -2.9999 h -20.65455 v 2.9999 H 164 v 34 h 3.00033 v 3.0003 z" />
    <path
       id="path5701"
       style="fill:none;stroke:#000000;stroke-width:0.264583px;stroke-linecap:butt;stroke-linejoin:miter;stroke-opacity:1"
       d="m 166.99982,258.00011 v 3.0003 H 164 v 34 h 2.99982 v 2.9998 h 4.24367 v -2.9998 h 2.99982 v 2.9998 l 2.77554,1.1385 3.29489,1.3518 6.28127,-15.1841 a 13.39105,13.39105 0 0 1 12.39614,-8.3085 13.39105,13.39105 0 0 1 5.07566,1.0025 13.39105,13.39105 0 0 1 7.30601,17.4713 l -2.28565,5.5707 6.11436,2.5089 1.13895,-2.7755 -2.77554,-1.139 1.13843,-2.7755 2.77554,1.1389 v -2.9998 h 2.99982 v 2.9998 h 20.65455 v -2.9998 h 3.00033 v -34 h -3.00033 v -3.0003 z" />
    <path
       id="path5703"
       style="fill:none;stroke:#000000;stroke-width:0.264583px;stroke-linecap:butt;stroke-linejoin:miter;stroke-opacity:1"
       d="m 323.13379,256.22081 v -3.0004 h 2.99982 v -34 h -2.99982 v -2.9998 h -4.24367 v 2.9998 h -2.99981 v -2.9998 l -2.77554,-1.1384 -3.29489,-1.3519 -6.28127,15.1841 a 13.39105,13.39105 0 0 1 -12.39615,8.3085 13.39105,13.39105 0 0 1 -5.07566,-1.0025 13.39105,13.39105 0 0 1 -7.30601,-17.4713 l 2.28565,-5.5707 -6.11436,-2.5089 -1.13895,2.7756 2.77554,1.1389 -1.13843,2.7755 -2.77554,-1.1389 v 2.9998 h -2.99982 v -2.9998 h -20.65455 v 2.9998 H 246 v 34 h 3.00033 v 3.0004 z" />
    <path
       id="path5705"
       style="fill:none;stroke:#000000;stroke-width:0.264583px;stroke-linecap:butt;stroke-linejoin:miter;stroke-opacity:1"
       d="m 248.99982,172 v 3.0003 H 246 v 34.00011 h 2.99982 v 2.9998 h 4.24367 v -2.9998 h 2.99982 v 2.9998 l 2.77554,1.1384 3.29489,1.3519 6.28127,-15.1841 a 13.39105,13.39105 0 0 1 12.39614,-8.3086 13.39105,13.39105 0 0 1 5.07566,1.0025 13.39105,13.39105 0 0 1 7.30601,17.4714 l -2.28565,5.5707 6.11436,2.5089 1.13895,-2.7756 -2.77554,-1.1389 1.13843,-2.7756 2.77554,1.139 v -2.9998 h 2.99982 v 2.9998 h 20.65455 v -2.9998 h 3.00033 V 175.0003 h -3.00033 V 172 Z" />
    <path
       id="path5707"
       style="fill:none;stroke:#000000;stroke-width:0.264583px;stroke-linecap:butt;stroke-linejoin:miter;stroke-opacity:1"
       d="m 241.13379,256.22081 v -3.0004 h 2.99982 v -34 h -2.99982 v -2.9998 h -4.24367 v 2.9998 h -2.99981 v -2.9998 l -2.77554,-1.1384 -3.29489,-1.3519 -6.28127,15.1841 a 13.39105,13.39105 0 0 1 -12.39615,8.3085 13.39105,13.39105 0 0 1 -5.07566,-1.0025 13.39105,13.39105 0 0 1 -7.30601,-17.4713 l 2.28565,-5.5707 -6.11436,-2.5089 -1.13895,2.7756 2.77554,1.1389 -1.13843,2.7755 -2.77554,-1.1389 v 2.9998 h -2.99982 v -2.9998 h -20.65455 v 2.9998 H 164 v 34 h 3.00033 v 3.0004 z" />
    <path
       id="path5709"
       style="fill:none;stroke:#000000;stroke-width:0.264583px;stroke-linecap:butt;stroke-linejoin:miter;stroke-opacity:1"
       d="m 166.99982,172 v 3.0003 H 164 v 34.00011 h 2.99982 v 2.9998 h 4.24367 v -2.9998 h 2.99982 v 2.9998 l 2.77554,1.1384 3.29489,1.3519 6.28127,-15.1841 a 13.39105,13.39105 0 0 1 12.39614,-8.3086 13.39105,13.39105 0 0 1 5.07566,1.0025 13.39105,13.39105 0 0 1 7.30601,17.4714 l -2.28565,5.5707 6.11436,2.5089 1.13895,-2.7756 -2.77554,-1.1389 1.13843,-2.7756 2.77554,1.139 v -2.9998 h 2.99982 v 2.9998 h 20.65455 v -2.9998 h 3.00033 V 175.0003 h -3.00033 V 172 Z" />
    <path
       id="path5711"
       style="fill:none;stroke:#000000;stroke-width:0.264583px;stroke-linecap:butt;stroke-linejoin:miter;stroke-opacity:1"
       d="m 487.13379,342.22081 v -3.0003 h 2.99982 v -34 h -2.99982 v -2.9999 h -4.24367 v 2.9999 h -2.99981 v -2.9999 l -2.77554,-1.1384 -3.29489,-1.3518 -6.28127,15.1841 a 13.39105,13.39105 0 0 1 -12.39615,8.3085 13.39105,13.39105 0 0 1 -5.07566,-1.0025 13.39105,13.39105 0 0 1 -7.30601,-17.4713 l 2.28565,-5.5707 -6.11436,-2.5089 -1.13895,2.7755 2.77554,1.139 -1.13843,2.7755 -2.77554,-1.139 v 2.9999 h -2.99982 v -2.9999 h -20.65455 v 2.9999 H 410 v 34 h 3.00033 v 3.0003 z" />
    <path
       id="path5713"
       style="fill:none;stroke:#000000;stroke-width:0.264583px;stroke-linecap:butt;stroke-linejoin:miter;stroke-opacity:1"
       d="m 412.99982,258.00011 v 3.0003 H 410 v 34 h 2.99982 v 2.9998 h 4.24367 v -2.9998 h 2.99982 v 2.9998 l 2.77554,1.1385 3.29489,1.3518 6.28127,-15.1841 a 13.39105,13.39105 0 0 1 12.39614,-8.3085 13.39105,13.39105 0 0 1 5.07566,1.0025 13.39105,13.39105 0 0 1 7.30601,17.4713 l -2.28565,5.5707 6.11436,2.5089 1.13895,-2.7755 -2.77554,-1.139 1.13843,-2.7755 2.77554,1.1389 v -2.9998 h 2.99982 v 2.9998 h 20.65455 v -2.9998 h 3.00033 v -34 h -3.00033 v -3.0003 z" />
    <path
       id="path5715"
       style="fill:none;stroke:#000000;stroke-width:0.264583px;stroke-linecap:butt;stroke-linejoin:miter;stroke-opacity:1"
       d="m 405.13379,342.22081 v -3.0003 h 2.99982 v -34 h -2.99982 v -2.9999 h -4.24367 v 2.9999 h -2.99981 v -2.9999 l -2.77554,-1.1384 -3.29489,-1.3518 -6.28127,15.1841 a 13.39105,13.39105 0 0 1 -12.39615,8.3085 13.39105,13.39105 0 0 1 -5.07566,-1.0025 13.39105,13.39105 0 0 1 -7.30601,-17.4713 l 2.28565,-5.5707 -6.11436,-2.5089 -1.13895,2.7755 2.77554,1.139 -1.13843,2.7755 -2.77554,-1.139 v 2.9999 h -2.99982 v -2.9999 h -20.65455 v 2.9999 H 328 v 34 h 3.00033 v 3.0003 z" />
    <path
       id="path5717"
       style="fill:none;stroke:#000000;stroke-width:0.264583px;stroke-linecap:butt;stroke-linejoin:miter;stroke-opacity:1"
       d="m 330.99982,258.00011 v 3.0003 H 328 v 34 h 2.99982 v 2.9998 h 4.24367 v -2.9998 h 2.99982 v 2.9998 l 2.77554,1.1385 3.29489,1.3518 6.28127,-15.1841 a 13.39105,13.39105 0 0 1 12.39614,-8.3085 13.39105,13.39105 0 0 1 5.07566,1.0025 13.39105,13.39105 0 0 1 7.30601,17.4713 l -2.28565,5.5707 6.11436,2.5089 1.13895,-2.7755 -2.77554,-1.139 1.13843,-2.7755 2.77554,1.1389 v -2.9998 h 2.99982 v 2.9998 h 20.65455 v -2.9998 h 3.00033 v -34 h -3.00033 v -3.0003 z" />
    <path
       id="path5719"
       style="fill:none;stroke:#000000;stroke-width:0.264583px;stroke-linecap:butt;stroke-linejoin:miter;stroke-opacity:1"
       d="m 487.13379,256.22081 v -3.0004 h 2.99982 v -34 h -2.99982 v -2.9998 h -4.24367 v 2.9998 h -2.99981 v -2.9998 l -2.77554,-1.1384 -3.29489,-1.3519 -6.28127,15.1841 a 13.39105,13.39105 0 0 1 -12.39615,8.3085 13.39105,13.39105 0 0 1 -5.07566,-1.0025 13.39105,13.39105 0 0 1 -7.30601,-17.4713 l 2.28565,-5.5707 -6.11436,-2.5089 -1.13895,2.7756 2.77554,1.1389 -1.13843,2.7755 -2.77554,-1.1389 v 2.9998 h -2.99982 v -2.9998 h -20.65455 v 2.9998 H 410 v 34 h 3.00033 v 3.0004 z" />
    <path
       id="path5721"
       style="fill:none;stroke:#000000;stroke-width:0.264583px;stroke-linecap:butt;stroke-linejoin:miter;stroke-opacity:1"
       d="m 412.99982,172 v 3.0003 H 410 v 34.00011 h 2.99982 v 2.9998 h 4.24367 v -2.9998 h 2.99982 v 2.9998 l 2.77554,1.1384 3.29489,1.3519 6.28127,-15.1841 a 13.39105,13.39105 0 0 1 12.39614,-8.3086 13.39105,13.39105 0 0 1 5.07566,1.0025 13.39105,13.39105 0 0 1 7.30601,17.4714 l -2.28565,5.5707 6.11436,2.5089 1.13895,-2.7756 -2.77554,-1.1389 1.13843,-2.7756 2.77554,1.139 v -2.9998 h 2.99982 v 2.9998 h 20.65455 v -2.9998 h 3.00033 V 175.0003 h -3.00033 V 172 Z" />
    <path
       id="path5723"
       style="fill:none;stroke:#000000;stroke-width:0.264583px;stroke-linecap:butt;stroke-linejoin:miter;stroke-opacity:1"
       d="m 405.13379,256.22081 v -3.0004 h 2.99982 v -34 h -2.99982 v -2.9998 h -4.24367 v 2.9998 h -2.99981 v -2.9998 l -2.77554,-1.1384 -3.29489,-1.3519 -6.28127,15.1841 a 13.39105,13.39105 0 0 1 -12.39615,8.3085 13.39105,13.39105 0 0 1 -5.07566,-1.0025 13.39105,13.39105 0 0 1 -7.30601,-17.4713 l 2.28565,-5.5707 -6.11436,-2.5089 -1.13895,2.7756 2.77554,1.1389 -1.13843,2.7755 -2.77554,-1.1389 v 2.9998 h -2.99982 v -2.9998 h -20.65455 v 2.9998 H 328 v 34 h 3.00033 v 3.0004 z" />
    <path
       id="path5725"
       style="fill:none;stroke:#000000;stroke-width:0.264583px;stroke-linecap:butt;stroke-linejoin:miter;stroke-opacity:1"
       d="m 330.99982,172 v 3.0003 H 328 v 34.00011 h 2.99982 v 2.9998 h 4.24367 v -2.9998 h 2.99982 v 2.9998 l 2.77554,1.1384 3.29489,1.3519 6.28127,-15.1841 a 13.39105,13.39105 0 0 1 12.39614,-8.3086 13.39105,13.39105 0 0 1 5.07566,1.0025 13.39105,13.39105 0 0 1 7.30601,17.4714 l -2.28565,5.5707 6.11436,2.5089 1.13895,-2.7756 -2.77554,-1.1389 1.13843,-2.7756 2.77554,1.139 v -2.9998 h 2.99982 v 2.9998 h 20.65455 v -2.9998 h 3.00033 V 175.0003 h -3.00033 V 172 Z" />
    <path
       id="path5727"
       style="fill:none;stroke:#000000;stroke-width:0.264583px;stroke-linecap:butt;stroke-linejoin:miter;stroke-opacity:1"
       d="m 569.13379,170.2208 v -3.0003 h 2.99982 v -34 h -2.99982 v -2.9999 h -4.24367 v 2.9999 h -2.99981 v -2.9999 l -2.77554,-1.1384 -3.29489,-1.3518 -6.28127,15.1841 a 13.39105,13.39105 0 0 1 -12.39615,8.3085 13.39105,13.39105 0 0 1 -5.07566,-1.0025 13.39105,13.39105 0 0 1 -7.30601,-17.4713 l 2.28565,-5.5707 -6.11436,-2.5089 -1.13895,2.7755 2.77554,1.139 -1.13843,2.7755 -2.77554,-1.139 v 2.9999 h -2.99982 v -2.9999 h -20.65455 v 2.9999 H 492 v 34 h 3.00033 v 3.0003 z" />
    <path
       id="path5729"
       style="fill:none;stroke:#000000;stroke-width:0.264583px;stroke-linecap:butt;stroke-linejoin:miter;stroke-opacity:1"
       d="m 494.99982,86.0001 v 3.0003 H 492 v 34 h 2.99982 v 2.9998 h 4.24367 v -2.9998 h 2.99982 v 2.9998 l 2.77554,1.1385 3.29489,1.3518 6.28127,-15.1841 a 13.39105,13.39105 0 0 1 12.39614,-8.3085 13.39105,13.39105 0 0 1 5.07566,1.0025 13.39105,13.39105 0 0 1 7.30601,17.4713 l -2.28565,5.5707 6.11436,2.5089 1.13895,-2.7755 -2.77554,-1.139 1.13843,-2.7755 2.77554,1.1389 v -2.9998 h 2.99982 v 2.9998 h 20.65455 v -2.9998 h 3.00033 v -34 h -3.00033 v -3.0003 z" />
    <path
       id="path5731"
       style="fill:none;stroke:#000000;stroke-width:0.264583px;stroke-linecap:butt;stroke-linejoin:miter;stroke-opacity:1"
       d="m 569.13379,84.2208 v -3.0004 h 2.99982 v -34 h -2.99982 v -2.9998 h -4.24367 v 2.9998 h -2.99981 v -2.9998 l -2.77554,-1.1384 -3.29489,-1.3519 -6.28127,15.1841 a 13.39105,13.39105 0 0 1 -12.39615,8.3085 13.39105,13.39105 0 0 1 -5.07566,-1.0025 13.39105,13.39105 0 0 1 -7.30601,-17.4713 l 2.28565,-5.5707 -6.11436,-2.5089 -1.13895,2.7756 2.77554,1.1389 -1.13843,2.7755 -2.77554,-1.1389 v 2.9998 h -2.99982 v -2.9998 h -20.65455 v 2.9998 H 492 v 34 h 3.00033 v 3.0004 z" />
    <path
       id="path5733"
       style="fill:none;stroke:#000000;stroke-width:0.264583px;stroke-linecap:butt;stroke-linejoin:miter;stroke-opacity:1"
       d="M 494.99982,0 V 3.0003 H 492 v 34.0001 h 2.99982 v 2.9998 h 4.24367 v -2.9998 h 2.99982 v 2.9998 l 2.77554,1.1384 3.29489,1.3519 6.28127,-15.1841 a 13.39105,13.39105 0 0 1 12.39614,-8.3086 13.39105,13.39105 0 0 1 5.07566,1.0025 13.39105,13.39105 0 0 1 7.30601,17.4714 l -2.28565,5.5707 6.11436,2.5089 1.13895,-2.7756 -2.77554,-1.1389 1.13843,-2.7756 2.77554,1.139 v -2.9998 h 2.99982 v 2.9998 h 20.65455 v -2.9998 h 3.00033 V 3.0003 h -3.00033 V 0 Z" />
    <path
       id="path5735"
       style="fill:none;stroke:#000000;stroke-width:0.264583px;stroke-linecap:butt;stroke-linejoin:miter;stroke-opacity:1"
       d="m 569.13379,342.22081 v -3.0003 h 2.99982 v -34 h -2.99982 v -2.9999 h -4.24367 v 2.9999 h -2.99981 v -2.9999 l -2.77554,-1.1384 -3.29489,-1.3518 -6.28127,15.1841 a 13.39105,13.39105 0 0 1 -12.39615,8.3085 13.39105,13.39105 0 0 1 -5.07566,-1.0025 13.39105,13.39105 0 0 1 -7.30601,-17.4713 l 2.28565,-5.5707 -6.11436,-2.5089 -1.13895,2.7755 2.77554,1.139 -1.13843,2.7755 -2.77554,-1.139 v 2.9999 h -2.99982 v -2.9999 h -20.65455 v 2.9999 H 492 v 34 h 3.00033 v 3.0003 z" />
    <path
       id="path5737"
       style="fill:none;stroke:#000000;stroke-width:0.264583px;stroke-linecap:butt;stroke-linejoin:miter;stroke-opacity:1"
       d="m 494.99982,258.00011 v 3.0003 H 492 v 34 h 2.99982 v 2.9998 h 4.24367 v -2.9998 h 2.99982 v 2.9998 l 2.77554,1.1385 3.29489,1.3518 6.28127,-15.1841 a 13.39105,13.39105 0 0 1 12.39614,-8.3085 13.39105,13.39105 0 0 1 5.07566,1.0025 13.39105,13.39105 0 0 1 7.30601,17.4713 l -2.28565,5.5707 6.11436,2.5089 1.13895,-2.7755 -2.77554,-1.139 1.13843,-2.7755 2.77554,1.1389 v -2.9998 h 2.99982 v 2.9998 h 20.65455 v -2.9998 h 3.00033 v -34 h -3.00033 v -3.0003 z" />
    <path
       id="path5739"
       style="fill:none;stroke:#000000;stroke-width:0.264583px;stroke-linecap:butt;stroke-linejoin:miter;stroke-opacity:1"
       d="m 569.13379,256.22081 v -3.0004 h 2.99982 v -34 h -2.99982 v -2.9998 h -4.24367 v 2.9998 h -2.99981 v -2.9998 l -2.77554,-1.1384 -3.29489,-1.3519 -6.28127,15.1841 a 13.39105,13.39105 0 0 1 -12.39615,8.3085 13.39105,13.39105 0 0 1 -5.07566,-1.0025 13.39105,13.39105 0 0 1 -7.30601,-17.4713 l 2.28565,-5.5707 -6.11436,-2.5089 -1.13895,2.7756 2.77554,1.1389 -1.13843,2.7755 -2.77554,-1.1389 v 2.9998 h -2.99982 v -2.9998 h -20.65455 v 2.9998 H 492 v 34 h 3.00033 v 3.0004 z" />
    <path
       id="path5741"
       style="fill:none;stroke:#000000;stroke-width:0.264583px;stroke-linecap:butt;stroke-linejoin:miter;stroke-opacity:1"
       d="m 494.99982,172 v 3.0003 H 492 v 34.00011 h 2.99982 v 2.9998 h 4.24367 v -2.9998 h 2.99982 v 2.9998 l 2.77554,1.1384 3.29489,1.3519 6.28127,-15.1841 a 13.39105,13.39105 0 0 1 12.39614,-8.3086 13.39105,13.39105 0 0 1 5.07566,1.0025 13.39105,13.39105 0 0 1 7.30601,17.4714 l -2.28565,5.5707 6.11436,2.5089 1.13895,-2.7756 -2.77554,-1.1389 1.13843,-2.7756 2.77554,1.139 v -2.9998 h 2.99982 v 2.9998 h 20.65455 v -2.9998 h 3.00033 V 175.0003 h -3.00033 V 172 Z" />
    <path
       id="path5743"
       style="fill:none;stroke:#000000;stroke-width:0.264583px;stroke-linecap:butt;stroke-linejoin:miter;stroke-opacity:1"
       d="m 84.99982,344.00001 v 3.0004 H 82 v 34 h 2.99982 v 2.9998 h 4.24367 v -2.9998 h 2.99982 v 2.9998 l 2.77554,1.1384 3.29489,1.3519 6.28127,-15.1841 a 13.39105,13.39105 0 0 1 12.39614,-8.3085 13.39105,13.39105 0 0 1 5.07566,1.0025 13.39105,13.39105 0 0 1 7.30601,17.4713 l -2.28565,5.5707 6.11436,2.5089 1.13895,-2.7756 -2.77554,-1.1389 1.13843,-2.7755 2.77554,1.1389 v -2.9998 h 2.99982 v 2.9998 h 20.65455 v -2.9998 h 3.00033 v -34 h -3.00033 v -3.0004 z" />
    <path
       id="path5745"
       style="fill:none;stroke:#000000;stroke-width:0.264583px;stroke-linecap:butt;stroke-linejoin:miter;stroke-opacity:1"
       d="m 2.99946,344.00001 v 3.0004 H -3.6e-4 v 34 h 2.99982 v 2.9998 h 4.24367 v -2.9998 h 2.99982 v 2.9998 l 2.77554,1.1384 3.29489,1.3519 6.28127,-15.1841 a 13.39105,13.39105 0 0 1 12.39614,-8.3085 13.39105,13.39105 0 0 1 5.07566,1.0025 13.39105,13.39105 0 0 1 7.30601,17.4713 l -2.28565,5.5707 6.11436,2.5089 1.13895,-2.7756 -2.77554,-1.1389 1.13843,-2.7755 2.77554,1.1389 v -2.9998 h 2.99982 v 2.9998 h 20.65455 v -2.9998 h 3.00033 v -34 h -3.00033 v -3.0004 z" />
    <path
       id="path5747"
       style="fill:none;stroke:#000000;stroke-width:0.264583px;stroke-linecap:butt;stroke-linejoin:miter;stroke-opacity:1"
       d="m 248.99982,344.00011 v 3.0003 H 246 v 34 h 2.99982 v 2.9998 h 4.24367 v -2.9998 h 2.99982 v 2.9998 l 2.77554,1.1385 3.29489,1.3518 6.28127,-15.1841 a 13.39105,13.39105 0 0 1 12.39614,-8.3085 13.39105,13.39105 0 0 1 5.07566,1.0025 13.39105,13.39105 0 0 1 7.30601,17.4713 l -2.28565,5.5707 6.11436,2.5089 1.13895,-2.7755 -2.77554,-1.139 1.13843,-2.7755 2.77554,1.1389 v -2.9998 h 2.99982 v 2.9998 h 20.65455 v -2.9998 h 3.00033 v -34 h -3.00033 v -3.0003 z" />
    <path
       id="path5749"
       style="fill:none;stroke:#000000;stroke-width:0.264583px;stroke-linecap:butt;stroke-linejoin:miter;stroke-opacity:1"
       d="m 166.99982,344.00011 v 3.0003 H 164 v 34 h 2.99982 v 2.9998 h 4.24367 v -2.9998 h 2.99982 v 2.9998 l 2.77554,1.1385 3.29489,1.3518 6.28127,-15.1841 a 13.39105,13.39105 0 0 1 12.39614,-8.3085 13.39105,13.39105 0 0 1 5.07566,1.0025 13.39105,13.39105 0 0 1 7.30601,17.4713 l -2.28565,5.5707 6.11436,2.5089 1.13895,-2.7755 -2.77554,-1.139 1.13843,-2.7755 2.77554,1.1389 v -2.9998 h 2.99982 v 2.9998 h 20.65455 v -2.9998 h 3.00033 v -34 h -3.00033 v -3.0003 z" />
    <path
       id="path5751"
       style="fill:none;stroke:#000000;stroke-width:0.264583px;stroke-linecap:butt;stroke-linejoin:miter;stroke-opacity:1"
       d="m 412.99982,344.00011 v 3.0003 H 410 v 34 h 2.99982 v 2.9998 h 4.24367 v -2.9998 h 2.99982 v 2.9998 l 2.77554,1.1385 3.29489,1.3518 6.28127,-15.1841 a 13.39105,13.39105 0 0 1 12.39614,-8.3085 13.39105,13.39105 0 0 1 5.07566,1.0025 13.39105,13.39105 0 0 1 7.30601,17.4713 l -2.28565,5.5707 6.11436,2.5089 1.13895,-2.7755 -2.77554,-1.139 1.13843,-2.7755 2.77554,1.1389 v -2.9998 h 2.99982 v 2.9998 h 20.65455 v -2.9998 h 3.00033 v -34 h -3.00033 v -3.0003 z" />
    <path
       id="path5753"
       style="fill:none;stroke:#000000;stroke-width:0.264583px;stroke-linecap:butt;stroke-linejoin:miter;stroke-opacity:1"
       d="m 330.99982,344.00011 v 3.0003 H 328 v 34 h 2.99982 v 2.9998 h 4.24367 v -2.9998 h 2.99982 v 2.9998 l 2.77554,1.1385 3.29489,1.3518 6.28127,-15.1841 a 13.39105,13.39105 0 0 1 12.39614,-8.3085 13.39105,13.39105 0 0 1 5.07566,1.0025 13.39105,13.39105 0 0 1 7.30601,17.4713 l -2.28565,5.5707 6.11436,2.5089 1.13895,-2.7755 -2.77554,-1.139 1.13843,-2.7755 2.77554,1.1389 v -2.9998 h 2.99982 v 2.9998 h 20.65455 v -2.9998 h 3.00033 v -34 h -3.00033 v -3.0003 z" />
    <path
       id="path5755"
       style="fill:none;stroke:#000000;stroke-width:0.264583px;stroke-linecap:butt;stroke-linejoin:miter;stroke-opacity:1"
       d="m 494.99982,344.00011 v 3.0003 H 492 v 34 h 2.99982 v 2.9998 h 4.24367 v -2.9998 h 2.99982 v 2.9998 l 2.77554,1.1385 3.29489,1.3518 6.28127,-15.1841 a 13.39105,13.39105 0 0 1 12.39614,-8.3085 13.39105,13.39105 0 0 1 5.07566,1.0025 13.39105,13.39105 0 0 1 7.30601,17.4713 l -2.28565,5.5707 6.11436,2.5089 1.13895,-2.7755 -2.77554,-1.139 1.13843,-2.7755 2.77554,1.1389 v -2.9998 h 2.99982 v 2.9998 h 20.65455 v -2.9998 h 3.00033 v -34 h -3.00033 v -3.0003 z" />
  </g>
  <g
     id="g941"
     transform="translate(-0.4552025,23.827198)" />
</svg>
