<?xml version="1.0" encoding="UTF-8" standalone="no"?>
<svg
   xmlns:dc="http://purl.org/dc/elements/1.1/"
   xmlns:cc="http://creativecommons.org/ns#"
   xmlns:rdf="http://www.w3.org/1999/02/22-rdf-syntax-ns#"
   xmlns:svg="http://www.w3.org/2000/svg"
   xmlns="http://www.w3.org/2000/svg"
   xmlns:sodipodi="http://sodipodi.sourceforge.net/DTD/sodipodi-0.dtd"
   xmlns:inkscape="http://www.inkscape.org/namespaces/inkscape"
   width="600mm"
   height="400mm"
   viewBox="0 0 600 400"
   version="1.1"
   id="svg8"
   inkscape:version="1.0.2 (e86c870879, 2021-01-15)"
   sodipodi:docname="4_3x_rect2.svg">
  <metadata
     id="metadata1033">
    <rdf:RDF>
      <cc:Work
         rdf:about="">
        <dc:format>image/svg+xml</dc:format>
        <dc:type
           rdf:resource="http://purl.org/dc/dcmitype/StillImage" />
        <dc:title />
      </cc:Work>
    </rdf:RDF>
  </metadata>
  <defs
     id="defs1031" />
  <sodipodi:namedview
     id="base"
     pagecolor="#ffffff"
     bordercolor="#666666"
     borderopacity="1.0"
     inkscape:pageopacity="0.0"
     inkscape:pageshadow="2"
     inkscape:zoom="0.175"
     inkscape:cx="888.34925"
     inkscape:cy="841.79934"
     inkscape:document-units="mm"
     inkscape:current-layer="g1096"
     inkscape:document-rotation="0"
     showgrid="false"
     showguides="true"
     inkscape:guide-bbox="true"
     inkscape:snap-center="true"
     inkscape:snap-intersection-paths="true"
     inkscape:snap-midpoints="true"
     inkscape:window-width="1364"
     inkscape:window-height="750"
     inkscape:window-x="1"
     inkscape:window-y="17"
     inkscape:window-maximized="0"
     inkscape:object-paths="true"
     inkscape:snap-smooth-nodes="true"
     inkscape:snap-global="true"
     inkscape:snap-bbox="true"
     inkscape:snap-bbox-edge-midpoints="false" />
  <g
     inkscape:label="test1"
     inkscape:groupmode="layer"
     id="g1096"
     style="display:inline">
    <path
       style="fill:none;stroke:#0000ff;stroke-width:0.264583px;stroke-linecap:butt;stroke-linejoin:miter;stroke-opacity:1"
       d=""
       id="path952" />
    <path
       style="fill:none;stroke:#0000ff;stroke-width:0.264583px;stroke-linecap:butt;stroke-linejoin:miter;stroke-opacity:1"
       d=""
       id="path1032" />
    <g
       id="g3128"
       transform="translate(7.20444,-745.60897)">
      <g
         transform="rotate(180,238.86963,502.60389)"
         id="g3112">
        <path
           style="fill:none;stroke:#000000;stroke-width:0.264583px;stroke-linecap:butt;stroke-linejoin:miter;stroke-opacity:1"
           d="m -40.114213,-17 v -3 h 80.228426 v 3 h 3 v 34 h -3 v 3 H 32.82332 v -3 h -3 v 3 l -2.775488,1.138713 1.138713,2.775488 2.775488,-1.138713 2.767412,6.745262 -2.775488,1.138713 1.138713,2.775488 L 0.637142,46.340365 -0.501571,43.564877 -3.277059,44.70359 -12.27361,22.775488 -9.498122,21.636775 -10.636835,18.861287 -13.412323,20 v -3 h -3 v 3 h -23.70189 v -3 h -3 v -34 z"
           id="path3108" />
        <path
           style="fill:none;stroke:#0000ff;stroke-width:0.264583px;stroke-linecap:butt;stroke-linejoin:miter;stroke-opacity:1"
           d=""
           id="path3110" />
      </g>
      <path
         id="path3114"
         style="fill:none;stroke:#0000ff;stroke-width:0.755902;stroke-linejoin:round;stroke-opacity:1;stop-color:#000000"
         d="m 1782.7344,3648.8125 -66.4375,27.2559 c 1.9811,4.828 -0.3259,10.3493 -5.1543,12.33 l 26.8554,65.4571 h -70.7539 a 9.4488185,9.4488185 0 0 1 -9.4492,9.4492 v 71.8105 a 9.4488185,9.4488185 0 0 1 9.4492,9.4493 h 276.7676 a 9.4488185,9.4488185 0 0 1 9.3399,-9.4493 9.4488185,9.4488185 0 0 1 0.1093,0 v -71.8105 a 9.4488185,9.4488185 0 0 1 -9.4492,-9.4492 h -107.9668 l -40.9824,-99.8887 c -4.8281,1.9811 -10.3475,-0.3262 -12.3281,-5.1543 z"
         transform="scale(0.26458333)" />
      <circle
         style="fill:none;stroke:#0000ff;stroke-width:0.1;stroke-linejoin:round;stroke-opacity:1;stop-color:#000000"
         id="circle3116"
         cx="438.62506"
         cy="993.20776"
         r="1.05" />
      <circle
         style="fill:none;stroke:#0000ff;stroke-width:0.1;stroke-linejoin:round;stroke-opacity:1;stop-color:#000000"
         id="circle3118"
         cx="438.62506"
         cy="1017.2078"
         r="1.05" />
      <circle
         style="fill:none;stroke:#0000ff;stroke-width:0.1;stroke-linejoin:round;stroke-opacity:1;stop-color:#000000"
         id="circle3120"
         cx="516.85327"
         cy="1017.2077"
         r="1.05" />
      <circle
         style="fill:none;stroke:#0000ff;stroke-width:0.1;stroke-linejoin:round;stroke-opacity:1;stop-color:#000000"
         id="circle3122"
         cx="516.85327"
         cy="993.20764"
         r="1.05" />
      <circle
         style="fill:none;stroke:#0000ff;stroke-width:0.1;stroke-linejoin:round;stroke-opacity:1;stop-color:#000000"
         id="circle3124"
         cx="1072.2024"
         cy="-72.438744"
         r="1.05"
         transform="rotate(67.692885)" />
      <circle
         style="fill:none;stroke:#0000ff;stroke-width:0.1;stroke-linejoin:round;stroke-opacity:1;stop-color:#000000"
         id="circle3126"
         cx="1072.2024"
         cy="-48.438744"
         r="1.05"
         transform="rotate(67.692885)" />
    </g>
    <g
       id="g3150"
       transform="rotate(180,490.00207,598.6039)">
      <g
         transform="rotate(180,238.86963,502.60389)"
         id="g3134">
        <path
           style="fill:none;stroke:#000000;stroke-width:0.264583px;stroke-linecap:butt;stroke-linejoin:miter;stroke-opacity:1"
           d="m -40.114213,-17 v -3 h 80.228426 v 3 h 3 v 34 h -3 v 3 H 32.82332 v -3 h -3 v 3 l -2.775488,1.138713 1.138713,2.775488 2.775488,-1.138713 2.767412,6.745262 -2.775488,1.138713 1.138713,2.775488 L 0.637142,46.340365 -0.501571,43.564877 -3.277059,44.70359 -12.27361,22.775488 -9.498122,21.636775 -10.636835,18.861287 -13.412323,20 v -3 h -3 v 3 h -23.70189 v -3 h -3 v -34 z"
           id="path3130" />
        <path
           style="fill:none;stroke:#0000ff;stroke-width:0.264583px;stroke-linecap:butt;stroke-linejoin:miter;stroke-opacity:1"
           d=""
           id="path3132" />
      </g>
      <path
         id="path3136"
         style="fill:none;stroke:#0000ff;stroke-width:0.755902;stroke-linejoin:round;stroke-opacity:1;stop-color:#000000"
         d="m 1782.7344,3648.8125 -66.4375,27.2559 c 1.9811,4.828 -0.3259,10.3493 -5.1543,12.33 l 26.8554,65.4571 h -70.7539 a 9.4488185,9.4488185 0 0 1 -9.4492,9.4492 v 71.8105 a 9.4488185,9.4488185 0 0 1 9.4492,9.4493 h 276.7676 a 9.4488185,9.4488185 0 0 1 9.3399,-9.4493 9.4488185,9.4488185 0 0 1 0.1093,0 v -71.8105 a 9.4488185,9.4488185 0 0 1 -9.4492,-9.4492 h -107.9668 l -40.9824,-99.8887 c -4.8281,1.9811 -10.3475,-0.3262 -12.3281,-5.1543 z"
         transform="scale(0.26458333)" />
      <circle
         style="fill:none;stroke:#0000ff;stroke-width:0.1;stroke-linejoin:round;stroke-opacity:1;stop-color:#000000"
         id="circle3138"
         cx="438.62506"
         cy="993.20776"
         r="1.05" />
      <circle
         style="fill:none;stroke:#0000ff;stroke-width:0.1;stroke-linejoin:round;stroke-opacity:1;stop-color:#000000"
         id="circle3140"
         cx="438.62506"
         cy="1017.2078"
         r="1.05" />
      <circle
         style="fill:none;stroke:#0000ff;stroke-width:0.1;stroke-linejoin:round;stroke-opacity:1;stop-color:#000000"
         id="circle3142"
         cx="516.85327"
         cy="1017.2077"
         r="1.05" />
      <circle
         style="fill:none;stroke:#0000ff;stroke-width:0.1;stroke-linejoin:round;stroke-opacity:1;stop-color:#000000"
         id="circle3144"
         cx="516.85327"
         cy="993.20764"
         r="1.05" />
      <circle
         style="fill:none;stroke:#0000ff;stroke-width:0.1;stroke-linejoin:round;stroke-opacity:1;stop-color:#000000"
         id="circle3146"
         cx="1072.2024"
         cy="-72.438744"
         r="1.05"
         transform="rotate(67.692885)" />
      <circle
         style="fill:none;stroke:#0000ff;stroke-width:0.1;stroke-linejoin:round;stroke-opacity:1;stop-color:#000000"
         id="circle3148"
         cx="1072.2024"
         cy="-48.438744"
         r="1.05"
         transform="rotate(67.692885)" />
    </g>
    <g
       id="g3174"
       transform="translate(-81.14067,-745.60897)">
      <g
         transform="rotate(180,238.86963,502.60389)"
         id="g3157">
        <path
           style="fill:none;stroke:#000000;stroke-width:0.264583px;stroke-linecap:butt;stroke-linejoin:miter;stroke-opacity:1"
           d="m -40.114213,-17 v -3 h 80.228426 v 3 h 3 v 34 h -3 v 3 H 32.82332 v -3 h -3 v 3 l -2.775488,1.138713 1.138713,2.775488 2.775488,-1.138713 2.767412,6.745262 -2.775488,1.138713 1.138713,2.775488 L 0.637142,46.340365 -0.501571,43.564877 -3.277059,44.70359 -12.27361,22.775488 -9.498122,21.636775 -10.636835,18.861287 -13.412323,20 v -3 h -3 v 3 h -23.70189 v -3 h -3 v -34 z"
           id="path3152" />
        <path
           style="fill:none;stroke:#0000ff;stroke-width:0.264583px;stroke-linecap:butt;stroke-linejoin:miter;stroke-opacity:1"
           d=""
           id="path3155" />
      </g>
      <path
         id="path3160"
         style="fill:none;stroke:#0000ff;stroke-width:0.755902;stroke-linejoin:round;stroke-opacity:1;stop-color:#000000"
         d="m 1782.7344,3648.8125 -66.4375,27.2559 c 1.9811,4.828 -0.3259,10.3493 -5.1543,12.33 l 26.8554,65.4571 h -70.7539 a 9.4488185,9.4488185 0 0 1 -9.4492,9.4492 v 71.8105 a 9.4488185,9.4488185 0 0 1 9.4492,9.4493 h 276.7676 a 9.4488185,9.4488185 0 0 1 9.3399,-9.4493 9.4488185,9.4488185 0 0 1 0.1093,0 v -71.8105 a 9.4488185,9.4488185 0 0 1 -9.4492,-9.4492 h -107.9668 l -40.9824,-99.8887 c -4.8281,1.9811 -10.3475,-0.3262 -12.3281,-5.1543 z"
         transform="scale(0.26458333)" />
      <circle
         style="fill:none;stroke:#0000ff;stroke-width:0.1;stroke-linejoin:round;stroke-opacity:1;stop-color:#000000"
         id="circle3162"
         cx="438.62506"
         cy="993.20776"
         r="1.05" />
      <circle
         style="fill:none;stroke:#0000ff;stroke-width:0.1;stroke-linejoin:round;stroke-opacity:1;stop-color:#000000"
         id="circle3164"
         cx="438.62506"
         cy="1017.2078"
         r="1.05" />
      <circle
         style="fill:none;stroke:#0000ff;stroke-width:0.1;stroke-linejoin:round;stroke-opacity:1;stop-color:#000000"
         id="circle3166"
         cx="516.85327"
         cy="1017.2077"
         r="1.05" />
      <circle
         style="fill:none;stroke:#0000ff;stroke-width:0.1;stroke-linejoin:round;stroke-opacity:1;stop-color:#000000"
         id="circle3168"
         cx="516.85327"
         cy="993.20764"
         r="1.05" />
      <circle
         style="fill:none;stroke:#0000ff;stroke-width:0.1;stroke-linejoin:round;stroke-opacity:1;stop-color:#000000"
         id="circle3170"
         cx="1072.2024"
         cy="-72.438744"
         r="1.05"
         transform="rotate(67.692885)" />
      <circle
         style="fill:none;stroke:#0000ff;stroke-width:0.1;stroke-linejoin:round;stroke-opacity:1;stop-color:#000000"
         id="circle3172"
         cx="1072.2024"
         cy="-48.438744"
         r="1.05"
         transform="rotate(67.692885)" />
    </g>
    <g
       id="g3196"
       transform="rotate(180,445.82951,598.6039)">
      <g
         transform="rotate(180,238.86963,502.60389)"
         id="g3180">
        <path
           style="fill:none;stroke:#000000;stroke-width:0.264583px;stroke-linecap:butt;stroke-linejoin:miter;stroke-opacity:1"
           d="m -40.114213,-17 v -3 h 80.228426 v 3 h 3 v 34 h -3 v 3 H 32.82332 v -3 h -3 v 3 l -2.775488,1.138713 1.138713,2.775488 2.775488,-1.138713 2.767412,6.745262 -2.775488,1.138713 1.138713,2.775488 L 0.637142,46.340365 -0.501571,43.564877 -3.277059,44.70359 -12.27361,22.775488 -9.498122,21.636775 -10.636835,18.861287 -13.412323,20 v -3 h -3 v 3 h -23.70189 v -3 h -3 v -34 z"
           id="path3176" />
        <path
           style="fill:none;stroke:#0000ff;stroke-width:0.264583px;stroke-linecap:butt;stroke-linejoin:miter;stroke-opacity:1"
           d=""
           id="path3178" />
      </g>
      <path
         id="path3182"
         style="fill:none;stroke:#0000ff;stroke-width:0.755902;stroke-linejoin:round;stroke-opacity:1;stop-color:#000000"
         d="m 1782.7344,3648.8125 -66.4375,27.2559 c 1.9811,4.828 -0.3259,10.3493 -5.1543,12.33 l 26.8554,65.4571 h -70.7539 a 9.4488185,9.4488185 0 0 1 -9.4492,9.4492 v 71.8105 a 9.4488185,9.4488185 0 0 1 9.4492,9.4493 h 276.7676 a 9.4488185,9.4488185 0 0 1 9.3399,-9.4493 9.4488185,9.4488185 0 0 1 0.1093,0 v -71.8105 a 9.4488185,9.4488185 0 0 1 -9.4492,-9.4492 h -107.9668 l -40.9824,-99.8887 c -4.8281,1.9811 -10.3475,-0.3262 -12.3281,-5.1543 z"
         transform="scale(0.26458333)" />
      <circle
         style="fill:none;stroke:#0000ff;stroke-width:0.1;stroke-linejoin:round;stroke-opacity:1;stop-color:#000000"
         id="circle3184"
         cx="438.62506"
         cy="993.20776"
         r="1.05" />
      <circle
         style="fill:none;stroke:#0000ff;stroke-width:0.1;stroke-linejoin:round;stroke-opacity:1;stop-color:#000000"
         id="circle3186"
         cx="438.62506"
         cy="1017.2078"
         r="1.05" />
      <circle
         style="fill:none;stroke:#0000ff;stroke-width:0.1;stroke-linejoin:round;stroke-opacity:1;stop-color:#000000"
         id="circle3188"
         cx="516.85327"
         cy="1017.2077"
         r="1.05" />
      <circle
         style="fill:none;stroke:#0000ff;stroke-width:0.1;stroke-linejoin:round;stroke-opacity:1;stop-color:#000000"
         id="circle3190"
         cx="516.85327"
         cy="993.20764"
         r="1.05" />
      <circle
         style="fill:none;stroke:#0000ff;stroke-width:0.1;stroke-linejoin:round;stroke-opacity:1;stop-color:#000000"
         id="circle3192"
         cx="1072.2024"
         cy="-72.438744"
         r="1.05"
         transform="rotate(67.692885)" />
      <circle
         style="fill:none;stroke:#0000ff;stroke-width:0.1;stroke-linejoin:round;stroke-opacity:1;stop-color:#000000"
         id="circle3194"
         cx="1072.2024"
         cy="-48.438744"
         r="1.05"
         transform="rotate(67.692885)" />
    </g>
    <g
       id="g3218"
       transform="translate(-169.53732,-745.60897)">
      <g
         transform="rotate(180,238.86963,502.60389)"
         id="g3202">
        <path
           style="fill:none;stroke:#000000;stroke-width:0.264583px;stroke-linecap:butt;stroke-linejoin:miter;stroke-opacity:1"
           d="m -40.114213,-17 v -3 h 80.228426 v 3 h 3 v 34 h -3 v 3 H 32.82332 v -3 h -3 v 3 l -2.775488,1.138713 1.138713,2.775488 2.775488,-1.138713 2.767412,6.745262 -2.775488,1.138713 1.138713,2.775488 L 0.637142,46.340365 -0.501571,43.564877 -3.277059,44.70359 -12.27361,22.775488 -9.498122,21.636775 -10.636835,18.861287 -13.412323,20 v -3 h -3 v 3 h -23.70189 v -3 h -3 v -34 z"
           id="path3198" />
        <path
           style="fill:none;stroke:#0000ff;stroke-width:0.264583px;stroke-linecap:butt;stroke-linejoin:miter;stroke-opacity:1"
           d=""
           id="path3200" />
      </g>
      <path
         id="path3204"
         style="fill:none;stroke:#0000ff;stroke-width:0.755902;stroke-linejoin:round;stroke-opacity:1;stop-color:#000000"
         d="m 1782.7344,3648.8125 -66.4375,27.2559 c 1.9811,4.828 -0.3259,10.3493 -5.1543,12.33 l 26.8554,65.4571 h -70.7539 a 9.4488185,9.4488185 0 0 1 -9.4492,9.4492 v 71.8105 a 9.4488185,9.4488185 0 0 1 9.4492,9.4493 h 276.7676 a 9.4488185,9.4488185 0 0 1 9.3399,-9.4493 9.4488185,9.4488185 0 0 1 0.1093,0 v -71.8105 a 9.4488185,9.4488185 0 0 1 -9.4492,-9.4492 h -107.9668 l -40.9824,-99.8887 c -4.8281,1.9811 -10.3475,-0.3262 -12.3281,-5.1543 z"
         transform="scale(0.26458333)" />
      <circle
         style="fill:none;stroke:#0000ff;stroke-width:0.1;stroke-linejoin:round;stroke-opacity:1;stop-color:#000000"
         id="circle3206"
         cx="438.62506"
         cy="993.20776"
         r="1.05" />
      <circle
         style="fill:none;stroke:#0000ff;stroke-width:0.1;stroke-linejoin:round;stroke-opacity:1;stop-color:#000000"
         id="circle3208"
         cx="438.62506"
         cy="1017.2078"
         r="1.05" />
      <circle
         style="fill:none;stroke:#0000ff;stroke-width:0.1;stroke-linejoin:round;stroke-opacity:1;stop-color:#000000"
         id="circle3210"
         cx="516.85327"
         cy="1017.2077"
         r="1.05" />
      <circle
         style="fill:none;stroke:#0000ff;stroke-width:0.1;stroke-linejoin:round;stroke-opacity:1;stop-color:#000000"
         id="circle3212"
         cx="516.85327"
         cy="993.20764"
         r="1.05" />
      <circle
         style="fill:none;stroke:#0000ff;stroke-width:0.1;stroke-linejoin:round;stroke-opacity:1;stop-color:#000000"
         id="circle3214"
         cx="1072.2024"
         cy="-72.438744"
         r="1.05"
         transform="rotate(67.692885)" />
      <circle
         style="fill:none;stroke:#0000ff;stroke-width:0.1;stroke-linejoin:round;stroke-opacity:1;stop-color:#000000"
         id="circle3216"
         cx="1072.2024"
         cy="-48.438744"
         r="1.05"
         transform="rotate(67.692885)" />
    </g>
    <g
       id="g3240"
       transform="rotate(180,401.63127,598.6039)">
      <g
         transform="rotate(180,238.86963,502.60389)"
         id="g3224">
        <path
           style="fill:none;stroke:#000000;stroke-width:0.264583px;stroke-linecap:butt;stroke-linejoin:miter;stroke-opacity:1"
           d="m -40.114213,-17 v -3 h 80.228426 v 3 h 3 v 34 h -3 v 3 H 32.82332 v -3 h -3 v 3 l -2.775488,1.138713 1.138713,2.775488 2.775488,-1.138713 2.767412,6.745262 -2.775488,1.138713 1.138713,2.775488 L 0.637142,46.340365 -0.501571,43.564877 -3.277059,44.70359 -12.27361,22.775488 -9.498122,21.636775 -10.636835,18.861287 -13.412323,20 v -3 h -3 v 3 h -23.70189 v -3 h -3 v -34 z"
           id="path3220" />
        <path
           style="fill:none;stroke:#0000ff;stroke-width:0.264583px;stroke-linecap:butt;stroke-linejoin:miter;stroke-opacity:1"
           d=""
           id="path3222" />
      </g>
      <path
         id="path3226"
         style="fill:none;stroke:#0000ff;stroke-width:0.755902;stroke-linejoin:round;stroke-opacity:1;stop-color:#000000"
         d="m 1782.7344,3648.8125 -66.4375,27.2559 c 1.9811,4.828 -0.3259,10.3493 -5.1543,12.33 l 26.8554,65.4571 h -70.7539 a 9.4488185,9.4488185 0 0 1 -9.4492,9.4492 v 71.8105 a 9.4488185,9.4488185 0 0 1 9.4492,9.4493 h 276.7676 a 9.4488185,9.4488185 0 0 1 9.3399,-9.4493 9.4488185,9.4488185 0 0 1 0.1093,0 v -71.8105 a 9.4488185,9.4488185 0 0 1 -9.4492,-9.4492 h -107.9668 l -40.9824,-99.8887 c -4.8281,1.9811 -10.3475,-0.3262 -12.3281,-5.1543 z"
         transform="scale(0.26458333)" />
      <circle
         style="fill:none;stroke:#0000ff;stroke-width:0.1;stroke-linejoin:round;stroke-opacity:1;stop-color:#000000"
         id="circle3228"
         cx="438.62506"
         cy="993.20776"
         r="1.05" />
      <circle
         style="fill:none;stroke:#0000ff;stroke-width:0.1;stroke-linejoin:round;stroke-opacity:1;stop-color:#000000"
         id="circle3230"
         cx="438.62506"
         cy="1017.2078"
         r="1.05" />
      <circle
         style="fill:none;stroke:#0000ff;stroke-width:0.1;stroke-linejoin:round;stroke-opacity:1;stop-color:#000000"
         id="circle3232"
         cx="516.85327"
         cy="1017.2077"
         r="1.05" />
      <circle
         style="fill:none;stroke:#0000ff;stroke-width:0.1;stroke-linejoin:round;stroke-opacity:1;stop-color:#000000"
         id="circle3234"
         cx="516.85327"
         cy="993.20764"
         r="1.05" />
      <circle
         style="fill:none;stroke:#0000ff;stroke-width:0.1;stroke-linejoin:round;stroke-opacity:1;stop-color:#000000"
         id="circle3236"
         cx="1072.2024"
         cy="-72.438744"
         r="1.05"
         transform="rotate(67.692885)" />
      <circle
         style="fill:none;stroke:#0000ff;stroke-width:0.1;stroke-linejoin:round;stroke-opacity:1;stop-color:#000000"
         id="circle3238"
         cx="1072.2024"
         cy="-48.438744"
         r="1.05"
         transform="rotate(67.692885)" />
    </g>
    <g
       id="g3262"
       transform="translate(-257.88243,-745.60897)">
      <g
         transform="rotate(180,238.86963,502.60389)"
         id="g3246">
        <path
           style="fill:none;stroke:#000000;stroke-width:0.264583px;stroke-linecap:butt;stroke-linejoin:miter;stroke-opacity:1"
           d="m -40.114213,-17 v -3 h 80.228426 v 3 h 3 v 34 h -3 v 3 H 32.82332 v -3 h -3 v 3 l -2.775488,1.138713 1.138713,2.775488 2.775488,-1.138713 2.767412,6.745262 -2.775488,1.138713 1.138713,2.775488 L 0.637142,46.340365 -0.501571,43.564877 -3.277059,44.70359 -12.27361,22.775488 -9.498122,21.636775 -10.636835,18.861287 -13.412323,20 v -3 h -3 v 3 h -23.70189 v -3 h -3 v -34 z"
           id="path3242" />
        <path
           style="fill:none;stroke:#0000ff;stroke-width:0.264583px;stroke-linecap:butt;stroke-linejoin:miter;stroke-opacity:1"
           d=""
           id="path3244" />
      </g>
      <path
         id="path3248"
         style="fill:none;stroke:#0000ff;stroke-width:0.755902;stroke-linejoin:round;stroke-opacity:1;stop-color:#000000"
         d="m 1782.7344,3648.8125 -66.4375,27.2559 c 1.9811,4.828 -0.3259,10.3493 -5.1543,12.33 l 26.8554,65.4571 h -70.7539 a 9.4488185,9.4488185 0 0 1 -9.4492,9.4492 v 71.8105 a 9.4488185,9.4488185 0 0 1 9.4492,9.4493 h 276.7676 a 9.4488185,9.4488185 0 0 1 9.3399,-9.4493 9.4488185,9.4488185 0 0 1 0.1093,0 v -71.8105 a 9.4488185,9.4488185 0 0 1 -9.4492,-9.4492 h -107.9668 l -40.9824,-99.8887 c -4.8281,1.9811 -10.3475,-0.3262 -12.3281,-5.1543 z"
         transform="scale(0.26458333)" />
      <circle
         style="fill:none;stroke:#0000ff;stroke-width:0.1;stroke-linejoin:round;stroke-opacity:1;stop-color:#000000"
         id="circle3250"
         cx="438.62506"
         cy="993.20776"
         r="1.05" />
      <circle
         style="fill:none;stroke:#0000ff;stroke-width:0.1;stroke-linejoin:round;stroke-opacity:1;stop-color:#000000"
         id="circle3252"
         cx="438.62506"
         cy="1017.2078"
         r="1.05" />
      <circle
         style="fill:none;stroke:#0000ff;stroke-width:0.1;stroke-linejoin:round;stroke-opacity:1;stop-color:#000000"
         id="circle3254"
         cx="516.85327"
         cy="1017.2077"
         r="1.05" />
      <circle
         style="fill:none;stroke:#0000ff;stroke-width:0.1;stroke-linejoin:round;stroke-opacity:1;stop-color:#000000"
         id="circle3256"
         cx="516.85327"
         cy="993.20764"
         r="1.05" />
      <circle
         style="fill:none;stroke:#0000ff;stroke-width:0.1;stroke-linejoin:round;stroke-opacity:1;stop-color:#000000"
         id="circle3258"
         cx="1072.2024"
         cy="-72.438744"
         r="1.05"
         transform="rotate(67.692885)" />
      <circle
         style="fill:none;stroke:#0000ff;stroke-width:0.1;stroke-linejoin:round;stroke-opacity:1;stop-color:#000000"
         id="circle3260"
         cx="1072.2024"
         cy="-48.438744"
         r="1.05"
         transform="rotate(67.692885)" />
    </g>
    <g
       id="g3284"
       transform="rotate(180,357.45869,598.6039)">
      <g
         transform="rotate(180,238.86963,502.60389)"
         id="g3268">
        <path
           style="fill:none;stroke:#000000;stroke-width:0.264583px;stroke-linecap:butt;stroke-linejoin:miter;stroke-opacity:1"
           d="m -40.114213,-17 v -3 h 80.228426 v 3 h 3 v 34 h -3 v 3 H 32.82332 v -3 h -3 v 3 l -2.775488,1.138713 1.138713,2.775488 2.775488,-1.138713 2.767412,6.745262 -2.775488,1.138713 1.138713,2.775488 L 0.637142,46.340365 -0.501571,43.564877 -3.277059,44.70359 -12.27361,22.775488 -9.498122,21.636775 -10.636835,18.861287 -13.412323,20 v -3 h -3 v 3 h -23.70189 v -3 h -3 v -34 z"
           id="path3264" />
        <path
           style="fill:none;stroke:#0000ff;stroke-width:0.264583px;stroke-linecap:butt;stroke-linejoin:miter;stroke-opacity:1"
           d=""
           id="path3266" />
      </g>
      <path
         id="path3270"
         style="fill:none;stroke:#0000ff;stroke-width:0.755902;stroke-linejoin:round;stroke-opacity:1;stop-color:#000000"
         d="m 1782.7344,3648.8125 -66.4375,27.2559 c 1.9811,4.828 -0.3259,10.3493 -5.1543,12.33 l 26.8554,65.4571 h -70.7539 a 9.4488185,9.4488185 0 0 1 -9.4492,9.4492 v 71.8105 a 9.4488185,9.4488185 0 0 1 9.4492,9.4493 h 276.7676 a 9.4488185,9.4488185 0 0 1 9.3399,-9.4493 9.4488185,9.4488185 0 0 1 0.1093,0 v -71.8105 a 9.4488185,9.4488185 0 0 1 -9.4492,-9.4492 h -107.9668 l -40.9824,-99.8887 c -4.8281,1.9811 -10.3475,-0.3262 -12.3281,-5.1543 z"
         transform="scale(0.26458333)" />
      <circle
         style="fill:none;stroke:#0000ff;stroke-width:0.1;stroke-linejoin:round;stroke-opacity:1;stop-color:#000000"
         id="circle3272"
         cx="438.62506"
         cy="993.20776"
         r="1.05" />
      <circle
         style="fill:none;stroke:#0000ff;stroke-width:0.1;stroke-linejoin:round;stroke-opacity:1;stop-color:#000000"
         id="circle3274"
         cx="438.62506"
         cy="1017.2078"
         r="1.05" />
      <circle
         style="fill:none;stroke:#0000ff;stroke-width:0.1;stroke-linejoin:round;stroke-opacity:1;stop-color:#000000"
         id="circle3276"
         cx="516.85327"
         cy="1017.2077"
         r="1.05" />
      <circle
         style="fill:none;stroke:#0000ff;stroke-width:0.1;stroke-linejoin:round;stroke-opacity:1;stop-color:#000000"
         id="circle3278"
         cx="516.85327"
         cy="993.20764"
         r="1.05" />
      <circle
         style="fill:none;stroke:#0000ff;stroke-width:0.1;stroke-linejoin:round;stroke-opacity:1;stop-color:#000000"
         id="circle3280"
         cx="1072.2024"
         cy="-72.438744"
         r="1.05"
         transform="rotate(67.692885)" />
      <circle
         style="fill:none;stroke:#0000ff;stroke-width:0.1;stroke-linejoin:round;stroke-opacity:1;stop-color:#000000"
         id="circle3282"
         cx="1072.2024"
         cy="-48.438744"
         r="1.05"
         transform="rotate(67.692885)" />
    </g>
    <g
       id="g3306"
       transform="translate(-346.27945,-745.60897)">
      <g
         transform="rotate(180,238.86963,502.60389)"
         id="g3290">
        <path
           style="fill:none;stroke:#000000;stroke-width:0.264583px;stroke-linecap:butt;stroke-linejoin:miter;stroke-opacity:1"
           d="m -40.114213,-17 v -3 h 80.228426 v 3 h 3 v 34 h -3 v 3 H 32.82332 v -3 h -3 v 3 l -2.775488,1.138713 1.138713,2.775488 2.775488,-1.138713 2.767412,6.745262 -2.775488,1.138713 1.138713,2.775488 L 0.637142,46.340365 -0.501571,43.564877 -3.277059,44.70359 -12.27361,22.775488 -9.498122,21.636775 -10.636835,18.861287 -13.412323,20 v -3 h -3 v 3 h -23.70189 v -3 h -3 v -34 z"
           id="path3286" />
        <path
           style="fill:none;stroke:#0000ff;stroke-width:0.264583px;stroke-linecap:butt;stroke-linejoin:miter;stroke-opacity:1"
           d=""
           id="path3288" />
      </g>
      <path
         id="path3292"
         style="fill:none;stroke:#0000ff;stroke-width:0.755902;stroke-linejoin:round;stroke-opacity:1;stop-color:#000000"
         d="m 1782.7344,3648.8125 -66.4375,27.2559 c 1.9811,4.828 -0.3259,10.3493 -5.1543,12.33 l 26.8554,65.4571 h -70.7539 a 9.4488185,9.4488185 0 0 1 -9.4492,9.4492 v 71.8105 a 9.4488185,9.4488185 0 0 1 9.4492,9.4493 h 276.7676 a 9.4488185,9.4488185 0 0 1 9.3399,-9.4493 9.4488185,9.4488185 0 0 1 0.1093,0 v -71.8105 a 9.4488185,9.4488185 0 0 1 -9.4492,-9.4492 h -107.9668 l -40.9824,-99.8887 c -4.8281,1.9811 -10.3475,-0.3262 -12.3281,-5.1543 z"
         transform="scale(0.26458333)" />
      <circle
         style="fill:none;stroke:#0000ff;stroke-width:0.1;stroke-linejoin:round;stroke-opacity:1;stop-color:#000000"
         id="circle3294"
         cx="438.62506"
         cy="993.20776"
         r="1.05" />
      <circle
         style="fill:none;stroke:#0000ff;stroke-width:0.1;stroke-linejoin:round;stroke-opacity:1;stop-color:#000000"
         id="circle3296"
         cx="438.62506"
         cy="1017.2078"
         r="1.05" />
      <circle
         style="fill:none;stroke:#0000ff;stroke-width:0.1;stroke-linejoin:round;stroke-opacity:1;stop-color:#000000"
         id="circle3298"
         cx="516.85327"
         cy="1017.2077"
         r="1.05" />
      <circle
         style="fill:none;stroke:#0000ff;stroke-width:0.1;stroke-linejoin:round;stroke-opacity:1;stop-color:#000000"
         id="circle3300"
         cx="516.85327"
         cy="993.20764"
         r="1.05" />
      <circle
         style="fill:none;stroke:#0000ff;stroke-width:0.1;stroke-linejoin:round;stroke-opacity:1;stop-color:#000000"
         id="circle3302"
         cx="1072.2024"
         cy="-72.438744"
         r="1.05"
         transform="rotate(67.692885)" />
      <circle
         style="fill:none;stroke:#0000ff;stroke-width:0.1;stroke-linejoin:round;stroke-opacity:1;stop-color:#000000"
         id="circle3304"
         cx="1072.2024"
         cy="-48.438744"
         r="1.05"
         transform="rotate(67.692885)" />
    </g>
    <g
       id="g3328"
       transform="rotate(180,313.26046,598.6039)">
      <g
         transform="rotate(180,238.86963,502.60389)"
         id="g3312">
        <path
           style="fill:none;stroke:#000000;stroke-width:0.264583px;stroke-linecap:butt;stroke-linejoin:miter;stroke-opacity:1"
           d="m -40.114213,-17 v -3 h 80.228426 v 3 h 3 v 34 h -3 v 3 H 32.82332 v -3 h -3 v 3 l -2.775488,1.138713 1.138713,2.775488 2.775488,-1.138713 2.767412,6.745262 -2.775488,1.138713 1.138713,2.775488 L 0.637142,46.340365 -0.501571,43.564877 -3.277059,44.70359 -12.27361,22.775488 -9.498122,21.636775 -10.636835,18.861287 -13.412323,20 v -3 h -3 v 3 h -23.70189 v -3 h -3 v -34 z"
           id="path3308" />
        <path
           style="fill:none;stroke:#0000ff;stroke-width:0.264583px;stroke-linecap:butt;stroke-linejoin:miter;stroke-opacity:1"
           d=""
           id="path3310" />
      </g>
      <path
         id="path3314"
         style="fill:none;stroke:#0000ff;stroke-width:0.755902;stroke-linejoin:round;stroke-opacity:1;stop-color:#000000"
         d="m 1782.7344,3648.8125 -66.4375,27.2559 c 1.9811,4.828 -0.3259,10.3493 -5.1543,12.33 l 26.8554,65.4571 h -70.7539 a 9.4488185,9.4488185 0 0 1 -9.4492,9.4492 v 71.8105 a 9.4488185,9.4488185 0 0 1 9.4492,9.4493 h 276.7676 a 9.4488185,9.4488185 0 0 1 9.3399,-9.4493 9.4488185,9.4488185 0 0 1 0.1093,0 v -71.8105 a 9.4488185,9.4488185 0 0 1 -9.4492,-9.4492 h -107.9668 l -40.9824,-99.8887 c -4.8281,1.9811 -10.3475,-0.3262 -12.3281,-5.1543 z"
         transform="scale(0.26458333)" />
      <circle
         style="fill:none;stroke:#0000ff;stroke-width:0.1;stroke-linejoin:round;stroke-opacity:1;stop-color:#000000"
         id="circle3316"
         cx="438.62506"
         cy="993.20776"
         r="1.05" />
      <circle
         style="fill:none;stroke:#0000ff;stroke-width:0.1;stroke-linejoin:round;stroke-opacity:1;stop-color:#000000"
         id="circle3318"
         cx="438.62506"
         cy="1017.2078"
         r="1.05" />
      <circle
         style="fill:none;stroke:#0000ff;stroke-width:0.1;stroke-linejoin:round;stroke-opacity:1;stop-color:#000000"
         id="circle3320"
         cx="516.85327"
         cy="1017.2077"
         r="1.05" />
      <circle
         style="fill:none;stroke:#0000ff;stroke-width:0.1;stroke-linejoin:round;stroke-opacity:1;stop-color:#000000"
         id="circle3322"
         cx="516.85327"
         cy="993.20764"
         r="1.05" />
      <circle
         style="fill:none;stroke:#0000ff;stroke-width:0.1;stroke-linejoin:round;stroke-opacity:1;stop-color:#000000"
         id="circle3324"
         cx="1072.2024"
         cy="-72.438744"
         r="1.05"
         transform="rotate(67.692885)" />
      <circle
         style="fill:none;stroke:#0000ff;stroke-width:0.1;stroke-linejoin:round;stroke-opacity:1;stop-color:#000000"
         id="circle3326"
         cx="1072.2024"
         cy="-48.438744"
         r="1.05"
         transform="rotate(67.692885)" />
    </g>
    <g
       id="g3350"
       transform="translate(-434.62505,-745.60897)">
      <g
         transform="rotate(180,238.86963,502.60389)"
         id="g3334">
        <path
           style="fill:none;stroke:#000000;stroke-width:0.264583px;stroke-linecap:butt;stroke-linejoin:miter;stroke-opacity:1"
           d="m -40.114213,-17 v -3 h 80.228426 v 3 h 3 v 34 h -3 v 3 H 32.82332 v -3 h -3 v 3 l -2.775488,1.138713 1.138713,2.775488 2.775488,-1.138713 2.767412,6.745262 -2.775488,1.138713 1.138713,2.775488 L 0.637142,46.340365 -0.501571,43.564877 -3.277059,44.70359 -12.27361,22.775488 -9.498122,21.636775 -10.636835,18.861287 -13.412323,20 v -3 h -3 v 3 h -23.70189 v -3 h -3 v -34 z"
           id="path3330" />
        <path
           style="fill:none;stroke:#0000ff;stroke-width:0.264583px;stroke-linecap:butt;stroke-linejoin:miter;stroke-opacity:1"
           d=""
           id="path3332" />
      </g>
      <path
         id="path3336"
         style="fill:none;stroke:#0000ff;stroke-width:0.755902;stroke-linejoin:round;stroke-opacity:1;stop-color:#000000"
         d="m 1782.7344,3648.8125 -66.4375,27.2559 c 1.9811,4.828 -0.3259,10.3493 -5.1543,12.33 l 26.8554,65.4571 h -70.7539 a 9.4488185,9.4488185 0 0 1 -9.4492,9.4492 v 71.8105 a 9.4488185,9.4488185 0 0 1 9.4492,9.4493 h 276.7676 a 9.4488185,9.4488185 0 0 1 9.3399,-9.4493 9.4488185,9.4488185 0 0 1 0.1093,0 v -71.8105 a 9.4488185,9.4488185 0 0 1 -9.4492,-9.4492 h -107.9668 l -40.9824,-99.8887 c -4.8281,1.9811 -10.3475,-0.3262 -12.3281,-5.1543 z"
         transform="scale(0.26458333)" />
      <circle
         style="fill:none;stroke:#0000ff;stroke-width:0.1;stroke-linejoin:round;stroke-opacity:1;stop-color:#000000"
         id="circle3338"
         cx="438.62506"
         cy="993.20776"
         r="1.05" />
      <circle
         style="fill:none;stroke:#0000ff;stroke-width:0.1;stroke-linejoin:round;stroke-opacity:1;stop-color:#000000"
         id="circle3340"
         cx="438.62506"
         cy="1017.2078"
         r="1.05" />
      <circle
         style="fill:none;stroke:#0000ff;stroke-width:0.1;stroke-linejoin:round;stroke-opacity:1;stop-color:#000000"
         id="circle3342"
         cx="516.85327"
         cy="1017.2077"
         r="1.05" />
      <circle
         style="fill:none;stroke:#0000ff;stroke-width:0.1;stroke-linejoin:round;stroke-opacity:1;stop-color:#000000"
         id="circle3344"
         cx="516.85327"
         cy="993.20764"
         r="1.05" />
      <circle
         style="fill:none;stroke:#0000ff;stroke-width:0.1;stroke-linejoin:round;stroke-opacity:1;stop-color:#000000"
         id="circle3346"
         cx="1072.2024"
         cy="-72.438744"
         r="1.05"
         transform="rotate(67.692885)" />
      <circle
         style="fill:none;stroke:#0000ff;stroke-width:0.1;stroke-linejoin:round;stroke-opacity:1;stop-color:#000000"
         id="circle3348"
         cx="1072.2024"
         cy="-48.438744"
         r="1.05"
         transform="rotate(67.692885)" />
    </g>
    <g
       id="g3372"
       transform="rotate(180,269.08787,598.6039)">
      <g
         transform="rotate(180,238.86963,502.60389)"
         id="g3356">
        <path
           style="fill:none;stroke:#000000;stroke-width:0.264583px;stroke-linecap:butt;stroke-linejoin:miter;stroke-opacity:1"
           d="m -40.114213,-17 v -3 h 80.228426 v 3 h 3 v 34 h -3 v 3 H 32.82332 v -3 h -3 v 3 l -2.775488,1.138713 1.138713,2.775488 2.775488,-1.138713 2.767412,6.745262 -2.775488,1.138713 1.138713,2.775488 L 0.637142,46.340365 -0.501571,43.564877 -3.277059,44.70359 -12.27361,22.775488 -9.498122,21.636775 -10.636835,18.861287 -13.412323,20 v -3 h -3 v 3 h -23.70189 v -3 h -3 v -34 z"
           id="path3352" />
        <path
           style="fill:none;stroke:#0000ff;stroke-width:0.264583px;stroke-linecap:butt;stroke-linejoin:miter;stroke-opacity:1"
           d=""
           id="path3354" />
      </g>
      <path
         id="path3358"
         style="fill:none;stroke:#0000ff;stroke-width:0.755902;stroke-linejoin:round;stroke-opacity:1;stop-color:#000000"
         d="m 1782.7344,3648.8125 -66.4375,27.2559 c 1.9811,4.828 -0.3259,10.3493 -5.1543,12.33 l 26.8554,65.4571 h -70.7539 a 9.4488185,9.4488185 0 0 1 -9.4492,9.4492 v 71.8105 a 9.4488185,9.4488185 0 0 1 9.4492,9.4493 h 276.7676 a 9.4488185,9.4488185 0 0 1 9.3399,-9.4493 9.4488185,9.4488185 0 0 1 0.1093,0 v -71.8105 a 9.4488185,9.4488185 0 0 1 -9.4492,-9.4492 h -107.9668 l -40.9824,-99.8887 c -4.8281,1.9811 -10.3475,-0.3262 -12.3281,-5.1543 z"
         transform="scale(0.26458333)" />
      <circle
         style="fill:none;stroke:#0000ff;stroke-width:0.1;stroke-linejoin:round;stroke-opacity:1;stop-color:#000000"
         id="circle3360"
         cx="438.62506"
         cy="993.20776"
         r="1.05" />
      <circle
         style="fill:none;stroke:#0000ff;stroke-width:0.1;stroke-linejoin:round;stroke-opacity:1;stop-color:#000000"
         id="circle3362"
         cx="438.62506"
         cy="1017.2078"
         r="1.05" />
      <circle
         style="fill:none;stroke:#0000ff;stroke-width:0.1;stroke-linejoin:round;stroke-opacity:1;stop-color:#000000"
         id="circle3364"
         cx="516.85327"
         cy="1017.2077"
         r="1.05" />
      <circle
         style="fill:none;stroke:#0000ff;stroke-width:0.1;stroke-linejoin:round;stroke-opacity:1;stop-color:#000000"
         id="circle3366"
         cx="516.85327"
         cy="993.20764"
         r="1.05" />
      <circle
         style="fill:none;stroke:#0000ff;stroke-width:0.1;stroke-linejoin:round;stroke-opacity:1;stop-color:#000000"
         id="circle3368"
         cx="1072.2024"
         cy="-72.438744"
         r="1.05"
         transform="rotate(67.692885)" />
      <circle
         style="fill:none;stroke:#0000ff;stroke-width:0.1;stroke-linejoin:round;stroke-opacity:1;stop-color:#000000"
         id="circle3370"
         cx="1072.2024"
         cy="-48.438744"
         r="1.05"
         transform="rotate(67.692885)" />
    </g>
    <g
       id="g3394"
       transform="translate(7.20444,-635.01312)">
      <g
         transform="rotate(180,238.86963,502.60389)"
         id="g3378">
        <path
           style="fill:none;stroke:#000000;stroke-width:0.264583px;stroke-linecap:butt;stroke-linejoin:miter;stroke-opacity:1"
           d="m -40.114213,-17 v -3 h 80.228426 v 3 h 3 v 34 h -3 v 3 H 32.82332 v -3 h -3 v 3 l -2.775488,1.138713 1.138713,2.775488 2.775488,-1.138713 2.767412,6.745262 -2.775488,1.138713 1.138713,2.775488 L 0.637142,46.340365 -0.501571,43.564877 -3.277059,44.70359 -12.27361,22.775488 -9.498122,21.636775 -10.636835,18.861287 -13.412323,20 v -3 h -3 v 3 h -23.70189 v -3 h -3 v -34 z"
           id="path3374" />
        <path
           style="fill:none;stroke:#0000ff;stroke-width:0.264583px;stroke-linecap:butt;stroke-linejoin:miter;stroke-opacity:1"
           d=""
           id="path3376" />
      </g>
      <path
         id="path3380"
         style="fill:none;stroke:#0000ff;stroke-width:0.755902;stroke-linejoin:round;stroke-opacity:1;stop-color:#000000"
         d="m 1782.7344,3648.8125 -66.4375,27.2559 c 1.9811,4.828 -0.3259,10.3493 -5.1543,12.33 l 26.8554,65.4571 h -70.7539 a 9.4488185,9.4488185 0 0 1 -9.4492,9.4492 v 71.8105 a 9.4488185,9.4488185 0 0 1 9.4492,9.4493 h 276.7676 a 9.4488185,9.4488185 0 0 1 9.3399,-9.4493 9.4488185,9.4488185 0 0 1 0.1093,0 v -71.8105 a 9.4488185,9.4488185 0 0 1 -9.4492,-9.4492 h -107.9668 l -40.9824,-99.8887 c -4.8281,1.9811 -10.3475,-0.3262 -12.3281,-5.1543 z"
         transform="scale(0.26458333)" />
      <circle
         style="fill:none;stroke:#0000ff;stroke-width:0.1;stroke-linejoin:round;stroke-opacity:1;stop-color:#000000"
         id="circle3382"
         cx="438.62506"
         cy="993.20776"
         r="1.05" />
      <circle
         style="fill:none;stroke:#0000ff;stroke-width:0.1;stroke-linejoin:round;stroke-opacity:1;stop-color:#000000"
         id="circle3384"
         cx="438.62506"
         cy="1017.2078"
         r="1.05" />
      <circle
         style="fill:none;stroke:#0000ff;stroke-width:0.1;stroke-linejoin:round;stroke-opacity:1;stop-color:#000000"
         id="circle3386"
         cx="516.85327"
         cy="1017.2077"
         r="1.05" />
      <circle
         style="fill:none;stroke:#0000ff;stroke-width:0.1;stroke-linejoin:round;stroke-opacity:1;stop-color:#000000"
         id="circle3388"
         cx="516.85327"
         cy="993.20764"
         r="1.05" />
      <circle
         style="fill:none;stroke:#0000ff;stroke-width:0.1;stroke-linejoin:round;stroke-opacity:1;stop-color:#000000"
         id="circle3390"
         cx="1072.2024"
         cy="-72.438744"
         r="1.05"
         transform="rotate(67.692885)" />
      <circle
         style="fill:none;stroke:#0000ff;stroke-width:0.1;stroke-linejoin:round;stroke-opacity:1;stop-color:#000000"
         id="circle3392"
         cx="1072.2024"
         cy="-48.438744"
         r="1.05"
         transform="rotate(67.692885)" />
    </g>
    <g
       id="g3416"
       transform="rotate(180,490.00207,653.9017)">
      <g
         transform="rotate(180,238.86963,502.60389)"
         id="g3400">
        <path
           style="fill:none;stroke:#000000;stroke-width:0.264583px;stroke-linecap:butt;stroke-linejoin:miter;stroke-opacity:1"
           d="m -40.114213,-17 v -3 h 80.228426 v 3 h 3 v 34 h -3 v 3 H 32.82332 v -3 h -3 v 3 l -2.775488,1.138713 1.138713,2.775488 2.775488,-1.138713 2.767412,6.745262 -2.775488,1.138713 1.138713,2.775488 L 0.637142,46.340365 -0.501571,43.564877 -3.277059,44.70359 -12.27361,22.775488 -9.498122,21.636775 -10.636835,18.861287 -13.412323,20 v -3 h -3 v 3 h -23.70189 v -3 h -3 v -34 z"
           id="path3396" />
        <path
           style="fill:none;stroke:#0000ff;stroke-width:0.264583px;stroke-linecap:butt;stroke-linejoin:miter;stroke-opacity:1"
           d=""
           id="path3398" />
      </g>
      <path
         id="path3402"
         style="fill:none;stroke:#0000ff;stroke-width:0.755902;stroke-linejoin:round;stroke-opacity:1;stop-color:#000000"
         d="m 1782.7344,3648.8125 -66.4375,27.2559 c 1.9811,4.828 -0.3259,10.3493 -5.1543,12.33 l 26.8554,65.4571 h -70.7539 a 9.4488185,9.4488185 0 0 1 -9.4492,9.4492 v 71.8105 a 9.4488185,9.4488185 0 0 1 9.4492,9.4493 h 276.7676 a 9.4488185,9.4488185 0 0 1 9.3399,-9.4493 9.4488185,9.4488185 0 0 1 0.1093,0 v -71.8105 a 9.4488185,9.4488185 0 0 1 -9.4492,-9.4492 h -107.9668 l -40.9824,-99.8887 c -4.8281,1.9811 -10.3475,-0.3262 -12.3281,-5.1543 z"
         transform="scale(0.26458333)" />
      <circle
         style="fill:none;stroke:#0000ff;stroke-width:0.1;stroke-linejoin:round;stroke-opacity:1;stop-color:#000000"
         id="circle3404"
         cx="438.62506"
         cy="993.20776"
         r="1.05" />
      <circle
         style="fill:none;stroke:#0000ff;stroke-width:0.1;stroke-linejoin:round;stroke-opacity:1;stop-color:#000000"
         id="circle3406"
         cx="438.62506"
         cy="1017.2078"
         r="1.05" />
      <circle
         style="fill:none;stroke:#0000ff;stroke-width:0.1;stroke-linejoin:round;stroke-opacity:1;stop-color:#000000"
         id="circle3408"
         cx="516.85327"
         cy="1017.2077"
         r="1.05" />
      <circle
         style="fill:none;stroke:#0000ff;stroke-width:0.1;stroke-linejoin:round;stroke-opacity:1;stop-color:#000000"
         id="circle3410"
         cx="516.85327"
         cy="993.20764"
         r="1.05" />
      <circle
         style="fill:none;stroke:#0000ff;stroke-width:0.1;stroke-linejoin:round;stroke-opacity:1;stop-color:#000000"
         id="circle3412"
         cx="1072.2024"
         cy="-72.438744"
         r="1.05"
         transform="rotate(67.692885)" />
      <circle
         style="fill:none;stroke:#0000ff;stroke-width:0.1;stroke-linejoin:round;stroke-opacity:1;stop-color:#000000"
         id="circle3414"
         cx="1072.2024"
         cy="-48.438744"
         r="1.05"
         transform="rotate(67.692885)" />
    </g>
    <g
       id="g3438"
       transform="translate(-81.14067,-635.01312)">
      <g
         transform="rotate(180,238.86963,502.60389)"
         id="g3422">
        <path
           style="fill:none;stroke:#000000;stroke-width:0.264583px;stroke-linecap:butt;stroke-linejoin:miter;stroke-opacity:1"
           d="m -40.114213,-17 v -3 h 80.228426 v 3 h 3 v 34 h -3 v 3 H 32.82332 v -3 h -3 v 3 l -2.775488,1.138713 1.138713,2.775488 2.775488,-1.138713 2.767412,6.745262 -2.775488,1.138713 1.138713,2.775488 L 0.637142,46.340365 -0.501571,43.564877 -3.277059,44.70359 -12.27361,22.775488 -9.498122,21.636775 -10.636835,18.861287 -13.412323,20 v -3 h -3 v 3 h -23.70189 v -3 h -3 v -34 z"
           id="path3418" />
        <path
           style="fill:none;stroke:#0000ff;stroke-width:0.264583px;stroke-linecap:butt;stroke-linejoin:miter;stroke-opacity:1"
           d=""
           id="path3420" />
      </g>
      <path
         id="path3424"
         style="fill:none;stroke:#0000ff;stroke-width:0.755902;stroke-linejoin:round;stroke-opacity:1;stop-color:#000000"
         d="m 1782.7344,3648.8125 -66.4375,27.2559 c 1.9811,4.828 -0.3259,10.3493 -5.1543,12.33 l 26.8554,65.4571 h -70.7539 a 9.4488185,9.4488185 0 0 1 -9.4492,9.4492 v 71.8105 a 9.4488185,9.4488185 0 0 1 9.4492,9.4493 h 276.7676 a 9.4488185,9.4488185 0 0 1 9.3399,-9.4493 9.4488185,9.4488185 0 0 1 0.1093,0 v -71.8105 a 9.4488185,9.4488185 0 0 1 -9.4492,-9.4492 h -107.9668 l -40.9824,-99.8887 c -4.8281,1.9811 -10.3475,-0.3262 -12.3281,-5.1543 z"
         transform="scale(0.26458333)" />
      <circle
         style="fill:none;stroke:#0000ff;stroke-width:0.1;stroke-linejoin:round;stroke-opacity:1;stop-color:#000000"
         id="circle3426"
         cx="438.62506"
         cy="993.20776"
         r="1.05" />
      <circle
         style="fill:none;stroke:#0000ff;stroke-width:0.1;stroke-linejoin:round;stroke-opacity:1;stop-color:#000000"
         id="circle3428"
         cx="438.62506"
         cy="1017.2078"
         r="1.05" />
      <circle
         style="fill:none;stroke:#0000ff;stroke-width:0.1;stroke-linejoin:round;stroke-opacity:1;stop-color:#000000"
         id="circle3430"
         cx="516.85327"
         cy="1017.2077"
         r="1.05" />
      <circle
         style="fill:none;stroke:#0000ff;stroke-width:0.1;stroke-linejoin:round;stroke-opacity:1;stop-color:#000000"
         id="circle3432"
         cx="516.85327"
         cy="993.20764"
         r="1.05" />
      <circle
         style="fill:none;stroke:#0000ff;stroke-width:0.1;stroke-linejoin:round;stroke-opacity:1;stop-color:#000000"
         id="circle3434"
         cx="1072.2024"
         cy="-72.438744"
         r="1.05"
         transform="rotate(67.692885)" />
      <circle
         style="fill:none;stroke:#0000ff;stroke-width:0.1;stroke-linejoin:round;stroke-opacity:1;stop-color:#000000"
         id="circle3436"
         cx="1072.2024"
         cy="-48.438744"
         r="1.05"
         transform="rotate(67.692885)" />
    </g>
    <g
       id="g3460"
       transform="rotate(180,445.82951,653.9017)">
      <g
         transform="rotate(180,238.86963,502.60389)"
         id="g3444">
        <path
           style="fill:none;stroke:#000000;stroke-width:0.264583px;stroke-linecap:butt;stroke-linejoin:miter;stroke-opacity:1"
           d="m -40.114213,-17 v -3 h 80.228426 v 3 h 3 v 34 h -3 v 3 H 32.82332 v -3 h -3 v 3 l -2.775488,1.138713 1.138713,2.775488 2.775488,-1.138713 2.767412,6.745262 -2.775488,1.138713 1.138713,2.775488 L 0.637142,46.340365 -0.501571,43.564877 -3.277059,44.70359 -12.27361,22.775488 -9.498122,21.636775 -10.636835,18.861287 -13.412323,20 v -3 h -3 v 3 h -23.70189 v -3 h -3 v -34 z"
           id="path3440" />
        <path
           style="fill:none;stroke:#0000ff;stroke-width:0.264583px;stroke-linecap:butt;stroke-linejoin:miter;stroke-opacity:1"
           d=""
           id="path3442" />
      </g>
      <path
         id="path3446"
         style="fill:none;stroke:#0000ff;stroke-width:0.755902;stroke-linejoin:round;stroke-opacity:1;stop-color:#000000"
         d="m 1782.7344,3648.8125 -66.4375,27.2559 c 1.9811,4.828 -0.3259,10.3493 -5.1543,12.33 l 26.8554,65.4571 h -70.7539 a 9.4488185,9.4488185 0 0 1 -9.4492,9.4492 v 71.8105 a 9.4488185,9.4488185 0 0 1 9.4492,9.4493 h 276.7676 a 9.4488185,9.4488185 0 0 1 9.3399,-9.4493 9.4488185,9.4488185 0 0 1 0.1093,0 v -71.8105 a 9.4488185,9.4488185 0 0 1 -9.4492,-9.4492 h -107.9668 l -40.9824,-99.8887 c -4.8281,1.9811 -10.3475,-0.3262 -12.3281,-5.1543 z"
         transform="scale(0.26458333)" />
      <circle
         style="fill:none;stroke:#0000ff;stroke-width:0.1;stroke-linejoin:round;stroke-opacity:1;stop-color:#000000"
         id="circle3448"
         cx="438.62506"
         cy="993.20776"
         r="1.05" />
      <circle
         style="fill:none;stroke:#0000ff;stroke-width:0.1;stroke-linejoin:round;stroke-opacity:1;stop-color:#000000"
         id="circle3450"
         cx="438.62506"
         cy="1017.2078"
         r="1.05" />
      <circle
         style="fill:none;stroke:#0000ff;stroke-width:0.1;stroke-linejoin:round;stroke-opacity:1;stop-color:#000000"
         id="circle3452"
         cx="516.85327"
         cy="1017.2077"
         r="1.05" />
      <circle
         style="fill:none;stroke:#0000ff;stroke-width:0.1;stroke-linejoin:round;stroke-opacity:1;stop-color:#000000"
         id="circle3454"
         cx="516.85327"
         cy="993.20764"
         r="1.05" />
      <circle
         style="fill:none;stroke:#0000ff;stroke-width:0.1;stroke-linejoin:round;stroke-opacity:1;stop-color:#000000"
         id="circle3456"
         cx="1072.2024"
         cy="-72.438744"
         r="1.05"
         transform="rotate(67.692885)" />
      <circle
         style="fill:none;stroke:#0000ff;stroke-width:0.1;stroke-linejoin:round;stroke-opacity:1;stop-color:#000000"
         id="circle3458"
         cx="1072.2024"
         cy="-48.438744"
         r="1.05"
         transform="rotate(67.692885)" />
    </g>
    <g
       id="g3482"
       transform="translate(-169.53732,-635.01312)">
      <g
         transform="rotate(180,238.86963,502.60389)"
         id="g3466">
        <path
           style="fill:none;stroke:#000000;stroke-width:0.264583px;stroke-linecap:butt;stroke-linejoin:miter;stroke-opacity:1"
           d="m -40.114213,-17 v -3 h 80.228426 v 3 h 3 v 34 h -3 v 3 H 32.82332 v -3 h -3 v 3 l -2.775488,1.138713 1.138713,2.775488 2.775488,-1.138713 2.767412,6.745262 -2.775488,1.138713 1.138713,2.775488 L 0.637142,46.340365 -0.501571,43.564877 -3.277059,44.70359 -12.27361,22.775488 -9.498122,21.636775 -10.636835,18.861287 -13.412323,20 v -3 h -3 v 3 h -23.70189 v -3 h -3 v -34 z"
           id="path3462" />
        <path
           style="fill:none;stroke:#0000ff;stroke-width:0.264583px;stroke-linecap:butt;stroke-linejoin:miter;stroke-opacity:1"
           d=""
           id="path3464" />
      </g>
      <path
         id="path3468"
         style="fill:none;stroke:#0000ff;stroke-width:0.755902;stroke-linejoin:round;stroke-opacity:1;stop-color:#000000"
         d="m 1782.7344,3648.8125 -66.4375,27.2559 c 1.9811,4.828 -0.3259,10.3493 -5.1543,12.33 l 26.8554,65.4571 h -70.7539 a 9.4488185,9.4488185 0 0 1 -9.4492,9.4492 v 71.8105 a 9.4488185,9.4488185 0 0 1 9.4492,9.4493 h 276.7676 a 9.4488185,9.4488185 0 0 1 9.3399,-9.4493 9.4488185,9.4488185 0 0 1 0.1093,0 v -71.8105 a 9.4488185,9.4488185 0 0 1 -9.4492,-9.4492 h -107.9668 l -40.9824,-99.8887 c -4.8281,1.9811 -10.3475,-0.3262 -12.3281,-5.1543 z"
         transform="scale(0.26458333)" />
      <circle
         style="fill:none;stroke:#0000ff;stroke-width:0.1;stroke-linejoin:round;stroke-opacity:1;stop-color:#000000"
         id="circle3470"
         cx="438.62506"
         cy="993.20776"
         r="1.05" />
      <circle
         style="fill:none;stroke:#0000ff;stroke-width:0.1;stroke-linejoin:round;stroke-opacity:1;stop-color:#000000"
         id="circle3472"
         cx="438.62506"
         cy="1017.2078"
         r="1.05" />
      <circle
         style="fill:none;stroke:#0000ff;stroke-width:0.1;stroke-linejoin:round;stroke-opacity:1;stop-color:#000000"
         id="circle3474"
         cx="516.85327"
         cy="1017.2077"
         r="1.05" />
      <circle
         style="fill:none;stroke:#0000ff;stroke-width:0.1;stroke-linejoin:round;stroke-opacity:1;stop-color:#000000"
         id="circle3476"
         cx="516.85327"
         cy="993.20764"
         r="1.05" />
      <circle
         style="fill:none;stroke:#0000ff;stroke-width:0.1;stroke-linejoin:round;stroke-opacity:1;stop-color:#000000"
         id="circle3478"
         cx="1072.2024"
         cy="-72.438744"
         r="1.05"
         transform="rotate(67.692885)" />
      <circle
         style="fill:none;stroke:#0000ff;stroke-width:0.1;stroke-linejoin:round;stroke-opacity:1;stop-color:#000000"
         id="circle3480"
         cx="1072.2024"
         cy="-48.438744"
         r="1.05"
         transform="rotate(67.692885)" />
    </g>
    <g
       id="g3504"
       transform="rotate(180,401.63127,653.9017)">
      <g
         transform="rotate(180,238.86963,502.60389)"
         id="g3488">
        <path
           style="fill:none;stroke:#000000;stroke-width:0.264583px;stroke-linecap:butt;stroke-linejoin:miter;stroke-opacity:1"
           d="m -40.114213,-17 v -3 h 80.228426 v 3 h 3 v 34 h -3 v 3 H 32.82332 v -3 h -3 v 3 l -2.775488,1.138713 1.138713,2.775488 2.775488,-1.138713 2.767412,6.745262 -2.775488,1.138713 1.138713,2.775488 L 0.637142,46.340365 -0.501571,43.564877 -3.277059,44.70359 -12.27361,22.775488 -9.498122,21.636775 -10.636835,18.861287 -13.412323,20 v -3 h -3 v 3 h -23.70189 v -3 h -3 v -34 z"
           id="path3484" />
        <path
           style="fill:none;stroke:#0000ff;stroke-width:0.264583px;stroke-linecap:butt;stroke-linejoin:miter;stroke-opacity:1"
           d=""
           id="path3486" />
      </g>
      <path
         id="path3490"
         style="fill:none;stroke:#0000ff;stroke-width:0.755902;stroke-linejoin:round;stroke-opacity:1;stop-color:#000000"
         d="m 1782.7344,3648.8125 -66.4375,27.2559 c 1.9811,4.828 -0.3259,10.3493 -5.1543,12.33 l 26.8554,65.4571 h -70.7539 a 9.4488185,9.4488185 0 0 1 -9.4492,9.4492 v 71.8105 a 9.4488185,9.4488185 0 0 1 9.4492,9.4493 h 276.7676 a 9.4488185,9.4488185 0 0 1 9.3399,-9.4493 9.4488185,9.4488185 0 0 1 0.1093,0 v -71.8105 a 9.4488185,9.4488185 0 0 1 -9.4492,-9.4492 h -107.9668 l -40.9824,-99.8887 c -4.8281,1.9811 -10.3475,-0.3262 -12.3281,-5.1543 z"
         transform="scale(0.26458333)" />
      <circle
         style="fill:none;stroke:#0000ff;stroke-width:0.1;stroke-linejoin:round;stroke-opacity:1;stop-color:#000000"
         id="circle3492"
         cx="438.62506"
         cy="993.20776"
         r="1.05" />
      <circle
         style="fill:none;stroke:#0000ff;stroke-width:0.1;stroke-linejoin:round;stroke-opacity:1;stop-color:#000000"
         id="circle3494"
         cx="438.62506"
         cy="1017.2078"
         r="1.05" />
      <circle
         style="fill:none;stroke:#0000ff;stroke-width:0.1;stroke-linejoin:round;stroke-opacity:1;stop-color:#000000"
         id="circle3496"
         cx="516.85327"
         cy="1017.2077"
         r="1.05" />
      <circle
         style="fill:none;stroke:#0000ff;stroke-width:0.1;stroke-linejoin:round;stroke-opacity:1;stop-color:#000000"
         id="circle3498"
         cx="516.85327"
         cy="993.20764"
         r="1.05" />
      <circle
         style="fill:none;stroke:#0000ff;stroke-width:0.1;stroke-linejoin:round;stroke-opacity:1;stop-color:#000000"
         id="circle3500"
         cx="1072.2024"
         cy="-72.438744"
         r="1.05"
         transform="rotate(67.692885)" />
      <circle
         style="fill:none;stroke:#0000ff;stroke-width:0.1;stroke-linejoin:round;stroke-opacity:1;stop-color:#000000"
         id="circle3502"
         cx="1072.2024"
         cy="-48.438744"
         r="1.05"
         transform="rotate(67.692885)" />
    </g>
    <g
       id="g3526"
       transform="translate(-257.88243,-635.01312)">
      <g
         transform="rotate(180,238.86963,502.60389)"
         id="g3510">
        <path
           style="fill:none;stroke:#000000;stroke-width:0.264583px;stroke-linecap:butt;stroke-linejoin:miter;stroke-opacity:1"
           d="m -40.114213,-17 v -3 h 80.228426 v 3 h 3 v 34 h -3 v 3 H 32.82332 v -3 h -3 v 3 l -2.775488,1.138713 1.138713,2.775488 2.775488,-1.138713 2.767412,6.745262 -2.775488,1.138713 1.138713,2.775488 L 0.637142,46.340365 -0.501571,43.564877 -3.277059,44.70359 -12.27361,22.775488 -9.498122,21.636775 -10.636835,18.861287 -13.412323,20 v -3 h -3 v 3 h -23.70189 v -3 h -3 v -34 z"
           id="path3506" />
        <path
           style="fill:none;stroke:#0000ff;stroke-width:0.264583px;stroke-linecap:butt;stroke-linejoin:miter;stroke-opacity:1"
           d=""
           id="path3508" />
      </g>
      <path
         id="path3512"
         style="fill:none;stroke:#0000ff;stroke-width:0.755902;stroke-linejoin:round;stroke-opacity:1;stop-color:#000000"
         d="m 1782.7344,3648.8125 -66.4375,27.2559 c 1.9811,4.828 -0.3259,10.3493 -5.1543,12.33 l 26.8554,65.4571 h -70.7539 a 9.4488185,9.4488185 0 0 1 -9.4492,9.4492 v 71.8105 a 9.4488185,9.4488185 0 0 1 9.4492,9.4493 h 276.7676 a 9.4488185,9.4488185 0 0 1 9.3399,-9.4493 9.4488185,9.4488185 0 0 1 0.1093,0 v -71.8105 a 9.4488185,9.4488185 0 0 1 -9.4492,-9.4492 h -107.9668 l -40.9824,-99.8887 c -4.8281,1.9811 -10.3475,-0.3262 -12.3281,-5.1543 z"
         transform="scale(0.26458333)" />
      <circle
         style="fill:none;stroke:#0000ff;stroke-width:0.1;stroke-linejoin:round;stroke-opacity:1;stop-color:#000000"
         id="circle3514"
         cx="438.62506"
         cy="993.20776"
         r="1.05" />
      <circle
         style="fill:none;stroke:#0000ff;stroke-width:0.1;stroke-linejoin:round;stroke-opacity:1;stop-color:#000000"
         id="circle3516"
         cx="438.62506"
         cy="1017.2078"
         r="1.05" />
      <circle
         style="fill:none;stroke:#0000ff;stroke-width:0.1;stroke-linejoin:round;stroke-opacity:1;stop-color:#000000"
         id="circle3518"
         cx="516.85327"
         cy="1017.2077"
         r="1.05" />
      <circle
         style="fill:none;stroke:#0000ff;stroke-width:0.1;stroke-linejoin:round;stroke-opacity:1;stop-color:#000000"
         id="circle3520"
         cx="516.85327"
         cy="993.20764"
         r="1.05" />
      <circle
         style="fill:none;stroke:#0000ff;stroke-width:0.1;stroke-linejoin:round;stroke-opacity:1;stop-color:#000000"
         id="circle3522"
         cx="1072.2024"
         cy="-72.438744"
         r="1.05"
         transform="rotate(67.692885)" />
      <circle
         style="fill:none;stroke:#0000ff;stroke-width:0.1;stroke-linejoin:round;stroke-opacity:1;stop-color:#000000"
         id="circle3524"
         cx="1072.2024"
         cy="-48.438744"
         r="1.05"
         transform="rotate(67.692885)" />
    </g>
    <g
       id="g3548"
       transform="rotate(180,357.45869,653.9017)">
      <g
         transform="rotate(180,238.86963,502.60389)"
         id="g3532">
        <path
           style="fill:none;stroke:#000000;stroke-width:0.264583px;stroke-linecap:butt;stroke-linejoin:miter;stroke-opacity:1"
           d="m -40.114213,-17 v -3 h 80.228426 v 3 h 3 v 34 h -3 v 3 H 32.82332 v -3 h -3 v 3 l -2.775488,1.138713 1.138713,2.775488 2.775488,-1.138713 2.767412,6.745262 -2.775488,1.138713 1.138713,2.775488 L 0.637142,46.340365 -0.501571,43.564877 -3.277059,44.70359 -12.27361,22.775488 -9.498122,21.636775 -10.636835,18.861287 -13.412323,20 v -3 h -3 v 3 h -23.70189 v -3 h -3 v -34 z"
           id="path3528" />
        <path
           style="fill:none;stroke:#0000ff;stroke-width:0.264583px;stroke-linecap:butt;stroke-linejoin:miter;stroke-opacity:1"
           d=""
           id="path3530" />
      </g>
      <path
         id="path3534"
         style="fill:none;stroke:#0000ff;stroke-width:0.755902;stroke-linejoin:round;stroke-opacity:1;stop-color:#000000"
         d="m 1782.7344,3648.8125 -66.4375,27.2559 c 1.9811,4.828 -0.3259,10.3493 -5.1543,12.33 l 26.8554,65.4571 h -70.7539 a 9.4488185,9.4488185 0 0 1 -9.4492,9.4492 v 71.8105 a 9.4488185,9.4488185 0 0 1 9.4492,9.4493 h 276.7676 a 9.4488185,9.4488185 0 0 1 9.3399,-9.4493 9.4488185,9.4488185 0 0 1 0.1093,0 v -71.8105 a 9.4488185,9.4488185 0 0 1 -9.4492,-9.4492 h -107.9668 l -40.9824,-99.8887 c -4.8281,1.9811 -10.3475,-0.3262 -12.3281,-5.1543 z"
         transform="scale(0.26458333)" />
      <circle
         style="fill:none;stroke:#0000ff;stroke-width:0.1;stroke-linejoin:round;stroke-opacity:1;stop-color:#000000"
         id="circle3536"
         cx="438.62506"
         cy="993.20776"
         r="1.05" />
      <circle
         style="fill:none;stroke:#0000ff;stroke-width:0.1;stroke-linejoin:round;stroke-opacity:1;stop-color:#000000"
         id="circle3538"
         cx="438.62506"
         cy="1017.2078"
         r="1.05" />
      <circle
         style="fill:none;stroke:#0000ff;stroke-width:0.1;stroke-linejoin:round;stroke-opacity:1;stop-color:#000000"
         id="circle3540"
         cx="516.85327"
         cy="1017.2077"
         r="1.05" />
      <circle
         style="fill:none;stroke:#0000ff;stroke-width:0.1;stroke-linejoin:round;stroke-opacity:1;stop-color:#000000"
         id="circle3542"
         cx="516.85327"
         cy="993.20764"
         r="1.05" />
      <circle
         style="fill:none;stroke:#0000ff;stroke-width:0.1;stroke-linejoin:round;stroke-opacity:1;stop-color:#000000"
         id="circle3544"
         cx="1072.2024"
         cy="-72.438744"
         r="1.05"
         transform="rotate(67.692885)" />
      <circle
         style="fill:none;stroke:#0000ff;stroke-width:0.1;stroke-linejoin:round;stroke-opacity:1;stop-color:#000000"
         id="circle3546"
         cx="1072.2024"
         cy="-48.438744"
         r="1.05"
         transform="rotate(67.692885)" />
    </g>
    <g
       id="g3570"
       transform="translate(-346.27945,-635.01312)">
      <g
         transform="rotate(180,238.86963,502.60389)"
         id="g3554">
        <path
           style="fill:none;stroke:#000000;stroke-width:0.264583px;stroke-linecap:butt;stroke-linejoin:miter;stroke-opacity:1"
           d="m -40.114213,-17 v -3 h 80.228426 v 3 h 3 v 34 h -3 v 3 H 32.82332 v -3 h -3 v 3 l -2.775488,1.138713 1.138713,2.775488 2.775488,-1.138713 2.767412,6.745262 -2.775488,1.138713 1.138713,2.775488 L 0.637142,46.340365 -0.501571,43.564877 -3.277059,44.70359 -12.27361,22.775488 -9.498122,21.636775 -10.636835,18.861287 -13.412323,20 v -3 h -3 v 3 h -23.70189 v -3 h -3 v -34 z"
           id="path3550" />
        <path
           style="fill:none;stroke:#0000ff;stroke-width:0.264583px;stroke-linecap:butt;stroke-linejoin:miter;stroke-opacity:1"
           d=""
           id="path3552" />
      </g>
      <path
         id="path3556"
         style="fill:none;stroke:#0000ff;stroke-width:0.755902;stroke-linejoin:round;stroke-opacity:1;stop-color:#000000"
         d="m 1782.7344,3648.8125 -66.4375,27.2559 c 1.9811,4.828 -0.3259,10.3493 -5.1543,12.33 l 26.8554,65.4571 h -70.7539 a 9.4488185,9.4488185 0 0 1 -9.4492,9.4492 v 71.8105 a 9.4488185,9.4488185 0 0 1 9.4492,9.4493 h 276.7676 a 9.4488185,9.4488185 0 0 1 9.3399,-9.4493 9.4488185,9.4488185 0 0 1 0.1093,0 v -71.8105 a 9.4488185,9.4488185 0 0 1 -9.4492,-9.4492 h -107.9668 l -40.9824,-99.8887 c -4.8281,1.9811 -10.3475,-0.3262 -12.3281,-5.1543 z"
         transform="scale(0.26458333)" />
      <circle
         style="fill:none;stroke:#0000ff;stroke-width:0.1;stroke-linejoin:round;stroke-opacity:1;stop-color:#000000"
         id="circle3558"
         cx="438.62506"
         cy="993.20776"
         r="1.05" />
      <circle
         style="fill:none;stroke:#0000ff;stroke-width:0.1;stroke-linejoin:round;stroke-opacity:1;stop-color:#000000"
         id="circle3560"
         cx="438.62506"
         cy="1017.2078"
         r="1.05" />
      <circle
         style="fill:none;stroke:#0000ff;stroke-width:0.1;stroke-linejoin:round;stroke-opacity:1;stop-color:#000000"
         id="circle3562"
         cx="516.85327"
         cy="1017.2077"
         r="1.05" />
      <circle
         style="fill:none;stroke:#0000ff;stroke-width:0.1;stroke-linejoin:round;stroke-opacity:1;stop-color:#000000"
         id="circle3564"
         cx="516.85327"
         cy="993.20764"
         r="1.05" />
      <circle
         style="fill:none;stroke:#0000ff;stroke-width:0.1;stroke-linejoin:round;stroke-opacity:1;stop-color:#000000"
         id="circle3566"
         cx="1072.2024"
         cy="-72.438744"
         r="1.05"
         transform="rotate(67.692885)" />
      <circle
         style="fill:none;stroke:#0000ff;stroke-width:0.1;stroke-linejoin:round;stroke-opacity:1;stop-color:#000000"
         id="circle3568"
         cx="1072.2024"
         cy="-48.438744"
         r="1.05"
         transform="rotate(67.692885)" />
    </g>
    <g
       id="g3592"
       transform="rotate(180,313.26046,653.9017)">
      <g
         transform="rotate(180,238.86963,502.60389)"
         id="g3576">
        <path
           style="fill:none;stroke:#000000;stroke-width:0.264583px;stroke-linecap:butt;stroke-linejoin:miter;stroke-opacity:1"
           d="m -40.114213,-17 v -3 h 80.228426 v 3 h 3 v 34 h -3 v 3 H 32.82332 v -3 h -3 v 3 l -2.775488,1.138713 1.138713,2.775488 2.775488,-1.138713 2.767412,6.745262 -2.775488,1.138713 1.138713,2.775488 L 0.637142,46.340365 -0.501571,43.564877 -3.277059,44.70359 -12.27361,22.775488 -9.498122,21.636775 -10.636835,18.861287 -13.412323,20 v -3 h -3 v 3 h -23.70189 v -3 h -3 v -34 z"
           id="path3572" />
        <path
           style="fill:none;stroke:#0000ff;stroke-width:0.264583px;stroke-linecap:butt;stroke-linejoin:miter;stroke-opacity:1"
           d=""
           id="path3574" />
      </g>
      <path
         id="path3578"
         style="fill:none;stroke:#0000ff;stroke-width:0.755902;stroke-linejoin:round;stroke-opacity:1;stop-color:#000000"
         d="m 1782.7344,3648.8125 -66.4375,27.2559 c 1.9811,4.828 -0.3259,10.3493 -5.1543,12.33 l 26.8554,65.4571 h -70.7539 a 9.4488185,9.4488185 0 0 1 -9.4492,9.4492 v 71.8105 a 9.4488185,9.4488185 0 0 1 9.4492,9.4493 h 276.7676 a 9.4488185,9.4488185 0 0 1 9.3399,-9.4493 9.4488185,9.4488185 0 0 1 0.1093,0 v -71.8105 a 9.4488185,9.4488185 0 0 1 -9.4492,-9.4492 h -107.9668 l -40.9824,-99.8887 c -4.8281,1.9811 -10.3475,-0.3262 -12.3281,-5.1543 z"
         transform="scale(0.26458333)" />
      <circle
         style="fill:none;stroke:#0000ff;stroke-width:0.1;stroke-linejoin:round;stroke-opacity:1;stop-color:#000000"
         id="circle3580"
         cx="438.62506"
         cy="993.20776"
         r="1.05" />
      <circle
         style="fill:none;stroke:#0000ff;stroke-width:0.1;stroke-linejoin:round;stroke-opacity:1;stop-color:#000000"
         id="circle3582"
         cx="438.62506"
         cy="1017.2078"
         r="1.05" />
      <circle
         style="fill:none;stroke:#0000ff;stroke-width:0.1;stroke-linejoin:round;stroke-opacity:1;stop-color:#000000"
         id="circle3584"
         cx="516.85327"
         cy="1017.2077"
         r="1.05" />
      <circle
         style="fill:none;stroke:#0000ff;stroke-width:0.1;stroke-linejoin:round;stroke-opacity:1;stop-color:#000000"
         id="circle3586"
         cx="516.85327"
         cy="993.20764"
         r="1.05" />
      <circle
         style="fill:none;stroke:#0000ff;stroke-width:0.1;stroke-linejoin:round;stroke-opacity:1;stop-color:#000000"
         id="circle3588"
         cx="1072.2024"
         cy="-72.438744"
         r="1.05"
         transform="rotate(67.692885)" />
      <circle
         style="fill:none;stroke:#0000ff;stroke-width:0.1;stroke-linejoin:round;stroke-opacity:1;stop-color:#000000"
         id="circle3590"
         cx="1072.2024"
         cy="-48.438744"
         r="1.05"
         transform="rotate(67.692885)" />
    </g>
    <g
       id="g3614"
       transform="translate(-434.62505,-635.01312)">
      <g
         transform="rotate(180,238.86963,502.60389)"
         id="g3598">
        <path
           style="fill:none;stroke:#000000;stroke-width:0.264583px;stroke-linecap:butt;stroke-linejoin:miter;stroke-opacity:1"
           d="m -40.114213,-17 v -3 h 80.228426 v 3 h 3 v 34 h -3 v 3 H 32.82332 v -3 h -3 v 3 l -2.775488,1.138713 1.138713,2.775488 2.775488,-1.138713 2.767412,6.745262 -2.775488,1.138713 1.138713,2.775488 L 0.637142,46.340365 -0.501571,43.564877 -3.277059,44.70359 -12.27361,22.775488 -9.498122,21.636775 -10.636835,18.861287 -13.412323,20 v -3 h -3 v 3 h -23.70189 v -3 h -3 v -34 z"
           id="path3594" />
        <path
           style="fill:none;stroke:#0000ff;stroke-width:0.264583px;stroke-linecap:butt;stroke-linejoin:miter;stroke-opacity:1"
           d=""
           id="path3596" />
      </g>
      <path
         id="path3600"
         style="fill:none;stroke:#0000ff;stroke-width:0.755902;stroke-linejoin:round;stroke-opacity:1;stop-color:#000000"
         d="m 1782.7344,3648.8125 -66.4375,27.2559 c 1.9811,4.828 -0.3259,10.3493 -5.1543,12.33 l 26.8554,65.4571 h -70.7539 a 9.4488185,9.4488185 0 0 1 -9.4492,9.4492 v 71.8105 a 9.4488185,9.4488185 0 0 1 9.4492,9.4493 h 276.7676 a 9.4488185,9.4488185 0 0 1 9.3399,-9.4493 9.4488185,9.4488185 0 0 1 0.1093,0 v -71.8105 a 9.4488185,9.4488185 0 0 1 -9.4492,-9.4492 h -107.9668 l -40.9824,-99.8887 c -4.8281,1.9811 -10.3475,-0.3262 -12.3281,-5.1543 z"
         transform="scale(0.26458333)" />
      <circle
         style="fill:none;stroke:#0000ff;stroke-width:0.1;stroke-linejoin:round;stroke-opacity:1;stop-color:#000000"
         id="circle3602"
         cx="438.62506"
         cy="993.20776"
         r="1.05" />
      <circle
         style="fill:none;stroke:#0000ff;stroke-width:0.1;stroke-linejoin:round;stroke-opacity:1;stop-color:#000000"
         id="circle3604"
         cx="438.62506"
         cy="1017.2078"
         r="1.05" />
      <circle
         style="fill:none;stroke:#0000ff;stroke-width:0.1;stroke-linejoin:round;stroke-opacity:1;stop-color:#000000"
         id="circle3606"
         cx="516.85327"
         cy="1017.2077"
         r="1.05" />
      <circle
         style="fill:none;stroke:#0000ff;stroke-width:0.1;stroke-linejoin:round;stroke-opacity:1;stop-color:#000000"
         id="circle3608"
         cx="516.85327"
         cy="993.20764"
         r="1.05" />
      <circle
         style="fill:none;stroke:#0000ff;stroke-width:0.1;stroke-linejoin:round;stroke-opacity:1;stop-color:#000000"
         id="circle3610"
         cx="1072.2024"
         cy="-72.438744"
         r="1.05"
         transform="rotate(67.692885)" />
      <circle
         style="fill:none;stroke:#0000ff;stroke-width:0.1;stroke-linejoin:round;stroke-opacity:1;stop-color:#000000"
         id="circle3612"
         cx="1072.2024"
         cy="-48.438744"
         r="1.05"
         transform="rotate(67.692885)" />
    </g>
    <g
       id="g3636"
       transform="rotate(180,269.08787,653.9017)">
      <g
         transform="rotate(180,238.86963,502.60389)"
         id="g3620">
        <path
           style="fill:none;stroke:#000000;stroke-width:0.264583px;stroke-linecap:butt;stroke-linejoin:miter;stroke-opacity:1"
           d="m -40.114213,-17 v -3 h 80.228426 v 3 h 3 v 34 h -3 v 3 H 32.82332 v -3 h -3 v 3 l -2.775488,1.138713 1.138713,2.775488 2.775488,-1.138713 2.767412,6.745262 -2.775488,1.138713 1.138713,2.775488 L 0.637142,46.340365 -0.501571,43.564877 -3.277059,44.70359 -12.27361,22.775488 -9.498122,21.636775 -10.636835,18.861287 -13.412323,20 v -3 h -3 v 3 h -23.70189 v -3 h -3 v -34 z"
           id="path3616" />
        <path
           style="fill:none;stroke:#0000ff;stroke-width:0.264583px;stroke-linecap:butt;stroke-linejoin:miter;stroke-opacity:1"
           d=""
           id="path3618" />
      </g>
      <path
         id="path3622"
         style="fill:none;stroke:#0000ff;stroke-width:0.755902;stroke-linejoin:round;stroke-opacity:1;stop-color:#000000"
         d="m 1782.7344,3648.8125 -66.4375,27.2559 c 1.9811,4.828 -0.3259,10.3493 -5.1543,12.33 l 26.8554,65.4571 h -70.7539 a 9.4488185,9.4488185 0 0 1 -9.4492,9.4492 v 71.8105 a 9.4488185,9.4488185 0 0 1 9.4492,9.4493 h 276.7676 a 9.4488185,9.4488185 0 0 1 9.3399,-9.4493 9.4488185,9.4488185 0 0 1 0.1093,0 v -71.8105 a 9.4488185,9.4488185 0 0 1 -9.4492,-9.4492 h -107.9668 l -40.9824,-99.8887 c -4.8281,1.9811 -10.3475,-0.3262 -12.3281,-5.1543 z"
         transform="scale(0.26458333)" />
      <circle
         style="fill:none;stroke:#0000ff;stroke-width:0.1;stroke-linejoin:round;stroke-opacity:1;stop-color:#000000"
         id="circle3624"
         cx="438.62506"
         cy="993.20776"
         r="1.05" />
      <circle
         style="fill:none;stroke:#0000ff;stroke-width:0.1;stroke-linejoin:round;stroke-opacity:1;stop-color:#000000"
         id="circle3626"
         cx="438.62506"
         cy="1017.2078"
         r="1.05" />
      <circle
         style="fill:none;stroke:#0000ff;stroke-width:0.1;stroke-linejoin:round;stroke-opacity:1;stop-color:#000000"
         id="circle3628"
         cx="516.85327"
         cy="1017.2077"
         r="1.05" />
      <circle
         style="fill:none;stroke:#0000ff;stroke-width:0.1;stroke-linejoin:round;stroke-opacity:1;stop-color:#000000"
         id="circle3630"
         cx="516.85327"
         cy="993.20764"
         r="1.05" />
      <circle
         style="fill:none;stroke:#0000ff;stroke-width:0.1;stroke-linejoin:round;stroke-opacity:1;stop-color:#000000"
         id="circle3632"
         cx="1072.2024"
         cy="-72.438744"
         r="1.05"
         transform="rotate(67.692885)" />
      <circle
         style="fill:none;stroke:#0000ff;stroke-width:0.1;stroke-linejoin:round;stroke-opacity:1;stop-color:#000000"
         id="circle3634"
         cx="1072.2024"
         cy="-48.438744"
         r="1.05"
         transform="rotate(67.692885)" />
    </g>
    <path
       id="path3903"
       style="fill:none;stroke:#000000;stroke-width:0.264583px;stroke-linecap:butt;stroke-linejoin:miter;stroke-opacity:1"
       d="m 159.13379,170.2208 v -3.0004 h 2.99982 v -34 h -2.99982 v -2.9998 h -4.24367 v 2.9998 h -2.99981 v -2.9998 l -2.77554,-1.1384 -3.29489,-1.3519 -6.28127,15.1841 a 13.39105,13.39105 0 0 1 -12.39615,8.3086 13.39105,13.39105 0 0 1 -5.07566,-1.0026 13.39105,13.39105 0 0 1 -7.30601,-17.4713 l 2.28565,-5.5707 -6.11436,-2.5089 -1.13895,2.7756 2.77554,1.1389 -1.13843,2.7756 -2.77554,-1.139 v 2.9998 h -2.99982 v -2.9998 H 85.00033 v 2.9998 H 82 v 34 h 3.00033 v 3.0004 z" />
    <path
       id="path3905"
       style="fill:none;stroke:#000000;stroke-width:0.264583px;stroke-linecap:butt;stroke-linejoin:miter;stroke-opacity:1"
       d="m 84.99982,86 v 3.0004 H 82 v 34 h 2.99982 v 2.9998 h 4.24367 v -2.9998 h 2.99982 v 2.9998 l 2.77554,1.1384 3.29489,1.3519 6.28127,-15.1841 a 13.39105,13.39105 0 0 1 12.39614,-8.3085 13.39105,13.39105 0 0 1 5.07566,1.0025 13.39105,13.39105 0 0 1 7.30601,17.4713 l -2.28565,5.5707 6.11436,2.5089 1.13895,-2.7756 -2.77554,-1.1389 1.13843,-2.7755 2.77554,1.1389 v -2.9998 h 2.99982 v 2.9998 h 20.65455 v -2.9998 h 3.00033 v -34 h -3.00033 V 86 Z" />
    <path
       id="path3907"
       style="fill:none;stroke:#000000;stroke-width:0.264583px;stroke-linecap:butt;stroke-linejoin:miter;stroke-opacity:1"
       d="m 77.13343,170.2208 v -3.0004 h 2.99982 v -34 h -2.99982 v -2.9998 h -4.24367 v 2.9998 h -2.99981 v -2.9998 l -2.77554,-1.1384 -3.29489,-1.3519 -6.28127,15.1841 a 13.39105,13.39105 0 0 1 -12.39615,8.3086 13.39105,13.39105 0 0 1 -5.07566,-1.0026 13.39105,13.39105 0 0 1 -7.30601,-17.4713 l 2.28565,-5.5707 -6.11436,-2.5089 -1.13895,2.7756 2.77554,1.1389 -1.13843,2.7756 -2.77554,-1.139 v 2.9998 h -2.99982 v -2.9998 H 2.99997 v 2.9998 H -3.6e-4 v 34 h 3.00033 v 3.0004 z" />
    <path
       id="path3909"
       style="fill:none;stroke:#000000;stroke-width:0.264583px;stroke-linecap:butt;stroke-linejoin:miter;stroke-opacity:1"
       d="m 2.99946,86 v 3.0004 H -3.6e-4 v 34 h 2.99982 v 2.9998 h 4.24367 v -2.9998 h 2.99982 v 2.9998 l 2.77554,1.1384 3.29489,1.3519 6.28127,-15.1841 a 13.39105,13.39105 0 0 1 12.39614,-8.3085 13.39105,13.39105 0 0 1 5.07566,1.0025 13.39105,13.39105 0 0 1 7.30601,17.4713 l -2.28565,5.5707 6.11436,2.5089 1.13895,-2.7756 -2.77554,-1.1389 1.13843,-2.7755 2.77554,1.1389 v -2.9998 h 2.99982 v 2.9998 h 20.65455 v -2.9998 h 3.00033 v -34 H 77.13292 V 86 Z" />
    <path
       id="path3935"
       style="fill:none;stroke:#000000;stroke-width:0.264583px;stroke-linecap:butt;stroke-linejoin:miter;stroke-opacity:1"
       d="m 159.13379,84.2207 v -3.0003 h 2.99982 v -34 h -2.99982 v -2.9998 h -4.24367 v 2.9998 h -2.99981 v -2.9998 l -2.77554,-1.1385 -3.29489,-1.3518 -6.28127,15.1841 a 13.39105,13.39105 0 0 1 -12.39615,8.3085 13.39105,13.39105 0 0 1 -5.07566,-1.0025 13.39105,13.39105 0 0 1 -7.30601,-17.4713 l 2.28565,-5.5707 -6.11436,-2.5089 -1.13895,2.7755 2.77554,1.139 -1.13843,2.7755 -2.77554,-1.1389 v 2.9998 h -2.99982 V 44.2206 H 85.00033 v 2.9998 H 82 v 34 h 3.00033 v 3.0003 z" />
    <path
       id="path3937"
       style="fill:none;stroke:#000000;stroke-width:0.264583px;stroke-linecap:butt;stroke-linejoin:miter;stroke-opacity:1"
       d="M 84.99982,0 V 3.0003 H 82 v 34 h 2.99982 v 2.9998 h 4.24367 v -2.9998 h 2.99982 v 2.9998 l 2.77554,1.1385 3.29489,1.3518 6.28127,-15.1841 a 13.39105,13.39105 0 0 1 12.39614,-8.3085 13.39105,13.39105 0 0 1 5.07566,1.0025 13.39105,13.39105 0 0 1 7.30601,17.4713 l -2.28565,5.5707 6.11436,2.5089 1.13895,-2.7755 -2.77554,-1.139 1.13843,-2.7755 2.77554,1.1389 v -2.9998 h 2.99982 v 2.9998 h 20.65455 v -2.9998 h 3.00033 v -34 h -3.00033 V 0 Z" />
    <path
       id="path3939"
       style="fill:none;stroke:#000000;stroke-width:0.264583px;stroke-linecap:butt;stroke-linejoin:miter;stroke-opacity:1"
       d="m 77.13343,84.2207 v -3.0003 h 2.99982 v -34 h -2.99982 v -2.9998 h -4.24367 v 2.9998 H 69.88995 V 44.2206 L 67.11441,43.0821 63.81952,41.7303 57.53825,56.9144 A 13.39105,13.39105 0 0 1 45.1421,65.2229 13.39105,13.39105 0 0 1 40.06644,64.2204 13.39105,13.39105 0 0 1 32.76043,46.7491 l 2.28565,-5.5707 -6.11436,-2.5089 -1.13895,2.7755 2.77554,1.139 -1.13843,2.7755 -2.77554,-1.1389 v 2.9998 H 23.65452 V 44.2206 H 2.99997 v 2.9998 H -3.6e-4 v 34 h 3.00033 v 3.0003 z" />
    <path
       id="path3941"
       style="fill:none;stroke:#000000;stroke-width:0.264583px;stroke-linecap:butt;stroke-linejoin:miter;stroke-opacity:1"
       d="M 2.99946,0 V 3.0003 H -3.6e-4 v 34 h 2.99982 v 2.9998 h 4.24367 v -2.9998 h 2.99982 v 2.9998 l 2.77554,1.1385 3.29489,1.3518 6.28127,-15.1841 a 13.39105,13.39105 0 0 1 12.39614,-8.3085 13.39105,13.39105 0 0 1 5.07566,1.0025 13.39105,13.39105 0 0 1 7.30601,17.4713 l -2.28565,5.5707 6.11436,2.5089 1.13895,-2.7755 -2.77554,-1.139 1.13843,-2.7755 2.77554,1.1389 v -2.9998 h 2.99982 v 2.9998 h 20.65455 v -2.9998 h 3.00033 v -34 H 77.13292 V 0 Z" />
    <path
       id="path5237"
       style="fill:none;stroke:#000000;stroke-width:0.264583px;stroke-linecap:butt;stroke-linejoin:miter;stroke-opacity:1"
       d="m 323.13379,170.2208 v -3.0003 h 2.99982 v -34 h -2.99982 v -2.9999 h -4.24367 v 2.9999 h -2.99981 v -2.9999 l -2.77554,-1.1384 -3.29489,-1.3518 -6.28127,15.1841 a 13.39105,13.39105 0 0 1 -12.39615,8.3085 13.39105,13.39105 0 0 1 -5.07566,-1.0025 13.39105,13.39105 0 0 1 -7.30601,-17.4713 l 2.28565,-5.5707 -6.11436,-2.5089 -1.13895,2.7755 2.77554,1.139 -1.13843,2.7755 -2.77554,-1.139 v 2.9999 h -2.99982 v -2.9999 h -20.65455 v 2.9999 H 246 v 34 h 3.00033 v 3.0003 z" />
    <path
       id="path5239"
       style="fill:none;stroke:#000000;stroke-width:0.264583px;stroke-linecap:butt;stroke-linejoin:miter;stroke-opacity:1"
       d="m 248.99982,86.0001 v 3.0003 H 246 v 34 h 2.99982 v 2.9998 h 4.24367 v -2.9998 h 2.99982 v 2.9998 l 2.77554,1.1385 3.29489,1.3518 6.28127,-15.1841 a 13.39105,13.39105 0 0 1 12.39614,-8.3085 13.39105,13.39105 0 0 1 5.07566,1.0025 13.39105,13.39105 0 0 1 7.30601,17.4713 l -2.28565,5.5707 6.11436,2.5089 1.13895,-2.7755 -2.77554,-1.139 1.13843,-2.7755 2.77554,1.1389 v -2.9998 h 2.99982 v 2.9998 h 20.65455 v -2.9998 h 3.00033 v -34 h -3.00033 v -3.0003 z" />
    <path
       id="path5241"
       style="fill:none;stroke:#000000;stroke-width:0.264583px;stroke-linecap:butt;stroke-linejoin:miter;stroke-opacity:1"
       d="m 241.13379,170.2208 v -3.0003 h 2.99982 v -34 h -2.99982 v -2.9999 h -4.24367 v 2.9999 h -2.99981 v -2.9999 l -2.77554,-1.1384 -3.29489,-1.3518 -6.28127,15.1841 a 13.39105,13.39105 0 0 1 -12.39615,8.3085 13.39105,13.39105 0 0 1 -5.07566,-1.0025 13.39105,13.39105 0 0 1 -7.30601,-17.4713 l 2.28565,-5.5707 -6.11436,-2.5089 -1.13895,2.7755 2.77554,1.139 -1.13843,2.7755 -2.77554,-1.139 v 2.9999 h -2.99982 v -2.9999 h -20.65455 v 2.9999 H 164 v 34 h 3.00033 v 3.0003 z" />
    <path
       id="path5243"
       style="fill:none;stroke:#000000;stroke-width:0.264583px;stroke-linecap:butt;stroke-linejoin:miter;stroke-opacity:1"
       d="m 166.99982,86.0001 v 3.0003 H 164 v 34 h 2.99982 v 2.9998 h 4.24367 v -2.9998 h 2.99982 v 2.9998 l 2.77554,1.1385 3.29489,1.3518 6.28127,-15.1841 a 13.39105,13.39105 0 0 1 12.39614,-8.3085 13.39105,13.39105 0 0 1 5.07566,1.0025 13.39105,13.39105 0 0 1 7.30601,17.4713 l -2.28565,5.5707 6.11436,2.5089 1.13895,-2.7755 -2.77554,-1.139 1.13843,-2.7755 2.77554,1.1389 v -2.9998 h 2.99982 v 2.9998 h 20.65455 v -2.9998 h 3.00033 v -34 h -3.00033 v -3.0003 z" />
    <path
       id="path5245"
       style="fill:none;stroke:#000000;stroke-width:0.264583px;stroke-linecap:butt;stroke-linejoin:miter;stroke-opacity:1"
       d="m 323.13379,84.2208 v -3.0004 h 2.99982 v -34 h -2.99982 v -2.9998 h -4.24367 v 2.9998 h -2.99981 v -2.9998 l -2.77554,-1.1384 -3.29489,-1.3519 -6.28127,15.1841 a 13.39105,13.39105 0 0 1 -12.39615,8.3085 13.39105,13.39105 0 0 1 -5.07566,-1.0025 13.39105,13.39105 0 0 1 -7.30601,-17.4713 l 2.28565,-5.5707 -6.11436,-2.5089 -1.13895,2.7756 2.77554,1.1389 -1.13843,2.7755 -2.77554,-1.1389 v 2.9998 h -2.99982 v -2.9998 h -20.65455 v 2.9998 H 246 v 34 h 3.00033 v 3.0004 z" />
    <path
       id="path5247"
       style="fill:none;stroke:#000000;stroke-width:0.264583px;stroke-linecap:butt;stroke-linejoin:miter;stroke-opacity:1"
       d="M 248.99982,0 V 3.0003 H 246 v 34.0001 h 2.99982 v 2.9998 h 4.24367 v -2.9998 h 2.99982 v 2.9998 l 2.77554,1.1384 3.29489,1.3519 6.28127,-15.1841 a 13.39105,13.39105 0 0 1 12.39614,-8.3086 13.39105,13.39105 0 0 1 5.07566,1.0025 13.39105,13.39105 0 0 1 7.30601,17.4714 l -2.28565,5.5707 6.11436,2.5089 1.13895,-2.7756 -2.77554,-1.1389 1.13843,-2.7756 2.77554,1.139 v -2.9998 h 2.99982 v 2.9998 h 20.65455 v -2.9998 h 3.00033 V 3.0003 h -3.00033 V 0 Z" />
    <path
       id="path5249"
       style="fill:none;stroke:#000000;stroke-width:0.264583px;stroke-linecap:butt;stroke-linejoin:miter;stroke-opacity:1"
       d="m 241.13379,84.2208 v -3.0004 h 2.99982 v -34 h -2.99982 v -2.9998 h -4.24367 v 2.9998 h -2.99981 v -2.9998 l -2.77554,-1.1384 -3.29489,-1.3519 -6.28127,15.1841 a 13.39105,13.39105 0 0 1 -12.39615,8.3085 13.39105,13.39105 0 0 1 -5.07566,-1.0025 13.39105,13.39105 0 0 1 -7.30601,-17.4713 l 2.28565,-5.5707 -6.11436,-2.5089 -1.13895,2.7756 2.77554,1.1389 -1.13843,2.7755 -2.77554,-1.1389 v 2.9998 h -2.99982 v -2.9998 h -20.65455 v 2.9998 H 164 v 34 h 3.00033 v 3.0004 z" />
    <path
       id="path5251"
       style="fill:none;stroke:#000000;stroke-width:0.264583px;stroke-linecap:butt;stroke-linejoin:miter;stroke-opacity:1"
       d="M 166.99982,0 V 3.0003 H 164 v 34.0001 h 2.99982 v 2.9998 h 4.24367 v -2.9998 h 2.99982 v 2.9998 l 2.77554,1.1384 3.29489,1.3519 6.28127,-15.1841 a 13.39105,13.39105 0 0 1 12.39614,-8.3086 13.39105,13.39105 0 0 1 5.07566,1.0025 13.39105,13.39105 0 0 1 7.30601,17.4714 l -2.28565,5.5707 6.11436,2.5089 1.13895,-2.7756 -2.77554,-1.1389 1.13843,-2.7756 2.77554,1.139 v -2.9998 h 2.99982 v 2.9998 h 20.65455 v -2.9998 h 3.00033 V 3.0003 h -3.00033 V 0 Z" />
    <path
       id="path5255"
       style="fill:none;stroke:#000000;stroke-width:0.264583px;stroke-linecap:butt;stroke-linejoin:miter;stroke-opacity:1"
       d="m 487.13379,170.2208 v -3.0003 h 2.99982 v -34 h -2.99982 v -2.9999 h -4.24367 v 2.9999 h -2.99981 v -2.9999 l -2.77554,-1.1384 -3.29489,-1.3518 -6.28127,15.1841 a 13.39105,13.39105 0 0 1 -12.39615,8.3085 13.39105,13.39105 0 0 1 -5.07566,-1.0025 13.39105,13.39105 0 0 1 -7.30601,-17.4713 l 2.28565,-5.5707 -6.11436,-2.5089 -1.13895,2.7755 2.77554,1.139 -1.13843,2.7755 -2.77554,-1.139 v 2.9999 h -2.99982 v -2.9999 h -20.65455 v 2.9999 H 410 v 34 h 3.00033 v 3.0003 z" />
    <path
       id="path5257"
       style="fill:none;stroke:#000000;stroke-width:0.264583px;stroke-linecap:butt;stroke-linejoin:miter;stroke-opacity:1"
       d="m 412.99982,86.0001 v 3.0003 H 410 v 34 h 2.99982 v 2.9998 h 4.24367 v -2.9998 h 2.99982 v 2.9998 l 2.77554,1.1385 3.29489,1.3518 6.28127,-15.1841 a 13.39105,13.39105 0 0 1 12.39614,-8.3085 13.39105,13.39105 0 0 1 5.07566,1.0025 13.39105,13.39105 0 0 1 7.30601,17.4713 l -2.28565,5.5707 6.11436,2.5089 1.13895,-2.7755 -2.77554,-1.139 1.13843,-2.7755 2.77554,1.1389 v -2.9998 h 2.99982 v 2.9998 h 20.65455 v -2.9998 h 3.00033 v -34 h -3.00033 v -3.0003 z" />
    <path
       id="path5259"
       style="fill:none;stroke:#000000;stroke-width:0.264583px;stroke-linecap:butt;stroke-linejoin:miter;stroke-opacity:1"
       d="m 405.13379,170.2208 v -3.0003 h 2.99982 v -34 h -2.99982 v -2.9999 h -4.24367 v 2.9999 h -2.99981 v -2.9999 l -2.77554,-1.1384 -3.29489,-1.3518 -6.28127,15.1841 a 13.39105,13.39105 0 0 1 -12.39615,8.3085 13.39105,13.39105 0 0 1 -5.07566,-1.0025 13.39105,13.39105 0 0 1 -7.30601,-17.4713 l 2.28565,-5.5707 -6.11436,-2.5089 -1.13895,2.7755 2.77554,1.139 -1.13843,2.7755 -2.77554,-1.139 v 2.9999 h -2.99982 v -2.9999 h -20.65455 v 2.9999 H 328 v 34 h 3.00033 v 3.0003 z" />
    <path
       id="path5261"
       style="fill:none;stroke:#000000;stroke-width:0.264583px;stroke-linecap:butt;stroke-linejoin:miter;stroke-opacity:1"
       d="m 330.99982,86.0001 v 3.0003 H 328 v 34 h 2.99982 v 2.9998 h 4.24367 v -2.9998 h 2.99982 v 2.9998 l 2.77554,1.1385 3.29489,1.3518 6.28127,-15.1841 a 13.39105,13.39105 0 0 1 12.39614,-8.3085 13.39105,13.39105 0 0 1 5.07566,1.0025 13.39105,13.39105 0 0 1 7.30601,17.4713 l -2.28565,5.5707 6.11436,2.5089 1.13895,-2.7755 -2.77554,-1.139 1.13843,-2.7755 2.77554,1.1389 v -2.9998 h 2.99982 v 2.9998 h 20.65455 v -2.9998 h 3.00033 v -34 h -3.00033 v -3.0003 z" />
    <path
       id="path5263"
       style="fill:none;stroke:#000000;stroke-width:0.264583px;stroke-linecap:butt;stroke-linejoin:miter;stroke-opacity:1"
       d="m 487.13379,84.2208 v -3.0004 h 2.99982 v -34 h -2.99982 v -2.9998 h -4.24367 v 2.9998 h -2.99981 v -2.9998 l -2.77554,-1.1384 -3.29489,-1.3519 -6.28127,15.1841 a 13.39105,13.39105 0 0 1 -12.39615,8.3085 13.39105,13.39105 0 0 1 -5.07566,-1.0025 13.39105,13.39105 0 0 1 -7.30601,-17.4713 l 2.28565,-5.5707 -6.11436,-2.5089 -1.13895,2.7756 2.77554,1.1389 -1.13843,2.7755 -2.77554,-1.1389 v 2.9998 h -2.99982 v -2.9998 h -20.65455 v 2.9998 H 410 v 34 h 3.00033 v 3.0004 z" />
    <path
       id="path5265"
       style="fill:none;stroke:#000000;stroke-width:0.264583px;stroke-linecap:butt;stroke-linejoin:miter;stroke-opacity:1"
       d="M 412.99982,0 V 3.0003 H 410 v 34.0001 h 2.99982 v 2.9998 h 4.24367 v -2.9998 h 2.99982 v 2.9998 l 2.77554,1.1384 3.29489,1.3519 6.28127,-15.1841 a 13.39105,13.39105 0 0 1 12.39614,-8.3086 13.39105,13.39105 0 0 1 5.07566,1.0025 13.39105,13.39105 0 0 1 7.30601,17.4714 l -2.28565,5.5707 6.11436,2.5089 1.13895,-2.7756 -2.77554,-1.1389 1.13843,-2.7756 2.77554,1.139 v -2.9998 h 2.99982 v 2.9998 h 20.65455 v -2.9998 h 3.00033 V 3.0003 h -3.00033 V 0 Z" />
    <path
       id="path5267"
       style="fill:none;stroke:#000000;stroke-width:0.264583px;stroke-linecap:butt;stroke-linejoin:miter;stroke-opacity:1"
       d="m 405.13379,84.2208 v -3.0004 h 2.99982 v -34 h -2.99982 v -2.9998 h -4.24367 v 2.9998 h -2.99981 v -2.9998 l -2.77554,-1.1384 -3.29489,-1.3519 -6.28127,15.1841 a 13.39105,13.39105 0 0 1 -12.39615,8.3085 13.39105,13.39105 0 0 1 -5.07566,-1.0025 13.39105,13.39105 0 0 1 -7.30601,-17.4713 l 2.28565,-5.5707 -6.11436,-2.5089 -1.13895,2.7756 2.77554,1.1389 -1.13843,2.7755 -2.77554,-1.1389 v 2.9998 h -2.99982 v -2.9998 h -20.65455 v 2.9998 H 328 v 34 h 3.00033 v 3.0004 z" />
    <path
       id="path5269"
       style="fill:none;stroke:#000000;stroke-width:0.264583px;stroke-linecap:butt;stroke-linejoin:miter;stroke-opacity:1"
       d="M 330.99982,0 V 3.0003 H 328 v 34.0001 h 2.99982 v 2.9998 h 4.24367 v -2.9998 h 2.99982 v 2.9998 l 2.77554,1.1384 3.29489,1.3519 6.28127,-15.1841 a 13.39105,13.39105 0 0 1 12.39614,-8.3086 13.39105,13.39105 0 0 1 5.07566,1.0025 13.39105,13.39105 0 0 1 7.30601,17.4714 l -2.28565,5.5707 6.11436,2.5089 1.13895,-2.7756 -2.77554,-1.1389 1.13843,-2.7756 2.77554,1.139 v -2.9998 h 2.99982 v 2.9998 h 20.65455 v -2.9998 h 3.00033 V 3.0003 h -3.00033 V 0 Z" />
    <g
       id="g5289"
       transform="rotate(90,289.41993,1012.5984)" />
    <g
       id="use5720"
       transform="translate(240)">
      <g
         transform="translate(303.11421,20)"
         id="g13117">
        <path
           style="fill:none;stroke:#000000;stroke-width:0.264583px;stroke-linecap:butt;stroke-linejoin:miter;stroke-opacity:1"
           d="m -40.114213,-17 v -3 h 80.228426 v 3 h 3 v 34 h -3 v 3 h -80.228426 v -3 h -3 v -34 z"
           id="path13115" />
      </g>
      <path
         id="path13119"
         style="fill:none;stroke:#0000ff;stroke-width:0.755902;stroke-linejoin:round;stroke-opacity:1;stop-color:#000000"
         d="m 1327.2441,3433.8574 a 9.4488188,9.4488188 0 0 1 -9.4492,9.4492 v 71.8106 a 9.4488188,9.4488188 0 0 1 9.4492,9.4492 h 276.7676 a 9.4488188,9.4488188 0 0 1 9.3399,-9.4492 9.4488188,9.4488188 0 0 1 0.1093,0 v -71.8106 a 9.4488188,9.4488188 0 0 1 -9.4492,-9.4492 z"
         transform="matrix(0.26458333,0,0,0.26458333,-84.666669,-900.54157)" />
      <circle
         style="fill:none;stroke:#0000ff;stroke-width:0.1;stroke-linejoin:round;stroke-opacity:1;stop-color:#000000"
         id="circle13121"
         cx="264"
         cy="7.9999847"
         r="1.05" />
      <circle
         style="fill:none;stroke:#0000ff;stroke-width:0.1;stroke-linejoin:round;stroke-opacity:1;stop-color:#000000"
         id="circle13123"
         cx="264"
         cy="31.999985"
         r="1.05" />
      <circle
         style="fill:none;stroke:#0000ff;stroke-width:0.1;stroke-linejoin:round;stroke-opacity:1;stop-color:#000000"
         id="circle13125"
         cx="342.22821"
         cy="31.999924"
         r="1.05" />
      <circle
         style="fill:none;stroke:#0000ff;stroke-width:0.1;stroke-linejoin:round;stroke-opacity:1;stop-color:#000000"
         id="circle13127"
         cx="342.22821"
         cy="7.9998627"
         r="1.05" />
    </g>
    <g
       id="use5724"
       transform="translate(240,42.9998)">
      <g
         transform="translate(303.11421,20)"
         id="g13133">
        <path
           style="fill:none;stroke:#000000;stroke-width:0.264583px;stroke-linecap:butt;stroke-linejoin:miter;stroke-opacity:1"
           d="m -40.114213,-17 v -3 h 80.228426 v 3 h 3 v 34 h -3 v 3 h -80.228426 v -3 h -3 v -34 z"
           id="path13131" />
      </g>
      <path
         id="path13135"
         style="fill:none;stroke:#0000ff;stroke-width:0.755902;stroke-linejoin:round;stroke-opacity:1;stop-color:#000000"
         d="m 1327.2441,3433.8574 a 9.4488188,9.4488188 0 0 1 -9.4492,9.4492 v 71.8106 a 9.4488188,9.4488188 0 0 1 9.4492,9.4492 h 276.7676 a 9.4488188,9.4488188 0 0 1 9.3399,-9.4492 9.4488188,9.4488188 0 0 1 0.1093,0 v -71.8106 a 9.4488188,9.4488188 0 0 1 -9.4492,-9.4492 z"
         transform="matrix(0.26458333,0,0,0.26458333,-84.666669,-900.54157)" />
      <circle
         style="fill:none;stroke:#0000ff;stroke-width:0.1;stroke-linejoin:round;stroke-opacity:1;stop-color:#000000"
         id="circle13137"
         cx="264"
         cy="7.9999847"
         r="1.05" />
      <circle
         style="fill:none;stroke:#0000ff;stroke-width:0.1;stroke-linejoin:round;stroke-opacity:1;stop-color:#000000"
         id="circle13139"
         cx="264"
         cy="31.999985"
         r="1.05" />
      <circle
         style="fill:none;stroke:#0000ff;stroke-width:0.1;stroke-linejoin:round;stroke-opacity:1;stop-color:#000000"
         id="circle13141"
         cx="342.22821"
         cy="31.999924"
         r="1.05" />
      <circle
         style="fill:none;stroke:#0000ff;stroke-width:0.1;stroke-linejoin:round;stroke-opacity:1;stop-color:#000000"
         id="circle13143"
         cx="342.22821"
         cy="7.9998627"
         r="1.05" />
    </g>
    <g
       id="use5748"
       transform="translate(240,86)">
      <g
         transform="translate(303.11421,20)"
         id="g13149">
        <path
           style="fill:none;stroke:#000000;stroke-width:0.264583px;stroke-linecap:butt;stroke-linejoin:miter;stroke-opacity:1"
           d="m -40.114213,-17 v -3 h 80.228426 v 3 h 3 v 34 h -3 v 3 h -80.228426 v -3 h -3 v -34 z"
           id="path13147" />
      </g>
      <path
         id="path13151"
         style="fill:none;stroke:#0000ff;stroke-width:0.755902;stroke-linejoin:round;stroke-opacity:1;stop-color:#000000"
         d="m 1327.2441,3433.8574 a 9.4488188,9.4488188 0 0 1 -9.4492,9.4492 v 71.8106 a 9.4488188,9.4488188 0 0 1 9.4492,9.4492 h 276.7676 a 9.4488188,9.4488188 0 0 1 9.3399,-9.4492 9.4488188,9.4488188 0 0 1 0.1093,0 v -71.8106 a 9.4488188,9.4488188 0 0 1 -9.4492,-9.4492 z"
         transform="matrix(0.26458333,0,0,0.26458333,-84.666669,-900.54157)" />
      <circle
         style="fill:none;stroke:#0000ff;stroke-width:0.1;stroke-linejoin:round;stroke-opacity:1;stop-color:#000000"
         id="circle13153"
         cx="264"
         cy="7.9999847"
         r="1.05" />
      <circle
         style="fill:none;stroke:#0000ff;stroke-width:0.1;stroke-linejoin:round;stroke-opacity:1;stop-color:#000000"
         id="circle13155"
         cx="264"
         cy="31.999985"
         r="1.05" />
      <circle
         style="fill:none;stroke:#0000ff;stroke-width:0.1;stroke-linejoin:round;stroke-opacity:1;stop-color:#000000"
         id="circle13157"
         cx="342.22821"
         cy="31.999924"
         r="1.05" />
      <circle
         style="fill:none;stroke:#0000ff;stroke-width:0.1;stroke-linejoin:round;stroke-opacity:1;stop-color:#000000"
         id="circle13159"
         cx="342.22821"
         cy="7.9998627"
         r="1.05" />
    </g>
    <g
       id="use5750"
       transform="translate(240,128.9998)">
      <g
         transform="translate(303.11421,20)"
         id="g13165">
        <path
           style="fill:none;stroke:#000000;stroke-width:0.264583px;stroke-linecap:butt;stroke-linejoin:miter;stroke-opacity:1"
           d="m -40.114213,-17 v -3 h 80.228426 v 3 h 3 v 34 h -3 v 3 h -80.228426 v -3 h -3 v -34 z"
           id="path13163" />
      </g>
      <path
         id="path13167"
         style="fill:none;stroke:#0000ff;stroke-width:0.755902;stroke-linejoin:round;stroke-opacity:1;stop-color:#000000"
         d="m 1327.2441,3433.8574 a 9.4488188,9.4488188 0 0 1 -9.4492,9.4492 v 71.8106 a 9.4488188,9.4488188 0 0 1 9.4492,9.4492 h 276.7676 a 9.4488188,9.4488188 0 0 1 9.3399,-9.4492 9.4488188,9.4488188 0 0 1 0.1093,0 v -71.8106 a 9.4488188,9.4488188 0 0 1 -9.4492,-9.4492 z"
         transform="matrix(0.26458333,0,0,0.26458333,-84.666669,-900.54157)" />
      <circle
         style="fill:none;stroke:#0000ff;stroke-width:0.1;stroke-linejoin:round;stroke-opacity:1;stop-color:#000000"
         id="circle13169"
         cx="264"
         cy="7.9999847"
         r="1.05" />
      <circle
         style="fill:none;stroke:#0000ff;stroke-width:0.1;stroke-linejoin:round;stroke-opacity:1;stop-color:#000000"
         id="circle13171"
         cx="264"
         cy="31.999985"
         r="1.05" />
      <circle
         style="fill:none;stroke:#0000ff;stroke-width:0.1;stroke-linejoin:round;stroke-opacity:1;stop-color:#000000"
         id="circle13173"
         cx="342.22821"
         cy="31.999924"
         r="1.05" />
      <circle
         style="fill:none;stroke:#0000ff;stroke-width:0.1;stroke-linejoin:round;stroke-opacity:1;stop-color:#000000"
         id="circle13175"
         cx="342.22821"
         cy="7.9998627"
         r="1.05" />
    </g>
  </g>
  <g
     id="g941"
     transform="translate(-0.4552025,23.827198)" />
</svg>
