<?xml version="1.0" encoding="UTF-8" standalone="no"?>
<svg
   xmlns:dc="http://purl.org/dc/elements/1.1/"
   xmlns:cc="http://creativecommons.org/ns#"
   xmlns:rdf="http://www.w3.org/1999/02/22-rdf-syntax-ns#"
   xmlns:svg="http://www.w3.org/2000/svg"
   xmlns="http://www.w3.org/2000/svg"
   xmlns:sodipodi="http://sodipodi.sourceforge.net/DTD/sodipodi-0.dtd"
   xmlns:inkscape="http://www.inkscape.org/namespaces/inkscape"
   width="600mm"
   height="200mm"
   viewBox="0 0 600 200"
   version="1.1"
   id="svg8"
   inkscape:version="1.0.2 (e86c870879, 2021-01-15)"
   sodipodi:docname="kerftest.svg">
  <metadata
     id="metadata1033">
    <rdf:RDF>
      <cc:Work
         rdf:about="">
        <dc:format>image/svg+xml</dc:format>
        <dc:type
           rdf:resource="http://purl.org/dc/dcmitype/StillImage" />
        <dc:title></dc:title>
      </cc:Work>
    </rdf:RDF>
  </metadata>
  <defs
     id="defs1031" />
  <sodipodi:namedview
     id="base"
     pagecolor="#ffffff"
     bordercolor="#666666"
     borderopacity="1.0"
     inkscape:pageopacity="0.0"
     inkscape:pageshadow="2"
     inkscape:zoom="0.49497475"
     inkscape:cx="771.19825"
     inkscape:cy="421.845"
     inkscape:document-units="mm"
     inkscape:current-layer="layer2"
     inkscape:document-rotation="0"
     showgrid="false"
     showguides="true"
     inkscape:guide-bbox="true"
     inkscape:snap-center="true"
     inkscape:snap-intersection-paths="true"
     inkscape:snap-midpoints="true"
     inkscape:window-width="1364"
     inkscape:window-height="750"
     inkscape:window-x="1"
     inkscape:window-y="17"
     inkscape:window-maximized="0"
     inkscape:object-paths="true"
     inkscape:snap-smooth-nodes="true"
     inkscape:snap-global="true"
     inkscape:snap-bbox="true"
     inkscape:snap-bbox-edge-midpoints="false" />
  <g
     id="g941"
     transform="translate(-0.4552025,23.827198)" />
  <g
     inkscape:groupmode="layer"
     id="layer2"
     inkscape:label="kerftest2"
     style="display:inline">
    <g
       id="g4805">
      <rect
         style="fill:none;stroke:#000000;stroke-width:0.099999;stroke-linejoin:round;stroke-opacity:1;stop-color:#000000"
         id="rect6005"
         width="330"
         height="100"
         x="0"
         y="0" />
      <rect
         style="fill:none;stroke:#000000;stroke-width:0.0999994;stroke-linejoin:round;stroke-opacity:1;stop-color:#000000"
         id="rect6007"
         width="29.4"
         height="29.4"
         x="10"
         y="10" />
      <rect
         style="fill:none;stroke:#000000;stroke-width:0.0999997;stroke-linejoin:round;stroke-opacity:1;stop-color:#000000"
         id="rect6009"
         width="29.440001"
         height="29.439999"
         x="50"
         y="10" />
      <g
         id="g8016"
         transform="translate(-6,2.412499)">
        <path
           d="m 24.5,47.587501 h 1 v -1 h -1 z"
           id="path7018"
           style="fill:none;stroke:#ff0000;stroke-width:0.1;stroke-linecap:round;stroke-linejoin:round;stroke-miterlimit:4;stroke-dasharray:none;stroke-opacity:1" />
        <path
           d="m 27.5,43.587501 2,-2 v 6 m -2,0 h 4"
           id="path7020"
           style="fill:none;stroke:#ff0000;stroke-width:0.1;stroke-linecap:round;stroke-linejoin:round;stroke-miterlimit:4;stroke-dasharray:none;stroke-opacity:1" />
        <path
           d="m 37.5,41.587501 h -4 v 3 l 2,-1 h 1 l 1,1 v 2 l -1,1 h -2 l -1,-1"
           id="path7022"
           style="fill:none;stroke:#ff0000;stroke-width:0.1;stroke-linecap:round;stroke-linejoin:round;stroke-miterlimit:4;stroke-dasharray:none;stroke-opacity:1" />
        <path
           d="m 64.5,47.587501 h 1 v -1 h -1 z"
           id="path7028"
           style="fill:none;stroke:#ff0000;stroke-width:0.1;stroke-linecap:round;stroke-linejoin:round;stroke-miterlimit:4;stroke-dasharray:none;stroke-opacity:1" />
        <path
           d="m 67.5,43.587501 2,-2 v 6 m -2,0 h 4"
           id="path7030"
           style="fill:none;stroke:#ff0000;stroke-width:0.1;stroke-linecap:round;stroke-linejoin:round;stroke-miterlimit:4;stroke-dasharray:none;stroke-opacity:1" />
        <path
           d="m 76.5,47.587501 v -6 l -3,3 h 4"
           id="path7032"
           style="fill:none;stroke:#ff0000;stroke-width:0.1;stroke-linecap:round;stroke-linejoin:round;stroke-miterlimit:4;stroke-dasharray:none;stroke-opacity:1" />
        <path
           d="m 104.5,47.587501 h 1 v -1 h -1 z"
           id="path7038"
           style="fill:none;stroke:#ff0000;stroke-width:0.1;stroke-linecap:round;stroke-linejoin:round;stroke-miterlimit:4;stroke-dasharray:none;stroke-opacity:1" />
        <path
           d="m 107.5,43.587501 2,-2 v 6 m -2,0 h 4"
           id="path7040"
           style="fill:none;stroke:#ff0000;stroke-width:0.1;stroke-linecap:round;stroke-linejoin:round;stroke-miterlimit:4;stroke-dasharray:none;stroke-opacity:1" />
        <path
           d="m 113.5,42.587501 1,-1 h 2 l 1,1 v 1 l -1,1 h -1 m 1,0 1,1 v 1 l -1,1 h -2 l -1,-1"
           id="path7042"
           style="fill:none;stroke:#ff0000;stroke-width:0.1;stroke-linecap:round;stroke-linejoin:round;stroke-miterlimit:4;stroke-dasharray:none;stroke-opacity:1" />
        <path
           d="m 144.5,47.587501 h 1 v -1 h -1 z"
           id="path7048"
           style="fill:none;stroke:#ff0000;stroke-width:0.1;stroke-linecap:round;stroke-linejoin:round;stroke-miterlimit:4;stroke-dasharray:none;stroke-opacity:1" />
        <path
           d="m 147.5,43.587501 2,-2 v 6 m -2,0 h 4"
           id="path7050"
           style="fill:none;stroke:#ff0000;stroke-width:0.1;stroke-linecap:round;stroke-linejoin:round;stroke-miterlimit:4;stroke-dasharray:none;stroke-opacity:1" />
        <path
           d="m 153.5,42.587501 1,-1 h 2 l 1,1 v 1 l -4,4 h 4"
           id="path7052"
           style="fill:none;stroke:#ff0000;stroke-width:0.1;stroke-linecap:round;stroke-linejoin:round;stroke-miterlimit:4;stroke-dasharray:none;stroke-opacity:1" />
        <path
           d="m 184.5,47.587501 h 1 v -1 h -1 z"
           id="path7058"
           style="fill:none;stroke:#ff0000;stroke-width:0.1;stroke-linecap:round;stroke-linejoin:round;stroke-miterlimit:4;stroke-dasharray:none;stroke-opacity:1" />
        <path
           d="m 187.5,43.587501 2,-2 v 6 m -2,0 h 4"
           id="path7060"
           style="fill:none;stroke:#ff0000;stroke-width:0.1;stroke-linecap:round;stroke-linejoin:round;stroke-miterlimit:4;stroke-dasharray:none;stroke-opacity:1" />
        <path
           d="m 193.5,43.587501 2,-2 v 6 m -2,0 h 4"
           id="path7062"
           style="fill:none;stroke:#ff0000;stroke-width:0.1;stroke-linecap:round;stroke-linejoin:round;stroke-miterlimit:4;stroke-dasharray:none;stroke-opacity:1" />
        <path
           d="m 224.5,47.587501 h 1 v -1 h -1 z"
           id="path7068"
           style="fill:none;stroke:#ff0000;stroke-width:0.1;stroke-linecap:round;stroke-linejoin:round;stroke-miterlimit:4;stroke-dasharray:none;stroke-opacity:1" />
        <path
           d="m 227.5,43.587501 2,-2 v 6 m -2,0 h 4"
           id="path7070"
           style="fill:none;stroke:#ff0000;stroke-width:0.1;stroke-linecap:round;stroke-linejoin:round;stroke-miterlimit:4;stroke-dasharray:none;stroke-opacity:1" />
        <path
           d="m 233.5,46.587501 v -4 l 1,-1 h 2 l 1,1 v 4 l -1,1 h -2 l -1,-1 4,-4"
           id="path7072"
           style="fill:none;stroke:#ff0000;stroke-width:0.1;stroke-linecap:round;stroke-linejoin:round;stroke-miterlimit:4;stroke-dasharray:none;stroke-opacity:1" />
        <path
           d="m 264.5,47.587501 h 1 v -1 h -1 z"
           id="path7078"
           style="fill:none;stroke:#ff0000;stroke-width:0.1;stroke-linecap:round;stroke-linejoin:round;stroke-miterlimit:4;stroke-dasharray:none;stroke-opacity:1" />
        <path
           d="m 267.5,46.587501 v -4 l 1,-1 h 2 l 1,1 v 4 l -1,1 h -2 l -1,-1 4,-4"
           id="path7080"
           style="fill:none;stroke:#ff0000;stroke-width:0.1;stroke-linecap:round;stroke-linejoin:round;stroke-miterlimit:4;stroke-dasharray:none;stroke-opacity:1" />
        <path
           d="m 273.5,46.587501 1,1 h 2 l 1,-1 v -4 l -1,-1 h -2 l -1,1 v 1 l 1,1 h 3"
           id="path7082"
           style="fill:none;stroke:#ff0000;stroke-width:0.1;stroke-linecap:round;stroke-linejoin:round;stroke-miterlimit:4;stroke-dasharray:none;stroke-opacity:1" />
        <path
           d="m 304.5,47.587501 h 1 v -1 h -1 z"
           id="path7088"
           style="fill:none;stroke:#ff0000;stroke-width:0.1;stroke-linecap:round;stroke-linejoin:round;stroke-miterlimit:4;stroke-dasharray:none;stroke-opacity:1" />
        <path
           d="m 307.5,46.587501 v -4 l 1,-1 h 2 l 1,1 v 4 l -1,1 h -2 l -1,-1 4,-4"
           id="path7090"
           style="fill:none;stroke:#ff0000;stroke-width:0.1;stroke-linecap:round;stroke-linejoin:round;stroke-miterlimit:4;stroke-dasharray:none;stroke-opacity:1" />
        <path
           d="m 314.5,44.587501 h 2 l 1,1 v 1 l -1,1 h -2 l -1,-1 v -1 l 1,-1 -1,-1 v -1 l 1,-1 h 2 l 1,1 v 1 l -1,1"
           id="path7092"
           style="fill:none;stroke:#ff0000;stroke-width:0.1;stroke-linecap:round;stroke-linejoin:round;stroke-miterlimit:4;stroke-dasharray:none;stroke-opacity:1" />
      </g>
      <rect
         style="fill:none;stroke:#000000;stroke-width:0.1;stroke-linejoin:round;stroke-opacity:1;stop-color:#000000"
         id="rect7940"
         width="29.48"
         height="29.48"
         x="90"
         y="10" />
      <rect
         style="fill:none;stroke:#000000;stroke-width:0.1;stroke-linejoin:round;stroke-opacity:1;stop-color:#000000"
         id="rect7942"
         width="29.52"
         height="29.52"
         x="130"
         y="10" />
      <rect
         style="fill:none;stroke:#000000;stroke-width:0.1;stroke-linejoin:round;stroke-opacity:1;stop-color:#000000"
         id="rect7944"
         width="29.559999"
         height="29.559999"
         x="170"
         y="10" />
      <rect
         style="fill:none;stroke:#000000;stroke-width:0.0999993;stroke-linejoin:round;stroke-opacity:1;stop-color:#000000"
         id="rect7946"
         width="29.6"
         height="29.6"
         x="210"
         y="10" />
      <rect
         style="fill:none;stroke:#000000;stroke-width:0.0999999;stroke-linejoin:round;stroke-opacity:1;stop-color:#000000"
         id="rect7948"
         width="29.639999"
         height="29.639999"
         x="250"
         y="10" />
      <rect
         style="fill:none;stroke:#000000;stroke-width:0.0999997;stroke-linejoin:round;stroke-opacity:1;stop-color:#000000"
         id="rect7950"
         width="29.68"
         height="29.68"
         x="290"
         y="10" />
      <rect
         style="fill:none;stroke:#000000;stroke-width:0.0999994;stroke-linejoin:round;stroke-opacity:1;stop-color:#000000"
         id="rect8018"
         width="29.720001"
         height="29.720001"
         x="10"
         y="55.000008" />
      <rect
         style="fill:none;stroke:#000000;stroke-width:0.0999997;stroke-linejoin:round;stroke-opacity:1;stop-color:#000000"
         id="rect8020"
         width="29.759998"
         height="29.759996"
         x="49.999996"
         y="55" />
      <rect
         style="fill:none;stroke:#000000;stroke-width:0.1;stroke-linejoin:round;stroke-opacity:1;stop-color:#000000"
         id="rect8022"
         width="29.799999"
         height="29.799999"
         x="90"
         y="55" />
      <rect
         style="fill:none;stroke:#000000;stroke-width:0.1;stroke-linejoin:round;stroke-opacity:1;stop-color:#000000"
         id="rect8024"
         width="29.84"
         height="29.84"
         x="130"
         y="55.000004" />
      <rect
         style="fill:none;stroke:#000000;stroke-width:0.1;stroke-linejoin:round;stroke-opacity:1;stop-color:#000000"
         id="rect8026"
         width="29.880001"
         height="29.880001"
         x="170"
         y="55.000008" />
      <rect
         style="fill:none;stroke:#000000;stroke-width:0.0999993;stroke-linejoin:round;stroke-opacity:1;stop-color:#000000"
         id="rect8028"
         width="29.92"
         height="29.92"
         x="210"
         y="55.000004" />
      <rect
         style="fill:none;stroke:#000000;stroke-width:0.0999999;stroke-linejoin:round;stroke-opacity:1;stop-color:#000000"
         id="rect8030"
         width="29.959999"
         height="29.959999"
         x="249.99998"
         y="55" />
      <rect
         style="fill:none;stroke:#000000;stroke-width:0.0999997;stroke-linejoin:round;stroke-opacity:1;stop-color:#000000"
         id="rect8032"
         width="30.000002"
         height="30.000002"
         x="290"
         y="55.000008" />
      <g
         id="g8271"
         transform="translate(0.18262281,-18.58334)">
        <path
           d="m 18.017377,113.58334 h 1 v -1 h -1 z"
           id="path8036"
           style="fill:none;stroke:#ff0000;stroke-width:0.1;stroke-linecap:round;stroke-linejoin:round;stroke-miterlimit:4;stroke-dasharray:none;stroke-opacity:1" />
        <path
           d="m 21.017377,112.58334 v -4 l 1,-1 h 2 l 1,1 v 4 l -1,1 h -2 l -1,-1 4,-4"
           id="path8038"
           style="fill:none;stroke:#ff0000;stroke-width:0.1;stroke-linecap:round;stroke-linejoin:round;stroke-miterlimit:4;stroke-dasharray:none;stroke-opacity:1" />
        <path
           d="m 27.017377,107.58334 h 4 v 1 l -4,4 v 1"
           id="path8040"
           style="fill:none;stroke:#ff0000;stroke-width:0.1;stroke-linecap:round;stroke-linejoin:round;stroke-miterlimit:4;stroke-dasharray:none;stroke-opacity:1" />
      </g>
      <g
         id="g8266"
         transform="translate(13.202623,-18.58334)">
        <path
           d="m 45.017377,113.58334 h 1 v -1 h -1 z"
           id="path8042"
           style="fill:none;stroke:#ff0000;stroke-width:0.1;stroke-linecap:round;stroke-linejoin:round;stroke-miterlimit:4;stroke-dasharray:none;stroke-opacity:1" />
        <path
           d="m 48.017377,112.58334 v -4 l 1,-1 h 2 l 1,1 v 4 l -1,1 h -2 l -1,-1 4,-4"
           id="path8044"
           style="fill:none;stroke:#ff0000;stroke-width:0.1;stroke-linecap:round;stroke-linejoin:round;stroke-miterlimit:4;stroke-dasharray:none;stroke-opacity:1" />
        <path
           d="m 54.017377,110.58334 h 3 l 1,1 v 1 l -1,1 h -2 l -1,-1 v -2 l 2,-2 2,-1"
           id="path8046"
           style="fill:none;stroke:#ff0000;stroke-width:0.1;stroke-linecap:round;stroke-linejoin:round;stroke-miterlimit:4;stroke-dasharray:none;stroke-opacity:1" />
      </g>
      <g
         id="g8261"
         transform="translate(26.222623,-18.58334)">
        <path
           d="m 72.017377,113.58334 h 1 v -1 h -1 z"
           id="path8048"
           style="fill:none;stroke:#ff0000;stroke-width:0.1;stroke-linecap:round;stroke-linejoin:round;stroke-miterlimit:4;stroke-dasharray:none;stroke-opacity:1" />
        <path
           d="m 75.017377,112.58334 v -4 l 1,-1 h 2 l 1,1 v 4 l -1,1 h -2 l -1,-1 4,-4"
           id="path8050"
           style="fill:none;stroke:#ff0000;stroke-width:0.1;stroke-linecap:round;stroke-linejoin:round;stroke-miterlimit:4;stroke-dasharray:none;stroke-opacity:1" />
        <path
           d="m 85.017377,107.58334 h -4 v 3 l 2,-1 h 1 l 1,1 v 2 l -1,1 h -2 l -1,-1"
           id="path8052"
           style="fill:none;stroke:#ff0000;stroke-width:0.1;stroke-linecap:round;stroke-linejoin:round;stroke-miterlimit:4;stroke-dasharray:none;stroke-opacity:1" />
      </g>
      <g
         id="g8256"
         transform="translate(39.242622,-18.58334)">
        <path
           d="m 99.017377,113.58334 h 1.000003 v -1 h -1.000003 z"
           id="path8054"
           style="fill:none;stroke:#ff0000;stroke-width:0.1;stroke-linecap:round;stroke-linejoin:round;stroke-miterlimit:4;stroke-dasharray:none;stroke-opacity:1" />
        <path
           d="m 102.01738,112.58334 v -4 l 1,-1 h 2 l 1,1 v 4 l -1,1 h -2 l -1,-1 4,-4"
           id="path8056"
           style="fill:none;stroke:#ff0000;stroke-width:0.1;stroke-linecap:round;stroke-linejoin:round;stroke-miterlimit:4;stroke-dasharray:none;stroke-opacity:1" />
        <path
           d="m 111.01738,113.58334 v -6 l -3,3 h 4"
           id="path8058"
           style="fill:none;stroke:#ff0000;stroke-width:0.1;stroke-linecap:round;stroke-linejoin:round;stroke-miterlimit:4;stroke-dasharray:none;stroke-opacity:1" />
      </g>
      <g
         id="g8251"
         transform="translate(36.38761,-18.58334)">
        <path
           d="m 141.89239,113.58334 h 1 v -1 h -1 z"
           id="path8060"
           style="fill:none;stroke:#ff0000;stroke-width:0.1;stroke-linecap:round;stroke-linejoin:round;stroke-miterlimit:4;stroke-dasharray:none;stroke-opacity:1" />
        <path
           d="m 144.89239,112.58334 v -4 l 1,-1 h 2 l 1,1 v 4 l -1,1 h -2 l -1,-1 4,-4"
           id="path8062"
           style="fill:none;stroke:#ff0000;stroke-width:0.1;stroke-linecap:round;stroke-linejoin:round;stroke-miterlimit:4;stroke-dasharray:none;stroke-opacity:1" />
        <path
           d="m 150.89239,108.58334 1,-1 h 2 l 1,1 v 1 l -1,1 h -1 m 1,0 1,1 v 1 l -1,1 h -2 l -1,-1"
           id="path8064"
           style="fill:none;stroke:#ff0000;stroke-width:0.1;stroke-linecap:round;stroke-linejoin:round;stroke-miterlimit:4;stroke-dasharray:none;stroke-opacity:1" />
      </g>
      <g
         id="g8246"
         transform="translate(38.82427,-18.58334)">
        <path
           d="m 179.47573,113.58334 h 1 v -1 h -1 z"
           id="path8066"
           style="fill:none;stroke:#ff0000;stroke-width:0.1;stroke-linecap:round;stroke-linejoin:round;stroke-miterlimit:4;stroke-dasharray:none;stroke-opacity:1" />
        <path
           d="m 182.47573,112.58334 v -4 l 1,-1 h 2 l 1,1 v 4 l -1,1 h -2 l -1,-1 4,-4"
           id="path8068"
           style="fill:none;stroke:#ff0000;stroke-width:0.1;stroke-linecap:round;stroke-linejoin:round;stroke-miterlimit:4;stroke-dasharray:none;stroke-opacity:1" />
        <path
           d="m 188.47573,108.58334 1,-1 h 2 l 1,1 v 1 l -4,4 h 4"
           id="path8070"
           style="fill:none;stroke:#ff0000;stroke-width:0.1;stroke-linecap:round;stroke-linejoin:round;stroke-miterlimit:4;stroke-dasharray:none;stroke-opacity:1" />
      </g>
      <g
         id="g8241"
         transform="translate(41.26093,-18.58334)">
        <path
           d="m 217.05907,113.58334 h 1 v -1 h -1 z"
           id="path8072"
           style="fill:none;stroke:#ff0000;stroke-width:0.1;stroke-linecap:round;stroke-linejoin:round;stroke-miterlimit:4;stroke-dasharray:none;stroke-opacity:1" />
        <path
           d="m 220.05907,112.58334 v -4 l 1,-1 h 2 l 1,1 v 4 l -1,1 h -2 l -1,-1 4,-4"
           id="path8074"
           style="fill:none;stroke:#ff0000;stroke-width:0.1;stroke-linecap:round;stroke-linejoin:round;stroke-miterlimit:4;stroke-dasharray:none;stroke-opacity:1" />
        <path
           d="m 226.05907,109.58334 2,-2 v 6 m -2,0 h 4"
           id="path8076"
           style="fill:none;stroke:#ff0000;stroke-width:0.1;stroke-linecap:round;stroke-linejoin:round;stroke-miterlimit:4;stroke-dasharray:none;stroke-opacity:1" />
      </g>
      <g
         id="g8236"
         transform="translate(38.40592,-18.58334)">
        <path
           d="m 259.93408,113.58334 h 1 v -1 h -1 z"
           id="path8078"
           style="fill:none;stroke:#ff0000;stroke-width:0.1;stroke-linecap:round;stroke-linejoin:round;stroke-miterlimit:4;stroke-dasharray:none;stroke-opacity:1" />
        <path
           d="m 262.93408,112.58334 v -4 l 1,-1 h 2 l 1,1 v 4 l -1,1 h -2 l -1,-1 4,-4"
           id="path8080"
           style="fill:none;stroke:#ff0000;stroke-width:0.1;stroke-linecap:round;stroke-linejoin:round;stroke-miterlimit:4;stroke-dasharray:none;stroke-opacity:1" />
        <path
           d="m 268.93408,112.58334 v -4 l 1,-1 h 2 l 1,1 v 4 l -1,1 h -2 l -1,-1 4,-4"
           id="path8082"
           style="fill:none;stroke:#ff0000;stroke-width:0.1;stroke-linecap:round;stroke-linejoin:round;stroke-miterlimit:4;stroke-dasharray:none;stroke-opacity:1" />
      </g>
      <g
         transform="translate(295,69.500009)"
         style="fill:none;stroke:#ff0000;stroke-width:0.1;stroke-linecap:round;stroke-linejoin:round;stroke-miterlimit:4;stroke-dasharray:none;stroke-opacity:1"
         id="g8298">
        <path
           d="M 1,-1 H 3 M 2,-2 v 4 l 1,1"
           id="path8290"
           style="stroke:#ff0000;stroke-width:0.1;stroke-miterlimit:4;stroke-dasharray:none;stroke-opacity:1" />
        <path
           d="M 1,1 H 5 V 0 L 4,-1 H 2 L 1,0 v 2 l 1,1 h 2"
           transform="translate(4)"
           id="path8292"
           style="stroke:#ff0000;stroke-width:0.1;stroke-miterlimit:4;stroke-dasharray:none;stroke-opacity:1" />
        <path
           d="M 1,3 H 4 L 5,2 4,1 H 2 L 1,0 2,-1 h 3"
           transform="translate(10)"
           id="path8294"
           style="stroke:#ff0000;stroke-width:0.1;stroke-miterlimit:4;stroke-dasharray:none;stroke-opacity:1" />
        <path
           d="M 1,-1 H 3 M 2,-2 v 4 l 1,1"
           transform="translate(16)"
           id="path8296"
           style="stroke:#ff0000;stroke-width:0.1;stroke-miterlimit:4;stroke-dasharray:none;stroke-opacity:1" />
      </g>
      <circle
         style="fill:none;stroke:#000000;stroke-width:0.1;stroke-linejoin:round;stroke-miterlimit:4;stroke-dasharray:none;stroke-opacity:1;stop-color:#000000"
         id="path8343"
         cx="5"
         cy="5"
         r="2" />
      <circle
         style="fill:none;stroke:#000000;stroke-width:0.1;stroke-linejoin:round;stroke-miterlimit:4;stroke-dasharray:none;stroke-opacity:1;stop-color:#000000"
         id="circle8345"
         cx="301"
         cy="60"
         r="2" />
      <circle
         style="fill:none;stroke:#000000;stroke-width:0.1;stroke-linejoin:round;stroke-miterlimit:4;stroke-dasharray:none;stroke-opacity:1;stop-color:#000000"
         id="circle8347"
         cx="309"
         cy="60"
         r="2" />
      <circle
         style="fill:none;stroke:#000000;stroke-width:0.1;stroke-linejoin:round;stroke-miterlimit:4;stroke-dasharray:none;stroke-opacity:1;stop-color:#000000"
         id="circle8349"
         cx="13"
         cy="5"
         r="2" />
    </g>
  </g>
</svg>
