<?xml version="1.0" encoding="UTF-8" standalone="no"?>
<!-- Created with Inkscape (http://www.inkscape.org/) -->

<svg
   width="210mm"
   height="297mm"
   viewBox="0 0 210 297"
   version="1.1"
   id="svg5"
   inkscape:version="1.4 (e7c3feb100, 2024-10-09)"
   sodipodi:docname="big_sphere_segments.svg"
   xmlns:inkscape="http://www.inkscape.org/namespaces/inkscape"
   xmlns:sodipodi="http://sodipodi.sourceforge.net/DTD/sodipodi-0.dtd"
   xmlns:xlink="http://www.w3.org/1999/xlink"
   xmlns="http://www.w3.org/2000/svg"
   xmlns:svg="http://www.w3.org/2000/svg">
  <sodipodi:namedview
     id="namedview7"
     pagecolor="#ffffff"
     bordercolor="#000000"
     borderopacity="0.25"
     inkscape:showpageshadow="2"
     inkscape:pageopacity="0.0"
     inkscape:pagecheckerboard="0"
     inkscape:deskcolor="#d1d1d1"
     inkscape:document-units="mm"
     showgrid="false"
     showguides="true"
     inkscape:zoom="1.03667"
     inkscape:cx="95.980396"
     inkscape:cy="675.72128"
     inkscape:window-width="1918"
     inkscape:window-height="1182"
     inkscape:window-x="1"
     inkscape:window-y="17"
     inkscape:window-maximized="0"
     inkscape:current-layer="layer1" />
  <defs
     id="defs2">
    <marker
       style="overflow:visible"
       id="Arrow1"
       refX="0"
       refY="0"
       orient="auto-start-reverse"
       inkscape:stockid="Arrow1"
       markerWidth="2.4217062"
       markerHeight="4"
       viewBox="0 0 4.0606602 6.7071068"
       inkscape:isstock="true"
       inkscape:collect="always"
       preserveAspectRatio="xMidYMid"
       markerUnits="userSpaceOnUse">
      <path
         style="fill:none;stroke:context-stroke;stroke-width:1;stroke-linecap:butt"
         d="M 3,-3 0,0 3,3"
         id="path5057"
         transform="rotate(180,0.125,0)"
         sodipodi:nodetypes="ccc" />
    </marker>
    <marker
       style="overflow:visible"
       id="Arrow1-3"
       refX="0"
       refY="0"
       orient="auto-start-reverse"
       inkscape:stockid="Arrow1"
       markerWidth="2.4217062"
       markerHeight="4"
       viewBox="0 0 4.0606602 6.7071068"
       inkscape:isstock="true"
       inkscape:collect="always"
       preserveAspectRatio="xMidYMid"
       markerUnits="userSpaceOnUse">
      <path
         style="fill:none;stroke:context-stroke;stroke-width:1;stroke-linecap:butt"
         d="M 3,-3 0,0 3,3"
         id="path5057-6"
         transform="rotate(180,0.125,0)"
         sodipodi:nodetypes="ccc" />
    </marker>
    <marker
       style="overflow:visible"
       id="Arrow1-35"
       refX="0"
       refY="0"
       orient="auto-start-reverse"
       inkscape:stockid="Arrow1"
       markerWidth="2.4217062"
       markerHeight="4"
       viewBox="0 0 4.0606602 6.7071068"
       inkscape:isstock="true"
       inkscape:collect="always"
       preserveAspectRatio="xMidYMid"
       markerUnits="userSpaceOnUse">
      <path
         style="fill:none;stroke:context-stroke;stroke-width:1;stroke-linecap:butt"
         d="M 3,-3 0,0 3,3"
         id="path5057-62"
         transform="rotate(180,0.125,0)"
         sodipodi:nodetypes="ccc" />
    </marker>
  </defs>
  <g
     inkscape:label="Layer 1"
     inkscape:groupmode="layer"
     id="layer1"
     style="display:inline">
    <path
       style="fill:#000000;fill-opacity:0.719498;stroke:#ee0000;stroke-width:0.7;stroke-linejoin:miter;stroke-dasharray:none;stroke-opacity:1;marker-end:url(#Arrow1);paint-order:stroke fill markers;stop-color:#000000"
       d="m 131.06472,125.65445 -17.28134,-11.8148"
       id="path3072" />
    <path
       style="fill:#ffffff;fill-opacity:1;stroke-width:2;stroke-linecap:square;stroke-dasharray:11.2, 11.2;stroke-dashoffset:14;paint-order:stroke fill markers;stop-color:#000000"
       d="m 108.89675,100.93515 4.68601,4.84557 -8.41392,10.5039 -5.201796,-4.0156 z"
       id="path41"
       sodipodi:nodetypes="ccccc" />
    <g
       id="g47"
       inkscape:label="g6149"
       transform="matrix(4,0,0,4,-57.331872,-110.88015)"
       style="stroke-width:0.25">
      <path
         id="path42"
         style="fill:#e8dbb0;fill-opacity:1;stroke:none;stroke-width:0.1;stroke-linejoin:round;paint-order:stroke fill markers;stop-color:#000000"
         d="m 41.557153,42.019141 c -1.201759,2.979609 -2.197416,6.125678 -2.968811,9.380822 0.560866,0.273552 1.120715,0.55915 1.679484,0.854212 0.643516,-2.893382 1.466007,-5.720309 2.460832,-8.438245 z m -3.712951,12.94753 c -0.767587,4.192297 -1.159472,8.476423 -1.16427,12.727905 0.0058,6.859838 1.019691,13.487124 2.966227,19.387964 l 1.314132,-1.942 c -1.568406,-5.425954 -2.380832,-11.387167 -2.380217,-17.526062 3.92e-4,-3.908963 0.330412,-7.829334 0.970483,-11.666989 z"
         sodipodi:nodetypes="cccccccccscc" />
      <path
         id="path43"
         style="fill:#e4e2dc;fill-opacity:1;stroke:none;stroke-width:0.1;stroke-linejoin:round;paint-order:stroke fill markers;stop-color:#000000"
         d="m 37.639563,42.019141 c -3.040606,7.743549 -4.658571,16.467292 -4.663798,25.146268 9.34e-4,0.68037 0.01179,1.359224 0.03256,2.036052 -0.04649,-0.03029 -0.09312,-0.06055 -0.139526,-0.09095 -0.390694,-0.257009 -0.777544,-0.517281 -1.16117,-0.780831 l -1.516238,3.172533 c 0.443252,0.306438 0.891397,0.608617 1.344156,0.906288 0.575427,0.377346 1.156499,0.746405 1.743046,1.106909 0.449268,4.796242 1.406579,9.377584 2.834969,13.567131 h 3.532601 c -1.94654,-5.900841 -2.96047,-12.528127 -2.966231,-19.387965 0.0048,-4.251482 0.396683,-8.535608 1.16427,-12.727905 l 1.480529,0.820621 2.232426,-2.833468 c -0.985268,-0.551121 -1.975784,-1.06958 -2.968811,-1.553911 0.771395,-3.255144 1.767052,-6.401213 2.968811,-9.380822 z"
         sodipodi:nodetypes="ccccccccccccccccc" />
      <path
         id="path44"
         style="fill:#000000;fill-opacity:1;stroke:none;stroke-width:0.5;stroke-linejoin:round;stroke-dasharray:none;stroke-opacity:1;paint-order:stroke fill markers;stop-color:#000000"
         d="m 31.607424,67.958984 0.520723,0.657384 0.779973,0.214397 -0.01292,-0.54622 z"
         sodipodi:nodetypes="ccccc" />
      <path
         id="path45"
         style="color:#000000;fill:#000000;-inkscape-stroke:none;paint-order:stroke fill markers"
         d="m 41.935425,52.878943 -0.300573,0.381364 0.845965,0.868529 -1.866709,2.430778 -0.938791,-0.813824 -0.286507,0.36293 v 5.17e-4 l 1.284676,1.136364 2.368848,-3.134175 z"
         sodipodi:nodetypes="cccccccccc" />
      <path
         style="color:#000000;fill:#914b00;-inkscape-stroke:none;paint-order:stroke fill markers"
         d="m 37.46875,41.769531 -0.0625,0.158203 c -3.052923,7.774916 -4.674442,16.528345 -4.679688,25.238282 7.18e-4,0.522868 0.01104,1.043579 0.02344,1.564453 -0.301924,-0.200586 -0.602608,-0.402846 -0.900391,-0.607422 l -0.242187,-0.164063 -1.734375,3.626953 0.175781,0.121094 c 0.444851,0.307544 0.895231,0.611421 1.349609,0.910156 0.54441,0.357006 1.096032,0.704865 1.650391,1.046875 0.455938,4.767779 1.405539,9.327477 2.828125,13.5 l 0.05859,0.167969 h 4.05664 L 39.88281,87.003906 c -1.937183,-5.872478 -2.947384,-12.473262 -2.953125,-19.308594 0.0046,-4.118452 0.387997,-8.265924 1.111329,-12.332031 l 1.347656,0.746094 2.546875,-3.230469 -0.25586,-0.142578 c -0.925854,-0.517887 -1.857945,-1.00159 -2.791015,-1.460937 0.762174,-3.1762 1.726785,-6.252304 2.90039,-9.16211 l 0.138672,-0.34375 z m 0.351562,0.5 h 3.396485 c -1.147988,2.894144 -2.12518,5.92465 -2.871094,9.072266 l -0.04687,0.195312 0.179688,0.08789 c 0.901235,0.439561 1.800066,0.915108 2.695312,1.410156 l -1.914062,2.429688 -1.59961,-0.884766 -0.0625,0.341797 c -0.770305,4.207144 -1.163151,8.504834 -1.167969,12.771484 v 0.002 c 0.0057,6.763822 1.011048,13.286584 2.900391,19.136719 h -3.027344 c -1.390878,-4.124913 -2.333651,-8.623975 -2.77539,-13.339844 l -0.01172,-0.125 -0.105469,-0.06445 c -0.583984,-0.358928 -1.163382,-0.727816 -1.736328,-1.103515 h -0.002 C 31.280197,71.941693 30.89432,71.67819 30.509766,71.414062 l 1.298828,-2.714843 c 0.305863,0.208294 0.611436,0.416879 0.921875,0.621093 h 0.002 c 0.04701,0.03079 0.09244,0.05972 0.138672,0.08984 l 0.402343,0.261719 -0.01563,-0.478516 c -0.02069,-0.674374 -0.03032,-1.349405 -0.03125,-2.027343 0.0052,-8.590583 1.604248,-17.222603 4.59375,-24.896485 z"
         id="path46" />
      <path
         id="path47"
         style="color:#000000;fill:#000000;fill-opacity:1;-inkscape-stroke:none;paint-order:stroke fill markers"
         d="m 41.927673,41.769543 -0.238745,0.451652 1.03973,1.594735 c -0.994824,2.717933 -1.817316,5.544866 -2.460832,8.438245 l 0.487826,0.109037 c 0.759622,-3.059704 1.573091,-6.039503 2.529561,-8.611361 z m -2.377116,14.177946 c -0.64007,3.837652 -0.970091,7.758029 -0.970483,11.666989 -6.15e-4,6.138888 0.811812,12.100113 2.380217,17.526062 l -1.137346,1.68075 0.169241,0.51074 1.513808,-2.105708 -0.0646,-0.224275 C 39.887327,79.625706 39.079687,73.709731 39.080298,67.614994 39.080681,63.795145 39.39727,59.962206 40.01329,56.208882 Z"
         sodipodi:nodetypes="ccccccccscccccscc" />
    </g>
    <text
       xml:space="preserve"
       style="font-style:normal;font-variant:normal;font-weight:normal;font-stretch:normal;font-size:28.2222px;font-family:'Atkinson Hyperlegible';-inkscape-font-specification:'Atkinson Hyperlegible';fill:#000000;fill-opacity:0.719498;stroke:none;stroke-width:1;stroke-linejoin:miter;stroke-dasharray:none;stroke-opacity:1;paint-order:stroke fill markers;stop-color:#000000"
       x="158.73903"
       y="279.75565"
       id="text4705"><tspan
         sodipodi:role="line"
         id="tspan4703"
         style="font-size:28.2222px;fill:#000000;fill-opacity:0.719498;stroke-width:1"
         x="158.73903"
         y="279.75565">A-1</tspan></text>
    <path
       style="fill:#000000;fill-opacity:0.719498;stroke:#ee0000;stroke-width:0.7;stroke-linejoin:miter;stroke-dasharray:none;stroke-opacity:1;marker-end:url(#Arrow1);paint-order:stroke fill markers;stop-color:#000000"
       d="m 207.53038,60.102576 8.27856,-19.227572"
       id="path4707" />
    <path
       style="fill:#000000;fill-opacity:0.719498;stroke:#ee0000;stroke-width:0.7;stroke-linejoin:miter;stroke-dasharray:none;stroke-opacity:1;marker-end:url(#Arrow1);paint-order:stroke fill markers;stop-color:#000000"
       d="M 231.06468,136.23778 213.78334,124.42299"
       id="path4711" />
    <use
       x="0"
       y="0"
       xlink:href="#g1547"
       id="use4715"
       transform="matrix(4,0,0,4,-37.839682,-19.124999)"
       style="stroke-width:0.25" />
    <g
       id="g4737"
       transform="matrix(4,0,0,4,62.160318,-19.124999)"
       style="stroke-width:0.25">
      <text
         xml:space="preserve"
         style="font-style:normal;font-variant:normal;font-weight:normal;font-stretch:normal;font-size:7.05556px;font-family:'Atkinson Hyperlegible';-inkscape-font-specification:'Atkinson Hyperlegible';fill:#000000;fill-opacity:0.719498;stroke:none;stroke-width:0.25;stroke-linejoin:miter;stroke-dasharray:none;stroke-opacity:1;paint-order:stroke fill markers;stop-color:#000000"
         x="49.405704"
         y="74.797783"
         id="text4725"><tspan
           sodipodi:role="line"
           id="tspan4723"
           style="font-size:7.05556px;fill:#000000;fill-opacity:0.719498;stroke-width:0.25"
           x="49.405704"
           y="74.797783">A0</tspan></text>
      <path
         style="fill:#000000;fill-opacity:0.719498;stroke:#ee0000;stroke-width:0.175;stroke-linejoin:miter;stroke-dasharray:none;stroke-opacity:1;marker-end:url(#Arrow1);paint-order:stroke fill markers;stop-color:#000000"
         d="M 61.342523,19.806893 63.412163,15"
         id="path4727" />
      <path
         style="fill:#000000;fill-opacity:0.719498;stroke:#ee0000;stroke-width:0.175;stroke-linejoin:miter;stroke-dasharray:none;stroke-opacity:1;marker-end:url(#Arrow1);paint-order:stroke fill markers;stop-color:#000000"
         d="m 62.905764,35.886997 4.320337,2.953698"
         id="path4731" />
      <use
         x="0"
         y="0"
         xlink:href="#g1547"
         id="use4735"
         style="stroke-width:0.25" />
      <path
         style="fill:#000000;fill-opacity:0.719498;stroke:#ee0000;stroke-width:0.175;stroke-linejoin:miter;stroke-dasharray:none;stroke-opacity:1;marker-end:url(#Arrow1);paint-order:stroke fill markers;stop-color:#000000"
         d="m 66.373267,33.659677 4.320337,2.953698"
         id="path2" />
      <path
         style="fill:#000000;fill-opacity:0.719498;stroke:#ee0000;stroke-width:0.175;stroke-linejoin:miter;stroke-dasharray:none;stroke-opacity:1;marker-end:url(#Arrow1);paint-order:stroke fill markers;stop-color:#000000"
         d="M 45.9102,37.363846 41.589863,34.410148"
         id="path3" />
    </g>
    <g
       id="g4753"
       transform="matrix(4,0,0,4,162.16032,-19.124999)"
       style="stroke-width:0.25">
      <text
         xml:space="preserve"
         style="font-style:normal;font-variant:normal;font-weight:normal;font-stretch:normal;font-size:7.05556px;font-family:'Atkinson Hyperlegible';-inkscape-font-specification:'Atkinson Hyperlegible';fill:#000000;fill-opacity:0.719498;stroke:none;stroke-width:0.25;stroke-linejoin:miter;stroke-dasharray:none;stroke-opacity:1;paint-order:stroke fill markers;stop-color:#000000"
         x="51.409481"
         y="74.720169"
         id="text4741"><tspan
           sodipodi:role="line"
           id="tspan4739"
           style="font-size:7.05556px;fill:#000000;fill-opacity:0.719498;stroke-width:0.25"
           x="51.409481"
           y="74.720169">A1</tspan></text>
      <path
         style="fill:#000000;fill-opacity:0.719498;stroke:#ee0000;stroke-width:0.175;stroke-linejoin:miter;stroke-dasharray:none;stroke-opacity:1;marker-end:url(#Arrow1);paint-order:stroke fill markers;stop-color:#000000"
         d="m 63.412163,15 -2.06964,4.806893"
         id="path4743" />
      <path
         style="fill:#000000;fill-opacity:0.719498;stroke:#ee0000;stroke-width:0.175;stroke-linejoin:miter;stroke-dasharray:none;stroke-opacity:1;marker-end:url(#Arrow1);paint-order:stroke fill markers;stop-color:#000000"
         d="m 62.905764,35.886997 4.320337,2.953698"
         id="path4747" />
      <use
         x="0"
         y="0"
         xlink:href="#g1547"
         id="use4751"
         style="stroke-width:0.25" />
    </g>
    <g
       id="g4773"
       transform="matrix(4,0,0,4,262.16027,-19.124999)"
       style="stroke-width:0.25">
      <text
         xml:space="preserve"
         style="font-style:normal;font-variant:normal;font-weight:normal;font-stretch:normal;font-size:7.05556px;font-family:'Atkinson Hyperlegible';-inkscape-font-specification:'Atkinson Hyperlegible';fill:#000000;fill-opacity:0.719498;stroke:none;stroke-width:0.25;stroke-linejoin:miter;stroke-dasharray:none;stroke-opacity:1;paint-order:stroke fill markers;stop-color:#000000"
         x="49.920761"
         y="74.797783"
         id="text4761"><tspan
           sodipodi:role="line"
           id="tspan4759"
           style="font-size:7.05556px;fill:#000000;fill-opacity:0.719498;stroke-width:0.25"
           x="49.920761"
           y="74.797783">A2</tspan></text>
      <path
         style="fill:#000000;fill-opacity:0.719498;stroke:#ee0000;stroke-width:0.175;stroke-linejoin:miter;stroke-dasharray:none;stroke-opacity:1;marker-end:url(#Arrow1);paint-order:stroke fill markers;stop-color:#000000"
         d="m 63.412163,15 -2.06964,4.806893"
         id="path4763" />
      <use
         x="0"
         y="0"
         xlink:href="#g1547"
         id="use4771"
         style="stroke-width:0.25" />
    </g>
    <g
       id="use6058"
       transform="matrix(4,0,0,4,-137.83968,-43.958323)"
       style="stroke-width:0.25">
      <g
         id="g4"
         transform="translate(0,75)"
         style="stroke-width:0.25">
        <path
           style="fill:#000000;fill-opacity:0.719498;stroke:#ee0000;stroke-width:0.175;stroke-linejoin:miter;stroke-dasharray:none;stroke-opacity:1;marker-end:url(#Arrow1);paint-order:stroke fill markers;stop-color:#000000"
           d="m 45.460361,45.775031 4.320337,2.953698"
           id="path4" />
        <use
           x="0"
           y="0"
           xlink:href="#g1547"
           id="use4"
           style="stroke-width:0.25" />
      </g>
      <text
         xml:space="preserve"
         style="font-style:normal;font-variant:normal;font-weight:normal;font-stretch:normal;font-size:7.05556px;font-family:'Atkinson Hyperlegible';-inkscape-font-specification:'Atkinson Hyperlegible';fill:#000000;fill-opacity:0.719498;stroke:none;stroke-width:0.25;stroke-linejoin:miter;stroke-dasharray:none;stroke-opacity:1;paint-order:stroke fill markers;stop-color:#000000"
         x="54.048264"
         y="149.79778"
         id="text5"><tspan
           sodipodi:role="line"
           id="tspan5"
           style="font-size:7.05556px;fill:#000000;fill-opacity:0.719498;stroke-width:0.25"
           x="54.048264"
           y="149.79778">S</tspan></text>
    </g>
    <g
       id="g3633"
       transform="translate(-1.4585951,24.875001)">
      <text
         xml:space="preserve"
         style="font-style:normal;font-variant:normal;font-weight:normal;font-stretch:normal;font-size:7.05556px;font-family:'Atkinson Hyperlegible';-inkscape-font-specification:'Atkinson Hyperlegible';fill:#000000;fill-opacity:0.719498;stroke:none;stroke-width:1;stroke-linejoin:miter;stroke-dasharray:none;stroke-opacity:1;paint-order:stroke fill markers;stop-color:#000000"
         x="44.463776"
         y="16.044725"
         id="text1603"><tspan
           sodipodi:role="line"
           id="tspan1601"
           style="font-size:7.05556px;fill:#000000;fill-opacity:0.719498;stroke-width:1"
           x="44.463776"
           y="16.044725">Ring 0:</tspan></text>
    </g>
    <g
       id="g41"
       transform="matrix(4,0,0,4,-437.83447,-503.95993)"
       style="stroke-width:0.25">
      <use
         x="0"
         y="0"
         xlink:href="#g6149"
         id="use6520"
         style="display:inline;stroke-width:0.25"
         transform="translate(120.12569,169.70748)" />
      <path
         style="fill:none;fill-opacity:0.719498;stroke:#914b00;stroke-width:0.125;stroke-linecap:square;stroke-linejoin:miter;stroke-dasharray:none;stroke-dashoffset:0;stroke-opacity:1;paint-order:stroke fill markers;stop-color:#000000"
         d="m 153.44432,231.13837 3.66067,-0.12105 1.91991,0.22972"
         id="path6576"
         sodipodi:nodetypes="ccc" />
      <g
         id="g7988"
         transform="translate(99.999378,115.00042)"
         style="stroke-width:0.25">
        <g
           id="g7982"
           transform="translate(0,75)"
           style="stroke-width:0.25">
          <path
             style="fill:#000000;fill-opacity:0.719498;stroke:#ee0000;stroke-width:0.175;stroke-linejoin:miter;stroke-dasharray:none;stroke-opacity:1;marker-end:url(#Arrow1);paint-order:stroke fill markers;stop-color:#000000"
             d="m 45.460361,45.775031 4.320337,2.953698"
             id="path7976" />
        </g>
        <text
           xml:space="preserve"
           style="font-style:normal;font-variant:normal;font-weight:normal;font-stretch:normal;font-size:7.05556px;font-family:'Atkinson Hyperlegible';-inkscape-font-specification:'Atkinson Hyperlegible';fill:#000000;fill-opacity:0.719498;stroke:none;stroke-width:0.25;stroke-linejoin:miter;stroke-dasharray:none;stroke-opacity:1;paint-order:stroke fill markers;stop-color:#000000"
           x="54.048264"
           y="149.79778"
           id="text7986"><tspan
             sodipodi:role="line"
             id="tspan7984"
             style="font-size:7.05556px;fill:#000000;fill-opacity:0.719498;stroke-width:0.25"
             x="54.048264"
             y="149.79778">H</tspan></text>
      </g>
    </g>
    <text
       xml:space="preserve"
       style="font-style:normal;font-variant:normal;font-weight:normal;font-stretch:normal;font-size:8.46667px;font-family:'Atkinson Hyperlegible';-inkscape-font-specification:'Atkinson Hyperlegible';text-align:start;text-anchor:start;fill:#000000;fill-opacity:1;stroke:none;stroke-width:0.499999;stroke-linecap:square;stroke-linejoin:miter;stroke-dasharray:2.80001, 2.80001;stroke-dashoffset:3.49999;stroke-opacity:1;paint-order:stroke fill markers;stop-color:#000000"
       x="14.797605"
       y="20.889734"
       id="text426"><tspan
         sodipodi:role="line"
         style="font-size:8.46667px;text-align:start;text-anchor:start;fill:#000000;fill-opacity:1;stroke:none;stroke-width:0.5"
         x="14.797605"
         y="20.889734"
         id="tspan424">Big sphere segments</tspan></text>
    <text
       xml:space="preserve"
       style="font-style:normal;font-variant:normal;font-weight:normal;font-stretch:normal;font-size:5.29167px;font-family:'Atkinson Hyperlegible';-inkscape-font-specification:'Atkinson Hyperlegible';text-align:start;text-anchor:start;fill:#000000;fill-opacity:1;stroke:none;stroke-width:0.499999;stroke-linecap:square;stroke-linejoin:miter;stroke-dasharray:2.80001, 2.80001;stroke-dashoffset:3.49999;stroke-opacity:1;paint-order:stroke fill markers;stop-color:#000000"
       x="17.078564"
       y="52.639736"
       id="text536"><tspan
         sodipodi:role="line"
         style="font-size:5.29167px;text-align:start;text-anchor:start;fill:#000000;fill-opacity:1;stroke:none;stroke-width:0.5"
         x="17.078564"
         y="52.639736"
         id="tspan938">X</tspan></text>
    <path
       style="display:inline;fill:#000000;fill-opacity:0.719498;stroke:#ee0000;stroke-width:0.7;stroke-linejoin:miter;stroke-dasharray:none;stroke-opacity:1;marker-end:url(#Arrow1-35);paint-order:stroke fill markers;stop-color:#000000"
       d="m 291.6693,60.102576 8.27856,-19.227572"
       id="path4727-9" />
    <path
       style="display:inline;fill:#000000;fill-opacity:0.719498;stroke:#ee0000;stroke-width:0.7;stroke-linejoin:miter;stroke-dasharray:none;stroke-opacity:1;marker-end:url(#Arrow1-35);paint-order:stroke fill markers;stop-color:#000000"
       d="m 401.08238,42.991672 -8.27856,19.227572"
       id="path1" />
    <path
       style="color:#000000;display:inline;fill:none;stroke-width:1;-inkscape-stroke:none;paint-order:stroke fill markers"
       d="m 92.543128,56.19798 -0.25,0.632812 C 80.081437,87.930455 73.595361,122.94417 73.574377,157.78392 c 0.0029,2.09147 0.04416,4.17431 0.09376,6.25781 -1.207696,-0.80234 -2.410432,-1.61138 -3.601564,-2.42969 l -0.968748,-0.65625 -6.9375,14.50781 0.703124,0.48438 c 1.779404,1.23017 3.580924,2.44568 5.398436,3.64062 2.17764,1.42802 4.384128,2.81946 6.601564,4.1875 1.823752,19.07112 5.622156,37.30991 11.312499,54 l 0.23436,0.67188 h 16.226562 l -0.4375,-1.3125 C 94.450636,213.64556 90.409832,187.24243 90.386868,159.9011 c 0.0184,-16.47381 1.551988,-33.06369 4.445316,-49.32812 l 5.390626,2.98437 10.1875,-12.92187 -1.02344,-0.57031 c -3.70342,-2.071551 -7.43178,-4.006363 -11.164062,-5.843751 3.048692,-12.7048 6.907142,-25.009216 11.601562,-36.648439 l 0.55469,-1.375 z m 1.406248,2 h 13.585944 c -4.59196,11.576575 -8.500724,23.698599 -11.48438,36.289063 l -0.18748,0.781248 0.718752,0.35156 c 3.604938,1.758244 7.200268,3.660432 10.781248,5.640619 l -7.656248,9.71876 -6.39844,-3.53907 -0.25,1.36719 c -3.08122,16.82858 -4.652604,34.01934 -4.671876,51.08594 v 0.008 c 0.0228,27.05528 4.044192,53.14633 11.601564,76.54687 H 87.879084 c -5.563511,-16.49965 -9.334603,-34.4959 -11.101559,-53.35938 l -0.04688,-0.5 -0.421876,-0.2578 c -2.335936,-1.43571 -4.653528,-2.91126 -6.945312,-4.41406 h -0.008 c -1.56654,-1.0303 -3.110048,-2.08431 -4.648264,-3.14082 l 5.195312,-10.85937 c 1.223452,0.83318 2.445744,1.66752 3.6875,2.48437 h 0.008 c 0.18804,0.12316 0.36976,0.23888 0.554688,0.35936 l 1.609372,1.04688 -0.06252,-1.91407 c -0.08276,-2.69749 -0.12128,-5.39762 -0.125,-8.10937 0.0208,-34.36233 6.416992,-68.890409 18.374999,-99.585936 z"
       id="path46-3" />
    <path
       style="color:#000000;display:inline;fill:#914b00;stroke-width:1;-inkscape-stroke:none;paint-order:stroke fill markers"
       d="m 44.918125,56.19798 -0.25,0.632812 C 32.456434,87.930455 25.970358,122.94417 25.949374,157.78392 c 0.0029,2.09147 0.04416,4.17431 0.09376,6.25781 -1.207696,-0.80234 -2.410432,-1.61138 -3.601564,-2.42969 l -0.968748,-0.65625 -6.9375,14.50781 0.703124,0.48438 c 1.779404,1.23017 3.580924,2.44568 5.398436,3.64062 2.17764,1.42802 4.384128,2.81946 6.601564,4.1875 1.823752,19.07112 5.622156,37.30991 11.312499,54 l 0.23436,0.67188 h 16.226562 l -0.4375,-1.3125 C 46.825633,213.64556 42.784829,187.24243 42.761865,159.9011 c 0.0184,-16.47381 1.551988,-33.06369 4.445316,-49.32812 l 5.390626,2.98437 10.187497,-12.92187 -1.02344,-0.57031 c -3.70342,-2.071551 -7.431777,-4.006363 -11.164059,-5.843751 3.048692,-12.7048 6.907142,-25.009216 11.601559,-36.648439 l 0.55469,-1.375 z m 1.406248,2 H 59.910314 C 55.318357,69.774555 51.409593,81.896579 48.425937,94.487043 l -0.18748,0.781248 0.718752,0.35156 c 3.604938,1.758244 7.200268,3.660432 10.781245,5.640619 l -7.656245,9.71876 -6.39844,-3.53907 -0.25,1.36719 c -3.08122,16.82858 -4.652604,34.01934 -4.671876,51.08594 v 0.008 c 0.0228,27.05528 4.044192,53.14633 11.601564,76.54687 H 40.254081 C 34.69057,219.94851 30.919478,201.95226 29.152522,183.08878 l -0.04688,-0.5 -0.421876,-0.2578 c -2.335936,-1.43571 -4.653528,-2.91126 -6.945312,-4.41406 h -0.008 c -1.56654,-1.0303 -3.110048,-2.08431 -4.648264,-3.14082 l 5.195312,-10.85937 c 1.223452,0.83318 2.445744,1.66752 3.6875,2.48437 h 0.008 c 0.18804,0.12316 0.36976,0.23888 0.554688,0.35936 l 1.609372,1.04688 -0.06252,-1.91407 c -0.08276,-2.69749 -0.12128,-5.39762 -0.125,-8.10937 0.0208,-34.36233 6.416992,-68.890409 18.374999,-99.585936 z"
       id="path46-6" />
    <g
       id="g52">
      <path
         id="path49"
         style="color:#000000;display:inline;fill:none;fill-opacity:1;stroke:#ff0000;stroke-width:1;stroke-linecap:round;stroke-dasharray:none;stroke-opacity:1;paint-order:stroke fill markers"
         d="m 47.691146,60.197876 c -3.882503,10.27812 -7.148851,20.92916 -9.768422,31.82932 C 26.834207,138.16705 27.33456,188.7706 41.746289,234.44822"
         sodipodi:nodetypes="csc" />
      <path
         id="path50"
         style="color:#000000;display:inline;fill:none;fill-opacity:1;stroke:#000000;stroke-width:1;stroke-linecap:round;stroke-dasharray:none;stroke-opacity:1;paint-order:stroke fill markers"
         d="M 50.336981,60.197876 C 45.988219,71.710319 42.41249,83.690629 39.652825,95.964835 29.51963,141.03441 30.389268,190.06651 44.392124,234.44822"
         sodipodi:nodetypes="csc" />
      <path
         id="path51"
         style="color:#000000;display:inline;fill:none;fill-opacity:1;stroke:#61f5ff;stroke-width:1;stroke-linecap:round;stroke-dasharray:none;stroke-opacity:1;paint-order:stroke fill markers"
         d="M 52.982816,60.197876 C 48.166824,72.947214 44.298896,86.270356 41.437479,99.931014 32.2276,143.89979 33.444827,191.36512 47.037959,234.44822"
         sodipodi:nodetypes="csc" />
      <path
         id="path52"
         style="color:#000000;display:inline;fill:none;fill-opacity:1;stroke:#00ccdb;stroke-width:1;stroke-linecap:round;stroke-dasharray:none;stroke-opacity:1;paint-order:stroke fill markers"
         d="m 55.628651,60.197876 c -5.284357,13.989236 -9.42728,28.66931 -12.35156,43.728074 -8.3188,42.83819 -6.775709,88.74094 6.406703,130.52227"
         sodipodi:nodetypes="csc" />
    </g>
    <path
       style="fill:#000000;fill-opacity:1;stroke:#00ccdb;stroke-width:1;stroke-linecap:round;stroke-linejoin:round;stroke-dasharray:none;stroke-opacity:1;paint-order:stroke fill markers"
       d="m 43.277091,103.92595 8.377264,4.38289"
       id="path62" />
    <path
       style="fill:#000000;fill-opacity:1;stroke:#61f5ff;stroke-width:1;stroke-linecap:round;stroke-linejoin:round;stroke-dasharray:none;stroke-opacity:1;paint-order:stroke fill markers"
       d="m 41.437479,99.931014 11.908555,6.230416"
       id="path63"
       sodipodi:nodetypes="cc" />
    <path
       style="fill:#000000;fill-opacity:1;stroke:#000000;stroke-width:1;stroke-linecap:round;stroke-linejoin:round;stroke-dasharray:none;stroke-opacity:1;paint-order:stroke fill markers"
       d="m 39.652823,95.964834 15.384891,8.049196"
       id="path64" />
    <path
       style="fill:#000000;fill-opacity:1;stroke:#ff0000;stroke-width:1;stroke-linecap:round;stroke-linejoin:round;stroke-dasharray:none;stroke-opacity:1;paint-order:stroke fill markers"
       d="m 37.922723,92.027194 18.806673,9.839436"
       id="path65" />
    <path
       style="fill:#000000;fill-opacity:1;stroke:#000000;stroke-width:0.999999;stroke-linecap:round;stroke-linejoin:round;stroke-dasharray:none;stroke-opacity:1;paint-order:stroke fill markers"
       d="m 19.728024,173.98232 24.003291,15.59702"
       id="path66" />
    <path
       style="fill:#000000;fill-opacity:1;stroke:#000000;stroke-width:0.999999;stroke-linecap:round;stroke-linejoin:round;stroke-dasharray:none;stroke-opacity:1;paint-order:stroke fill markers"
       d="m 22.881287,166.739 24.003291,15.59702"
       id="path67" />
    <path
       style="fill:#000000;fill-opacity:1;stroke:#000000;stroke-width:0.999999;stroke-linecap:round;stroke-linejoin:round;stroke-dasharray:none;stroke-opacity:1;paint-order:stroke fill markers"
       d="M 21.830199,169.15344 45.83349,184.75046"
       id="path68" />
    <path
       style="fill:#000000;fill-opacity:1;stroke:#000000;stroke-width:0.999999;stroke-linecap:round;stroke-linejoin:round;stroke-dasharray:none;stroke-opacity:1;paint-order:stroke fill markers"
       d="M 20.779112,171.56788 44.782403,187.1649"
       id="path69" />
  </g>
  <g
     inkscape:groupmode="layer"
     id="layer2"
     inkscape:label="scratch"
     style="display:none"
     sodipodi:insensitive="true">
    <g
       id="g1547"
       transform="translate(20.126952,-20.292954)">
      <path
         style="fill:#ffffff;fill-opacity:1;stroke-width:0.499999;stroke-linecap:square;stroke-dasharray:2.80001, 2.80001;stroke-dashoffset:3.49999;paint-order:stroke fill markers;stop-color:#000000"
         d="m 41.557156,52.953824 1.171502,1.211393 -2.10348,2.625975 -1.300449,-1.0039 z"
         id="path552"
         sodipodi:nodetypes="ccccc" />
      <g
         id="g6149"
         inkscape:label="g6149">
        <path
           id="path458"
           style="fill:#e8dbb0;fill-opacity:1;stroke:none;stroke-width:0.1;stroke-linejoin:round;paint-order:stroke fill markers;stop-color:#000000"
           d="m 41.557153,42.019141 c -1.201759,2.979609 -2.197416,6.125678 -2.968811,9.380822 0.560866,0.273552 1.120715,0.55915 1.679484,0.854212 0.643516,-2.893382 1.466007,-5.720309 2.460832,-8.438245 z m -3.712951,12.94753 c -0.767587,4.192297 -1.159472,8.476423 -1.16427,12.727905 0.0058,6.859838 1.019691,13.487124 2.966227,19.387964 l 1.314132,-1.942 c -1.568406,-5.425954 -2.380832,-11.387167 -2.380217,-17.526062 3.92e-4,-3.908963 0.330412,-7.829334 0.970483,-11.666989 z"
           sodipodi:nodetypes="cccccccccscc" />
        <path
           id="path234"
           style="fill:#e4e2dc;fill-opacity:1;stroke:none;stroke-width:0.1;stroke-linejoin:round;paint-order:stroke fill markers;stop-color:#000000"
           d="m 37.639563,42.019141 c -3.040606,7.743549 -4.658571,16.467292 -4.663798,25.146268 9.34e-4,0.68037 0.01179,1.359224 0.03256,2.036052 -0.04649,-0.03029 -0.09312,-0.06055 -0.139526,-0.09095 -0.390694,-0.257009 -0.777544,-0.517281 -1.16117,-0.780831 l -1.516238,3.172533 c 0.443252,0.306438 0.891397,0.608617 1.344156,0.906288 0.575427,0.377346 1.156499,0.746405 1.743046,1.106909 0.449268,4.796242 1.406579,9.377584 2.834969,13.567131 h 3.532601 c -1.94654,-5.900841 -2.96047,-12.528127 -2.966231,-19.387965 0.0048,-4.251482 0.396683,-8.535608 1.16427,-12.727905 l 1.480529,0.820621 2.232426,-2.833468 c -0.985268,-0.551121 -1.975784,-1.06958 -2.968811,-1.553911 0.771395,-3.255144 1.767052,-6.401213 2.968811,-9.380822 z"
           sodipodi:nodetypes="ccccccccccccccccc" />
        <path
           id="path613"
           style="fill:#000000;fill-opacity:1;stroke:none;stroke-width:0.5;stroke-linejoin:round;stroke-dasharray:none;stroke-opacity:1;paint-order:stroke fill markers;stop-color:#000000"
           d="m 31.607424,67.958984 0.520723,0.657384 0.779973,0.214397 -0.01292,-0.54622 z"
           sodipodi:nodetypes="ccccc" />
        <path
           id="path602"
           style="color:#000000;fill:#000000;-inkscape-stroke:none;paint-order:stroke fill markers"
           d="m 41.935425,52.878943 -0.300573,0.381364 0.845965,0.868529 -1.866709,2.430778 -0.938791,-0.813824 -0.286507,0.36293 v 5.17e-4 l 1.284676,1.136364 2.368848,-3.134175 z"
           sodipodi:nodetypes="cccccccccc" />
        <path
           style="color:#000000;fill:#914b00;-inkscape-stroke:none;paint-order:stroke fill markers"
           d="m 37.46875,41.769531 -0.0625,0.158203 c -3.052923,7.774916 -4.674442,16.528345 -4.679688,25.238282 7.18e-4,0.522868 0.01104,1.043579 0.02344,1.564453 -0.301924,-0.200586 -0.602608,-0.402846 -0.900391,-0.607422 l -0.242187,-0.164063 -1.734375,3.626953 0.175781,0.121094 c 0.444851,0.307544 0.895231,0.611421 1.349609,0.910156 0.54441,0.357006 1.096032,0.704865 1.650391,1.046875 0.455938,4.767779 1.405539,9.327477 2.828125,13.5 l 0.05859,0.167969 h 4.05664 L 39.88281,87.003906 c -1.937183,-5.872478 -2.947384,-12.473262 -2.953125,-19.308594 0.0046,-4.118452 0.387997,-8.265924 1.111329,-12.332031 l 1.347656,0.746094 2.546875,-3.230469 -0.25586,-0.142578 c -0.925854,-0.517887 -1.857945,-1.00159 -2.791015,-1.460937 0.762174,-3.1762 1.726785,-6.252304 2.90039,-9.16211 l 0.138672,-0.34375 z m 0.351562,0.5 h 3.396485 c -1.147988,2.894144 -2.12518,5.92465 -2.871094,9.072266 l -0.04687,0.195312 0.179688,0.08789 c 0.901235,0.439561 1.800066,0.915108 2.695312,1.410156 l -1.914062,2.429688 -1.59961,-0.884766 -0.0625,0.341797 c -0.770305,4.207144 -1.163151,8.504834 -1.167969,12.771484 v 0.002 c 0.0057,6.763822 1.011048,13.286584 2.900391,19.136719 h -3.027344 c -1.390878,-4.124913 -2.333651,-8.623975 -2.77539,-13.339844 l -0.01172,-0.125 -0.105469,-0.06445 c -0.583984,-0.358928 -1.163382,-0.727816 -1.736328,-1.103515 h -0.002 C 31.280197,71.941693 30.89432,71.67819 30.509766,71.414062 l 1.298828,-2.714843 c 0.305863,0.208294 0.611436,0.416879 0.921875,0.621093 h 0.002 c 0.04701,0.03079 0.09244,0.05972 0.138672,0.08984 l 0.402343,0.261719 -0.01563,-0.478516 c -0.02069,-0.674374 -0.03032,-1.349405 -0.03125,-2.027343 0.0052,-8.590583 1.604248,-17.222603 4.59375,-24.896485 z"
           id="path1172" />
        <path
           id="path1512"
           style="color:#000000;fill:#000000;fill-opacity:1;-inkscape-stroke:none;paint-order:stroke fill markers"
           d="m 41.927673,41.769543 -0.238745,0.451652 1.03973,1.594735 c -0.994824,2.717933 -1.817316,5.544866 -2.460832,8.438245 l 0.487826,0.109037 c 0.759622,-3.059704 1.573091,-6.039503 2.529561,-8.611361 z m -2.377116,14.177946 c -0.64007,3.837652 -0.970091,7.758029 -0.970483,11.666989 -6.15e-4,6.138888 0.811812,12.100113 2.380217,17.526062 l -1.137346,1.68075 0.169241,0.51074 1.513808,-2.105708 -0.0646,-0.224275 C 39.887327,79.625706 39.079687,73.709731 39.080298,67.614994 39.080681,63.795145 39.39727,59.962206 40.01329,56.208882 Z"
           sodipodi:nodetypes="ccccccccscccccscc" />
      </g>
      <path
         style="display:inline;fill:#000000;fill-opacity:0.719498;stroke:#ee0000;stroke-width:0.7;stroke-linejoin:miter;stroke-dasharray:none;stroke-opacity:1;marker-end:url(#Arrow1-3);paint-order:stroke fill markers;stop-color:#000000"
         d="m 40.168293,88.538074 2.34849,4.476655"
         id="path3004"
         sodipodi:nodetypes="cc" />
    </g>
  </g>
</svg>
