<?xml version="1.0" encoding="UTF-8" standalone="no"?>
<!-- Created with Inkscape (http://www.inkscape.org/) -->

<svg
   width="210mm"
   height="297mm"
   viewBox="0 0 210 297"
   version="1.1"
   id="svg1"
   inkscape:version="1.4 (e7c3feb100, 2024-10-09)"
   sodipodi:docname="scetch.svg"
   xmlns:inkscape="http://www.inkscape.org/namespaces/inkscape"
   xmlns:sodipodi="http://sodipodi.sourceforge.net/DTD/sodipodi-0.dtd"
   xmlns="http://www.w3.org/2000/svg"
   xmlns:svg="http://www.w3.org/2000/svg">
  <sodipodi:namedview
     id="namedview1"
     pagecolor="#ffffff"
     bordercolor="#000000"
     borderopacity="0.25"
     inkscape:showpageshadow="2"
     inkscape:pageopacity="0.0"
     inkscape:pagecheckerboard="0"
     inkscape:deskcolor="#d1d1d1"
     inkscape:document-units="mm"
     showguides="true"
     inkscape:zoom="1.2485177"
     inkscape:cx="24.829445"
     inkscape:cy="-22.82707"
     inkscape:window-width="1918"
     inkscape:window-height="1182"
     inkscape:window-x="1"
     inkscape:window-y="17"
     inkscape:window-maximized="0"
     inkscape:current-layer="layer2">
    <sodipodi:guide
       position="56.100056,314.00017"
       orientation="0,-1"
       id="guide9"
       inkscape:locked="false" />
  </sodipodi:namedview>
  <defs
     id="defs1" />
  <g
     inkscape:label="scetch"
     inkscape:groupmode="layer"
     id="layer1">
    <g
       inkscape:groupmode="layer"
       id="layer2"
       inkscape:label="user_drawings">
      <path
         id="path13"
         style="fill:none;stroke:#000000;stroke-width:0.1;stroke-linecap:butt;stroke-linejoin:miter;stroke-dasharray:none;stroke-opacity:1"
         d="m 60.400913,17.00025 v 3 h 4.300857 v -3 h 62.00519 v 3 h 4.30086 v -3 h 4.30085 v -34 h -4.30085 v -3 h -4.30086 v 3 H 64.70177 v -3 h -4.300857 v 3 h -4.300858 v 34 z M 1.1000011,9.5000401 c 0,-0.6075132 -0.49248679,-1.1 -1.1000000227081,-1.1 C -0.60751214,8.4000401 -1.0999989,8.8925269 -1.0999989,9.5000401 -1.099999,10.107553 -0.60751218,10.60004 1.0772919e-6,10.60004 0.60751435,10.60004 1.1000012,10.107553 1.1000011,9.5000401 Z m 0,-19 C 1.100001,-10.107473 0.60751427,-10.59996 1.0772919e-6,-10.59996 -0.6075121,-10.59996 -1.0999988,-10.107473 -1.0999989,-9.4999599 c -1e-7,0.6075132 0.49248672,1.1000001 1.0999999772919,1.1000001 C 0.60751435,-8.3999598 1.1000012,-8.8924466 1.1000011,-9.4999599 Z m 50.0000679,19 c 0,-0.6075132 -0.492487,-1.1 -1.1,-1.1 -0.607513,0 -1.1,0.4924868 -1.1,1.1 0,0.6075129 0.492487,1.0999999 1.1,1.0999999 0.607513,0 1.1,-0.492487 1.1,-1.0999999 z m 0,-19 c 0,-0.6075131 -0.492487,-1.1000001 -1.1,-1.1000001 -0.607513,0 -1.1,0.492487 -1.1,1.1000001 0,0.6075133 0.492487,1.1000001 1.1,1.1000001 0.607513,0 1.1,-0.4924868 1.1,-1.1000001 z M -22.276037,20.00007 V 17.00025 H -26.77602 V -7.9997785 h 2.999298 V -13.99992 h -2.999298 v -2.999819 h 4.499983 v -2.99982 h 4.499983 v 2.99982 h 64.876142 v -2.99982 h 4.499985 v 2.99982 h 4.499983 V 17.00025 h -4.499983 v 2.99982 h -4.499985 v -2.99982 h -64.876142 v 2.99982 z M -35.114764,-7.3171696 h 4.299651 c 0.661669,0 1.194348,-0.5575 1.194348,-1.25 0,-0.6925 -0.532679,-1.25 -1.194348,-1.25 h -4.299651 c -0.661668,0 -1.194347,0.5575 -1.194347,1.25 0,0.6925 0.532679,1.25 1.194347,1.25 z m 1.783558,14.8166657 h 3.821912 c 0.529334,0 0.955478,-0.446 0.955478,-1 0,-0.554 -0.426144,-1 -0.955478,-1 h -3.821912 c -0.529335,0 -0.955478,0.446 -0.955478,1 0,0.554 0.426143,1 0.955478,1 z M -30.942558,19.99957 H -35.2417 v -2.999819 h -4.550464 v -1.99988 c 5.1e-5,-2.904172 -2.241697,-5.2502858 -5.016571,-5.2503388 h -3.393592 -5.290111 c 0.0035,8e-5 0.0026,0 -0.003,0 -2.517974,0 -4.537183,-2.1146289 -4.537134,-4.7500907 h -0.0015 v -9.9999008 c 0,-0.6589448 0.126023,-1.2841553 0.355012,-1.8526126 0.686944,-1.7053454 2.294238,-2.8970023 4.18311,-2.8969759 h 3.322985 0.418705 7.236502 c 2.447897,5.29e-5 4.479621,-1.8258102 4.924733,-4.2498702 h 10.95054 2.866258 v 6.0001419 h -2.866258 V 17.000254 h -4.300128 z M -54.684502,2.5802073 c 1.464597,0.6289361 3.139041,-0.1038246 3.739976,-1.63666705 0.600935,-1.53284217 -0.0992,-3.28530965 -1.563799,-3.91424585 -1.464597,-0.6289361 -3.139041,0.1038247 -3.739976,1.636667 -0.600935,1.53284222 0.0992,3.2853097 1.563799,3.9142459 z m -13.113572,-43.4456523 29.701155,12.754447 -4.279363,10.915643 -5.074414,-9.3e-5 1.11e-4,3.000138 3.898189,-5.4e-5 -1.559405,3.977673 c 2.740932,2.541622 4.309932,6.1905989 4.30982,10.02322093 -3.13e-4,7.39547107 -5.728797,13.39045507 -12.795007,13.39025507 -0.228814,-1.75e-4 -0.457582,-0.0068 -0.686058,-0.01979 l -0.246278,0.628197 -3.824659,3.6e-4 -1.59e-4,2.99946 2.648704,1.71e-4 -9.279395,23.669546 -29.701155,-12.754448 z"
         sodipodi:nodetypes="ccccccccccccccccccccccssscsszsssssssssssscccccccccccccccccccccccccssssssssssssssccccccccsccssccccccccccccssszsccccccccccccccccc" />
    </g>
  </g>
</svg>
