<?xml version="1.0" encoding="UTF-8" standalone="no"?>
<svg
   width="600mm"
   height="400mm"
   viewBox="0 0 600 400"
   version="1.1"
   id="svg8"
   inkscape:version="1.2.2 (b0a8486541, 2022-12-01)"
   sodipodi:docname="smal.svg"
   xmlns:inkscape="http://www.inkscape.org/namespaces/inkscape"
   xmlns:sodipodi="http://sodipodi.sourceforge.net/DTD/sodipodi-0.dtd"
   xmlns="http://www.w3.org/2000/svg"
   xmlns:svg="http://www.w3.org/2000/svg">
  <defs
     id="defs41" />
  <sodipodi:namedview
     id="base"
     pagecolor="#ffffff"
     bordercolor="#666666"
     borderopacity="1.0"
     inkscape:pageopacity="0.0"
     inkscape:pageshadow="2"
     inkscape:zoom="0.70710678"
     inkscape:cx="888.12611"
     inkscape:cy="772.86771"
     inkscape:document-units="mm"
     inkscape:current-layer="layer1"
     inkscape:document-rotation="0"
     showgrid="false"
     inkscape:showpageshadow="2"
     inkscape:pagecheckerboard="0"
     inkscape:deskcolor="#d1d1d1"
     inkscape:window-width="1918"
     inkscape:window-height="1182"
     inkscape:window-x="1"
     inkscape:window-y="17"
     inkscape:window-maximized="0"
     showguides="true" />
  <g
     inkscape:label="Layer 1"
     inkscape:groupmode="layer"
     id="layer1">
    <path
       id="path27"
       style="fill:none;stroke:#ff00ff;stroke-width:0.264583px;stroke-linecap:butt;stroke-linejoin:miter;stroke-opacity:1"
       d="m 471.01442,11.409514 v 2.998784 h -2.99981 v 18.362186 h 3.00033 v -2.999817 h 12.40234 v 2.999817 h 3.00034 l 2.68562,1.336869 1.33687,-2.685624 38.12584,18.980237 -1.33687,2.685624 2.68562,1.33687 1.80816,2.393652 2.39365,-1.808158 25.67234,33.981905 -2.39365,1.808157 1.80816,2.39365 0.55242,2.949167 2.94865,-0.55242 7.83725,41.862047 -2.94866,0.5519 0.55191,2.94866 -0.81959,2.88613 2.88561,0.81959 -3.38945,11.93053 -2.88613,-0.81959 -0.81959,2.88562 17.64802,5.01416 0.8201,-2.88613 2.86546,0.81391 A 125,125 0 0 0 587.1231,136.08665 125,125 0 0 0 471.01442,11.409514 Z" />
    <path
       id="path33-5"
       style="fill:none;stroke:#ff00ff;stroke-width:0.264583px;stroke-linecap:butt;stroke-linejoin:miter;stroke-opacity:1"
       d="m 469.17201,38.896333 v 2.999302 h -2.9993 l -10e-4,17.656286 h 3.00034 v -2.999817 h 5.29941 v 2.999817 h 3.00034 l 2.68562,1.336869 1.33687,-2.685624 38.12584,18.980239 -1.33687,2.685617 2.68562,1.33687 1.80816,2.39366 2.39365,-1.80816 3.19464,4.228677 -2.39365,1.80816 1.80867,2.393657 14.0777,-10.645344 -1.79783,-2.391077 2.38952,-1.80712 A 125,125 0 0 0 469.17201,38.896333 Z" />
    <path
       style="fill:none;stroke:#ff00ff;stroke-width:0.1;stroke-linejoin:round;stroke-dasharray:none;stroke-opacity:1;paint-order:stroke fill markers;stop-color:#000000"
       d="m 537.80918,94.363096 1.12826,-2.77976 h -3 v -2.999997 h 7.45535 l -2.80385,6.908014 z"
       id="path4448"
       sodipodi:nodetypes="ccccccc" />
    <path
       style="fill:none;stroke:#ff00ff;stroke-width:0.1;stroke-linejoin:round;stroke-dasharray:none;stroke-opacity:1;paint-order:stroke fill markers;stop-color:#000000"
       d="m 542.27433,93.234836 1.88796,-4.651497 h 5.02005 v 2.999997 h -3 l -1.12826,2.77976 z"
       id="path4450" />
    <path
       style="fill:none;stroke:#ff00ff;stroke-width:0.264583px;stroke-linecap:butt;stroke-linejoin:miter;stroke-opacity:1"
       d="m 583.7638,171.96113 v 11.5 h -3 v 3 h -5.29979 v -3 h -3 v 3 l -2.77976,1.12826 1.12826,2.77975 2.77975,-1.12826 1.99318,4.91071 -2.77975,1.12826 1.12825,2.77975 -10.65573,4.32499 -1.12826,-2.77976 -2.77975,1.12826 -4.66451,-11.49221 2.77976,-1.12825 -1.12826,-2.77976 -2.77976,1.12826 v -3 h -3 v 3 h -12.40276 v -3 h -3 v -11.5 h 3 v -3 h 42.58913 v 3 z"
       id="path4452" />
    <path
       style="fill:none;stroke:#ff00ff;stroke-width:0.264583px;stroke-linecap:butt;stroke-linejoin:miter;stroke-opacity:1"
       d="m 586.3809,212.20829 v 11.5 h -3 v 3 h -42.5891 v -3 h -3 v -11.5 h 3 v -3 h 42.5891 v 3 z"
       id="path4454" />
    <g
       id="g4783">
      <path
         id="path4318"
         style="fill:none;stroke:#000000;stroke-width:0.264583px;stroke-linecap:butt;stroke-linejoin:miter;stroke-opacity:1"
         d="M 15.27063,50 13.46298,52.392747 11.06944,50.58449 9e-4,65.235651 l 2.39397,1.80857 1.80824,-2.39354 9.89582,7.476007 -1.80825,2.393537 2.39397,1.80858 1.33701,2.685547 2.68556,-1.337007 18.97949,38.126195 -2.68556,1.33702 1.337,2.68554 -1.1e-4,2.99984 2.99982,1e-4 v 42.5892 l -2.99983,-1e-4 -1e-4,2.99983 -1.33697,2.68614 2.68573,1.33664 -18.9807,38.12594 -2.68541,-1.33705 -1.33706,2.68541 -2.39368,1.8088 1.80839,2.39337 -9.89605,7.47624 -1.8088,-2.39368 L 0,223.00516 l 11.05887,14.63887 2.3941,-1.80851 1.79572,2.3767 A 125,125 0 0 0 32.75954,219.46901 125,125 0 0 0 15.27063,50 Z"
         inkscape:transform-center-x="10.3287"
         inkscape:transform-center-y="-21.090645" />
      <path
         id="path4320"
         style="fill:none;stroke:#000000;stroke-width:0.264583px;stroke-linecap:butt;stroke-linejoin:miter;stroke-opacity:1"
         d="m 6.8896231,323.19823 2.68496,-1.33667 1.3366699,2.68498 15.80641,-7.86779 -1.33713,-2.68592 -2.68545,1.3369 -2.36174,-4.74405 2.68545,-1.33688 -1.33713,-2.68592 -1.1e-4,-2.99995 -2.99996,9e-5 v -42.58904 l 2.99997,-1.1e-4 -10e-5,-2.99997 1.33698,-2.68542 -2.68542,-1.33698 2.36179,-4.7444 2.68543,1.33698 1.33676,-2.68588 -15.8036,-7.8582 -1.3392799,2.67503 -2.68265,-1.33374 a 125,125 0 0 0 -0.002,81.85694 z"
         inkscape:transform-center-x="5.3227646"
         inkscape:transform-center-y="-21.289749" />
      <path
         id="path4352"
         style="fill:none;stroke:#000000;stroke-width:0.264583px;stroke-linecap:butt;stroke-linejoin:miter;stroke-opacity:1"
         d="m 47.270631,50 -1.80765,2.392747 -2.39354,-1.808257 -11.068541,14.651161 2.39397,1.80857 1.80824,-2.39354 9.895821,7.476007 -1.80825,2.393537 2.39397,1.80858 1.33701,2.685547 2.68556,-1.337007 18.97949,38.126195 -2.68556,1.33702 1.337,2.68554 -1.1e-4,2.99984 2.99982,1e-4 v 42.5892 l -2.99983,-1e-4 -1e-4,2.99983 -1.33697,2.68614 2.68573,1.33664 -18.9807,38.12594 -2.68541,-1.33705 -1.33706,2.68541 -2.39368,1.8088 1.80839,2.39337 -9.896051,7.47624 -1.8088,-2.39368 -2.39338,1.80838 11.058871,14.63887 2.3941,-1.80851 1.79572,2.3767 A 125,125 0 0 0 64.759541,219.46901 125,125 0 0 0 47.270631,50 Z"
         inkscape:transform-center-x="10.3287"
         inkscape:transform-center-y="-21.090645" />
      <path
         id="path4354"
         style="fill:none;stroke:#000000;stroke-width:0.264583px;stroke-linecap:butt;stroke-linejoin:miter;stroke-opacity:1"
         d="m 79.27063,50 -1.80765,2.392747 -2.39354,-1.808257 -11.06854,14.651161 2.39397,1.80857 1.80824,-2.39354 9.89582,7.476007 -1.80825,2.393537 2.39397,1.80858 1.33701,2.685547 2.68556,-1.337007 18.97949,38.126195 -2.68556,1.33702 1.337,2.68554 -1.1e-4,2.99984 2.99982,1e-4 v 42.5892 l -2.99983,-1e-4 -1e-4,2.99983 -1.33697,2.68614 2.68573,1.33664 -18.9807,38.12594 -2.68541,-1.33705 -1.33706,2.68541 -2.39368,1.8088 1.80839,2.39337 -9.89605,7.47624 -1.8088,-2.39368 -2.39338,1.80838 11.05887,14.63887 2.3941,-1.80851 1.79572,2.3767 A 125,125 0 0 0 96.75954,219.46901 125,125 0 0 0 79.27063,50 Z"
         inkscape:transform-center-x="10.3287"
         inkscape:transform-center-y="-21.090645" />
      <path
         id="path4356"
         style="fill:none;stroke:#000000;stroke-width:0.264583px;stroke-linecap:butt;stroke-linejoin:miter;stroke-opacity:1"
         d="m 111.27063,50 -1.80765,2.392747 -2.39354,-1.808257 -11.06854,14.651161 2.39397,1.80857 1.80824,-2.39354 9.89582,7.476007 -1.80825,2.393537 2.39397,1.80858 1.33701,2.685547 2.68556,-1.337007 18.97949,38.126195 -2.68556,1.33702 1.337,2.68554 -1.1e-4,2.99984 2.99982,1e-4 v 42.5892 l -2.99983,-1e-4 -1e-4,2.99983 -1.33697,2.68614 2.68573,1.33664 -18.9807,38.12594 -2.68541,-1.33705 -1.33706,2.68541 -2.39368,1.8088 1.80839,2.39337 -9.89605,7.47624 -1.8088,-2.39368 -2.39338,1.80838 11.05887,14.63887 2.3941,-1.80851 1.79572,2.3767 A 125,125 0 0 0 128.75954,219.46901 125,125 0 0 0 111.27063,50 Z"
         inkscape:transform-center-x="10.3287"
         inkscape:transform-center-y="-21.090645" />
      <path
         id="path4358"
         style="fill:none;stroke:#000000;stroke-width:0.264583px;stroke-linecap:butt;stroke-linejoin:miter;stroke-opacity:1"
         d="m 143.27063,50 -1.80765,2.392747 -2.39354,-1.808257 -11.06854,14.651161 2.39397,1.80857 1.80824,-2.39354 9.89582,7.476007 -1.80825,2.393537 2.39397,1.80858 1.33701,2.685547 2.68556,-1.337007 18.97949,38.126195 -2.68556,1.33702 1.337,2.68554 -1.1e-4,2.99984 2.99982,1e-4 v 42.5892 l -2.99983,-1e-4 -1e-4,2.99983 -1.33697,2.68614 2.68573,1.33664 -18.9807,38.12594 -2.68541,-1.33705 -1.33706,2.68541 -2.39368,1.8088 1.80839,2.39337 -9.89605,7.47624 -1.8088,-2.39368 -2.39338,1.80838 11.05887,14.63887 2.3941,-1.80851 1.79572,2.3767 A 125,125 0 0 0 160.75954,219.46901 125,125 0 0 0 143.27063,50 Z"
         inkscape:transform-center-x="10.3287"
         inkscape:transform-center-y="-21.090645" />
      <path
         id="path4360"
         style="fill:none;stroke:#000000;stroke-width:0.264583px;stroke-linecap:butt;stroke-linejoin:miter;stroke-opacity:1"
         d="m 175.27063,50 -1.80765,2.392747 -2.39354,-1.808257 -11.06854,14.651161 2.39397,1.80857 1.80824,-2.39354 9.89582,7.476007 -1.80825,2.393537 2.39397,1.80858 1.33701,2.685547 2.68556,-1.337007 18.97949,38.126195 -2.68556,1.33702 1.337,2.68554 -1.1e-4,2.99984 2.99982,1e-4 v 42.5892 l -2.99983,-1e-4 -1e-4,2.99983 -1.33697,2.68614 2.68573,1.33664 -18.9807,38.12594 -2.68541,-1.33705 -1.33706,2.68541 -2.39368,1.8088 1.80839,2.39337 -9.89605,7.47624 -1.8088,-2.39368 -2.39338,1.80838 11.05887,14.63887 2.3941,-1.80851 1.79572,2.3767 A 125,125 0 0 0 192.75954,219.46901 125,125 0 0 0 175.27063,50 Z"
         inkscape:transform-center-x="10.3287"
         inkscape:transform-center-y="-21.090645" />
      <path
         id="path4362"
         style="fill:none;stroke:#000000;stroke-width:0.264583px;stroke-linecap:butt;stroke-linejoin:miter;stroke-opacity:1"
         d="m 207.27063,50 -1.80765,2.392747 -2.39354,-1.808257 -11.06854,14.651161 2.39397,1.80857 1.80824,-2.39354 9.89582,7.476007 -1.80825,2.393537 2.39397,1.80858 1.33701,2.685547 2.68556,-1.337007 18.97949,38.126195 -2.68556,1.33702 1.337,2.68554 -1.1e-4,2.99984 2.99982,1e-4 v 42.5892 l -2.99983,-1e-4 -1e-4,2.99983 -1.33697,2.68614 2.68573,1.33664 -18.9807,38.12594 -2.68541,-1.33705 -1.33706,2.68541 -2.39368,1.8088 1.80839,2.39337 -9.89605,7.47624 -1.8088,-2.39368 -2.39338,1.80838 11.05887,14.63887 2.3941,-1.80851 1.79572,2.3767 A 125,125 0 0 0 224.75954,219.46901 125,125 0 0 0 207.27063,50 Z"
         inkscape:transform-center-x="10.3287"
         inkscape:transform-center-y="-21.090645" />
      <path
         id="path4364"
         style="fill:none;stroke:#000000;stroke-width:0.264583px;stroke-linecap:butt;stroke-linejoin:miter;stroke-opacity:1"
         d="m 239.27063,50 -1.80765,2.392747 -2.39354,-1.808257 -11.06854,14.651161 2.39397,1.80857 1.80824,-2.39354 9.89582,7.476007 -1.80825,2.393537 2.39397,1.80858 1.33701,2.685547 2.68556,-1.337007 18.97949,38.126195 -2.68556,1.33702 1.337,2.68554 -1.1e-4,2.99984 2.99982,1e-4 v 42.5892 l -2.99983,-1e-4 -1e-4,2.99983 -1.33697,2.68614 2.68573,1.33664 -18.9807,38.12594 -2.68541,-1.33705 -1.33706,2.68541 -2.39368,1.8088 1.80839,2.39337 -9.89605,7.47624 -1.8088,-2.39368 -2.39338,1.80838 11.05887,14.63887 2.3941,-1.80851 1.79572,2.3767 A 125,125 0 0 0 256.75954,219.46901 125,125 0 0 0 239.27063,50 Z"
         inkscape:transform-center-x="10.3287"
         inkscape:transform-center-y="-21.090645" />
      <path
         id="path4366"
         style="fill:none;stroke:#000000;stroke-width:0.264583px;stroke-linecap:butt;stroke-linejoin:miter;stroke-opacity:1"
         d="m 271.27063,50 -1.80765,2.392747 -2.39354,-1.808257 -11.06854,14.651161 2.39397,1.80857 1.80824,-2.39354 9.89582,7.476007 -1.80825,2.393537 2.39397,1.80858 1.33701,2.685547 2.68556,-1.337007 18.97949,38.126195 -2.68556,1.33702 1.337,2.68554 -1.1e-4,2.99984 2.99982,1e-4 v 42.5892 l -2.99983,-1e-4 -1e-4,2.99983 -1.33697,2.68614 2.68573,1.33664 -18.9807,38.12594 -2.68541,-1.33705 -1.33706,2.68541 -2.39368,1.8088 1.80839,2.39337 -9.89605,7.47624 -1.8088,-2.39368 -2.39338,1.80838 11.05887,14.63887 2.3941,-1.80851 1.79572,2.3767 A 125,125 0 0 0 288.75954,219.46901 125,125 0 0 0 271.27063,50 Z"
         inkscape:transform-center-x="10.3287"
         inkscape:transform-center-y="-21.090645" />
      <path
         id="path4368"
         style="fill:none;stroke:#000000;stroke-width:0.264583px;stroke-linecap:butt;stroke-linejoin:miter;stroke-opacity:1"
         d="m 303.27063,50 -1.80765,2.392747 -2.39354,-1.808257 -11.06854,14.651161 2.39397,1.80857 1.80824,-2.39354 9.89582,7.476007 -1.80825,2.393537 2.39397,1.80858 1.33701,2.685547 2.68556,-1.337007 18.97949,38.126195 -2.68556,1.33702 1.337,2.68554 -1.1e-4,2.99984 2.99982,1e-4 v 42.5892 l -2.99983,-1e-4 -1e-4,2.99983 -1.33697,2.68614 2.68573,1.33664 -18.9807,38.12594 -2.68541,-1.33705 -1.33706,2.68541 -2.39368,1.8088 1.80839,2.39337 -9.89605,7.47624 -1.8088,-2.39368 -2.39338,1.80838 11.05887,14.63887 2.3941,-1.80851 1.79572,2.3767 A 125,125 0 0 0 320.75954,219.46901 125,125 0 0 0 303.27063,50 Z"
         inkscape:transform-center-x="10.3287"
         inkscape:transform-center-y="-21.090645" />
      <path
         id="path4370"
         style="fill:none;stroke:#000000;stroke-width:0.264583px;stroke-linecap:butt;stroke-linejoin:miter;stroke-opacity:1"
         d="m 335.27063,50 -1.80765,2.392747 -2.39354,-1.808257 -11.06854,14.651161 2.39397,1.80857 1.80824,-2.39354 9.89582,7.476007 -1.80825,2.393537 2.39397,1.80858 1.33701,2.685547 2.68556,-1.337007 18.97949,38.126195 -2.68556,1.33702 1.337,2.68554 -1.1e-4,2.99984 2.99982,1e-4 v 42.5892 l -2.99983,-1e-4 -1e-4,2.99983 -1.33697,2.68614 2.68573,1.33664 -18.9807,38.12594 -2.68541,-1.33705 -1.33706,2.68541 -2.39368,1.8088 1.80839,2.39337 -9.89605,7.47624 -1.8088,-2.39368 -2.39338,1.80838 11.05887,14.63887 2.3941,-1.80851 1.79572,2.3767 A 125,125 0 0 0 352.75954,219.46901 125,125 0 0 0 335.27063,50 Z"
         inkscape:transform-center-x="10.3287"
         inkscape:transform-center-y="-21.090645" />
      <path
         id="path4372"
         style="fill:none;stroke:#000000;stroke-width:0.264583px;stroke-linecap:butt;stroke-linejoin:miter;stroke-opacity:1"
         d="m 367.27063,50 -1.80765,2.392747 -2.39354,-1.808257 -11.06854,14.651161 2.39397,1.80857 1.80824,-2.39354 9.89582,7.476007 -1.80825,2.393537 2.39397,1.80858 1.33701,2.685547 2.68556,-1.337007 18.97949,38.126195 -2.68556,1.33702 1.337,2.68554 -1.1e-4,2.99984 2.99982,1e-4 v 42.5892 l -2.99983,-1e-4 -1e-4,2.99983 -1.33697,2.68614 2.68573,1.33664 -18.9807,38.12594 -2.68541,-1.33705 -1.33706,2.68541 -2.39368,1.8088 1.80839,2.39337 -9.89605,7.47624 -1.8088,-2.39368 -2.39338,1.80838 11.05887,14.63887 2.3941,-1.80851 1.79572,2.3767 A 125,125 0 0 0 384.75954,219.46901 125,125 0 0 0 367.27063,50 Z"
         inkscape:transform-center-x="10.3287"
         inkscape:transform-center-y="-21.090645" />
      <path
         id="path4376"
         style="fill:none;stroke:#000000;stroke-width:0.264583px;stroke-linecap:butt;stroke-linejoin:miter;stroke-opacity:1"
         d="m 30.889623,323.19823 2.68496,-1.33667 1.33667,2.68498 15.80641,-7.86779 -1.33713,-2.68592 -2.68545,1.3369 -2.36174,-4.74405 2.68545,-1.33688 -1.33713,-2.68592 -1.1e-4,-2.99995 -2.99996,9e-5 v -42.58904 l 2.99997,-1.1e-4 -10e-5,-2.99997 1.33698,-2.68542 -2.68542,-1.33698 2.36179,-4.7444 2.68543,1.33698 1.33676,-2.68588 -15.8036,-7.8582 -1.33928,2.67503 -2.68265,-1.33374 a 125,125 0 0 0 -0.002,81.85694 z"
         inkscape:transform-center-x="5.3227646"
         inkscape:transform-center-y="-21.289749" />
      <path
         id="path4378"
         style="fill:none;stroke:#000000;stroke-width:0.264583px;stroke-linecap:butt;stroke-linejoin:miter;stroke-opacity:1"
         d="m 54.889623,323.19823 2.68496,-1.33667 1.33667,2.68498 15.80641,-7.86779 -1.33713,-2.68592 -2.68545,1.3369 -2.36174,-4.74405 2.68545,-1.33688 -1.33713,-2.68592 -1.1e-4,-2.99995 -2.99996,9e-5 v -42.58904 l 2.99997,-1.1e-4 -1e-4,-2.99997 1.33698,-2.68542 -2.68542,-1.33698 2.36179,-4.7444 2.68543,1.33698 1.33676,-2.68588 -15.8036,-7.8582 -1.33928,2.67503 -2.68265,-1.33374 a 125,125 0 0 0 -0.002,81.85694 z"
         inkscape:transform-center-x="5.3227646"
         inkscape:transform-center-y="-21.289749" />
      <path
         id="path4380"
         style="fill:none;stroke:#000000;stroke-width:0.264583px;stroke-linecap:butt;stroke-linejoin:miter;stroke-opacity:1"
         d="m 78.889623,323.19823 2.68496,-1.33667 1.33667,2.68498 15.80641,-7.86779 -1.33713,-2.68592 -2.68545,1.3369 -2.36174,-4.74405 2.68545,-1.33688 -1.33713,-2.68592 -1.1e-4,-2.99995 -2.99996,9e-5 v -42.58904 l 2.99997,-1.1e-4 -1e-4,-2.99997 1.33698,-2.68542 -2.68542,-1.33698 2.36179,-4.7444 2.68543,1.33698 1.33676,-2.68588 -15.8036,-7.8582 -1.33928,2.67503 -2.68265,-1.33374 a 125,125 0 0 0 -0.002,81.85694 z"
         inkscape:transform-center-x="5.3227646"
         inkscape:transform-center-y="-21.289749" />
      <path
         id="path4382"
         style="fill:none;stroke:#000000;stroke-width:0.264583px;stroke-linecap:butt;stroke-linejoin:miter;stroke-opacity:1"
         d="m 102.88962,323.19823 2.68496,-1.33667 1.33667,2.68498 15.80641,-7.86779 -1.33713,-2.68592 -2.68545,1.3369 -2.36174,-4.74405 2.68545,-1.33688 -1.33713,-2.68592 -1.1e-4,-2.99995 -2.99996,9e-5 v -42.58904 l 2.99997,-1.1e-4 -1e-4,-2.99997 1.33698,-2.68542 -2.68542,-1.33698 2.36179,-4.7444 2.68543,1.33698 1.33676,-2.68588 -15.8036,-7.8582 -1.33928,2.67503 -2.68265,-1.33374 a 125,125 0 0 0 -0.002,81.85694 z"
         inkscape:transform-center-x="5.3227646"
         inkscape:transform-center-y="-21.289749" />
      <path
         id="path4384"
         style="fill:none;stroke:#000000;stroke-width:0.264583px;stroke-linecap:butt;stroke-linejoin:miter;stroke-opacity:1"
         d="m 126.88962,323.19823 2.68496,-1.33667 1.33667,2.68498 15.80641,-7.86779 -1.33713,-2.68592 -2.68545,1.3369 -2.36174,-4.74405 2.68545,-1.33688 -1.33713,-2.68592 -1.1e-4,-2.99995 -2.99996,9e-5 v -42.58904 l 2.99997,-1.1e-4 -1e-4,-2.99997 1.33698,-2.68542 -2.68542,-1.33698 2.36179,-4.7444 2.68543,1.33698 1.33676,-2.68588 -15.8036,-7.8582 -1.33928,2.67503 -2.68265,-1.33374 a 125,125 0 0 0 -0.002,81.85694 z"
         inkscape:transform-center-x="5.3227646"
         inkscape:transform-center-y="-21.289749" />
      <path
         id="path4386"
         style="fill:none;stroke:#000000;stroke-width:0.264583px;stroke-linecap:butt;stroke-linejoin:miter;stroke-opacity:1"
         d="m 150.88962,323.19823 2.68496,-1.33667 1.33667,2.68498 15.80641,-7.86779 -1.33713,-2.68592 -2.68545,1.3369 -2.36174,-4.74405 2.68545,-1.33688 -1.33713,-2.68592 -1.1e-4,-2.99995 -2.99996,9e-5 v -42.58904 l 2.99997,-1.1e-4 -1e-4,-2.99997 1.33698,-2.68542 -2.68542,-1.33698 2.36179,-4.7444 2.68543,1.33698 1.33676,-2.68588 -15.8036,-7.8582 -1.33928,2.67503 -2.68265,-1.33374 a 125,125 0 0 0 -0.002,81.85694 z"
         inkscape:transform-center-x="5.3227646"
         inkscape:transform-center-y="-21.289749" />
      <path
         id="path4388"
         style="fill:none;stroke:#000000;stroke-width:0.264583px;stroke-linecap:butt;stroke-linejoin:miter;stroke-opacity:1"
         d="m 174.88962,323.19823 2.68496,-1.33667 1.33667,2.68498 15.80641,-7.86779 -1.33713,-2.68592 -2.68545,1.3369 -2.36174,-4.74405 2.68545,-1.33688 -1.33713,-2.68592 -1.1e-4,-2.99995 -2.99996,9e-5 v -42.58904 l 2.99997,-1.1e-4 -1e-4,-2.99997 1.33698,-2.68542 -2.68542,-1.33698 2.36179,-4.7444 2.68543,1.33698 1.33676,-2.68588 -15.8036,-7.8582 -1.33928,2.67503 -2.68265,-1.33374 a 125,125 0 0 0 -0.002,81.85694 z"
         inkscape:transform-center-x="5.3227646"
         inkscape:transform-center-y="-21.289749" />
      <path
         id="path4390"
         style="fill:none;stroke:#000000;stroke-width:0.264583px;stroke-linecap:butt;stroke-linejoin:miter;stroke-opacity:1"
         d="m 198.88962,323.19823 2.68496,-1.33667 1.33667,2.68498 15.80641,-7.86779 -1.33713,-2.68592 -2.68545,1.3369 -2.36174,-4.74405 2.68545,-1.33688 -1.33713,-2.68592 -1.1e-4,-2.99995 -2.99996,9e-5 v -42.58904 l 2.99997,-1.1e-4 -1e-4,-2.99997 1.33698,-2.68542 -2.68542,-1.33698 2.36179,-4.7444 2.68543,1.33698 1.33676,-2.68588 -15.8036,-7.8582 -1.33928,2.67503 -2.68265,-1.33374 a 125,125 0 0 0 -0.002,81.85694 z"
         inkscape:transform-center-x="5.3227646"
         inkscape:transform-center-y="-21.289749" />
      <path
         id="path4392"
         style="fill:none;stroke:#000000;stroke-width:0.264583px;stroke-linecap:butt;stroke-linejoin:miter;stroke-opacity:1"
         d="m 222.88962,323.19823 2.68496,-1.33667 1.33667,2.68498 15.80641,-7.86779 -1.33713,-2.68592 -2.68545,1.3369 -2.36174,-4.74405 2.68545,-1.33688 -1.33713,-2.68592 -1.1e-4,-2.99995 -2.99996,9e-5 v -42.58904 l 2.99997,-1.1e-4 -1e-4,-2.99997 1.33698,-2.68542 -2.68542,-1.33698 2.36179,-4.7444 2.68543,1.33698 1.33676,-2.68588 -15.8036,-7.8582 -1.33928,2.67503 -2.68265,-1.33374 a 125,125 0 0 0 -0.002,81.85694 z"
         inkscape:transform-center-x="5.3227646"
         inkscape:transform-center-y="-21.289749" />
      <path
         id="path4394"
         style="fill:none;stroke:#000000;stroke-width:0.264583px;stroke-linecap:butt;stroke-linejoin:miter;stroke-opacity:1"
         d="m 246.88962,323.19823 2.68496,-1.33667 1.33667,2.68498 15.80641,-7.86779 -1.33713,-2.68592 -2.68545,1.3369 -2.36174,-4.74405 2.68545,-1.33688 -1.33713,-2.68592 -1.1e-4,-2.99995 -2.99996,9e-5 v -42.58904 l 2.99997,-1.1e-4 -10e-5,-2.99997 1.33698,-2.68542 -2.68542,-1.33698 2.36179,-4.7444 2.68543,1.33698 1.33676,-2.68588 -15.8036,-7.8582 -1.33928,2.67503 -2.68265,-1.33374 a 125,125 0 0 0 -0.002,81.85694 z"
         inkscape:transform-center-x="5.3227646"
         inkscape:transform-center-y="-21.289749" />
      <path
         id="path4396"
         style="fill:none;stroke:#000000;stroke-width:0.264583px;stroke-linecap:butt;stroke-linejoin:miter;stroke-opacity:1"
         d="m 270.88962,323.19823 2.68496,-1.33667 1.33667,2.68498 15.80641,-7.86779 -1.33713,-2.68592 -2.68545,1.3369 -2.36174,-4.74405 2.68545,-1.33688 -1.33713,-2.68592 -1.1e-4,-2.99995 -2.99996,9e-5 v -42.58904 l 2.99997,-1.1e-4 -10e-5,-2.99997 1.33698,-2.68542 -2.68542,-1.33698 2.36179,-4.7444 2.68543,1.33698 1.33676,-2.68588 -15.8036,-7.8582 -1.33928,2.67503 -2.68265,-1.33374 a 125,125 0 0 0 -0.002,81.85694 z"
         inkscape:transform-center-x="5.3227646"
         inkscape:transform-center-y="-21.289749" />
      <g
         transform="rotate(90,37.22772,301.52228)"
         id="g25">
        <path
           style="fill:none;stroke:#000000;stroke-width:0.264583px;stroke-linecap:butt;stroke-linejoin:miter;stroke-opacity:1"
           d="m 24.294555,-5.75 v 11.5 h -3 v 3 h -42.58911 v -3 h -3 v -11.5 h 3 v -3 h 42.58911 v 3 z"
           id="path21" />
      </g>
      <g
         transform="rotate(90,27.72772,292.02228)"
         id="g4404">
        <path
           style="fill:none;stroke:#000000;stroke-width:0.264583px;stroke-linecap:butt;stroke-linejoin:miter;stroke-opacity:1"
           d="m 24.294555,-5.75 v 11.5 h -3 v 3 h -42.58911 v -3 h -3 v -11.5 h 3 v -3 h 42.58911 v 3 z"
           id="path4402" />
      </g>
      <g
         transform="rotate(90,18.22772,282.52228)"
         id="g4412">
        <path
           style="fill:none;stroke:#000000;stroke-width:0.264583px;stroke-linecap:butt;stroke-linejoin:miter;stroke-opacity:1"
           d="m 24.294555,-5.75 v 11.5 h -3 v 3 h -42.58911 v -3 h -3 v -11.5 h 3 v -3 h 42.58911 v 3 z"
           id="path4410" />
      </g>
      <path
         id="path4536"
         style="fill:none;stroke:#000000;stroke-width:0.1;stroke-linejoin:round;stroke-dasharray:none;stroke-opacity:1;paint-order:stroke fill markers;stop-color:#000000"
         d="m 67.90811,125 h -3.00034 v 2.99982 L 62.1281,126.87172 61,129.6514 l 4.95629,2.01176 v 0.76946 l -2.69958,-1.09606 -1.12861,2.77968 2.77967,1.12862 v 2.99981 h 3.00034 v -5.01985 l -1.55185,-0.62993 v -0.76947 l 1.55185,0.62994 z" />
      <path
         id="path4538"
         style="fill:none;stroke:#000000;stroke-width:0.1;stroke-linejoin:round;stroke-dasharray:none;stroke-opacity:1;paint-order:stroke fill markers;stop-color:#000000"
         d="m 67.90811,140.87501 h -3.00034 v 2.99982 l -2.77967,-1.1281 -1.1281,2.77968 4.95629,2.01176 v 0.76946 l -2.69958,-1.09606 -1.12861,2.77968 2.77967,1.12862 v 2.99981 h 3.00034 v -5.01985 l -1.55185,-0.62993 v -0.76947 l 1.55185,0.62994 z" />
      <path
         id="path4544"
         style="fill:none;stroke:#000000;stroke-width:0.1;stroke-linejoin:round;stroke-dasharray:none;stroke-opacity:1;paint-order:stroke fill markers;stop-color:#000000"
         d="m 99.90811,125 h -3.00034 v 2.99982 L 94.1281,126.87172 93,129.6514 l 4.95629,2.01176 v 0.76946 l -2.69958,-1.09606 -1.12861,2.77968 2.77967,1.12862 v 2.99981 h 3.00034 v -5.01985 l -1.55185,-0.62993 v -0.76947 l 1.55185,0.62994 z" />
      <path
         id="path4546"
         style="fill:none;stroke:#000000;stroke-width:0.1;stroke-linejoin:round;stroke-dasharray:none;stroke-opacity:1;paint-order:stroke fill markers;stop-color:#000000"
         d="m 99.90811,140.87501 h -3.00034 v 2.99982 l -2.77967,-1.1281 -1.1281,2.77968 4.95629,2.01176 v 0.76946 l -2.69958,-1.09606 -1.12861,2.77968 2.77967,1.12862 v 2.99981 h 3.00034 v -5.01985 l -1.55185,-0.62993 v -0.76947 l 1.55185,0.62994 z" />
      <path
         id="path4548"
         style="fill:none;stroke:#000000;stroke-width:0.1;stroke-linejoin:round;stroke-dasharray:none;stroke-opacity:1;paint-order:stroke fill markers;stop-color:#000000"
         d="m 131.90811,125 h -3.00034 v 2.99982 l -2.77967,-1.1281 -1.1281,2.77968 4.95629,2.01176 v 0.76946 l -2.69958,-1.09606 -1.12861,2.77968 2.77967,1.12862 v 2.99981 h 3.00034 v -5.01985 l -1.55185,-0.62993 v -0.76947 l 1.55185,0.62994 z" />
      <path
         id="path4550"
         style="fill:none;stroke:#000000;stroke-width:0.1;stroke-linejoin:round;stroke-dasharray:none;stroke-opacity:1;paint-order:stroke fill markers;stop-color:#000000"
         d="m 131.90811,140.87501 h -3.00034 v 2.99982 l -2.77967,-1.1281 -1.1281,2.77968 4.95629,2.01176 v 0.76946 l -2.69958,-1.09606 -1.12861,2.77968 2.77967,1.12862 v 2.99981 h 3.00034 v -5.01985 l -1.55185,-0.62993 v -0.76947 l 1.55185,0.62994 z" />
      <path
         id="path4552"
         style="fill:none;stroke:#000000;stroke-width:0.1;stroke-linejoin:round;stroke-dasharray:none;stroke-opacity:1;paint-order:stroke fill markers;stop-color:#000000"
         d="m 163.90811,125 h -3.00034 v 2.99982 l -2.77967,-1.1281 -1.1281,2.77968 4.95629,2.01176 v 0.76946 l -2.69958,-1.09606 -1.12861,2.77968 2.77967,1.12862 v 2.99981 h 3.00034 v -5.01985 l -1.55185,-0.62993 v -0.76947 l 1.55185,0.62994 z" />
      <path
         id="path4554"
         style="fill:none;stroke:#000000;stroke-width:0.1;stroke-linejoin:round;stroke-dasharray:none;stroke-opacity:1;paint-order:stroke fill markers;stop-color:#000000"
         d="m 163.90811,140.87501 h -3.00034 v 2.99982 l -2.77967,-1.1281 -1.1281,2.77968 4.95629,2.01176 v 0.76946 l -2.69958,-1.09606 -1.12861,2.77968 2.77967,1.12862 v 2.99981 h 3.00034 v -5.01985 l -1.55185,-0.62993 v -0.76947 l 1.55185,0.62994 z" />
      <path
         id="path4556"
         style="fill:none;stroke:#000000;stroke-width:0.1;stroke-linejoin:round;stroke-dasharray:none;stroke-opacity:1;paint-order:stroke fill markers;stop-color:#000000"
         d="m 195.90811,125 h -3.00034 v 2.99982 l -2.77967,-1.1281 -1.1281,2.77968 4.95629,2.01176 v 0.76946 l -2.69958,-1.09606 -1.12861,2.77968 2.77967,1.12862 v 2.99981 h 3.00034 v -5.01985 l -1.55185,-0.62993 v -0.76947 l 1.55185,0.62994 z" />
      <path
         id="path4558"
         style="fill:none;stroke:#000000;stroke-width:0.1;stroke-linejoin:round;stroke-dasharray:none;stroke-opacity:1;paint-order:stroke fill markers;stop-color:#000000"
         d="m 195.90811,140.87501 h -3.00034 v 2.99982 l -2.77967,-1.1281 -1.1281,2.77968 4.95629,2.01176 v 0.76946 l -2.69958,-1.09606 -1.12861,2.77968 2.77967,1.12862 v 2.99981 h 3.00034 v -5.01985 l -1.55185,-0.62993 v -0.76947 l 1.55185,0.62994 z" />
      <path
         id="path4560"
         style="fill:none;stroke:#000000;stroke-width:0.1;stroke-linejoin:round;stroke-dasharray:none;stroke-opacity:1;paint-order:stroke fill markers;stop-color:#000000"
         d="m 227.90811,125 h -3.00034 v 2.99982 l -2.77967,-1.1281 -1.1281,2.77968 4.95629,2.01176 v 0.76946 l -2.69958,-1.09606 -1.12861,2.77968 2.77967,1.12862 v 2.99981 h 3.00034 v -5.01985 l -1.55185,-0.62993 v -0.76947 l 1.55185,0.62994 z" />
      <path
         id="path4562"
         style="fill:none;stroke:#000000;stroke-width:0.1;stroke-linejoin:round;stroke-dasharray:none;stroke-opacity:1;paint-order:stroke fill markers;stop-color:#000000"
         d="m 227.90811,140.87501 h -3.00034 v 2.99982 l -2.77967,-1.1281 -1.1281,2.77968 4.95629,2.01176 v 0.76946 l -2.69958,-1.09606 -1.12861,2.77968 2.77967,1.12862 v 2.99981 h 3.00034 v -5.01985 l -1.55185,-0.62993 v -0.76947 l 1.55185,0.62994 z" />
      <path
         id="path4564"
         style="fill:none;stroke:#000000;stroke-width:0.1;stroke-linejoin:round;stroke-dasharray:none;stroke-opacity:1;paint-order:stroke fill markers;stop-color:#000000"
         d="m 259.90811,125 h -3.00034 v 2.99982 l -2.77967,-1.1281 -1.1281,2.77968 4.95629,2.01176 v 0.76946 l -2.69958,-1.09606 -1.12861,2.77968 2.77967,1.12862 v 2.99981 h 3.00034 v -5.01985 l -1.55185,-0.62993 v -0.76947 l 1.55185,0.62994 z" />
      <path
         id="path4566"
         style="fill:none;stroke:#000000;stroke-width:0.1;stroke-linejoin:round;stroke-dasharray:none;stroke-opacity:1;paint-order:stroke fill markers;stop-color:#000000"
         d="m 259.90811,140.87501 h -3.00034 v 2.99982 l -2.77967,-1.1281 -1.1281,2.77968 4.95629,2.01176 v 0.76946 l -2.69958,-1.09606 -1.12861,2.77968 2.77967,1.12862 v 2.99981 h 3.00034 v -5.01985 l -1.55185,-0.62993 v -0.76947 l 1.55185,0.62994 z" />
      <path
         id="path4568"
         style="fill:none;stroke:#000000;stroke-width:0.1;stroke-linejoin:round;stroke-dasharray:none;stroke-opacity:1;paint-order:stroke fill markers;stop-color:#000000"
         d="m 291.90811,125 h -3.00034 v 2.99982 l -2.77967,-1.1281 -1.1281,2.77968 4.95629,2.01176 v 0.76946 l -2.69958,-1.09606 -1.12861,2.77968 2.77967,1.12862 v 2.99981 h 3.00034 v -5.01985 l -1.55185,-0.62993 v -0.76947 l 1.55185,0.62994 z" />
      <path
         id="path4570"
         style="fill:none;stroke:#000000;stroke-width:0.1;stroke-linejoin:round;stroke-dasharray:none;stroke-opacity:1;paint-order:stroke fill markers;stop-color:#000000"
         d="m 291.90811,140.87501 h -3.00034 v 2.99982 l -2.77967,-1.1281 -1.1281,2.77968 4.95629,2.01176 v 0.76946 l -2.69958,-1.09606 -1.12861,2.77968 2.77967,1.12862 v 2.99981 h 3.00034 v -5.01985 l -1.55185,-0.62993 v -0.76947 l 1.55185,0.62994 z" />
      <g
         transform="rotate(-90,67.522278,52.772278)"
         id="g4574">
        <path
           style="fill:none;stroke:#000000;stroke-width:0.264583px;stroke-linecap:butt;stroke-linejoin:miter;stroke-opacity:1"
           d="m 24.294555,-5.75 v 11.5 h -3 v 3 h -42.58911 v -3 h -3 v -11.5 h 3 v -3 h 42.58911 v 3 z"
           id="path4572" />
      </g>
      <g
         transform="rotate(-90,93.522277,78.772277)"
         id="g4578">
        <path
           style="fill:none;stroke:#000000;stroke-width:0.264583px;stroke-linecap:butt;stroke-linejoin:miter;stroke-opacity:1"
           d="m 24.294555,-5.75 v 11.5 h -3 v 3 h -42.58911 v -3 h -3 v -11.5 h 3 v -3 h 42.58911 v 3 z"
           id="path4576" />
      </g>
      <g
         id="g4592">
        <path
           style="fill:none;stroke:#000000;stroke-width:0.264583px;stroke-linecap:butt;stroke-linejoin:miter;stroke-opacity:1"
           d="m 54.93914,331.08348 v 11.50001 h -3 v 3 h -5.29979 v -3 h -3 v 3 l -2.77976,1.12826 1.12826,2.77976 2.77975,-1.12826 1.99318,4.9107 -2.77975,1.12827 1.12825,2.77975 -10.65573,4.32499 -1.12826,-2.77976 -2.77975,1.12826 -4.66451,-11.49221 2.77976,-1.12826 -1.12826,-2.77976 -2.77976,1.12826 v -3 h -3 v 3 H 9.35001 v -3 h -3 v -11.50001 h 3 v -3 h 42.58913 v 3 z"
           id="path9" />
        <path
           style="fill:none;stroke:#000000;stroke-width:0.264583px;stroke-linecap:butt;stroke-linejoin:miter;stroke-opacity:1"
           d="m 0,377.0278 v -11.5 h 3 v -3.00001 h 5.29979 v 3.00001 h 3 v -3.00001 l 2.77976,-1.12825 -1.12826,-2.77976 -2.77975,1.12826 -1.99318,-4.91071 2.77975,-1.12826 -1.12825,-2.77976 10.65573,-4.32499 1.12826,2.77976 2.77975,-1.12826 4.66451,11.49222 -2.77976,1.12826 1.12826,2.77975 2.77976,-1.12826 v 3.00001 h 3 v -3.00001 h 12.40276 v 3.00001 h 3 v 11.5 h -3 v 3 H 3 v -3 z"
           id="path4426" />
        <path
           style="fill:none;stroke:#000000;stroke-width:0.264583px;stroke-linecap:butt;stroke-linejoin:miter;stroke-opacity:1"
           d="m 104.93916,331.08348 v 11.50001 h -3 v 3 h -5.299809 v -3 h -3 v 3 l -2.77976,1.12826 1.12826,2.77976 2.77975,-1.12826 1.99318,4.9107 -2.77975,1.12827 1.12825,2.77975 -10.65573,4.32499 -1.12826,-2.77976 -2.77975,1.12826 -4.66451,-11.49221 2.77976,-1.12826 -1.12826,-2.77976 -2.77976,1.12826 v -3 h -3 v 3 h -12.40276 v -3 h -3 v -11.50001 h 3 v -3 h 42.589149 v 3 z"
           id="path4584" />
        <path
           style="fill:none;stroke:#000000;stroke-width:0.264583px;stroke-linecap:butt;stroke-linejoin:miter;stroke-opacity:1"
           d="m 50,377.0278 v -11.5 h 3 v -3.00001 h 5.299791 v 3.00001 h 3 v -3.00001 l 2.77976,-1.12825 -1.12826,-2.77976 -2.77975,1.12826 -1.99318,-4.91071 2.77975,-1.12826 -1.12825,-2.77976 10.65573,-4.32499 1.12826,2.77976 2.77975,-1.12826 4.66451,11.49222 -2.77976,1.12826 1.12826,2.77975 2.77976,-1.12826 v 3.00001 h 3 v -3.00001 h 12.40276 v 3.00001 h 3 v 11.5 h -3 v 3 H 53 v -3 z"
           id="path4586" />
      </g>
      <g
         id="g4602"
         transform="translate(100)">
        <path
           style="fill:none;stroke:#000000;stroke-width:0.264583px;stroke-linecap:butt;stroke-linejoin:miter;stroke-opacity:1"
           d="m 54.93914,331.08348 v 11.50001 h -3 v 3 h -5.29979 v -3 h -3 v 3 l -2.77976,1.12826 1.12826,2.77976 2.77975,-1.12826 1.99318,4.9107 -2.77975,1.12827 1.12825,2.77975 -10.65573,4.32499 -1.12826,-2.77976 -2.77975,1.12826 -4.66451,-11.49221 2.77976,-1.12826 -1.12826,-2.77976 -2.77976,1.12826 v -3 h -3 v 3 H 9.35001 v -3 h -3 v -11.50001 h 3 v -3 h 42.58913 v 3 z"
           id="path4594" />
        <path
           style="fill:none;stroke:#000000;stroke-width:0.264583px;stroke-linecap:butt;stroke-linejoin:miter;stroke-opacity:1"
           d="m 0,377.0278 v -11.5 h 3 v -3.00001 h 5.29979 v 3.00001 h 3 v -3.00001 l 2.77976,-1.12825 -1.12826,-2.77976 -2.77975,1.12826 -1.99318,-4.91071 2.77975,-1.12826 -1.12825,-2.77976 10.65573,-4.32499 1.12826,2.77976 2.77975,-1.12826 4.66451,11.49222 -2.77976,1.12826 1.12826,2.77975 2.77976,-1.12826 v 3.00001 h 3 v -3.00001 h 12.40276 v 3.00001 h 3 v 11.5 h -3 v 3 H 3 v -3 z"
           id="path4596" />
        <path
           style="fill:none;stroke:#000000;stroke-width:0.264583px;stroke-linecap:butt;stroke-linejoin:miter;stroke-opacity:1"
           d="m 104.93916,331.08348 v 11.50001 h -3 v 3 h -5.299809 v -3 h -3 v 3 l -2.77976,1.12826 1.12826,2.77976 2.77975,-1.12826 1.99318,4.9107 -2.77975,1.12827 1.12825,2.77975 -10.65573,4.32499 -1.12826,-2.77976 -2.77975,1.12826 -4.66451,-11.49221 2.77976,-1.12826 -1.12826,-2.77976 -2.77976,1.12826 v -3 h -3 v 3 h -12.40276 v -3 h -3 v -11.50001 h 3 v -3 h 42.589149 v 3 z"
           id="path4598" />
        <path
           style="fill:none;stroke:#000000;stroke-width:0.264583px;stroke-linecap:butt;stroke-linejoin:miter;stroke-opacity:1"
           d="m 50,377.0278 v -11.5 h 3 v -3.00001 h 5.299791 v 3.00001 h 3 v -3.00001 l 2.77976,-1.12825 -1.12826,-2.77976 -2.77975,1.12826 -1.99318,-4.91071 2.77975,-1.12826 -1.12825,-2.77976 10.65573,-4.32499 1.12826,2.77976 2.77975,-1.12826 4.66451,11.49222 -2.77976,1.12826 1.12826,2.77975 2.77976,-1.12826 v 3.00001 h 3 v -3.00001 h 12.40276 v 3.00001 h 3 v 11.5 h -3 v 3 H 53 v -3 z"
           id="path4600" />
      </g>
      <g
         id="g4612"
         transform="translate(200)">
        <path
           style="fill:none;stroke:#000000;stroke-width:0.264583px;stroke-linecap:butt;stroke-linejoin:miter;stroke-opacity:1"
           d="m 54.93914,331.08348 v 11.50001 h -3 v 3 h -5.29979 v -3 h -3 v 3 l -2.77976,1.12826 1.12826,2.77976 2.77975,-1.12826 1.99318,4.9107 -2.77975,1.12827 1.12825,2.77975 -10.65573,4.32499 -1.12826,-2.77976 -2.77975,1.12826 -4.66451,-11.49221 2.77976,-1.12826 -1.12826,-2.77976 -2.77976,1.12826 v -3 h -3 v 3 H 9.35001 v -3 h -3 v -11.50001 h 3 v -3 h 42.58913 v 3 z"
           id="path4604" />
        <path
           style="fill:none;stroke:#000000;stroke-width:0.264583px;stroke-linecap:butt;stroke-linejoin:miter;stroke-opacity:1"
           d="m 0,377.0278 v -11.5 h 3 v -3.00001 h 5.29979 v 3.00001 h 3 v -3.00001 l 2.77976,-1.12825 -1.12826,-2.77976 -2.77975,1.12826 -1.99318,-4.91071 2.77975,-1.12826 -1.12825,-2.77976 10.65573,-4.32499 1.12826,2.77976 2.77975,-1.12826 4.66451,11.49222 -2.77976,1.12826 1.12826,2.77975 2.77976,-1.12826 v 3.00001 h 3 v -3.00001 h 12.40276 v 3.00001 h 3 v 11.5 h -3 v 3 H 3 v -3 z"
           id="path4606" />
        <path
           style="fill:none;stroke:#000000;stroke-width:0.264583px;stroke-linecap:butt;stroke-linejoin:miter;stroke-opacity:1"
           d="m 104.93916,331.08348 v 11.50001 h -3 v 3 h -5.299809 v -3 h -3 v 3 l -2.77976,1.12826 1.12826,2.77976 2.77975,-1.12826 1.99318,4.9107 -2.77975,1.12827 1.12825,2.77975 -10.65573,4.32499 -1.12826,-2.77976 -2.77975,1.12826 -4.66451,-11.49221 2.77976,-1.12826 -1.12826,-2.77976 -2.77976,1.12826 v -3 h -3 v 3 h -12.40276 v -3 h -3 v -11.50001 h 3 v -3 h 42.589149 v 3 z"
           id="path4608" />
        <path
           style="fill:none;stroke:#000000;stroke-width:0.264583px;stroke-linecap:butt;stroke-linejoin:miter;stroke-opacity:1"
           d="m 50,377.0278 v -11.5 h 3 v -3.00001 h 5.299791 v 3.00001 h 3 v -3.00001 l 2.77976,-1.12825 -1.12826,-2.77976 -2.77975,1.12826 -1.99318,-4.91071 2.77975,-1.12826 -1.12825,-2.77976 10.65573,-4.32499 1.12826,2.77976 2.77975,-1.12826 4.66451,11.49222 -2.77976,1.12826 1.12826,2.77975 2.77976,-1.12826 v 3.00001 h 3 v -3.00001 h 12.40276 v 3.00001 h 3 v 11.5 h -3 v 3 H 53 v -3 z"
           id="path4610" />
      </g>
      <g
         transform="rotate(90,46.72772,311.02228)"
         id="g4642">
        <path
           style="fill:none;stroke:#000000;stroke-width:0.264583px;stroke-linecap:butt;stroke-linejoin:miter;stroke-opacity:1"
           d="m 24.294555,-5.75 v 11.5 h -3 v 3 h -42.58911 v -3 h -3 v -11.5 h 3 v -3 h 42.58911 v 3 z"
           id="path4640" />
      </g>
      <g
         transform="rotate(90,56.22772,320.52228)"
         id="g4646">
        <path
           style="fill:none;stroke:#000000;stroke-width:0.264583px;stroke-linecap:butt;stroke-linejoin:miter;stroke-opacity:1"
           d="m 24.294555,-5.75 v 11.5 h -3 v 3 h -42.58911 v -3 h -3 v -11.5 h 3 v -3 h 42.58911 v 3 z"
           id="path4644" />
      </g>
      <g
         transform="rotate(90,65.72772,330.02228)"
         id="g4650">
        <path
           style="fill:none;stroke:#000000;stroke-width:0.264583px;stroke-linecap:butt;stroke-linejoin:miter;stroke-opacity:1"
           d="m 24.294555,-5.75 v 11.5 h -3 v 3 h -42.58911 v -3 h -3 v -11.5 h 3 v -3 h 42.58911 v 3 z"
           id="path4648" />
      </g>
      <g
         transform="rotate(90,12.227723,326.52228)"
         id="g4654">
        <path
           style="fill:none;stroke:#000000;stroke-width:0.264583px;stroke-linecap:butt;stroke-linejoin:miter;stroke-opacity:1"
           d="m 24.294555,-5.75 v 11.5 h -3 v 3 h -42.58911 v -3 h -3 v -11.5 h 3 v -3 h 42.58911 v 3 z"
           id="path4652" />
      </g>
      <g
         transform="rotate(90,2.7277225,317.02228)"
         id="g4658">
        <path
           style="fill:none;stroke:#000000;stroke-width:0.264583px;stroke-linecap:butt;stroke-linejoin:miter;stroke-opacity:1"
           d="m 24.294555,-5.75 v 11.5 h -3 v 3 h -42.58911 v -3 h -3 v -11.5 h 3 v -3 h 42.58911 v 3 z"
           id="path4656" />
      </g>
      <g
         transform="rotate(90,21.727722,336.02228)"
         id="g4662">
        <path
           style="fill:none;stroke:#000000;stroke-width:0.264583px;stroke-linecap:butt;stroke-linejoin:miter;stroke-opacity:1"
           d="m 24.294555,-5.75 v 11.5 h -3 v 3 h -42.58911 v -3 h -3 v -11.5 h 3 v -3 h 42.58911 v 3 z"
           id="path4660" />
      </g>
      <g
         transform="rotate(90,31.227722,345.52228)"
         id="g4666">
        <path
           style="fill:none;stroke:#000000;stroke-width:0.264583px;stroke-linecap:butt;stroke-linejoin:miter;stroke-opacity:1"
           d="m 24.294555,-5.75 v 11.5 h -3 v 3 h -42.58911 v -3 h -3 v -11.5 h 3 v -3 h 42.58911 v 3 z"
           id="path4664" />
      </g>
      <g
         transform="rotate(90,40.727722,355.02228)"
         id="g4670">
        <path
           style="fill:none;stroke:#000000;stroke-width:0.264583px;stroke-linecap:butt;stroke-linejoin:miter;stroke-opacity:1"
           d="m 24.294555,-5.75 v 11.5 h -3 v 3 h -42.58911 v -3 h -3 v -11.5 h 3 v -3 h 42.58911 v 3 z"
           id="path4668" />
      </g>
      <g
         transform="rotate(90,-12.772276,351.52228)"
         id="g4674">
        <path
           style="fill:none;stroke:#000000;stroke-width:0.264583px;stroke-linecap:butt;stroke-linejoin:miter;stroke-opacity:1"
           d="m 24.294555,-5.75 v 11.5 h -3 v 3 h -42.58911 v -3 h -3 v -11.5 h 3 v -3 h 42.58911 v 3 z"
           id="path4672" />
      </g>
      <g
         transform="rotate(90,-22.272276,342.02228)"
         id="g4678">
        <path
           style="fill:none;stroke:#000000;stroke-width:0.264583px;stroke-linecap:butt;stroke-linejoin:miter;stroke-opacity:1"
           d="m 24.294555,-5.75 v 11.5 h -3 v 3 h -42.58911 v -3 h -3 v -11.5 h 3 v -3 h 42.58911 v 3 z"
           id="path4676" />
      </g>
      <g
         transform="rotate(90,-3.272277,361.02228)"
         id="g4682">
        <path
           style="fill:none;stroke:#000000;stroke-width:0.264583px;stroke-linecap:butt;stroke-linejoin:miter;stroke-opacity:1"
           d="m 24.294555,-5.75 v 11.5 h -3 v 3 h -42.58911 v -3 h -3 v -11.5 h 3 v -3 h 42.58911 v 3 z"
           id="path4680" />
      </g>
      <g
         transform="rotate(90,6.227723,370.52228)"
         id="g4686">
        <path
           style="fill:none;stroke:#000000;stroke-width:0.264583px;stroke-linecap:butt;stroke-linejoin:miter;stroke-opacity:1"
           d="m 24.294555,-5.75 v 11.5 h -3 v 3 h -42.58911 v -3 h -3 v -11.5 h 3 v -3 h 42.58911 v 3 z"
           id="path4684" />
      </g>
      <g
         transform="rotate(90,15.727723,380.02228)"
         id="g4690">
        <path
           style="fill:none;stroke:#000000;stroke-width:0.264583px;stroke-linecap:butt;stroke-linejoin:miter;stroke-opacity:1"
           d="m 24.294555,-5.75 v 11.5 h -3 v 3 h -42.58911 v -3 h -3 v -11.5 h 3 v -3 h 42.58911 v 3 z"
           id="path4688" />
      </g>
    </g>
  </g>
</svg>
