<?xml version="1.0" encoding="UTF-8" standalone="no"?>
<svg
   xmlns:dc="http://purl.org/dc/elements/1.1/"
   xmlns:cc="http://creativecommons.org/ns#"
   xmlns:rdf="http://www.w3.org/1999/02/22-rdf-syntax-ns#"
   xmlns:svg="http://www.w3.org/2000/svg"
   xmlns="http://www.w3.org/2000/svg"
   xmlns:sodipodi="http://sodipodi.sourceforge.net/DTD/sodipodi-0.dtd"
   xmlns:inkscape="http://www.inkscape.org/namespaces/inkscape"
   width="600mm"
   height="400mm"
   viewBox="0 0 600 400"
   version="1.1"
   id="svg8"
   inkscape:version="1.0.2 (e86c870879, 2021-01-15)"
   sodipodi:docname="led1.svg">
  <metadata
     id="metadata43">
    <rdf:RDF>
      <cc:Work
         rdf:about="">
        <dc:format>image/svg+xml</dc:format>
        <dc:type
           rdf:resource="http://purl.org/dc/dcmitype/StillImage" />
        <dc:title></dc:title>
      </cc:Work>
    </rdf:RDF>
  </metadata>
  <defs
     id="defs41" />
  <sodipodi:namedview
     id="base"
     pagecolor="#ffffff"
     bordercolor="#666666"
     borderopacity="1.0"
     inkscape:pageopacity="0.0"
     inkscape:pageshadow="2"
     inkscape:zoom="0.0875"
     inkscape:cx="1487.3716"
     inkscape:cy="2366.2287"
     inkscape:document-units="mm"
     inkscape:current-layer="layer1"
     inkscape:document-rotation="0"
     showgrid="false"
     inkscape:snap-midpoints="false"
     inkscape:snap-smooth-nodes="false"
     inkscape:snap-global="true"
     inkscape:window-width="1364"
     inkscape:window-height="750"
     inkscape:window-x="1"
     inkscape:window-y="17"
     inkscape:window-maximized="0"
     inkscape:snap-intersection-paths="false"
     inkscape:object-paths="false"
     showguides="true"
     inkscape:guide-bbox="true"
     inkscape:snap-center="true"
     inkscape:snap-page="true"
     inkscape:object-nodes="true" />
  <g
     inkscape:label="Layer 1"
     inkscape:groupmode="layer"
     id="layer1">
    <path
       id="path33"
       style="fill:none;stroke:#000000;stroke-width:0.264583px;stroke-linecap:butt;stroke-linejoin:miter;stroke-opacity:1"
       d="m 15.874998,275.16678 c 29.374793,-5.66067 59.560258,-5.66067 88.935052,0 l -0.67801,2.92243 2.92231,0.67751 -3.75354,16.17028 -2.92254,-0.67852 0.67852,-2.92254 -12.457088,-2.89147 -0.678642,2.92205 -2.922041,-0.67864 -2.999919,4.6e-4 4.1e-5,-3.00004 -43.312843,9e-5 -5.2e-5,3.00004 -3.000036,-4e-5 -2.922089,0.67842 -0.67842,-2.9221 -12.457551,2.89226 0.678419,2.92209 -2.92209,0.67842 -3.754155,-16.16995 2.923093,-0.67865 z"
       sodipodi:nodetypes="ccccccccccccccccccccccc" />
    <path
       id="path1629"
       style="fill:none;stroke:#000000;stroke-width:0.264583px;stroke-linecap:butt;stroke-linejoin:miter;stroke-opacity:1"
       d="m 200.05973,290.71848 c -29.3748,5.66067 -59.56029,5.66067 -88.93509,0 l 0.678,-2.92243 -2.9223,-0.67752 3.75353,-16.17027 2.92254,0.67851 -0.67851,2.92255 12.45709,2.89146 0.67864,-2.92204 2.92205,0.67864 2.99992,-4.6e-4 -4e-5,3.00003 43.31286,-9e-5 6e-5,-3.00004 3.00003,5e-5 2.92209,-0.67842 0.67842,2.92209 12.45756,-2.89225 -0.67842,-2.9221 2.92209,-0.67842 3.75416,16.16995 -2.92309,0.67866 z"
       sodipodi:nodetypes="ccccccccccccccccccccccc" />
    <path
       id="path1631"
       style="fill:none;stroke:#000000;stroke-width:0.264583px;stroke-linecap:butt;stroke-linejoin:miter;stroke-opacity:1"
       d="m 15.874998,251.88343 c 29.374793,-5.66067 59.560258,-5.66067 88.935052,0 l -0.67801,2.92243 2.92231,0.67751 -3.75354,16.17028 -2.92254,-0.67852 0.67852,-2.92255 -12.457088,-2.89146 -0.678642,2.92204 -2.922041,-0.67863 -2.999919,4.6e-4 4.1e-5,-3.00004 -43.312843,9e-5 -5.2e-5,3.00004 -3.000036,-4e-5 -2.922089,0.67842 -0.67842,-2.9221 -12.457551,2.89225 0.678419,2.9221 -2.92209,0.67842 -3.754155,-16.16995 2.923093,-0.67865 z"
       sodipodi:nodetypes="ccccccccccccccccccccccc" />
    <path
       id="path1633"
       style="fill:none;stroke:#000000;stroke-width:0.264583px;stroke-linecap:butt;stroke-linejoin:miter;stroke-opacity:1"
       d="m 200.05973,267.43512 c -29.3748,5.66067 -59.56029,5.66067 -88.93509,0 l 0.678,-2.92242 -2.9223,-0.67752 3.75353,-16.17028 2.92254,0.67853 -0.67851,2.92254 12.45709,2.89147 0.67864,-2.92205 2.92205,0.67864 2.99992,-4.6e-4 -4e-5,3.00004 43.31286,-1e-4 6e-5,-3.00004 3.00003,5e-5 2.92209,-0.67842 0.67842,2.9221 12.45756,-2.89226 -0.67842,-2.9221 2.92209,-0.67842 3.75416,16.16995 -2.92309,0.67866 z"
       sodipodi:nodetypes="ccccccccccccccccccccccc" />
    <path
       id="path1635"
       style="fill:none;stroke:#000000;stroke-width:0.264583px;stroke-linecap:butt;stroke-linejoin:miter;stroke-opacity:1"
       d="m 15.874998,228.60008 c 29.374793,-5.66067 59.560258,-5.66067 88.935052,0 l -0.67801,2.92243 2.92231,0.67751 -3.75354,16.17028 -2.92254,-0.67852 0.67852,-2.92254 -12.457088,-2.89147 -0.678642,2.92205 -2.922041,-0.67864 -2.999919,4.6e-4 4.1e-5,-3.00004 -43.312843,9e-5 -5.2e-5,3.00004 -3.000036,-4e-5 -2.922089,0.67842 -0.67842,-2.9221 -12.457551,2.89226 0.678419,2.92209 -2.92209,0.67842 -3.754155,-16.16995 2.923093,-0.67865 z"
       sodipodi:nodetypes="ccccccccccccccccccccccc" />
    <path
       id="path1637"
       style="fill:none;stroke:#000000;stroke-width:0.264583px;stroke-linecap:butt;stroke-linejoin:miter;stroke-opacity:1"
       d="m 200.05973,244.15178 c -29.3748,5.66067 -59.56029,5.66067 -88.93509,0 l 0.678,-2.92243 -2.9223,-0.67752 3.75353,-16.17027 2.92254,0.67852 -0.67851,2.92254 12.45709,2.89146 0.67864,-2.92204 2.92205,0.67864 2.99992,-4.6e-4 -4e-5,3.00004 43.31286,-1e-4 6e-5,-3.00004 3.00003,5e-5 2.92209,-0.67842 0.67842,2.92209 12.45756,-2.89225 -0.67842,-2.9221 2.92209,-0.67842 3.75416,16.16996 -2.92309,0.67865 z"
       sodipodi:nodetypes="ccccccccccccccccccccccc" />
    <path
       id="path1639"
       style="fill:none;stroke:#000000;stroke-width:0.264583px;stroke-linecap:butt;stroke-linejoin:miter;stroke-opacity:1"
       d="m 15.874998,205.31672 c 29.374793,-5.66067 59.560258,-5.66067 88.935052,0 l -0.67801,2.92243 2.92231,0.67751 -3.75354,16.17029 -2.92254,-0.67852 0.67852,-2.92254 -12.457088,-2.89147 -0.678642,2.92205 -2.922041,-0.67864 -2.999919,4.6e-4 4.1e-5,-3.00004 -43.312843,9e-5 -5.2e-5,3.00004 -3.000036,-4e-5 -2.922089,0.67842 -0.67842,-2.9221 -12.457551,2.89226 0.678419,2.92209 -2.92209,0.67842 -3.754155,-16.16996 2.923093,-0.67865 z"
       sodipodi:nodetypes="ccccccccccccccccccccccc" />
    <path
       id="path1641"
       style="fill:none;stroke:#000000;stroke-width:0.264583px;stroke-linecap:butt;stroke-linejoin:miter;stroke-opacity:1"
       d="m 200.05973,220.86842 c -29.3748,5.66067 -59.56029,5.66067 -88.93509,0 l 0.678,-2.92242 -2.9223,-0.67752 3.75353,-16.17028 2.92254,0.67852 -0.67851,2.92254 12.45709,2.89146 0.67864,-2.92204 2.92205,0.67864 2.99992,-4.6e-4 -4e-5,3.00004 43.31286,-1e-4 6e-5,-3.00004 3.00003,5e-5 2.92209,-0.67842 0.67842,2.92209 12.45756,-2.89225 -0.67842,-2.9221 2.92209,-0.67842 3.75416,16.16996 -2.92309,0.67866 z"
       sodipodi:nodetypes="ccccccccccccccccccccccc" />
    <path
       id="path1643"
       style="fill:none;stroke:#000000;stroke-width:0.264583px;stroke-linecap:butt;stroke-linejoin:miter;stroke-opacity:1"
       d="m 15.874998,182.03336 c 29.374793,-5.66067 59.560258,-5.66067 88.935052,0 l -0.67801,2.92243 2.92231,0.67751 -3.75354,16.17029 -2.92254,-0.67852 0.67852,-2.92254 -12.457088,-2.89147 -0.678642,2.92205 -2.922041,-0.67864 -2.999919,4.6e-4 4.1e-5,-3.00004 -43.312843,9e-5 -5.2e-5,3.00004 -3.000036,-4e-5 -2.922089,0.67842 -0.67842,-2.9221 -12.457551,2.89226 0.678419,2.92209 -2.92209,0.67842 -3.754155,-16.16996 2.923093,-0.67865 z"
       sodipodi:nodetypes="ccccccccccccccccccccccc" />
    <path
       id="path1645"
       style="fill:none;stroke:#000000;stroke-width:0.264583px;stroke-linecap:butt;stroke-linejoin:miter;stroke-opacity:1"
       d="m 200.05973,197.58506 c -29.3748,5.66067 -59.56029,5.66067 -88.93509,0 l 0.678,-2.92242 -2.9223,-0.67752 3.75353,-16.17028 2.92254,0.67852 -0.67851,2.92254 12.45709,2.89146 0.67864,-2.92204 2.92205,0.67864 2.99992,-4.6e-4 -4e-5,3.00004 43.31286,-10e-5 6e-5,-3.00004 3.00003,5e-5 2.92209,-0.67842 0.67842,2.92209 12.45756,-2.89225 -0.67842,-2.9221 2.92209,-0.67842 3.75416,16.16996 -2.92309,0.67866 z"
       sodipodi:nodetypes="ccccccccccccccccccccccc" />
    <path
       id="path1647"
       style="fill:none;stroke:#000000;stroke-width:0.264583px;stroke-linecap:butt;stroke-linejoin:miter;stroke-opacity:1"
       d="m 15.874998,158.75 c 29.374793,-5.66067 59.560258,-5.66067 88.935052,0 l -0.67801,2.92243 2.92231,0.67751 -3.75354,16.17029 -2.92254,-0.67852 0.67852,-2.92254 -12.457088,-2.89147 -0.678642,2.92205 -2.922041,-0.67864 -2.999919,4.6e-4 4.1e-5,-3.00004 -43.312843,9e-5 -5.2e-5,3.00004 -3.000036,-4e-5 -2.922089,0.67842 -0.67842,-2.9221 -12.457551,2.89226 0.678419,2.92209 -2.92209,0.67842 -3.754155,-16.16996 2.923093,-0.67865 z"
       sodipodi:nodetypes="ccccccccccccccccccccccc" />
    <path
       id="path1649"
       style="fill:none;stroke:#000000;stroke-width:0.264583px;stroke-linecap:butt;stroke-linejoin:miter;stroke-opacity:1"
       d="m 200.05973,174.3017 c -29.3748,5.66067 -59.56029,5.66067 -88.93509,0 l 0.678,-2.92242 -2.9223,-0.67752 3.75353,-16.17028 2.92254,0.67852 -0.67851,2.92254 12.45709,2.89146 0.67864,-2.92204 2.92205,0.67864 2.99992,-4.6e-4 -4e-5,3.00004 43.31286,-1e-4 6e-5,-3.00004 3.00003,5e-5 2.92209,-0.67842 0.67842,2.92209 12.45756,-2.89225 -0.67842,-2.9221 2.92209,-0.67842 3.75416,16.16996 -2.92309,0.67866 z"
       sodipodi:nodetypes="ccccccccccccccccccccccc" />
    <path
       id="path1651"
       style="fill:none;stroke:#000000;stroke-width:0.264583px;stroke-linecap:butt;stroke-linejoin:miter;stroke-opacity:1"
       d="m 206.37507,275.16678 c 29.37481,-5.66067 59.56029,-5.66067 88.9351,0 l -0.67801,2.92243 2.92231,0.67751 -3.75354,16.17028 -2.92254,-0.67852 0.67852,-2.92254 -12.4571,-2.89147 -0.67864,2.92205 -2.92204,-0.67864 -2.99992,4.6e-4 4e-5,-3.00004 -43.31287,9e-5 -5e-5,3.00004 -3.00004,-4e-5 -2.92209,0.67842 -0.67842,-2.9221 -12.45756,2.89226 0.67842,2.92209 -2.92209,0.67842 -3.75416,-16.16995 2.9231,-0.67865 z"
       sodipodi:nodetypes="ccccccccccccccccccccccc" />
    <path
       id="path1653"
       style="fill:none;stroke:#000000;stroke-width:0.264583px;stroke-linecap:butt;stroke-linejoin:miter;stroke-opacity:1"
       d="m 390.55985,290.71848 c -29.3748,5.66067 -59.56029,5.66067 -88.93509,0 l 0.678,-2.92243 -2.9223,-0.67752 3.75353,-16.17027 2.92254,0.67851 -0.67851,2.92255 12.45709,2.89146 0.67864,-2.92204 2.92205,0.67864 2.99992,-4.6e-4 -4e-5,3.00003 43.31286,-9e-5 6e-5,-3.00004 3.00003,5e-5 2.92209,-0.67842 0.67842,2.92209 12.45756,-2.89225 -0.67842,-2.9221 2.92209,-0.67842 3.75416,16.16995 -2.92309,0.67866 z"
       sodipodi:nodetypes="ccccccccccccccccccccccc" />
    <path
       id="path1655"
       style="fill:none;stroke:#000000;stroke-width:0.264583px;stroke-linecap:butt;stroke-linejoin:miter;stroke-opacity:1"
       d="m 206.37507,251.88343 c 29.37481,-5.66067 59.56029,-5.66067 88.9351,0 l -0.67801,2.92243 2.92231,0.67751 -3.75354,16.17028 -2.92254,-0.67852 0.67852,-2.92255 -12.4571,-2.89146 -0.67864,2.92204 -2.92204,-0.67863 -2.99992,4.6e-4 4e-5,-3.00004 -43.31287,9e-5 -5e-5,3.00004 -3.00004,-4e-5 -2.92209,0.67842 -0.67842,-2.9221 -12.45756,2.89225 0.67842,2.9221 -2.92209,0.67842 -3.75416,-16.16995 2.9231,-0.67865 z"
       sodipodi:nodetypes="ccccccccccccccccccccccc" />
    <path
       id="path1657"
       style="fill:none;stroke:#000000;stroke-width:0.264583px;stroke-linecap:butt;stroke-linejoin:miter;stroke-opacity:1"
       d="m 390.55985,267.43512 c -29.3748,5.66067 -59.56029,5.66067 -88.93509,0 l 0.678,-2.92242 -2.9223,-0.67752 3.75353,-16.17028 2.92254,0.67853 -0.67851,2.92254 12.45709,2.89147 0.67864,-2.92205 2.92205,0.67864 2.99992,-4.6e-4 -4e-5,3.00004 43.31286,-1e-4 6e-5,-3.00004 3.00003,5e-5 2.92209,-0.67842 0.67842,2.9221 12.45756,-2.89226 -0.67842,-2.9221 2.92209,-0.67842 3.75416,16.16995 -2.92309,0.67866 z"
       sodipodi:nodetypes="ccccccccccccccccccccccc" />
    <path
       id="path1659"
       style="fill:none;stroke:#000000;stroke-width:0.264583px;stroke-linecap:butt;stroke-linejoin:miter;stroke-opacity:1"
       d="m 206.37507,228.60008 c 29.37481,-5.66067 59.56029,-5.66067 88.9351,0 l -0.67801,2.92243 2.92231,0.67751 -3.75354,16.17028 -2.92254,-0.67852 0.67852,-2.92254 -12.4571,-2.89147 -0.67864,2.92205 -2.92204,-0.67864 -2.99992,4.6e-4 4e-5,-3.00004 -43.31287,9e-5 -5e-5,3.00004 -3.00004,-4e-5 -2.92209,0.67842 -0.67842,-2.9221 -12.45756,2.89226 0.67842,2.92209 -2.92209,0.67842 -3.75416,-16.16995 2.9231,-0.67865 z"
       sodipodi:nodetypes="ccccccccccccccccccccccc" />
    <path
       id="path1661"
       style="fill:none;stroke:#000000;stroke-width:0.264583px;stroke-linecap:butt;stroke-linejoin:miter;stroke-opacity:1"
       d="m 390.55985,244.15178 c -29.3748,5.66067 -59.56029,5.66067 -88.93509,0 l 0.678,-2.92243 -2.9223,-0.67752 3.75353,-16.17027 2.92254,0.67852 -0.67851,2.92254 12.45709,2.89146 0.67864,-2.92204 2.92205,0.67864 2.99992,-4.6e-4 -4e-5,3.00004 43.31286,-1e-4 6e-5,-3.00004 3.00003,5e-5 2.92209,-0.67842 0.67842,2.92209 12.45756,-2.89225 -0.67842,-2.9221 2.92209,-0.67842 3.75416,16.16996 -2.92309,0.67865 z"
       sodipodi:nodetypes="ccccccccccccccccccccccc" />
    <path
       id="path1663"
       style="fill:none;stroke:#000000;stroke-width:0.264583px;stroke-linecap:butt;stroke-linejoin:miter;stroke-opacity:1"
       d="m 206.37507,205.31672 c 29.37481,-5.66067 59.56029,-5.66067 88.9351,0 l -0.67801,2.92243 2.92231,0.67751 -3.75354,16.17029 -2.92254,-0.67852 0.67852,-2.92254 -12.4571,-2.89147 -0.67864,2.92205 -2.92204,-0.67864 -2.99992,4.6e-4 4e-5,-3.00004 -43.31287,9e-5 -5e-5,3.00004 -3.00004,-4e-5 -2.92209,0.67842 -0.67842,-2.9221 -12.45756,2.89226 0.67842,2.92209 -2.92209,0.67842 -3.75416,-16.16996 2.9231,-0.67865 z"
       sodipodi:nodetypes="ccccccccccccccccccccccc" />
    <path
       id="path1665"
       style="fill:none;stroke:#000000;stroke-width:0.264583px;stroke-linecap:butt;stroke-linejoin:miter;stroke-opacity:1"
       d="m 390.55985,220.86842 c -29.3748,5.66067 -59.56029,5.66067 -88.93509,0 l 0.678,-2.92242 -2.9223,-0.67752 3.75353,-16.17028 2.92254,0.67852 -0.67851,2.92254 12.45709,2.89146 0.67864,-2.92204 2.92205,0.67864 2.99992,-4.6e-4 -4e-5,3.00004 43.31286,-1e-4 6e-5,-3.00004 3.00003,5e-5 2.92209,-0.67842 0.67842,2.92209 12.45756,-2.89225 -0.67842,-2.9221 2.92209,-0.67842 3.75416,16.16996 -2.92309,0.67866 z"
       sodipodi:nodetypes="ccccccccccccccccccccccc" />
    <path
       id="path1667"
       style="fill:none;stroke:#000000;stroke-width:0.264583px;stroke-linecap:butt;stroke-linejoin:miter;stroke-opacity:1"
       d="m 206.37507,182.03336 c 29.37481,-5.66067 59.56029,-5.66067 88.9351,0 l -0.67801,2.92243 2.92231,0.67751 -3.75354,16.17029 -2.92254,-0.67852 0.67852,-2.92254 -12.4571,-2.89147 -0.67864,2.92205 -2.92204,-0.67864 -2.99992,4.6e-4 4e-5,-3.00004 -43.31287,9e-5 -5e-5,3.00004 -3.00004,-4e-5 -2.92209,0.67842 -0.67842,-2.9221 -12.45756,2.89226 0.67842,2.92209 -2.92209,0.67842 -3.75416,-16.16996 2.9231,-0.67865 z"
       sodipodi:nodetypes="ccccccccccccccccccccccc" />
    <path
       id="path1669"
       style="fill:none;stroke:#000000;stroke-width:0.264583px;stroke-linecap:butt;stroke-linejoin:miter;stroke-opacity:1"
       d="m 390.55985,197.58506 c -29.3748,5.66067 -59.56029,5.66067 -88.93509,0 l 0.678,-2.92242 -2.9223,-0.67752 3.75353,-16.17028 2.92254,0.67852 -0.67851,2.92254 12.45709,2.89146 0.67864,-2.92204 2.92205,0.67864 2.99992,-4.6e-4 -4e-5,3.00004 43.31286,-10e-5 6e-5,-3.00004 3.00003,5e-5 2.92209,-0.67842 0.67842,2.92209 12.45756,-2.89225 -0.67842,-2.9221 2.92209,-0.67842 3.75416,16.16996 -2.92309,0.67866 z"
       sodipodi:nodetypes="ccccccccccccccccccccccc" />
    <path
       id="path1671"
       style="fill:none;stroke:#000000;stroke-width:0.264583px;stroke-linecap:butt;stroke-linejoin:miter;stroke-opacity:1"
       d="m 206.37507,158.75 c 29.37481,-5.66067 59.56029,-5.66067 88.9351,0 l -0.67801,2.92243 2.92231,0.67751 -3.75354,16.17029 -2.92254,-0.67852 0.67852,-2.92254 -12.4571,-2.89147 -0.67864,2.92205 -2.92204,-0.67864 -2.99992,4.6e-4 4e-5,-3.00004 -43.31287,9e-5 -5e-5,3.00004 -3.00004,-4e-5 -2.92209,0.67842 -0.67842,-2.9221 -12.45756,2.89226 0.67842,2.92209 -2.92209,0.67842 -3.75416,-16.16996 2.9231,-0.67865 z"
       sodipodi:nodetypes="ccccccccccccccccccccccc" />
    <path
       id="path1673"
       style="fill:none;stroke:#000000;stroke-width:0.264583px;stroke-linecap:butt;stroke-linejoin:miter;stroke-opacity:1"
       d="m 390.55985,174.3017 c -29.3748,5.66067 -59.56029,5.66067 -88.93509,0 l 0.678,-2.92242 -2.9223,-0.67752 3.75353,-16.17028 2.92254,0.67852 -0.67851,2.92254 12.45709,2.89146 0.67864,-2.92204 2.92205,0.67864 2.99992,-4.6e-4 -4e-5,3.00004 43.31286,-1e-4 6e-5,-3.00004 3.00003,5e-5 2.92209,-0.67842 0.67842,2.92209 12.45756,-2.89225 -0.67842,-2.9221 2.92209,-0.67842 3.75416,16.16996 -2.92309,0.67866 z"
       sodipodi:nodetypes="ccccccccccccccccccccccc" />
    <path
       id="path1675"
       style="fill:none;stroke:#000000;stroke-width:0.264583px;stroke-linecap:butt;stroke-linejoin:miter;stroke-opacity:1"
       d="m 396.87519,275.16678 c 29.37481,-5.66067 59.56029,-5.66067 88.9351,0 l -0.67801,2.92243 2.92231,0.67751 -3.75354,16.17028 -2.92254,-0.67852 0.67852,-2.92254 -12.4571,-2.89147 -0.67864,2.92205 -2.92204,-0.67864 -2.99992,4.6e-4 4e-5,-3.00004 -43.31287,9e-5 -5e-5,3.00004 -3.00004,-4e-5 -2.92209,0.67842 -0.67842,-2.9221 -12.45756,2.89226 0.67842,2.92209 -2.92209,0.67842 -3.75416,-16.16995 2.9231,-0.67865 z"
       sodipodi:nodetypes="ccccccccccccccccccccccc" />
    <path
       id="path1677"
       style="fill:none;stroke:#000000;stroke-width:0.264583px;stroke-linecap:butt;stroke-linejoin:miter;stroke-opacity:1"
       d="m 581.05997,290.71848 c -29.3748,5.66067 -59.56029,5.66067 -88.93509,0 l 0.678,-2.92243 -2.9223,-0.67752 3.75353,-16.17027 2.92254,0.67851 -0.67851,2.92255 12.45709,2.89146 0.67864,-2.92204 2.92205,0.67864 2.99992,-4.6e-4 -4e-5,3.00003 43.31286,-9e-5 6e-5,-3.00004 3.00003,5e-5 2.92209,-0.67842 0.67842,2.92209 12.45756,-2.89225 -0.67842,-2.9221 2.92209,-0.67842 3.75416,16.16995 -2.92309,0.67866 z"
       sodipodi:nodetypes="ccccccccccccccccccccccc" />
    <path
       id="path1679"
       style="fill:none;stroke:#000000;stroke-width:0.264583px;stroke-linecap:butt;stroke-linejoin:miter;stroke-opacity:1"
       d="m 396.87519,251.88343 c 29.37481,-5.66067 59.56029,-5.66067 88.9351,0 l -0.67801,2.92243 2.92231,0.67751 -3.75354,16.17028 -2.92254,-0.67852 0.67852,-2.92255 -12.4571,-2.89146 -0.67864,2.92204 -2.92204,-0.67863 -2.99992,4.6e-4 4e-5,-3.00004 -43.31287,9e-5 -5e-5,3.00004 -3.00004,-4e-5 -2.92209,0.67842 -0.67842,-2.9221 -12.45756,2.89225 0.67842,2.9221 -2.92209,0.67842 -3.75416,-16.16995 2.9231,-0.67865 z"
       sodipodi:nodetypes="ccccccccccccccccccccccc" />
    <path
       id="path1681"
       style="fill:none;stroke:#000000;stroke-width:0.264583px;stroke-linecap:butt;stroke-linejoin:miter;stroke-opacity:1"
       d="m 581.05997,267.43512 c -29.3748,5.66067 -59.56029,5.66067 -88.93509,0 l 0.678,-2.92242 -2.9223,-0.67752 3.75353,-16.17028 2.92254,0.67853 -0.67851,2.92254 12.45709,2.89147 0.67864,-2.92205 2.92205,0.67864 2.99992,-4.6e-4 -4e-5,3.00004 43.31286,-1e-4 6e-5,-3.00004 3.00003,5e-5 2.92209,-0.67842 0.67842,2.9221 12.45756,-2.89226 -0.67842,-2.9221 2.92209,-0.67842 3.75416,16.16995 -2.92309,0.67866 z"
       sodipodi:nodetypes="ccccccccccccccccccccccc" />
    <path
       id="path1683"
       style="fill:none;stroke:#000000;stroke-width:0.264583px;stroke-linecap:butt;stroke-linejoin:miter;stroke-opacity:1"
       d="m 396.87519,228.60008 c 29.37481,-5.66067 59.56029,-5.66067 88.9351,0 l -0.67801,2.92243 2.92231,0.67751 -3.75354,16.17028 -2.92254,-0.67852 0.67852,-2.92254 -12.4571,-2.89147 -0.67864,2.92205 -2.92204,-0.67864 -2.99992,4.6e-4 4e-5,-3.00004 -43.31287,9e-5 -5e-5,3.00004 -3.00004,-4e-5 -2.92209,0.67842 -0.67842,-2.9221 -12.45756,2.89226 0.67842,2.92209 -2.92209,0.67842 -3.75416,-16.16995 2.9231,-0.67865 z"
       sodipodi:nodetypes="ccccccccccccccccccccccc" />
    <path
       id="path1685"
       style="fill:none;stroke:#000000;stroke-width:0.264583px;stroke-linecap:butt;stroke-linejoin:miter;stroke-opacity:1"
       d="m 581.05997,244.15178 c -29.3748,5.66067 -59.56029,5.66067 -88.93509,0 l 0.678,-2.92243 -2.9223,-0.67752 3.75353,-16.17027 2.92254,0.67852 -0.67851,2.92254 12.45709,2.89146 0.67864,-2.92204 2.92205,0.67864 2.99992,-4.6e-4 -4e-5,3.00004 43.31286,-1e-4 6e-5,-3.00004 3.00003,5e-5 2.92209,-0.67842 0.67842,2.92209 12.45756,-2.89225 -0.67842,-2.9221 2.92209,-0.67842 3.75416,16.16996 -2.92309,0.67865 z"
       sodipodi:nodetypes="ccccccccccccccccccccccc" />
    <path
       id="path1687"
       style="fill:none;stroke:#000000;stroke-width:0.264583px;stroke-linecap:butt;stroke-linejoin:miter;stroke-opacity:1"
       d="m 396.87519,205.31672 c 29.37481,-5.66067 59.56029,-5.66067 88.9351,0 l -0.67801,2.92243 2.92231,0.67751 -3.75354,16.17029 -2.92254,-0.67852 0.67852,-2.92254 -12.4571,-2.89147 -0.67864,2.92205 -2.92204,-0.67864 -2.99992,4.6e-4 4e-5,-3.00004 -43.31287,9e-5 -5e-5,3.00004 -3.00004,-4e-5 -2.92209,0.67842 -0.67842,-2.9221 -12.45756,2.89226 0.67842,2.92209 -2.92209,0.67842 -3.75416,-16.16996 2.9231,-0.67865 z"
       sodipodi:nodetypes="ccccccccccccccccccccccc" />
    <path
       id="path1689"
       style="fill:none;stroke:#000000;stroke-width:0.264583px;stroke-linecap:butt;stroke-linejoin:miter;stroke-opacity:1"
       d="m 581.05997,220.86842 c -29.3748,5.66067 -59.56029,5.66067 -88.93509,0 l 0.678,-2.92242 -2.9223,-0.67752 3.75353,-16.17028 2.92254,0.67852 -0.67851,2.92254 12.45709,2.89146 0.67864,-2.92204 2.92205,0.67864 2.99992,-4.6e-4 -4e-5,3.00004 43.31286,-1e-4 6e-5,-3.00004 3.00003,5e-5 2.92209,-0.67842 0.67842,2.92209 12.45756,-2.89225 -0.67842,-2.9221 2.92209,-0.67842 3.75416,16.16996 -2.92309,0.67866 z"
       sodipodi:nodetypes="ccccccccccccccccccccccc" />
    <path
       id="path1691"
       style="fill:none;stroke:#000000;stroke-width:0.264583px;stroke-linecap:butt;stroke-linejoin:miter;stroke-opacity:1"
       d="m 396.87519,182.03336 c 29.37481,-5.66067 59.56029,-5.66067 88.9351,0 l -0.67801,2.92243 2.92231,0.67751 -3.75354,16.17029 -2.92254,-0.67852 0.67852,-2.92254 -12.4571,-2.89147 -0.67864,2.92205 -2.92204,-0.67864 -2.99992,4.6e-4 4e-5,-3.00004 -43.31287,9e-5 -5e-5,3.00004 -3.00004,-4e-5 -2.92209,0.67842 -0.67842,-2.9221 -12.45756,2.89226 0.67842,2.92209 -2.92209,0.67842 -3.75416,-16.16996 2.9231,-0.67865 z"
       sodipodi:nodetypes="ccccccccccccccccccccccc" />
    <path
       id="path1693"
       style="fill:none;stroke:#000000;stroke-width:0.264583px;stroke-linecap:butt;stroke-linejoin:miter;stroke-opacity:1"
       d="m 581.05997,197.58506 c -29.3748,5.66067 -59.56029,5.66067 -88.93509,0 l 0.678,-2.92242 -2.9223,-0.67752 3.75353,-16.17028 2.92254,0.67852 -0.67851,2.92254 12.45709,2.89146 0.67864,-2.92204 2.92205,0.67864 2.99992,-4.6e-4 -4e-5,3.00004 43.31286,-10e-5 6e-5,-3.00004 3.00003,5e-5 2.92209,-0.67842 0.67842,2.92209 12.45756,-2.89225 -0.67842,-2.9221 2.92209,-0.67842 3.75416,16.16996 -2.92309,0.67866 z"
       sodipodi:nodetypes="ccccccccccccccccccccccc" />
    <path
       id="path1695"
       style="fill:none;stroke:#000000;stroke-width:0.264583px;stroke-linecap:butt;stroke-linejoin:miter;stroke-opacity:1"
       d="m 396.87519,158.75 c 29.37481,-5.66067 59.56029,-5.66067 88.9351,0 l -0.67801,2.92243 2.92231,0.67751 -3.75354,16.17029 -2.92254,-0.67852 0.67852,-2.92254 -12.4571,-2.89147 -0.67864,2.92205 -2.92204,-0.67864 -2.99992,4.6e-4 4e-5,-3.00004 -43.31287,9e-5 -5e-5,3.00004 -3.00004,-4e-5 -2.92209,0.67842 -0.67842,-2.9221 -12.45756,2.89226 0.67842,2.92209 -2.92209,0.67842 -3.75416,-16.16996 2.9231,-0.67865 z"
       sodipodi:nodetypes="ccccccccccccccccccccccc" />
    <path
       id="path1697"
       style="fill:none;stroke:#000000;stroke-width:0.264583px;stroke-linecap:butt;stroke-linejoin:miter;stroke-opacity:1"
       d="m 581.05997,174.3017 c -29.3748,5.66067 -59.56029,5.66067 -88.93509,0 l 0.678,-2.92242 -2.9223,-0.67752 3.75353,-16.17028 2.92254,0.67852 -0.67851,2.92254 12.45709,2.89146 0.67864,-2.92204 2.92205,0.67864 2.99992,-4.6e-4 -4e-5,3.00004 43.31286,-1e-4 6e-5,-3.00004 3.00003,5e-5 2.92209,-0.67842 0.67842,2.92209 12.45756,-2.89225 -0.67842,-2.9221 2.92209,-0.67842 3.75416,16.16996 -2.92309,0.67866 z"
       sodipodi:nodetypes="ccccccccccccccccccccccc" />
    <path
       id="path1699"
       style="fill:none;stroke:#000000;stroke-width:0.264583px;stroke-linecap:butt;stroke-linejoin:miter;stroke-opacity:1"
       d="m 15.874998,135.46668 c 29.374793,-5.66067 59.560258,-5.66067 88.935052,0 l -0.67801,2.92243 2.92231,0.67751 -3.75354,16.17028 -2.92254,-0.67852 0.67852,-2.92255 -12.457088,-2.89146 -0.678642,2.92204 -2.922041,-0.67863 -2.999919,4.6e-4 4.1e-5,-3.00004 -43.312843,9e-5 -5.2e-5,3.00004 -3.000036,-4e-5 -2.922089,0.67841 -0.67842,-2.92209 -12.457551,2.89225 0.678419,2.9221 -2.92209,0.67842 -3.754155,-16.16995 2.923093,-0.67865 z"
       sodipodi:nodetypes="ccccccccccccccccccccccc" />
    <path
       id="path1701"
       style="fill:none;stroke:#000000;stroke-width:0.264583px;stroke-linecap:butt;stroke-linejoin:miter;stroke-opacity:1"
       d="m 200.05973,151.01837 c -29.3748,5.66067 -59.56029,5.66067 -88.93509,0 l 0.678,-2.92242 -2.9223,-0.67752 3.75353,-16.17027 2.92254,0.67851 -0.67851,2.92255 12.45709,2.89146 0.67864,-2.92204 2.92205,0.67863 2.99992,-4.6e-4 -4e-5,3.00004 43.31286,-9e-5 6e-5,-3.00004 3.00003,4e-5 2.92209,-0.67841 0.67842,2.92209 12.45756,-2.89225 -0.67842,-2.9221 2.92209,-0.67842 3.75416,16.16995 -2.92309,0.67866 z"
       sodipodi:nodetypes="ccccccccccccccccccccccc" />
    <path
       id="path1703"
       style="fill:none;stroke:#000000;stroke-width:0.264583px;stroke-linecap:butt;stroke-linejoin:miter;stroke-opacity:1"
       d="m 15.874998,112.18333 c 29.374793,-5.66067 59.560258,-5.66067 88.935052,0 l -0.67801,2.92243 2.92231,0.67751 -3.75354,16.17028 -2.92254,-0.67852 0.67852,-2.92255 -12.457088,-2.89146 -0.678642,2.92204 -2.922041,-0.67863 -2.999919,4.6e-4 4.1e-5,-3.00004 -43.312843,9e-5 -5.2e-5,3.00004 -3.000036,-4e-5 -2.922089,0.67842 -0.67842,-2.9221 -12.457551,2.89225 0.678419,2.9221 -2.92209,0.67842 -3.754155,-16.16995 2.923093,-0.67865 z"
       sodipodi:nodetypes="ccccccccccccccccccccccc" />
    <path
       id="path1705"
       style="fill:none;stroke:#000000;stroke-width:0.264583px;stroke-linecap:butt;stroke-linejoin:miter;stroke-opacity:1"
       d="m 200.05973,127.73502 c -29.3748,5.66067 -59.56029,5.66067 -88.93509,0 l 0.678,-2.92243 -2.9223,-0.67751 3.75353,-16.17028 2.92254,0.67852 -0.67851,2.92255 12.45709,2.89146 0.67864,-2.92204 2.92205,0.67864 2.99992,-4.6e-4 -4e-5,3.00004 43.31286,-1e-4 6e-5,-3.00004 3.00003,5e-5 2.92209,-0.67842 0.67842,2.92209 12.45756,-2.89225 -0.67842,-2.9221 2.92209,-0.67842 3.75416,16.16995 -2.92309,0.67865 z"
       sodipodi:nodetypes="ccccccccccccccccccccccc" />
    <path
       id="path1707"
       style="fill:none;stroke:#000000;stroke-width:0.264583px;stroke-linecap:butt;stroke-linejoin:miter;stroke-opacity:1"
       d="m 15.874998,88.89999 c 29.374793,-5.660667 59.560258,-5.660667 88.935052,0 l -0.67801,2.922427 2.92231,0.67751 -3.75354,16.170273 -2.92254,-0.67852 0.67852,-2.92254 -12.457088,-2.89147 -0.678642,2.92205 -2.922041,-0.67864 -2.999919,4.6e-4 4.1e-5,-3.00004 -43.312843,9e-5 -5.2e-5,3.00004 -3.000036,-4e-5 -2.922089,0.67842 -0.67842,-2.9221 -12.457551,2.89226 0.678419,2.92209 -2.92209,0.67842 -3.754155,-16.169943 2.923093,-0.67865 z"
       sodipodi:nodetypes="ccccccccccccccccccccccc" />
    <path
       id="path1709"
       style="fill:none;stroke:#000000;stroke-width:0.264583px;stroke-linecap:butt;stroke-linejoin:miter;stroke-opacity:1"
       d="m 200.05973,104.45168 c -29.3748,5.66067 -59.56029,5.66067 -88.93509,0 l 0.678,-2.92243 -2.9223,-0.67752 3.75353,-16.170256 2.92254,0.678516 -0.67851,2.92254 12.45709,2.891457 0.67864,-2.922037 2.92205,0.67864 2.99992,-4.6e-4 -4e-5,3.000037 43.31286,-1e-4 6e-5,-3.000037 3.00003,5e-5 2.92209,-0.67842 0.67842,2.922087 12.45756,-2.892247 -0.67842,-2.9221 2.92209,-0.678416 3.75416,16.169946 -2.92309,0.67865 z"
       sodipodi:nodetypes="ccccccccccccccccccccccc" />
    <path
       id="path1711"
       style="fill:none;stroke:#000000;stroke-width:0.264583px;stroke-linecap:butt;stroke-linejoin:miter;stroke-opacity:1"
       d="m 15.874998,65.616642 c 29.374793,-5.660667 59.560258,-5.660667 88.935052,0 l -0.67801,2.922431 2.92231,0.67751 -3.75354,16.170277 -2.92254,-0.678516 0.67852,-2.922541 -12.457088,-2.891466 -0.678642,2.922046 -2.922041,-0.67864 -2.999919,4.6e-4 4.1e-5,-3.000037 -43.312843,9e-5 -5.2e-5,3.000037 -3.000036,-4e-5 -2.922089,0.67842 -0.67842,-2.922096 -12.457551,2.892256 0.678419,2.922091 -2.92209,0.678416 -3.754155,-16.169947 2.923093,-0.67865 z"
       sodipodi:nodetypes="ccccccccccccccccccccccc" />
    <path
       id="path1713"
       style="fill:none;stroke:#000000;stroke-width:0.264583px;stroke-linecap:butt;stroke-linejoin:miter;stroke-opacity:1"
       d="m 200.05973,81.168333 c -29.3748,5.660667 -59.56029,5.660667 -88.93509,0 l 0.678,-2.922417 -2.9223,-0.67752 3.75353,-16.170271 2.92254,0.67852 -0.67851,2.922537 12.45709,2.89146 0.67864,-2.92204 2.92205,0.67864 2.99992,-4.6e-4 -4e-5,3.000041 43.31286,-1e-4 6e-5,-3.000041 3.00003,5e-5 2.92209,-0.67842 0.67842,2.92209 12.45756,-2.89225 -0.67842,-2.922097 2.92209,-0.67842 3.75416,16.169951 -2.92309,0.67866 z"
       sodipodi:nodetypes="ccccccccccccccccccccccc" />
    <path
       id="path1715"
       style="fill:none;stroke:#000000;stroke-width:0.264583px;stroke-linecap:butt;stroke-linejoin:miter;stroke-opacity:1"
       d="m 15.874998,42.333298 c 29.374793,-5.660667 59.560258,-5.660667 88.935052,0 l -0.67801,2.922426 2.92231,0.67751 -3.75354,16.170281 -2.92254,-0.67852 0.67852,-2.922536 -12.457088,-2.891471 -0.678642,2.922051 -2.922041,-0.67864 -2.999919,4.6e-4 4.1e-5,-3.000041 -43.312843,9e-5 -5.2e-5,3.000041 -3.000036,-4e-5 -2.922089,0.67842 -0.67842,-2.922101 -12.457551,2.892261 0.678419,2.922086 -2.92209,0.67842 -3.754155,-16.169951 2.923093,-0.67865 z"
       sodipodi:nodetypes="ccccccccccccccccccccccc" />
    <path
       id="path1717"
       style="fill:none;stroke:#000000;stroke-width:0.264583px;stroke-linecap:butt;stroke-linejoin:miter;stroke-opacity:1"
       d="m 200.05973,57.884989 c -29.3748,5.660667 -59.56029,5.660667 -88.93509,0 l 0.678,-2.922421 -2.9223,-0.67752 3.75353,-16.170271 2.92254,0.67852 -0.67851,2.92254 12.45709,2.891457 0.67864,-2.922037 2.92205,0.678641 2.99992,-4.6e-4 -4e-5,3.000036 43.31286,-10e-5 6e-5,-3.000036 3.00003,5e-5 2.92209,-0.678421 0.67842,2.922087 12.45756,-2.892247 -0.67842,-2.9221 2.92209,-0.67842 3.75416,16.169951 -2.92309,0.67866 z"
       sodipodi:nodetypes="ccccccccccccccccccccccc" />
    <path
       id="path1719"
       style="fill:none;stroke:#000000;stroke-width:0.264583px;stroke-linecap:butt;stroke-linejoin:miter;stroke-opacity:1"
       d="m 15.874998,19.049949 c 29.374793,-5.660667 59.560258,-5.660667 88.935052,0 l -0.67801,2.922427 2.92231,0.67751 -3.75354,16.170281 -2.92254,-0.67852 0.67852,-2.922537 -12.457088,-2.891469 -0.678642,2.922049 -2.922041,-0.67864 -2.999919,4.6e-4 4.1e-5,-3.000036 -43.312843,9e-5 -5.2e-5,3.000036 -3.000036,-4e-5 -2.922089,0.67842 -0.67842,-2.922099 -12.457551,2.892259 0.678419,2.922087 -2.92209,0.67842 -3.754155,-16.169951 2.923093,-0.67865 z"
       sodipodi:nodetypes="ccccccccccccccccccccccc" />
    <path
       id="path1721"
       style="fill:none;stroke:#000000;stroke-width:0.264583px;stroke-linecap:butt;stroke-linejoin:miter;stroke-opacity:1"
       d="m 200.05973,34.60164 c -29.3748,5.660667 -59.56029,5.660667 -88.93509,0 l 0.678,-2.922416 -2.9223,-0.677521 3.75353,-16.170271 2.92254,0.678521 -0.67851,2.922536 12.45709,2.891461 0.67864,-2.922041 2.92205,0.67864 2.99992,-4.6e-4 -4e-5,3.000037 43.31286,-10e-5 6e-5,-3.000037 3.00003,5e-5 2.92209,-0.67842 0.67842,2.922091 12.45756,-2.892251 -0.67842,-2.922096 2.92209,-0.678421 3.75416,16.169951 -2.92309,0.678661 z"
       sodipodi:nodetypes="ccccccccccccccccccccccc" />
    <path
       id="path1723"
       style="fill:none;stroke:#000000;stroke-width:0.264583px;stroke-linecap:butt;stroke-linejoin:miter;stroke-opacity:1"
       d="m 206.37507,135.46668 c 29.37481,-5.66067 59.56029,-5.66067 88.9351,0 l -0.67801,2.92243 2.92231,0.67751 -3.75354,16.17028 -2.92254,-0.67852 0.67852,-2.92255 -12.4571,-2.89146 -0.67864,2.92204 -2.92204,-0.67863 -2.99992,4.6e-4 4e-5,-3.00004 -43.31287,9e-5 -5e-5,3.00004 -3.00004,-4e-5 -2.92209,0.67841 -0.67842,-2.92209 -12.45756,2.89225 0.67842,2.9221 -2.92209,0.67842 -3.75416,-16.16995 2.9231,-0.67865 z"
       sodipodi:nodetypes="ccccccccccccccccccccccc" />
    <path
       id="path1725"
       style="fill:none;stroke:#000000;stroke-width:0.264583px;stroke-linecap:butt;stroke-linejoin:miter;stroke-opacity:1"
       d="m 390.55985,151.01837 c -29.3748,5.66067 -59.56029,5.66067 -88.93509,0 l 0.678,-2.92242 -2.9223,-0.67752 3.75353,-16.17027 2.92254,0.67851 -0.67851,2.92255 12.45709,2.89146 0.67864,-2.92204 2.92205,0.67863 2.99992,-4.6e-4 -4e-5,3.00004 43.31286,-9e-5 6e-5,-3.00004 3.00003,4e-5 2.92209,-0.67841 0.67842,2.92209 12.45756,-2.89225 -0.67842,-2.9221 2.92209,-0.67842 3.75416,16.16995 -2.92309,0.67866 z"
       sodipodi:nodetypes="ccccccccccccccccccccccc" />
    <path
       id="path1727"
       style="fill:none;stroke:#000000;stroke-width:0.264583px;stroke-linecap:butt;stroke-linejoin:miter;stroke-opacity:1"
       d="m 206.37507,112.18333 c 29.37481,-5.66067 59.56029,-5.66067 88.9351,0 l -0.67801,2.92243 2.92231,0.67751 -3.75354,16.17028 -2.92254,-0.67852 0.67852,-2.92255 -12.4571,-2.89146 -0.67864,2.92204 -2.92204,-0.67863 -2.99992,4.6e-4 4e-5,-3.00004 -43.31287,9e-5 -5e-5,3.00004 -3.00004,-4e-5 -2.92209,0.67842 -0.67842,-2.9221 -12.45756,2.89225 0.67842,2.9221 -2.92209,0.67842 -3.75416,-16.16995 2.9231,-0.67865 z"
       sodipodi:nodetypes="ccccccccccccccccccccccc" />
    <path
       id="path1729"
       style="fill:none;stroke:#000000;stroke-width:0.264583px;stroke-linecap:butt;stroke-linejoin:miter;stroke-opacity:1"
       d="m 390.55985,127.73502 c -29.3748,5.66067 -59.56029,5.66067 -88.93509,0 l 0.678,-2.92243 -2.9223,-0.67751 3.75353,-16.17028 2.92254,0.67852 -0.67851,2.92255 12.45709,2.89146 0.67864,-2.92204 2.92205,0.67864 2.99992,-4.6e-4 -4e-5,3.00004 43.31286,-1e-4 6e-5,-3.00004 3.00003,5e-5 2.92209,-0.67842 0.67842,2.92209 12.45756,-2.89225 -0.67842,-2.9221 2.92209,-0.67842 3.75416,16.16995 -2.92309,0.67865 z"
       sodipodi:nodetypes="ccccccccccccccccccccccc" />
    <path
       id="path1731"
       style="fill:none;stroke:#000000;stroke-width:0.264583px;stroke-linecap:butt;stroke-linejoin:miter;stroke-opacity:1"
       d="m 206.37507,88.89999 c 29.37481,-5.660667 59.56029,-5.660667 88.9351,0 l -0.67801,2.922427 2.92231,0.67751 -3.75354,16.170273 -2.92254,-0.67852 0.67852,-2.92254 -12.4571,-2.89147 -0.67864,2.92205 -2.92204,-0.67864 -2.99992,4.6e-4 4e-5,-3.00004 -43.31287,9e-5 -5e-5,3.00004 -3.00004,-4e-5 -2.92209,0.67842 -0.67842,-2.9221 -12.45756,2.89226 0.67842,2.92209 -2.92209,0.67842 -3.75416,-16.169943 2.9231,-0.67865 z"
       sodipodi:nodetypes="ccccccccccccccccccccccc" />
    <path
       id="path1733"
       style="fill:none;stroke:#000000;stroke-width:0.264583px;stroke-linecap:butt;stroke-linejoin:miter;stroke-opacity:1"
       d="m 390.55985,104.45168 c -29.3748,5.66067 -59.56029,5.66067 -88.93509,0 l 0.678,-2.92243 -2.9223,-0.67752 3.75353,-16.170256 2.92254,0.678516 -0.67851,2.92254 12.45709,2.891457 0.67864,-2.922037 2.92205,0.67864 2.99992,-4.6e-4 -4e-5,3.000037 43.31286,-1e-4 6e-5,-3.000037 3.00003,5e-5 2.92209,-0.67842 0.67842,2.922087 12.45756,-2.892247 -0.67842,-2.9221 2.92209,-0.678416 3.75416,16.169946 -2.92309,0.67865 z"
       sodipodi:nodetypes="ccccccccccccccccccccccc" />
    <path
       id="path1735"
       style="fill:none;stroke:#000000;stroke-width:0.264583px;stroke-linecap:butt;stroke-linejoin:miter;stroke-opacity:1"
       d="m 206.37507,65.616642 c 29.37481,-5.660667 59.56029,-5.660667 88.9351,0 l -0.67801,2.922431 2.92231,0.67751 -3.75354,16.170277 -2.92254,-0.678516 0.67852,-2.922541 -12.4571,-2.891466 -0.67864,2.922046 -2.92204,-0.67864 -2.99992,4.6e-4 4e-5,-3.000037 -43.31287,9e-5 -5e-5,3.000037 -3.00004,-4e-5 -2.92209,0.67842 -0.67842,-2.922096 -12.45756,2.892256 0.67842,2.922091 -2.92209,0.678416 -3.75416,-16.169947 2.9231,-0.67865 z"
       sodipodi:nodetypes="ccccccccccccccccccccccc" />
    <path
       id="path1737"
       style="fill:none;stroke:#000000;stroke-width:0.264583px;stroke-linecap:butt;stroke-linejoin:miter;stroke-opacity:1"
       d="m 390.55985,81.168333 c -29.3748,5.660667 -59.56029,5.660667 -88.93509,0 l 0.678,-2.922417 -2.9223,-0.67752 3.75353,-16.170271 2.92254,0.67852 -0.67851,2.922537 12.45709,2.89146 0.67864,-2.92204 2.92205,0.67864 2.99992,-4.6e-4 -4e-5,3.000041 43.31286,-1e-4 6e-5,-3.000041 3.00003,5e-5 2.92209,-0.67842 0.67842,2.92209 12.45756,-2.89225 -0.67842,-2.922097 2.92209,-0.67842 3.75416,16.169951 -2.92309,0.67866 z"
       sodipodi:nodetypes="ccccccccccccccccccccccc" />
    <path
       id="path1739"
       style="fill:none;stroke:#000000;stroke-width:0.264583px;stroke-linecap:butt;stroke-linejoin:miter;stroke-opacity:1"
       d="m 206.37507,42.333298 c 29.37481,-5.660667 59.56029,-5.660667 88.9351,0 l -0.67801,2.922426 2.92231,0.67751 -3.75354,16.170281 -2.92254,-0.67852 0.67852,-2.922536 -12.4571,-2.891471 -0.67864,2.922051 -2.92204,-0.67864 -2.99992,4.6e-4 4e-5,-3.000041 -43.31287,9e-5 -5e-5,3.000041 -3.00004,-4e-5 -2.92209,0.67842 -0.67842,-2.922101 -12.45756,2.892261 0.67842,2.922086 -2.92209,0.67842 -3.75416,-16.169951 2.9231,-0.67865 z"
       sodipodi:nodetypes="ccccccccccccccccccccccc" />
    <path
       id="path1741"
       style="fill:none;stroke:#000000;stroke-width:0.264583px;stroke-linecap:butt;stroke-linejoin:miter;stroke-opacity:1"
       d="m 390.55985,57.884989 c -29.3748,5.660667 -59.56029,5.660667 -88.93509,0 l 0.678,-2.922421 -2.9223,-0.67752 3.75353,-16.170271 2.92254,0.67852 -0.67851,2.92254 12.45709,2.891457 0.67864,-2.922037 2.92205,0.678641 2.99992,-4.6e-4 -4e-5,3.000036 43.31286,-10e-5 6e-5,-3.000036 3.00003,5e-5 2.92209,-0.678421 0.67842,2.922087 12.45756,-2.892247 -0.67842,-2.9221 2.92209,-0.67842 3.75416,16.169951 -2.92309,0.67866 z"
       sodipodi:nodetypes="ccccccccccccccccccccccc" />
    <path
       id="path1743"
       style="fill:none;stroke:#000000;stroke-width:0.264583px;stroke-linecap:butt;stroke-linejoin:miter;stroke-opacity:1"
       d="m 206.37507,19.049949 c 29.37481,-5.660667 59.56029,-5.660667 88.9351,0 l -0.67801,2.922427 2.92231,0.67751 -3.75354,16.170281 -2.92254,-0.67852 0.67852,-2.922537 -12.4571,-2.891469 -0.67864,2.922049 -2.92204,-0.67864 -2.99992,4.6e-4 4e-5,-3.000036 -43.31287,9e-5 -5e-5,3.000036 -3.00004,-4e-5 -2.92209,0.67842 -0.67842,-2.922099 -12.45756,2.892259 0.67842,2.922087 -2.92209,0.67842 -3.75416,-16.169951 2.9231,-0.67865 z"
       sodipodi:nodetypes="ccccccccccccccccccccccc" />
    <path
       id="path1745"
       style="fill:none;stroke:#000000;stroke-width:0.264583px;stroke-linecap:butt;stroke-linejoin:miter;stroke-opacity:1"
       d="m 390.55985,34.60164 c -29.3748,5.660667 -59.56029,5.660667 -88.93509,0 l 0.678,-2.922416 -2.9223,-0.677521 3.75353,-16.170271 2.92254,0.678521 -0.67851,2.922536 12.45709,2.891461 0.67864,-2.922041 2.92205,0.67864 2.99992,-4.6e-4 -4e-5,3.000037 43.31286,-10e-5 6e-5,-3.000037 3.00003,5e-5 2.92209,-0.67842 0.67842,2.922091 12.45756,-2.892251 -0.67842,-2.922096 2.92209,-0.678421 3.75416,16.169951 -2.92309,0.678661 z"
       sodipodi:nodetypes="ccccccccccccccccccccccc" />
    <path
       id="path1747"
       style="fill:none;stroke:#000000;stroke-width:0.264583px;stroke-linecap:butt;stroke-linejoin:miter;stroke-opacity:1"
       d="m 396.87519,135.46668 c 29.37481,-5.66067 59.56029,-5.66067 88.9351,0 l -0.67801,2.92243 2.92231,0.67751 -3.75354,16.17028 -2.92254,-0.67852 0.67852,-2.92255 -12.4571,-2.89146 -0.67864,2.92204 -2.92204,-0.67863 -2.99992,4.6e-4 4e-5,-3.00004 -43.31287,9e-5 -5e-5,3.00004 -3.00004,-4e-5 -2.92209,0.67841 -0.67842,-2.92209 -12.45756,2.89225 0.67842,2.9221 -2.92209,0.67842 -3.75416,-16.16995 2.9231,-0.67865 z"
       sodipodi:nodetypes="ccccccccccccccccccccccc" />
    <path
       id="path1749"
       style="fill:none;stroke:#000000;stroke-width:0.264583px;stroke-linecap:butt;stroke-linejoin:miter;stroke-opacity:1"
       d="m 581.05997,151.01837 c -29.3748,5.66067 -59.56029,5.66067 -88.93509,0 l 0.678,-2.92242 -2.9223,-0.67752 3.75353,-16.17027 2.92254,0.67851 -0.67851,2.92255 12.45709,2.89146 0.67864,-2.92204 2.92205,0.67863 2.99992,-4.6e-4 -4e-5,3.00004 43.31286,-9e-5 6e-5,-3.00004 3.00003,4e-5 2.92209,-0.67841 0.67842,2.92209 12.45756,-2.89225 -0.67842,-2.9221 2.92209,-0.67842 3.75416,16.16995 -2.92309,0.67866 z"
       sodipodi:nodetypes="ccccccccccccccccccccccc" />
    <path
       id="path1751"
       style="fill:none;stroke:#000000;stroke-width:0.264583px;stroke-linecap:butt;stroke-linejoin:miter;stroke-opacity:1"
       d="m 396.87519,112.18333 c 29.37481,-5.66067 59.56029,-5.66067 88.9351,0 l -0.67801,2.92243 2.92231,0.67751 -3.75354,16.17028 -2.92254,-0.67852 0.67852,-2.92255 -12.4571,-2.89146 -0.67864,2.92204 -2.92204,-0.67863 -2.99992,4.6e-4 4e-5,-3.00004 -43.31287,9e-5 -5e-5,3.00004 -3.00004,-4e-5 -2.92209,0.67842 -0.67842,-2.9221 -12.45756,2.89225 0.67842,2.9221 -2.92209,0.67842 -3.75416,-16.16995 2.9231,-0.67865 z"
       sodipodi:nodetypes="ccccccccccccccccccccccc" />
    <path
       id="path1753"
       style="fill:none;stroke:#000000;stroke-width:0.264583px;stroke-linecap:butt;stroke-linejoin:miter;stroke-opacity:1"
       d="m 581.05997,127.73502 c -29.3748,5.66067 -59.56029,5.66067 -88.93509,0 l 0.678,-2.92243 -2.9223,-0.67751 3.75353,-16.17028 2.92254,0.67852 -0.67851,2.92255 12.45709,2.89146 0.67864,-2.92204 2.92205,0.67864 2.99992,-4.6e-4 -4e-5,3.00004 43.31286,-1e-4 6e-5,-3.00004 3.00003,5e-5 2.92209,-0.67842 0.67842,2.92209 12.45756,-2.89225 -0.67842,-2.9221 2.92209,-0.67842 3.75416,16.16995 -2.92309,0.67865 z"
       sodipodi:nodetypes="ccccccccccccccccccccccc" />
    <path
       id="path1755"
       style="fill:none;stroke:#000000;stroke-width:0.264583px;stroke-linecap:butt;stroke-linejoin:miter;stroke-opacity:1"
       d="m 396.87519,88.89999 c 29.37481,-5.660667 59.56029,-5.660667 88.9351,0 l -0.67801,2.922427 2.92231,0.67751 -3.75354,16.170273 -2.92254,-0.67852 0.67852,-2.92254 -12.4571,-2.89147 -0.67864,2.92205 -2.92204,-0.67864 -2.99992,4.6e-4 4e-5,-3.00004 -43.31287,9e-5 -5e-5,3.00004 -3.00004,-4e-5 -2.92209,0.67842 -0.67842,-2.9221 -12.45756,2.89226 0.67842,2.92209 -2.92209,0.67842 -3.75416,-16.169943 2.9231,-0.67865 z"
       sodipodi:nodetypes="ccccccccccccccccccccccc" />
    <path
       id="path1757"
       style="fill:none;stroke:#000000;stroke-width:0.264583px;stroke-linecap:butt;stroke-linejoin:miter;stroke-opacity:1"
       d="m 581.05997,104.45168 c -29.3748,5.66067 -59.56029,5.66067 -88.93509,0 l 0.678,-2.92243 -2.9223,-0.67752 3.75353,-16.170256 2.92254,0.678516 -0.67851,2.92254 12.45709,2.891457 0.67864,-2.922037 2.92205,0.67864 2.99992,-4.6e-4 -4e-5,3.000037 43.31286,-1e-4 6e-5,-3.000037 3.00003,5e-5 2.92209,-0.67842 0.67842,2.922087 12.45756,-2.892247 -0.67842,-2.9221 2.92209,-0.678416 3.75416,16.169946 -2.92309,0.67865 z"
       sodipodi:nodetypes="ccccccccccccccccccccccc" />
    <path
       id="path1759"
       style="fill:none;stroke:#000000;stroke-width:0.264583px;stroke-linecap:butt;stroke-linejoin:miter;stroke-opacity:1"
       d="m 396.87519,65.616642 c 29.37481,-5.660667 59.56029,-5.660667 88.9351,0 l -0.67801,2.922431 2.92231,0.67751 -3.75354,16.170277 -2.92254,-0.678516 0.67852,-2.922541 -12.4571,-2.891466 -0.67864,2.922046 -2.92204,-0.67864 -2.99992,4.6e-4 4e-5,-3.000037 -43.31287,9e-5 -5e-5,3.000037 -3.00004,-4e-5 -2.92209,0.67842 -0.67842,-2.922096 -12.45756,2.892256 0.67842,2.922091 -2.92209,0.678416 -3.75416,-16.169947 2.9231,-0.67865 z"
       sodipodi:nodetypes="ccccccccccccccccccccccc" />
    <path
       id="path1761"
       style="fill:none;stroke:#000000;stroke-width:0.264583px;stroke-linecap:butt;stroke-linejoin:miter;stroke-opacity:1"
       d="m 581.05997,81.168333 c -29.3748,5.660667 -59.56029,5.660667 -88.93509,0 l 0.678,-2.922417 -2.9223,-0.67752 3.75353,-16.170271 2.92254,0.67852 -0.67851,2.922537 12.45709,2.89146 0.67864,-2.92204 2.92205,0.67864 2.99992,-4.6e-4 -4e-5,3.000041 43.31286,-1e-4 6e-5,-3.000041 3.00003,5e-5 2.92209,-0.67842 0.67842,2.92209 12.45756,-2.89225 -0.67842,-2.922097 2.92209,-0.67842 3.75416,16.169951 -2.92309,0.67866 z"
       sodipodi:nodetypes="ccccccccccccccccccccccc" />
    <path
       id="path1763"
       style="fill:none;stroke:#000000;stroke-width:0.264583px;stroke-linecap:butt;stroke-linejoin:miter;stroke-opacity:1"
       d="m 396.87519,42.333298 c 29.37481,-5.660667 59.56029,-5.660667 88.9351,0 l -0.67801,2.922426 2.92231,0.67751 -3.75354,16.170281 -2.92254,-0.67852 0.67852,-2.922536 -12.4571,-2.891471 -0.67864,2.922051 -2.92204,-0.67864 -2.99992,4.6e-4 4e-5,-3.000041 -43.31287,9e-5 -5e-5,3.000041 -3.00004,-4e-5 -2.92209,0.67842 -0.67842,-2.922101 -12.45756,2.892261 0.67842,2.922086 -2.92209,0.67842 -3.75416,-16.169951 2.9231,-0.67865 z"
       sodipodi:nodetypes="ccccccccccccccccccccccc" />
    <path
       id="path1765"
       style="fill:none;stroke:#000000;stroke-width:0.264583px;stroke-linecap:butt;stroke-linejoin:miter;stroke-opacity:1"
       d="m 581.05997,57.884989 c -29.3748,5.660667 -59.56029,5.660667 -88.93509,0 l 0.678,-2.922421 -2.9223,-0.67752 3.75353,-16.170271 2.92254,0.67852 -0.67851,2.92254 12.45709,2.891457 0.67864,-2.922037 2.92205,0.678641 2.99992,-4.6e-4 -4e-5,3.000036 43.31286,-10e-5 6e-5,-3.000036 3.00003,5e-5 2.92209,-0.678421 0.67842,2.922087 12.45756,-2.892247 -0.67842,-2.9221 2.92209,-0.67842 3.75416,16.169951 -2.92309,0.67866 z"
       sodipodi:nodetypes="ccccccccccccccccccccccc" />
    <path
       id="path1767"
       style="fill:none;stroke:#000000;stroke-width:0.264583px;stroke-linecap:butt;stroke-linejoin:miter;stroke-opacity:1"
       d="m 396.87519,19.049949 c 29.37481,-5.660667 59.56029,-5.660667 88.9351,0 l -0.67801,2.922427 2.92231,0.67751 -3.75354,16.170281 -2.92254,-0.67852 0.67852,-2.922537 -12.4571,-2.891469 -0.67864,2.922049 -2.92204,-0.67864 -2.99992,4.6e-4 4e-5,-3.000036 -43.31287,9e-5 -5e-5,3.000036 -3.00004,-4e-5 -2.92209,0.67842 -0.67842,-2.922099 -12.45756,2.892259 0.67842,2.922087 -2.92209,0.67842 -3.75416,-16.169951 2.9231,-0.67865 z"
       sodipodi:nodetypes="ccccccccccccccccccccccc" />
    <path
       id="path1769"
       style="fill:none;stroke:#000000;stroke-width:0.264583px;stroke-linecap:butt;stroke-linejoin:miter;stroke-opacity:1"
       d="m 581.05997,34.60164 c -29.3748,5.660667 -59.56029,5.660667 -88.93509,0 l 0.678,-2.922416 -2.9223,-0.677521 3.75353,-16.170271 2.92254,0.678521 -0.67851,2.922536 12.45709,2.891461 0.67864,-2.922041 2.92205,0.67864 2.99992,-4.6e-4 -4e-5,3.000037 43.31286,-10e-5 6e-5,-3.000037 3.00003,5e-5 2.92209,-0.67842 0.67842,2.922091 12.45756,-2.892251 -0.67842,-2.922096 2.92209,-0.678421 3.75416,16.169951 -2.92309,0.678661 z"
       sodipodi:nodetypes="ccccccccccccccccccccccc" />
  </g>
</svg>
