<?xml version="1.0" encoding="UTF-8" standalone="no"?>
<svg
   xmlns:dc="http://purl.org/dc/elements/1.1/"
   xmlns:cc="http://creativecommons.org/ns#"
   xmlns:rdf="http://www.w3.org/1999/02/22-rdf-syntax-ns#"
   xmlns:svg="http://www.w3.org/2000/svg"
   xmlns="http://www.w3.org/2000/svg"
   xmlns:sodipodi="http://sodipodi.sourceforge.net/DTD/sodipodi-0.dtd"
   xmlns:inkscape="http://www.inkscape.org/namespaces/inkscape"
   width="600mm"
   height="400mm"
   viewBox="0 0 600 400"
   version="1.1"
   id="svg8"
   inkscape:version="1.0.2 (e86c870879, 2021-01-15)"
   sodipodi:docname="led2.svg">
  <metadata
     id="metadata43">
    <rdf:RDF>
      <cc:Work
         rdf:about="">
        <dc:format>image/svg+xml</dc:format>
        <dc:type
           rdf:resource="http://purl.org/dc/dcmitype/StillImage" />
        <dc:title></dc:title>
      </cc:Work>
    </rdf:RDF>
  </metadata>
  <defs
     id="defs41" />
  <sodipodi:namedview
     id="base"
     pagecolor="#ffffff"
     bordercolor="#666666"
     borderopacity="1.0"
     inkscape:pageopacity="0.0"
     inkscape:pageshadow="2"
     inkscape:zoom="0.0875"
     inkscape:cx="1487.3716"
     inkscape:cy="2366.2287"
     inkscape:document-units="mm"
     inkscape:current-layer="layer1"
     inkscape:document-rotation="0"
     showgrid="false"
     inkscape:snap-midpoints="false"
     inkscape:snap-smooth-nodes="false"
     inkscape:snap-global="true"
     inkscape:window-width="1364"
     inkscape:window-height="750"
     inkscape:window-x="1"
     inkscape:window-y="17"
     inkscape:window-maximized="0"
     inkscape:snap-intersection-paths="false"
     inkscape:object-paths="false"
     showguides="true"
     inkscape:guide-bbox="true"
     inkscape:snap-center="true"
     inkscape:snap-page="true"
     inkscape:object-nodes="true" />
  <g
     inkscape:label="Layer 1"
     inkscape:groupmode="layer"
     id="layer1">
    <path
       style="fill:none;fill-opacity:0.294773;stroke:#000000;stroke-width:0.2;stroke-opacity:1;paint-order:stroke fill markers"
       d="m 45.578394,379.35296 0.26892,0.0798 2.50135,-1.22886 1.32274,2.69244 0.32493,0.6614 11.85929,-5.8262 -0.32494,-0.6614 2.69246,-1.32274 -1.32275,-2.69244 -2.69244,1.32274 -2.47321,-5.03425 2.69244,-1.32274 -1.32273,-2.69245 -0.67957,-2.92205 -2.92207,0.67956 -9.81172,-42.18637 2.92184,-0.68004 -0.68003,-2.92182 -9.3e-4,-2.9998 -2.99981,9.6e-4 -0.0179,-43.3124 3.00028,-0.001 -10e-4,-3.00026 0.67728,-2.9225 -2.92297,-0.67707 9.77791,-42.19455 2.9225,0.67728 0.67727,-2.92251 1.32093,-2.69403 -2.69381,-1.32046 2.46885,-5.03594 2.69381,1.32049 1.3207,-2.69336 -14.558,-7.13714 -1.3207,2.69333 -2.69892,-1.32349 a 234.99999,234.99999 0 0 0 0,177.5979 z"
       id="path1507" />
    <path
       style="fill:none;fill-opacity:0.294773;stroke:#000000;stroke-width:0.2;stroke-opacity:1;paint-order:stroke fill markers"
       d="m 69.920094,379.35296 0.26892,0.0798 2.50135,-1.22886 1.32274,2.69244 0.32493,0.6614 11.85929,-5.8262 -0.32494,-0.6614 2.69246,-1.32274 -1.32275,-2.69244 -2.69244,1.32274 -2.47321,-5.03425 2.69244,-1.32274 -1.32273,-2.69245 -0.67957,-2.92205 -2.92207,0.67956 -9.81172,-42.18637 2.92184,-0.68004 -0.68003,-2.92182 -9.3e-4,-2.9998 -2.99981,9.6e-4 -0.0179,-43.3124 3.00028,-0.001 -10e-4,-3.00026 0.67728,-2.9225 -2.92297,-0.67707 9.77791,-42.19455 2.9225,0.67728 0.67727,-2.92251 1.32093,-2.69403 -2.69381,-1.32046 2.46885,-5.03594 2.69381,1.32049 1.3207,-2.69336 -14.558,-7.13714 -1.3207,2.69333 -2.69892,-1.32349 a 234.99999,234.99999 0 0 0 0,177.5979 z"
       id="path1505" />
    <path
       style="fill:none;fill-opacity:0.294773;stroke:#000000;stroke-width:0.2;stroke-opacity:1;paint-order:stroke fill markers"
       d="m 94.261794,379.35296 0.26892,0.0798 2.50135,-1.22886 1.32274,2.69244 0.32493,0.6614 11.859296,-5.8262 -0.32494,-0.6614 2.69247,-1.32274 -1.32276,-2.69244 -2.69244,1.32274 -2.47321,-5.03425 2.69244,-1.32274 -1.32273,-2.69245 -0.67957,-2.92205 -2.92208,0.67956 -9.811716,-42.18637 2.92184,-0.68004 -0.68003,-2.92182 -9.3e-4,-2.9998 -2.99981,9.6e-4 -0.0179,-43.3124 3.00028,-0.001 -0.001,-3.00026 0.67728,-2.9225 -2.92297,-0.67707 9.777906,-42.19455 2.92251,0.67728 0.67727,-2.92251 1.32093,-2.69403 -2.69381,-1.32046 2.46885,-5.03594 2.69381,1.32049 1.32071,-2.69336 -14.558016,-7.13714 -1.3207,2.69333 -2.69892,-1.32349 a 234.99999,234.99999 0 0 0 0,177.5979 z"
       id="path1503" />
    <path
       style="fill:none;fill-opacity:0.294773;stroke:#000000;stroke-width:0.2;stroke-opacity:1;paint-order:stroke fill markers"
       d="m 118.60353,379.35296 0.26892,0.0798 2.50135,-1.22886 1.32274,2.69244 0.32493,0.6614 11.85929,-5.8262 -0.32494,-0.6614 2.69246,-1.32274 -1.32275,-2.69244 -2.69244,1.32274 -2.47321,-5.03425 2.69244,-1.32274 -1.32273,-2.69245 -0.67957,-2.92205 -2.92207,0.67956 -9.81172,-42.18637 2.92184,-0.68004 -0.68003,-2.92182 -9.3e-4,-2.9998 -2.99981,9.6e-4 -0.0179,-43.3124 3.00028,-0.001 -10e-4,-3.00026 0.67728,-2.9225 -2.92297,-0.67707 9.77791,-42.19455 2.9225,0.67728 0.67727,-2.92251 1.32093,-2.69403 -2.69381,-1.32046 2.46885,-5.03594 2.69381,1.32049 1.3207,-2.69336 -14.558,-7.13714 -1.3207,2.69333 -2.69892,-1.32349 a 234.99999,234.99999 0 0 0 0,177.5979 z"
       id="path1501" />
    <path
       style="fill:none;fill-opacity:0.294773;stroke:#000000;stroke-width:0.2;stroke-opacity:1;paint-order:stroke fill markers"
       d="m 142.94523,379.35296 0.26892,0.0798 2.50135,-1.22886 1.32274,2.69244 0.32493,0.6614 11.85929,-5.8262 -0.32494,-0.6614 2.69246,-1.32274 -1.32275,-2.69244 -2.69244,1.32274 -2.47321,-5.03425 2.69244,-1.32274 -1.32273,-2.69245 -0.67957,-2.92205 -2.92207,0.67956 -9.81172,-42.18637 2.92184,-0.68004 -0.68003,-2.92182 -9.3e-4,-2.9998 -2.99981,9.6e-4 -0.0179,-43.3124 3.00028,-0.001 -0.001,-3.00026 0.67728,-2.9225 -2.92297,-0.67707 9.77791,-42.19455 2.9225,0.67728 0.67727,-2.92251 1.32093,-2.69403 -2.69381,-1.32046 2.46885,-5.03594 2.69381,1.32049 1.3207,-2.69336 -14.558,-7.13714 -1.3207,2.69333 -2.69892,-1.32349 a 234.99999,234.99999 0 0 0 0,177.5979 z"
       id="path1499" />
    <path
       style="fill:none;fill-opacity:0.294773;stroke:#000000;stroke-width:0.2;stroke-opacity:1;paint-order:stroke fill markers"
       d="m 167.28693,379.35296 0.26892,0.0798 2.50135,-1.22886 1.32274,2.69244 0.32493,0.66141 11.85929,-5.82621 -0.32494,-0.6614 2.69246,-1.32274 -1.32275,-2.69244 -2.69244,1.32274 -2.47321,-5.03425 2.69244,-1.32274 -1.32273,-2.69245 -0.67957,-2.92205 -2.92207,0.67956 -9.81172,-42.18637 2.92184,-0.68003 -0.68003,-2.92183 -9.3e-4,-2.9998 -2.99981,9.6e-4 -0.0179,-43.3124 3.00028,-0.001 -10e-4,-3.00026 0.67728,-2.9225 -2.92297,-0.67707 9.77791,-42.19455 2.9225,0.67728 0.67727,-2.92251 1.32093,-2.69403 -2.69381,-1.32046 2.46885,-5.03594 2.69381,1.32049 1.3207,-2.69336 -14.558,-7.13714 -1.3207,2.69333 -2.69892,-1.32349 a 234.99999,234.99999 0 0 0 0,177.5979 z"
       id="path1497" />
    <path
       style="fill:none;fill-opacity:0.294773;stroke:#000000;stroke-width:0.2;stroke-opacity:1;paint-order:stroke fill markers"
       d="m 191.62863,379.35296 0.26892,0.0798 2.50135,-1.22886 1.32274,2.69244 0.32493,0.66141 11.85929,-5.82621 -0.32494,-0.6614 2.69246,-1.32274 -1.32275,-2.69244 -2.69244,1.32274 -2.47321,-5.03425 2.69244,-1.32274 -1.32273,-2.69245 -0.67957,-2.92205 -2.92207,0.67956 -9.81172,-42.18637 2.92184,-0.68003 -0.68003,-2.92183 -9.3e-4,-2.9998 -2.99981,9.6e-4 -0.0179,-43.3124 3.00028,-0.001 -10e-4,-3.00026 0.67728,-2.9225 -2.92297,-0.67707 9.77791,-42.19455 2.9225,0.67728 0.67727,-2.92251 1.32093,-2.69403 -2.69381,-1.32046 2.46885,-5.03594 2.69381,1.32049 1.3207,-2.69336 -14.558,-7.13714 -1.3207,2.69333 -2.69892,-1.32349 a 234.99999,234.99999 0 0 0 0,177.5979 z"
       id="path1495" />
    <path
       style="fill:none;fill-opacity:0.294773;stroke:#000000;stroke-width:0.2;stroke-opacity:1;paint-order:stroke fill markers"
       d="m 215.97033,379.35296 0.26892,0.0798 2.50135,-1.22886 1.32274,2.69244 0.32493,0.66141 11.85929,-5.82621 -0.32494,-0.6614 2.69246,-1.32274 -1.32275,-2.69244 -2.69244,1.32274 -2.47321,-5.03425 2.69244,-1.32274 -1.32273,-2.69245 -0.67957,-2.92205 -2.92207,0.67956 -9.81172,-42.18637 2.92184,-0.68003 -0.68003,-2.92183 -9.3e-4,-2.9998 -2.99981,9.6e-4 -0.0179,-43.3124 3.00028,-0.001 -0.001,-3.00026 0.67728,-2.9225 -2.92297,-0.67707 9.77791,-42.19455 2.9225,0.67728 0.67727,-2.92251 1.32093,-2.69403 -2.69381,-1.32046 2.46885,-5.03594 2.69381,1.32049 1.3207,-2.69336 -14.558,-7.13714 -1.3207,2.69333 -2.69892,-1.32349 a 234.99999,234.99999 0 0 0 0,177.5979 z"
       id="path1493" />
    <path
       style="fill:none;fill-opacity:0.294773;stroke:#000000;stroke-width:0.2;stroke-opacity:1;paint-order:stroke fill markers"
       d="m 240.31203,379.35296 0.26892,0.0798 2.50135,-1.22886 1.32274,2.69244 0.32493,0.66141 11.85929,-5.82621 -0.32494,-0.6614 2.69246,-1.32274 -1.32275,-2.69244 -2.69244,1.32274 -2.47321,-5.03425 2.69244,-1.32274 -1.32273,-2.69245 -0.67957,-2.92205 -2.92207,0.67956 -9.81172,-42.18637 2.92184,-0.68003 -0.68003,-2.92183 -9.3e-4,-2.9998 -2.99981,9.6e-4 -0.0179,-43.3124 3.00028,-0.001 -0.001,-3.00026 0.67728,-2.9225 -2.92297,-0.67707 9.77791,-42.19455 2.9225,0.67728 0.67727,-2.92251 1.32093,-2.69403 -2.69381,-1.32046 2.46885,-5.03594 2.69381,1.32049 1.3207,-2.69336 -14.558,-7.13714 -1.3207,2.69333 -2.69892,-1.32349 a 234.99999,234.99999 0 0 0 0,177.5979 z"
       id="path1491" />
    <path
       style="fill:none;fill-opacity:0.294773;stroke:#000000;stroke-width:0.2;stroke-opacity:1;paint-order:stroke fill markers"
       d="m 236.67159,22.786065 -0.26892,-0.0798 -2.50135,1.22886 -1.32274,-2.69245 -0.32493,-0.661397 -11.85929,5.826204 0.32494,0.6614 -2.69246,1.32274 1.32275,2.69245 2.69244,-1.32274 2.47321,5.034237 -2.69244,1.32274 1.32273,2.692447 0.67957,2.92206 2.92207,-0.67956 9.81172,42.186366 -2.92184,0.68004 0.68003,2.921817 9.3e-4,2.999797 2.99981,-9.5e-4 0.0179,43.312404 -3.00028,0.001 0.001,3.00026 -0.67728,2.9225 2.92297,0.67707 -9.77791,42.19455 -2.9225,-0.67728 -0.67727,2.92251 -1.32093,2.69403 2.69381,1.32046 -2.46885,5.03594 -2.69381,-1.32049 -1.3207,2.69336 14.558,7.13714 1.3207,-2.69333 2.69892,1.32349 a 234.99999,234.99999 0 0 0 0,-177.597905 z"
       id="path1489" />
    <path
       style="fill:none;fill-opacity:0.294773;stroke:#000000;stroke-width:0.2;stroke-opacity:1;paint-order:stroke fill markers"
       d="m 212.32989,22.786065 -0.26892,-0.0798 -2.50135,1.22886 -1.32274,-2.69245 -0.32493,-0.661397 -11.85929,5.826204 0.32494,0.6614 -2.69246,1.32274 1.32275,2.69245 2.69244,-1.32274 2.47321,5.034237 -2.69244,1.32274 1.32273,2.692447 0.67957,2.92206 2.92207,-0.67956 9.81172,42.186366 -2.92184,0.68004 0.68003,2.921817 9.3e-4,2.999797 2.99981,-9.5e-4 0.0179,43.312404 -3.00028,0.001 0.001,3.00026 -0.67728,2.9225 2.92297,0.67707 -9.77791,42.19455 -2.9225,-0.67728 -0.67727,2.92251 -1.32093,2.69403 2.69381,1.32046 -2.46885,5.03594 -2.69381,-1.32049 -1.3207,2.69336 14.558,7.13714 1.3207,-2.69333 2.69892,1.32349 a 234.99999,234.99999 0 0 0 0,-177.597905 z"
       id="path1487" />
    <path
       style="fill:none;fill-opacity:0.294773;stroke:#000000;stroke-width:0.2;stroke-opacity:1;paint-order:stroke fill markers"
       d="m 187.98819,22.786065 -0.26892,-0.0798 -2.50135,1.22886 -1.32274,-2.69245 -0.32493,-0.661397 -11.85929,5.826204 0.32494,0.6614 -2.69246,1.32274 1.32275,2.69245 2.69244,-1.32274 2.47321,5.034237 -2.69244,1.32274 1.32273,2.692447 0.67957,2.92206 2.92207,-0.67956 9.81172,42.186366 -2.92184,0.68004 0.68003,2.921817 9.3e-4,2.999797 2.99981,-9.5e-4 0.0179,43.312404 -3.00028,0.001 0.001,3.00026 -0.67728,2.9225 2.92297,0.67707 -9.77791,42.19455 -2.9225,-0.67728 -0.67727,2.92251 -1.32093,2.69403 2.69381,1.32046 -2.46885,5.03594 -2.69381,-1.32049 -1.3207,2.69336 14.558,7.13714 1.3207,-2.69333 2.69892,1.32349 a 234.99999,234.99999 0 0 0 0,-177.597905 z"
       id="path1485" />
    <path
       style="fill:none;fill-opacity:0.294773;stroke:#000000;stroke-width:0.2;stroke-opacity:1;paint-order:stroke fill markers"
       d="m 163.64649,22.786065 -0.26892,-0.0798 -2.50135,1.22886 -1.32274,-2.69245 -0.32493,-0.661397 -11.85929,5.826204 0.32494,0.6614 -2.69246,1.32274 1.32275,2.69245 2.69244,-1.32274 2.47321,5.034237 -2.69244,1.32274 1.32273,2.692447 0.67957,2.92206 2.92207,-0.67956 9.81172,42.186366 -2.92184,0.68004 0.68003,2.921817 9.3e-4,2.999797 2.99981,-9.5e-4 0.0179,43.312404 -3.00028,0.001 0.001,3.00026 -0.67728,2.9225 2.92297,0.67707 -9.77791,42.19455 -2.9225,-0.67728 -0.67727,2.92251 -1.32093,2.69403 2.69381,1.32046 -2.46885,5.03594 -2.69381,-1.32049 -1.3207,2.69336 14.558,7.13714 1.3207,-2.69333 2.69892,1.32349 a 234.99999,234.99999 0 0 0 0,-177.597905 z"
       id="path1483" />
    <path
       style="fill:none;fill-opacity:0.294773;stroke:#000000;stroke-width:0.2;stroke-opacity:1;paint-order:stroke fill markers"
       d="m 139.30479,22.786065 -0.26892,-0.0798 -2.50135,1.22886 -1.32274,-2.69245 -0.32493,-0.661397 -11.85929,5.826204 0.32494,0.6614 -2.69246,1.32274 1.32275,2.69245 2.69244,-1.32274 2.47321,5.034237 -2.69244,1.32274 1.32273,2.692447 0.67957,2.92206 2.92207,-0.67956 9.81172,42.186366 -2.92184,0.68004 0.68003,2.921817 9.3e-4,2.999797 2.99981,-9.5e-4 0.0179,43.312404 -3.00028,0.001 0.001,3.00026 -0.67728,2.9225 2.92297,0.67707 -9.77791,42.19455 -2.9225,-0.67728 -0.67727,2.92251 -1.32093,2.69403 2.69381,1.32046 -2.46885,5.03594 -2.69381,-1.32049 -1.3207,2.69336 14.558,7.13714 1.3207,-2.69333 2.69892,1.32349 a 234.99999,234.99999 0 0 0 0,-177.597905 z"
       id="path1481" />
    <path
       style="fill:none;fill-opacity:0.294773;stroke:#000000;stroke-width:0.2;stroke-opacity:1;paint-order:stroke fill markers"
       d="m 114.96309,22.786065 -0.26892,-0.0798 -2.50135,1.22886 -1.32274,-2.69245 -0.32493,-0.661397 -11.859296,5.826194 0.32494,0.66141 -2.69246,1.32274 1.32275,2.69244 2.692436,-1.32274 2.47321,5.034247 -2.69244,1.32274 1.32273,2.692447 0.67957,2.92205 2.92207,-0.67955 9.81173,42.186366 -2.92184,0.68004 0.68003,2.921817 9.3e-4,2.999797 2.99981,-9.5e-4 0.0179,43.312404 -3.00028,0.001 10e-4,3.00026 -0.67728,2.9225 2.92297,0.67707 -9.77792,42.19455 -2.9225,-0.67728 -0.67727,2.92251 -1.32093,2.69403 2.69381,1.32046 -2.46885,5.03594 -2.693806,-1.32049 -1.3207,2.69336 14.558006,7.13714 1.3207,-2.69333 2.69892,1.32349 a 234.99999,234.99999 0 0 0 0,-177.597905 z"
       id="path1479" />
    <path
       style="fill:none;fill-opacity:0.294773;stroke:#000000;stroke-width:0.2;stroke-opacity:1;paint-order:stroke fill markers"
       d="m 90.621384,22.786065 -0.26892,-0.0798 -2.50135,1.22886 -1.32274,-2.69245 -0.32493,-0.661397 -11.85929,5.826194 0.32494,0.66141 -2.69246,1.32274 1.32275,2.69244 2.69244,-1.32274 2.47321,5.034247 -2.69244,1.32274 1.32273,2.692447 0.67957,2.92205 2.92207,-0.67955 9.81172,42.186366 -2.92184,0.68004 0.68003,2.921817 9.3e-4,2.999797 2.99981,-9.5e-4 0.0179,43.312404 -3.00028,0.001 10e-4,3.00026 -0.67728,2.9225 2.92297,0.67707 -9.77791,42.19455 -2.9225,-0.67728 -0.67727,2.92251 -1.32093,2.69403 2.69381,1.32046 -2.46885,5.03594 -2.69381,-1.32049 -1.3207,2.69336 14.558,7.13714 1.3207,-2.69333 2.69892,1.32349 a 234.99999,234.99999 0 0 0 0,-177.597905 z"
       id="path1477" />
    <path
       style="fill:none;fill-opacity:0.294773;stroke:#000000;stroke-width:0.2;stroke-opacity:1;paint-order:stroke fill markers"
       d="m 66.279684,22.786065 -0.26892,-0.0798 -2.50135,1.22886 -1.32274,-2.69245 -0.32493,-0.661397 -11.85929,5.826194 0.32494,0.66141 -2.69246,1.32274 1.32275,2.69244 2.69244,-1.32274 2.47321,5.034247 -2.69244,1.32274 1.32273,2.692447 0.67957,2.92205 2.92207,-0.67955 9.81172,42.186366 -2.92184,0.68004 0.68003,2.921817 9.3e-4,2.999797 2.99981,-9.5e-4 0.0179,43.312404 -3.00028,0.001 10e-4,3.00026 -0.67728,2.9225 2.92297,0.67707 -9.77791,42.19455 -2.9225,-0.67728 -0.67727,2.92251 -1.32093,2.69403 2.69381,1.32046 -2.46885,5.03594 -2.69381,-1.32049 -1.3207,2.69336 14.558,7.13714 1.3207,-2.69333 2.69892,1.32349 a 234.99999,234.99999 0 0 0 0,-177.597905 z"
       id="path1475" />
    <path
       style="fill:none;fill-opacity:0.294773;stroke:#000000;stroke-width:0.2;stroke-opacity:1;paint-order:stroke fill markers"
       d="m 41.937984,22.786065 -0.26892,-0.0798 -2.50135,1.22886 -1.32274,-2.69245 -0.32493,-0.661397 -11.85929,5.826194 0.32494,0.66141 -2.69246,1.32274 1.32275,2.69244 2.69244,-1.32274 2.47321,5.034247 -2.69244,1.32274 1.32273,2.692447 0.67957,2.92205 2.92207,-0.67955 9.81172,42.186366 -2.92184,0.68004 0.68003,2.921817 9.3e-4,2.999797 2.99981,-9.5e-4 0.0179,43.312404 -3.00028,0.001 0.001,3.00026 -0.67728,2.9225 2.92297,0.67707 -9.77791,42.19455 -2.9225,-0.67728 -0.67727,2.92251 -1.32093,2.69403 2.69381,1.32046 -2.46885,5.03594 -2.69381,-1.32049 -1.3207,2.69336 14.558,7.13714 1.3207,-2.69333 2.69892,1.32349 a 234.99999,234.99999 0 0 0 0,-177.597905 z"
       id="path1412" />
    <path
       style="fill:none;fill-opacity:0.294773;stroke:#000000;stroke-width:0.2;stroke-opacity:1;paint-order:stroke fill markers"
       d="m 264.65319,379.35296 0.26892,0.0798 2.50135,-1.22886 1.32274,2.69244 0.32493,0.6614 11.85929,-5.8262 -0.32494,-0.6614 2.69246,-1.32274 -1.32275,-2.69244 -2.69244,1.32274 -2.47321,-5.03425 2.69244,-1.32274 -1.32273,-2.69245 -0.67957,-2.92205 -2.92207,0.67956 -9.81172,-42.18637 2.92184,-0.68003 -0.68003,-2.92183 -9.3e-4,-2.9998 -2.99981,9.6e-4 -0.0179,-43.3124 3.00028,-0.001 -0.001,-3.00026 0.67728,-2.9225 -2.92297,-0.67707 9.77791,-42.19455 2.9225,0.67728 0.67727,-2.92251 1.32093,-2.69403 -2.69381,-1.32046 2.46885,-5.03594 2.69381,1.32049 1.3207,-2.69336 -14.558,-7.13714 -1.3207,2.69333 -2.69892,-1.32349 a 234.99999,234.99999 0 0 0 0,177.5979 z"
       id="path1529" />
    <path
       style="fill:none;fill-opacity:0.294773;stroke:#000000;stroke-width:0.2;stroke-opacity:1;paint-order:stroke fill markers"
       d="m 288.99489,379.35296 0.26892,0.0798 2.50135,-1.22886 1.32274,2.69244 0.32493,0.6614 11.85929,-5.8262 -0.32494,-0.6614 2.69246,-1.32274 -1.32275,-2.69244 -2.69244,1.32274 -2.47321,-5.03425 2.69244,-1.32274 -1.32273,-2.69245 -0.67957,-2.92205 -2.92207,0.67956 -9.81172,-42.18637 2.92184,-0.68003 -0.68003,-2.92183 -9.3e-4,-2.9998 -2.99981,9.6e-4 -0.0179,-43.3124 3.00028,-0.001 -10e-4,-3.00026 0.67728,-2.9225 -2.92297,-0.67707 9.77791,-42.19455 2.9225,0.67728 0.67727,-2.92251 1.32093,-2.69403 -2.69381,-1.32046 2.46885,-5.03594 2.69381,1.32049 1.3207,-2.69336 -14.558,-7.13714 -1.3207,2.69333 -2.69892,-1.32349 a 234.99999,234.99999 0 0 0 0,177.5979 z"
       id="path1531" />
    <path
       style="fill:none;fill-opacity:0.294773;stroke:#000000;stroke-width:0.2;stroke-opacity:1;paint-order:stroke fill markers"
       d="m 313.33659,379.35296 0.26892,0.0798 2.50135,-1.22886 1.32274,2.69244 0.32493,0.6614 11.85929,-5.8262 -0.32494,-0.6614 2.69246,-1.32274 -1.32275,-2.69244 -2.69244,1.32274 -2.47321,-5.03425 2.69244,-1.32274 -1.32273,-2.69245 -0.67957,-2.92205 -2.92207,0.67956 -9.81172,-42.18637 2.92184,-0.68003 -0.68003,-2.92183 -9.3e-4,-2.9998 -2.99981,9.6e-4 -0.0179,-43.3124 3.00028,-0.001 -10e-4,-3.00026 0.67728,-2.9225 -2.92297,-0.67707 9.77791,-42.19455 2.9225,0.67728 0.67727,-2.92251 1.32093,-2.69403 -2.69381,-1.32046 2.46885,-5.03594 2.69381,1.32049 1.3207,-2.69336 -14.558,-7.13714 -1.3207,2.69333 -2.69892,-1.32349 a 234.99999,234.99999 0 0 0 0,177.5979 z"
       id="path1533" />
    <path
       style="fill:none;fill-opacity:0.294773;stroke:#000000;stroke-width:0.2;stroke-opacity:1;paint-order:stroke fill markers"
       d="m 337.67829,379.35296 0.26892,0.0798 2.50135,-1.22886 1.32274,2.69244 0.32493,0.6614 11.85929,-5.8262 -0.32494,-0.6614 2.69246,-1.32274 -1.32275,-2.69244 -2.69244,1.32274 -2.47321,-5.03425 2.69244,-1.32274 -1.32273,-2.69245 -0.67957,-2.92205 -2.92207,0.67956 -9.81172,-42.18637 2.92184,-0.68003 -0.68003,-2.92183 -9.3e-4,-2.9998 -2.99981,9.6e-4 -0.0179,-43.3124 3.00028,-0.001 -10e-4,-3.00026 0.67728,-2.9225 -2.92297,-0.67707 9.77791,-42.19455 2.9225,0.67728 0.67727,-2.92251 1.32093,-2.69403 -2.69381,-1.32046 2.46885,-5.03594 2.69381,1.32049 1.3207,-2.69336 -14.558,-7.13714 -1.3207,2.69333 -2.69892,-1.32349 a 234.99999,234.99999 0 0 0 0,177.5979 z"
       id="path1535" />
    <path
       style="fill:none;fill-opacity:0.294773;stroke:#000000;stroke-width:0.2;stroke-opacity:1;paint-order:stroke fill markers"
       d="m 362.01999,379.35296 0.26892,0.0798 2.50135,-1.22886 1.32274,2.69244 0.32493,0.6614 11.85929,-5.8262 -0.32494,-0.6614 2.69246,-1.32274 -1.32275,-2.69244 -2.69244,1.32274 -2.47321,-5.03425 2.69244,-1.32274 -1.32273,-2.69245 -0.67957,-2.92205 -2.92207,0.67956 -9.81172,-42.18637 2.92184,-0.68003 -0.68003,-2.92183 -9.3e-4,-2.9998 -2.99981,9.6e-4 -0.0179,-43.3124 3.00028,-0.001 -10e-4,-3.00026 0.67728,-2.9225 -2.92297,-0.67707 9.77791,-42.19455 2.9225,0.67728 0.67727,-2.92251 1.32093,-2.69403 -2.69381,-1.32046 2.46885,-5.03594 2.69381,1.32049 1.3207,-2.69336 -14.558,-7.13714 -1.3207,2.69333 -2.69892,-1.32349 a 234.99999,234.99999 0 0 0 0,177.5979 z"
       id="path1537" />
    <path
       style="fill:none;fill-opacity:0.294773;stroke:#000000;stroke-width:0.2;stroke-opacity:1;paint-order:stroke fill markers"
       d="m 386.36169,379.35296 0.26892,0.0798 2.50135,-1.22886 1.32274,2.69245 0.32493,0.6614 11.85929,-5.82621 -0.32494,-0.6614 2.69246,-1.32274 -1.32275,-2.69244 -2.69244,1.32274 -2.47321,-5.03425 2.69244,-1.32274 -1.32273,-2.69245 -0.67957,-2.92205 -2.92207,0.67956 -9.81172,-42.18637 2.92184,-0.68003 -0.68003,-2.92182 -9.3e-4,-2.99981 -2.99981,9.6e-4 -0.0179,-43.3124 3.00028,-0.001 -10e-4,-3.00026 0.67728,-2.9225 -2.92297,-0.67707 9.77791,-42.19455 2.9225,0.67728 0.67727,-2.92251 1.32093,-2.69403 -2.69381,-1.32046 2.46885,-5.03594 2.69381,1.32049 1.3207,-2.69336 -14.558,-7.13714 -1.3207,2.69333 -2.69892,-1.32349 a 234.99999,234.99999 0 0 0 0,177.5979 z"
       id="path1539" />
    <path
       style="fill:none;fill-opacity:0.294773;stroke:#000000;stroke-width:0.2;stroke-opacity:1;paint-order:stroke fill markers"
       d="m 410.70339,379.35296 0.26892,0.0798 2.50135,-1.22886 1.32274,2.69245 0.32493,0.6614 11.85929,-5.82621 -0.32494,-0.6614 2.69246,-1.32274 -1.32275,-2.69244 -2.69244,1.32274 -2.47321,-5.03425 2.69244,-1.32274 -1.32273,-2.69245 -0.67957,-2.92205 -2.92207,0.67956 -9.81172,-42.18637 2.92184,-0.68003 -0.68003,-2.92182 -9.3e-4,-2.99981 -2.99981,9.6e-4 -0.0179,-43.3124 3.00028,-0.001 -10e-4,-3.00026 0.67728,-2.9225 -2.92297,-0.67707 9.77791,-42.19455 2.9225,0.67728 0.67727,-2.92251 1.32093,-2.69403 -2.69381,-1.32046 2.46885,-5.03594 2.69381,1.32049 1.3207,-2.69336 -14.558,-7.13714 -1.3207,2.69333 -2.69892,-1.32349 a 234.99999,234.99999 0 0 0 0,177.5979 z"
       id="path1541" />
    <path
       style="fill:none;fill-opacity:0.294773;stroke:#000000;stroke-width:0.2;stroke-opacity:1;paint-order:stroke fill markers"
       d="m 435.04509,379.35296 0.26892,0.0798 2.50135,-1.22886 1.32274,2.69245 0.32493,0.6614 11.85929,-5.82621 -0.32494,-0.6614 2.69246,-1.32274 -1.32275,-2.69244 -2.69244,1.32274 -2.47321,-5.03425 2.69244,-1.32274 -1.32273,-2.69245 -0.67957,-2.92205 -2.92207,0.67956 -9.81172,-42.18637 2.92184,-0.68003 -0.68003,-2.92182 -9.3e-4,-2.99981 -2.99981,9.6e-4 -0.0179,-43.3124 3.00028,-0.001 -10e-4,-3.00026 0.67728,-2.9225 -2.92297,-0.67707 9.77791,-42.19455 2.9225,0.67728 0.67727,-2.92251 1.32093,-2.69403 -2.69381,-1.32046 2.46885,-5.03594 2.69381,1.32049 1.3207,-2.69336 -14.558,-7.13714 -1.3207,2.69333 -2.69892,-1.32349 a 234.99999,234.99999 0 0 0 0,177.5979 z"
       id="path1543" />
    <path
       style="fill:none;fill-opacity:0.294773;stroke:#000000;stroke-width:0.2;stroke-opacity:1;paint-order:stroke fill markers"
       d="m 459.38679,379.35296 0.26892,0.0798 2.50135,-1.22886 1.32274,2.69245 0.32493,0.6614 11.85929,-5.82621 -0.32494,-0.6614 2.69246,-1.32274 -1.32275,-2.69244 -2.69244,1.32274 -2.47321,-5.03425 2.69244,-1.32274 -1.32273,-2.69245 -0.67957,-2.92205 -2.92207,0.67956 -9.81172,-42.18637 2.92184,-0.68003 -0.68003,-2.92182 -9.3e-4,-2.99981 -2.99981,9.6e-4 -0.0179,-43.3124 3.00028,-0.001 -10e-4,-3.00026 0.67728,-2.9225 -2.92297,-0.67707 9.77791,-42.19455 2.9225,0.67728 0.67727,-2.92251 1.32093,-2.69403 -2.69381,-1.32046 2.46885,-5.03594 2.69381,1.32049 1.3207,-2.69336 -14.558,-7.13714 -1.3207,2.69333 -2.69892,-1.32349 a 234.99999,234.99999 0 0 0 0,177.5979 z"
       id="path1545" />
    <path
       style="fill:none;fill-opacity:0.294773;stroke:#000000;stroke-width:0.2;stroke-opacity:1;paint-order:stroke fill markers"
       d="m 455.74635,22.786065 -0.26892,-0.0798 -2.50135,1.22886 -1.32274,-2.69245 -0.32493,-0.661397 -11.85929,5.826204 0.32494,0.6614 -2.69246,1.32274 1.32275,2.69245 2.69244,-1.32274 2.47321,5.034237 -2.69244,1.32274 1.32273,2.692447 0.67957,2.92206 2.92207,-0.67956 9.81172,42.186366 -2.92184,0.68004 0.68003,2.921817 9.3e-4,2.999797 2.99981,-9.5e-4 0.0179,43.312404 -3.00028,0.001 0.001,3.00026 -0.67728,2.9225 2.92297,0.67707 -9.77791,42.19455 -2.9225,-0.67728 -0.67727,2.92251 -1.32093,2.69403 2.69381,1.32046 -2.46885,5.03594 -2.69381,-1.32049 -1.3207,2.69336 14.558,7.13714 1.3207,-2.69333 2.69892,1.32349 a 234.99999,234.99999 0 0 0 0,-177.597905 z"
       id="path1547" />
    <path
       style="fill:none;fill-opacity:0.294773;stroke:#000000;stroke-width:0.2;stroke-opacity:1;paint-order:stroke fill markers"
       d="m 431.40465,22.786065 -0.26892,-0.0798 -2.50135,1.22886 -1.32274,-2.69245 -0.32493,-0.661397 -11.85929,5.826204 0.32494,0.6614 -2.69246,1.32274 1.32275,2.69245 2.69244,-1.32274 2.47321,5.034237 -2.69244,1.32274 1.32273,2.692447 0.67957,2.92206 2.92207,-0.67956 9.81172,42.186366 -2.92184,0.68004 0.68003,2.921817 9.3e-4,2.999797 2.99981,-9.5e-4 0.0179,43.312404 -3.00028,0.001 0.001,3.00026 -0.67728,2.9225 2.92297,0.67707 -9.77791,42.19455 -2.9225,-0.67728 -0.67727,2.92251 -1.32093,2.69403 2.69381,1.32046 -2.46885,5.03594 -2.69381,-1.32049 -1.3207,2.69336 14.558,7.13714 1.3207,-2.69333 2.69892,1.32349 a 234.99999,234.99999 0 0 0 0,-177.597905 z"
       id="path1549" />
    <path
       style="fill:none;fill-opacity:0.294773;stroke:#000000;stroke-width:0.2;stroke-opacity:1;paint-order:stroke fill markers"
       d="m 407.06295,22.786065 -0.26892,-0.0798 -2.50135,1.22886 -1.32274,-2.69245 -0.32493,-0.661397 -11.85929,5.826204 0.32494,0.6614 -2.69246,1.32274 1.32275,2.69245 2.69244,-1.32274 2.47321,5.034237 -2.69244,1.32274 1.32273,2.692447 0.67957,2.92206 2.92207,-0.67956 9.81172,42.186366 -2.92184,0.68004 0.68003,2.921817 9.3e-4,2.999797 2.99981,-9.5e-4 0.0179,43.312404 -3.00028,0.001 10e-4,3.00026 -0.67728,2.9225 2.92297,0.67707 -9.77791,42.19455 -2.9225,-0.67728 -0.67727,2.92251 -1.32093,2.69403 2.69381,1.32046 -2.46885,5.03594 -2.69381,-1.32049 -1.3207,2.69336 14.558,7.13714 1.3207,-2.69333 2.69892,1.32349 a 234.99999,234.99999 0 0 0 0,-177.597905 z"
       id="path1551" />
    <path
       style="fill:none;fill-opacity:0.294773;stroke:#000000;stroke-width:0.2;stroke-opacity:1;paint-order:stroke fill markers"
       d="m 382.72125,22.786065 -0.26892,-0.0798 -2.50135,1.22886 -1.32274,-2.69245 -0.32493,-0.661397 -11.85929,5.826204 0.32494,0.6614 -2.69246,1.32274 1.32275,2.69245 2.69244,-1.32274 2.47321,5.034237 -2.69244,1.32274 1.32273,2.692447 0.67957,2.92206 2.92207,-0.67956 9.81172,42.186366 -2.92184,0.68004 0.68003,2.921817 9.3e-4,2.999797 2.99981,-9.5e-4 0.0179,43.312404 -3.00028,0.001 10e-4,3.00026 -0.67728,2.9225 2.92297,0.67707 -9.77791,42.19455 -2.9225,-0.67728 -0.67727,2.92251 -1.32093,2.69403 2.69381,1.32046 -2.46885,5.03594 -2.69381,-1.32049 -1.3207,2.69336 14.558,7.13714 1.3207,-2.69333 2.69892,1.32349 a 234.99999,234.99999 0 0 0 0,-177.597905 z"
       id="path1553" />
    <path
       style="fill:none;fill-opacity:0.294773;stroke:#000000;stroke-width:0.2;stroke-opacity:1;paint-order:stroke fill markers"
       d="m 358.37955,22.786065 -0.26892,-0.0798 -2.50135,1.22886 -1.32274,-2.69245 -0.32493,-0.661397 -11.85929,5.826204 0.32494,0.6614 -2.69246,1.32274 1.32275,2.69245 2.69244,-1.32274 2.47321,5.034237 -2.69244,1.32274 1.32273,2.692447 0.67957,2.92206 2.92207,-0.67956 9.81172,42.186366 -2.92184,0.68004 0.68003,2.921817 9.3e-4,2.999797 2.99981,-9.5e-4 0.0179,43.312404 -3.00028,0.001 10e-4,3.00026 -0.67728,2.9225 2.92297,0.67707 -9.77791,42.19455 -2.9225,-0.67728 -0.67727,2.92251 -1.32093,2.69403 2.69381,1.32046 -2.46885,5.03594 -2.69381,-1.32049 -1.3207,2.69336 14.558,7.13714 1.3207,-2.69333 2.69892,1.32349 a 234.99999,234.99999 0 0 0 0,-177.597905 z"
       id="path1555" />
    <path
       style="fill:none;fill-opacity:0.294773;stroke:#000000;stroke-width:0.2;stroke-opacity:1;paint-order:stroke fill markers"
       d="m 334.03785,22.786065 -0.26892,-0.0798 -2.50135,1.22886 -1.32274,-2.69245 -0.32493,-0.661397 -11.85929,5.826194 0.32494,0.66141 -2.69246,1.32274 1.32275,2.69244 2.69244,-1.32274 2.47321,5.034247 -2.69244,1.32274 1.32273,2.692447 0.67957,2.92205 2.92207,-0.67955 9.81172,42.186366 -2.92184,0.68004 0.68003,2.921817 9.3e-4,2.999797 2.99981,-9.5e-4 0.0179,43.312404 -3.00028,0.001 10e-4,3.00026 -0.67728,2.9225 2.92297,0.67707 -9.77791,42.19455 -2.9225,-0.67728 -0.67727,2.92251 -1.32093,2.69403 2.69381,1.32046 -2.46885,5.03594 -2.69381,-1.32049 -1.3207,2.69336 14.558,7.13714 1.3207,-2.69333 2.69892,1.32349 a 234.99999,234.99999 0 0 0 0,-177.597905 z"
       id="path1557" />
    <path
       style="fill:none;fill-opacity:0.294773;stroke:#000000;stroke-width:0.2;stroke-opacity:1;paint-order:stroke fill markers"
       d="m 309.69615,22.786065 -0.26892,-0.0798 -2.50135,1.22886 -1.32274,-2.69245 -0.32493,-0.661397 -11.85929,5.826194 0.32494,0.66141 -2.69246,1.32274 1.32275,2.69244 2.69244,-1.32274 2.47321,5.034247 -2.69244,1.32274 1.32273,2.692447 0.67957,2.92205 2.92207,-0.67955 9.81172,42.186366 -2.92184,0.68004 0.68003,2.921817 9.3e-4,2.999797 2.99981,-9.5e-4 0.0179,43.312404 -3.00028,0.001 10e-4,3.00026 -0.67728,2.9225 2.92297,0.67707 -9.77791,42.19455 -2.9225,-0.67728 -0.67727,2.92251 -1.32093,2.69403 2.69381,1.32046 -2.46885,5.03594 -2.69381,-1.32049 -1.3207,2.69336 14.558,7.13714 1.3207,-2.69333 2.69892,1.32349 a 234.99999,234.99999 0 0 0 0,-177.597905 z"
       id="path1559" />
    <path
       style="fill:none;fill-opacity:0.294773;stroke:#000000;stroke-width:0.2;stroke-opacity:1;paint-order:stroke fill markers"
       d="m 285.35445,22.786065 -0.26892,-0.0798 -2.50135,1.22886 -1.32274,-2.69245 -0.32493,-0.661397 -11.85929,5.826194 0.32494,0.66141 -2.69246,1.32274 1.32275,2.69244 2.69244,-1.32274 2.47321,5.034247 -2.69244,1.32274 1.32273,2.692447 0.67957,2.92205 2.92207,-0.67955 9.81172,42.186366 -2.92184,0.68004 0.68003,2.921817 9.3e-4,2.999797 2.99981,-9.5e-4 0.0179,43.312404 -3.00028,0.001 10e-4,3.00026 -0.67728,2.9225 2.92297,0.67707 -9.77791,42.19455 -2.9225,-0.67728 -0.67727,2.92251 -1.32093,2.69403 2.69381,1.32046 -2.46885,5.03594 -2.69381,-1.32049 -1.3207,2.69336 14.558,7.13714 1.3207,-2.69333 2.69892,1.32349 a 234.99999,234.99999 0 0 0 0,-177.597905 z"
       id="path1561" />
    <path
       style="fill:none;fill-opacity:0.294773;stroke:#000000;stroke-width:0.2;stroke-opacity:1;paint-order:stroke fill markers"
       d="m 261.01275,22.786065 -0.26892,-0.0798 -2.50135,1.22886 -1.32274,-2.69245 -0.32493,-0.661397 -11.85929,5.826194 0.32494,0.66141 -2.69246,1.32274 1.32275,2.69244 2.69244,-1.32274 2.47321,5.034247 -2.69244,1.32274 1.32273,2.692447 0.67957,2.92205 2.92207,-0.67955 9.81172,42.186366 -2.92184,0.68004 0.68003,2.921817 9.3e-4,2.999797 2.99981,-9.5e-4 0.0179,43.312404 -3.00028,0.001 10e-4,3.00026 -0.67728,2.9225 2.92297,0.67707 -9.77791,42.19455 -2.9225,-0.67728 -0.67727,2.92251 -1.32093,2.69403 2.69381,1.32046 -2.46885,5.03594 -2.69381,-1.32049 -1.3207,2.69336 14.558,7.13714 1.3207,-2.69333 2.69892,1.32349 a 234.99999,234.99999 0 0 0 0,-177.597905 z"
       id="path1563" />
    <path
       style="fill:none;fill-opacity:0.294773;stroke:#000000;stroke-width:0.2;stroke-opacity:1;paint-order:stroke fill markers"
       d="m 486.90342,379.35296 0.26892,0.0798 2.50135,-1.22886 1.32274,2.69245 0.32493,0.6614 11.85929,-5.82621 -0.32494,-0.6614 2.69246,-1.32274 -1.32275,-2.69244 -2.69244,1.32274 -2.47321,-5.03425 2.69244,-1.32274 -1.32273,-2.69245 -0.67957,-2.92205 -2.92207,0.67956 -9.81172,-42.18637 2.92184,-0.68003 -0.68003,-2.92182 -9.3e-4,-2.99981 -2.99981,9.6e-4 -0.0179,-43.3124 3.00028,-0.001 -0.001,-3.00026 0.67728,-2.9225 -2.92297,-0.67707 9.77791,-42.19455 2.9225,0.67728 0.67727,-2.92251 1.32093,-2.69403 -2.69381,-1.32046 2.46885,-5.03594 2.69381,1.32049 1.3207,-2.69336 -14.558,-7.13714 -1.3207,2.69333 -2.69892,-1.32349 a 234.99999,234.99999 0 0 0 0,177.5979 z"
       id="path1603" />
    <path
       style="fill:none;fill-opacity:0.294773;stroke:#000000;stroke-width:0.2;stroke-opacity:1;paint-order:stroke fill markers"
       d="m 511.24512,379.35296 0.26892,0.0798 2.50135,-1.22886 1.32274,2.69245 0.32493,0.6614 11.85929,-5.82621 -0.32494,-0.6614 2.69246,-1.32274 -1.32275,-2.69244 -2.69244,1.32274 -2.47321,-5.03425 2.69244,-1.32274 -1.32273,-2.69245 -0.67957,-2.92205 -2.92207,0.67956 -9.81172,-42.18637 2.92184,-0.68003 -0.68003,-2.92182 -9.3e-4,-2.99981 -2.99981,9.6e-4 -0.0179,-43.3124 3.00028,-0.001 -10e-4,-3.00026 0.67728,-2.9225 -2.92297,-0.67707 9.77791,-42.19455 2.9225,0.67728 0.67727,-2.92251 1.32093,-2.69403 -2.69381,-1.32046 2.46885,-5.03594 2.69381,1.32049 1.3207,-2.69336 -14.558,-7.13714 -1.3207,2.69333 -2.69892,-1.32349 a 234.99999,234.99999 0 0 0 0,177.5979 z"
       id="path1605" />
    <path
       style="fill:none;fill-opacity:0.294773;stroke:#000000;stroke-width:0.2;stroke-opacity:1;paint-order:stroke fill markers"
       d="m 535.58682,379.35296 0.26892,0.0798 2.50135,-1.22886 1.32274,2.69245 0.32493,0.6614 11.85929,-5.82621 -0.32494,-0.6614 2.69246,-1.32274 -1.32275,-2.69244 -2.69244,1.32274 -2.47321,-5.03425 2.69244,-1.32274 -1.32273,-2.69245 -0.67957,-2.92205 -2.92207,0.67956 -9.81172,-42.18637 2.92184,-0.68003 -0.68003,-2.92182 -9.3e-4,-2.99981 -2.99981,9.6e-4 -0.0179,-43.3124 3.00028,-0.001 -10e-4,-3.00026 0.67728,-2.9225 -2.92297,-0.67707 9.77791,-42.19455 2.9225,0.67728 0.67727,-2.92251 1.32093,-2.69403 -2.69381,-1.32046 2.46885,-5.03594 2.69381,1.32049 1.3207,-2.69336 -14.558,-7.13714 -1.3207,2.69333 -2.69892,-1.32349 a 234.99999,234.99999 0 0 0 0,177.5979 z"
       id="path1607" />
    <path
       style="fill:none;fill-opacity:0.294773;stroke:#000000;stroke-width:0.2;stroke-opacity:1;paint-order:stroke fill markers"
       d="m 559.92852,379.35296 0.26892,0.0798 2.50135,-1.22886 1.32274,2.69245 0.32493,0.6614 11.85929,-5.82621 -0.32494,-0.6614 2.69246,-1.32274 -1.32275,-2.69244 -2.69244,1.32274 -2.47321,-5.03425 2.69244,-1.32274 -1.32273,-2.69245 -0.67957,-2.92205 -2.92207,0.67956 -9.81172,-42.18637 2.92184,-0.68003 -0.68003,-2.92182 -9.3e-4,-2.99981 -2.99981,9.6e-4 -0.0179,-43.3124 3.00028,-0.001 -10e-4,-3.00026 0.67728,-2.9225 -2.92297,-0.67707 9.77791,-42.19455 2.9225,0.67728 0.67727,-2.92251 1.32093,-2.69403 -2.69381,-1.32046 2.46885,-5.03594 2.69381,1.32049 1.3207,-2.69336 -14.558,-7.13714 -1.3207,2.69333 -2.69892,-1.32349 a 234.99999,234.99999 0 0 0 0,177.5979 z"
       id="path1609" />
    <path
       style="fill:none;fill-opacity:0.294773;stroke:#000000;stroke-width:0.2;stroke-opacity:1;paint-order:stroke fill markers"
       d="m 556.28808,22.786065 -0.26892,-0.0798 -2.50135,1.22886 -1.32274,-2.69245 -0.32493,-0.661397 -11.85929,5.826204 0.32494,0.6614 -2.69246,1.32274 1.32275,2.69245 2.69244,-1.32274 2.47321,5.034237 -2.69244,1.32274 1.32273,2.692447 0.67957,2.92206 2.92207,-0.67956 9.81172,42.186366 -2.92184,0.68004 0.68003,2.921817 9.3e-4,2.999797 2.99981,-9.5e-4 0.0179,43.312404 -3.00028,0.001 0.001,3.00026 -0.67728,2.9225 2.92297,0.67707 -9.77791,42.19455 -2.9225,-0.67728 -0.67727,2.92251 -1.32093,2.69403 2.69381,1.32046 -2.46885,5.03594 -2.69381,-1.32049 -1.3207,2.69336 14.558,7.13714 1.3207,-2.69333 2.69892,1.32349 a 234.99999,234.99999 0 0 0 0,-177.597905 z"
       id="path1611" />
    <path
       style="fill:none;fill-opacity:0.294773;stroke:#000000;stroke-width:0.2;stroke-opacity:1;paint-order:stroke fill markers"
       d="m 531.94638,22.786065 -0.26892,-0.0798 -2.50135,1.22886 -1.32274,-2.69245 -0.32493,-0.661397 -11.85929,5.826204 0.32494,0.6614 -2.69246,1.32274 1.32275,2.69245 2.69244,-1.32274 2.47321,5.034237 -2.69244,1.32274 1.32273,2.692447 0.67957,2.92206 2.92207,-0.67956 9.81172,42.186366 -2.92184,0.68004 0.68003,2.921817 9.3e-4,2.999797 2.99981,-9.5e-4 0.0179,43.312404 -3.00028,0.001 10e-4,3.00026 -0.67728,2.9225 2.92297,0.67707 -9.77791,42.19455 -2.9225,-0.67728 -0.67727,2.92251 -1.32093,2.69403 2.69381,1.32046 -2.46885,5.03594 -2.69381,-1.32049 -1.3207,2.69336 14.558,7.13714 1.3207,-2.69333 2.69892,1.32349 a 234.99999,234.99999 0 0 0 0,-177.597905 z"
       id="path1613" />
    <path
       style="fill:none;fill-opacity:0.294773;stroke:#000000;stroke-width:0.2;stroke-opacity:1;paint-order:stroke fill markers"
       d="m 507.60468,22.786065 -0.26892,-0.0798 -2.50135,1.22886 -1.32274,-2.69245 -0.32493,-0.661397 -11.85929,5.826204 0.32494,0.6614 -2.69246,1.32274 1.32275,2.69245 2.69244,-1.32274 2.47321,5.034237 -2.69244,1.32274 1.32273,2.692447 0.67957,2.92206 2.92207,-0.67956 9.81172,42.186366 -2.92184,0.68004 0.68003,2.921817 9.3e-4,2.999797 2.99981,-9.5e-4 0.0179,43.312404 -3.00028,0.001 10e-4,3.00026 -0.67728,2.9225 2.92297,0.67707 -9.77791,42.19455 -2.9225,-0.67728 -0.67727,2.92251 -1.32093,2.69403 2.69381,1.32046 -2.46885,5.03594 -2.69381,-1.32049 -1.3207,2.69336 14.558,7.13714 1.3207,-2.69333 2.69892,1.32349 a 234.99999,234.99999 0 0 0 0,-177.597905 z"
       id="path1615" />
    <path
       style="fill:none;fill-opacity:0.294773;stroke:#000000;stroke-width:0.2;stroke-opacity:1;paint-order:stroke fill markers"
       d="m 483.26298,22.786065 -0.26892,-0.0798 -2.50135,1.22886 -1.32274,-2.69245 -0.32493,-0.661397 -11.85929,5.826204 0.32494,0.6614 -2.69246,1.32274 1.32275,2.69245 2.69244,-1.32274 2.47321,5.034237 -2.69244,1.32274 1.32273,2.692447 0.67957,2.92206 2.92207,-0.67956 9.81172,42.186366 -2.92184,0.68004 0.68003,2.921817 9.3e-4,2.999797 2.99981,-9.5e-4 0.0179,43.312404 -3.00028,0.001 10e-4,3.00026 -0.67728,2.9225 2.92297,0.67707 -9.77791,42.19455 -2.9225,-0.67728 -0.67727,2.92251 -1.32093,2.69403 2.69381,1.32046 -2.46885,5.03594 -2.69381,-1.32049 -1.3207,2.69336 14.558,7.13714 1.3207,-2.69333 2.69892,1.32349 a 234.99999,234.99999 0 0 0 0,-177.597905 z"
       id="path1617" />
  </g>
</svg>
