<?xml version="1.0" encoding="UTF-8" standalone="no"?>
<svg
   xmlns:dc="http://purl.org/dc/elements/1.1/"
   xmlns:cc="http://creativecommons.org/ns#"
   xmlns:rdf="http://www.w3.org/1999/02/22-rdf-syntax-ns#"
   xmlns:svg="http://www.w3.org/2000/svg"
   xmlns="http://www.w3.org/2000/svg"
   xmlns:sodipodi="http://sodipodi.sourceforge.net/DTD/sodipodi-0.dtd"
   xmlns:inkscape="http://www.inkscape.org/namespaces/inkscape"
   width="600mm"
   height="400mm"
   viewBox="0 0 600 400"
   version="1.1"
   id="svg8"
   inkscape:version="1.0.2 (e86c870879, 2021-01-15)"
   sodipodi:docname="led4.svg">
  <metadata
     id="metadata43">
    <rdf:RDF>
      <cc:Work
         rdf:about="">
        <dc:format>image/svg+xml</dc:format>
        <dc:type
           rdf:resource="http://purl.org/dc/dcmitype/StillImage" />
        <dc:title />
      </cc:Work>
    </rdf:RDF>
  </metadata>
  <defs
     id="defs41" />
  <sodipodi:namedview
     id="base"
     pagecolor="#ffffff"
     bordercolor="#666666"
     borderopacity="1.0"
     inkscape:pageopacity="0.0"
     inkscape:pageshadow="2"
     inkscape:zoom="0.5"
     inkscape:cx="974.74508"
     inkscape:cy="681.44676"
     inkscape:document-units="mm"
     inkscape:current-layer="layer1"
     inkscape:document-rotation="0"
     showgrid="false"
     inkscape:snap-midpoints="false"
     inkscape:snap-smooth-nodes="true"
     inkscape:snap-global="true"
     inkscape:window-width="1364"
     inkscape:window-height="750"
     inkscape:window-x="1"
     inkscape:window-y="17"
     inkscape:window-maximized="0"
     inkscape:snap-intersection-paths="false"
     inkscape:object-paths="false"
     showguides="true"
     inkscape:guide-bbox="true"
     inkscape:snap-center="true"
     inkscape:snap-page="true"
     inkscape:object-nodes="true" />
  <g
     inkscape:label="Layer 1"
     inkscape:groupmode="layer"
     id="layer1">
    <path
       id="path1337"
       style="fill:none;stroke:#000000;stroke-width:0.264583px;stroke-linecap:butt;stroke-linejoin:miter;stroke-opacity:1"
       d="m 224.70773,190.11764 v 2.99981 h 2.99982 l 1.13843,2.77554 0.88315,-0.36225 0.71159,1.73426 -0.93018,0.38138 1.90221,4.63692 h 5.01158 v -3.00033 h -2.99981 l -1.13844,-2.77503 -1.39216,0.57103 -0.71158,-1.73426 1.43918,-0.59067 -1.9022,-4.6364 z" />
    <path
       id="path2098"
       style="fill:none;stroke:#000000;stroke-width:0.264583px;stroke-linecap:butt;stroke-linejoin:miter;stroke-opacity:1"
       d="m 163.61689,168.70144 -2.77555,1.13843 1.13844,2.77554 h -2.99982 v 1.92237 h -8.29045 v 0.5488 h 8.29045 v 0.52917 h 7.47344 z" />
    <path
       id="path1440"
       style="fill:none;stroke:#000000;stroke-width:0.999999px;stroke-linecap:butt;stroke-linejoin:miter;stroke-opacity:1"
       d="M 55.560547 139.34766 C 50.384567 139.40775 46.220155 143.62059 46.220703 148.79688 L 46.220703 158.24414 L 55.669922 158.24414 L 55.669922 175.14062 L 34.410156 175.14062 L 34.410156 269.62891 L 185.58984 269.62891 L 185.58984 175.14062 L 164.33008 175.14062 L 164.33008 158.24414 L 173.7793 158.24414 L 173.7793 148.79688 C 173.7795 143.57818 169.54883 139.34747 164.33008 139.34766 L 154.88086 139.34766 L 154.77148 139.34766 C 149.5955 139.40775 145.43109 143.62059 145.43164 148.79688 C 145.43164 148.80942 145.43354 148.82145 145.43359 148.83398 L 145.43359 158.24414 L 154.88086 158.24414 L 154.88086 175.14062 L 143.07031 175.14062 L 143.07031 250.73242 L 76.929688 250.73242 L 76.929688 175.14062 L 65.119141 175.14062 L 65.119141 158.24414 L 74.568359 158.24414 L 74.568359 148.79688 C 74.568571 143.57818 70.33789 139.34747 65.119141 139.34766 L 55.669922 139.34766 L 55.560547 139.34766 z "
       transform="scale(0.26458333)" />
    <path
       id="path1442"
       style="fill:none;stroke:#000000;stroke-width:0.999999px;stroke-linecap:butt;stroke-linejoin:miter;stroke-opacity:1"
       d="M 34.410156 70.449219 L 34.410156 127.14062 L 55.669922 127.14062 L 55.669922 110.24414 L 46.220703 110.24414 L 46.220703 100.79688 C 46.220151 95.620542 50.384567 91.407789 55.560547 91.347656 L 55.669922 91.347656 L 65.119141 91.347656 C 70.33789 91.347467 74.568571 95.578136 74.568359 100.79688 L 74.568359 110.24414 L 65.119141 110.24414 L 65.119141 127.14062 L 88.267578 127.14062 L 88.267578 191.39258 L 104.33008 191.39258 L 104.33008 176.27539 L 115.66797 176.27539 L 115.66797 191.39258 L 131.73242 191.39258 L 131.73242 127.14062 L 154.88086 127.14062 L 154.88086 110.24414 L 145.43359 110.24414 L 145.43359 100.83398 C 145.43354 100.82148 145.43164 100.80938 145.43164 100.79688 C 145.43109 95.620542 149.5955 91.407789 154.77148 91.347656 L 154.88086 91.347656 L 164.33203 91.347656 C 169.55078 91.347467 173.78146 95.578136 173.78125 100.79688 C 173.78125 100.80938 173.77935 100.82148 173.7793 100.83398 L 173.7793 110.24414 L 164.33203 110.24414 L 164.33203 127.14062 L 185.5918 127.14062 L 185.5918 70.449219 L 34.410156 70.449219 z "
       transform="scale(0.26458333)" />
    <path
       id="rect1194"
       style="fill:none;fill-opacity:0.294773;stroke:#000000;stroke-width:0.2;paint-order:stroke fill markers;stroke-miterlimit:4;stroke-dasharray:none"
       d="m 36.535817,59.502225 -1.374816,-0.79375 -10.741081,-5.04614 -1.374815,-0.79375 -1.65778,2.871359 0.25088,0.934888 11.844805,6.838602 0.871803,-0.233599 z"
       sodipodi:nodetypes="ccccccccc" />
    <path
       id="path1204"
       style="fill:none;stroke:#000000;stroke-width:0.264583px;stroke-linecap:butt;stroke-linejoin:miter;stroke-opacity:1"
       d="m 58.621231,36.869068 c -1.369478,0.0159 -2.471312,1.130546 -2.471167,2.500106 v 2.499588 h 2.500106 v 4.470526 H 53.02519 V 71.339315 H 93.024815 V 46.339288 h -5.624979 v -4.470526 h 2.500107 v -2.499588 c 5.2e-5,-1.380781 -1.119312,-2.500156 -2.500107,-2.500106 H 84.89973 84.87079 c -1.369478,0.0159 -2.471311,1.130546 -2.471166,2.500106 0,0.0033 5.03e-4,0.0065 5.16e-4,0.0098 v 2.489772 h 2.49959 v 4.470526 H 81.774856 V 66.339619 H 64.27515 V 46.339288 h -3.124874 v -4.470526 h 2.500105 v -2.499588 c 5.6e-5,-1.380781 -1.119311,-2.500156 -2.500105,-2.500106 H 58.65017 Z" />
    <path
       id="path1206"
       style="fill:none;stroke:#000000;stroke-width:0.264583px;stroke-linecap:butt;stroke-linejoin:miter;stroke-opacity:1"
       d="m 53.02519,18.639689 v 14.9996 h 5.62498 v -4.470527 h -2.500106 v -2.499588 c -1.46e-4,-1.369573 1.101689,-2.484197 2.471167,-2.500107 h 0.02894 2.500106 c 1.380794,-5e-5 2.500161,1.119314 2.500105,2.500107 v 2.499588 h -2.500105 v 4.470527 h 6.12469 v 16.999997 h 4.249871 V 46.63953 h 2.999816 v 3.999756 H 78.77504 V 33.639289 h 6.12469 V 29.168762 H 82.40014 V 26.67899 c -1.3e-5,-0.0033 -5.16e-4,-0.0065 -5.16e-4,-0.0098 -1.45e-4,-1.369573 1.101688,-2.484197 2.471166,-2.500107 h 0.02894 2.500622 c 1.380795,-5e-5 2.500162,1.119314 2.500106,2.500107 0,0.0033 -5.02e-4,0.0065 -5.15e-4,0.0098 v 2.489772 h -2.499591 v 4.470527 h 5.624981 v -14.9996 z" />
    <path
       id="path1208"
       style="fill:none;fill-opacity:0.294773;stroke:#000000;stroke-width:0.2;stroke-miterlimit:4;stroke-dasharray:none;paint-order:stroke fill markers"
       d="m 80.456654,59.502225 -1.374816,-0.79375 -10.741081,-5.04614 -1.374815,-0.79375 -1.65778,2.871359 0.25088,0.934888 11.844805,6.838602 0.871803,-0.233599 z"
       sodipodi:nodetypes="ccccccccc" />
    <path
       id="path1210"
       style="fill:none;stroke:#000000;stroke-width:0.264583px;stroke-linecap:butt;stroke-linejoin:miter;stroke-opacity:1"
       d="m 14.700395,95.077403 c -1.369478,0.0159 -2.471312,1.13055 -2.471167,2.50011 v 2.499587 h 2.500105 v 4.47052 H 9.1043537 v 25.00005 H 49.103978 V 104.54762 H 43.479 v -4.47052 h 2.500106 v -2.499587 c 5.3e-5,-1.38078 -1.119312,-2.50016 -2.500106,-2.50011 h -2.500106 -0.02894 c -1.369478,0.0159 -2.471312,1.13055 -2.471166,2.50011 0,0.003 5.02e-4,0.007 5.16e-4,0.01 v 2.489767 h 2.49959 v 4.47053 h -3.124875 v 20.00034 H 20.354313 v -20.00034 h -3.124874 v -4.47053 h 2.500106 v -2.499587 c 5.6e-5,-1.38078 -1.119312,-2.50016 -2.500106,-2.5001 h -2.500106 z" />
    <path
       id="path1212"
       style="fill:none;stroke:#000000;stroke-width:0.264583px;stroke-linecap:butt;stroke-linejoin:miter;stroke-opacity:1"
       d="m 9.1043537,76.848026 v 14.9996 h 5.6249793 v -4.470528 h -2.500105 v -2.499587 c -1.47e-4,-1.369573 1.101689,-2.484197 2.471167,-2.500107 h 0.02894 2.500106 c 1.380794,-5e-5 2.500162,1.119314 2.500106,2.500107 v 2.499587 h -2.500106 v 4.470528 H 23.35413 V 108.84763 H 27.604 v -3.99976 h 2.999817 v 3.99976 h 4.250385 V 91.847626 h 6.124692 v -4.470528 h -2.49959 v -2.489771 c -1.4e-5,-0.0033 -5.16e-4,-0.0065 -5.16e-4,-0.0098 -1.46e-4,-1.369573 1.101688,-2.484197 2.471166,-2.500107 h 0.02894 2.500622 c 1.380794,-5e-5 2.500161,1.119314 2.500106,2.500107 0,0.0033 -5.03e-4,0.0065 -5.16e-4,0.0098 v 2.489771 h -2.49959 v 4.470528 h 5.62498 v -14.9996 z" />
    <path
       id="path1214"
       style="fill:none;fill-opacity:0.294773;stroke:#000000;stroke-width:0.2;stroke-miterlimit:4;stroke-dasharray:none;paint-order:stroke fill markers"
       d="m 36.535817,117.71057 -1.374816,-0.79375 -10.741081,-5.04614 -1.374815,-0.79375 -1.65778,2.87136 0.25088,0.93488 11.844805,6.83861 0.871803,-0.2336 z"
       sodipodi:nodetypes="ccccccccc" />
    <path
       id="path1216"
       style="fill:none;stroke:#000000;stroke-width:0.264583px;stroke-linecap:butt;stroke-linejoin:miter;stroke-opacity:1"
       d="m 58.621231,95.077403 c -1.369478,0.0159 -2.471312,1.13055 -2.471167,2.50011 v 2.499587 h 2.500106 v 4.47052 h -5.62498 v 25.00005 h 39.999625 v -25.00005 h -5.624979 v -4.47052 h 2.500107 v -2.499587 c 5.2e-5,-1.38078 -1.119312,-2.50016 -2.500107,-2.50011 H 84.89973 84.87079 c -1.369478,0.0159 -2.471311,1.13055 -2.471166,2.50011 0,0.003 5.03e-4,0.007 5.16e-4,0.01 v 2.489767 h 2.49959 v 4.47053 h -3.124874 v 20.00036 H 64.27515 v -20.00035 h -3.124874 v -4.47052 h 2.500105 v -2.499587 c 5.6e-5,-1.38078 -1.119311,-2.50016 -2.500105,-2.50011 H 58.65017 Z" />
    <path
       id="path1218"
       style="fill:none;stroke:#000000;stroke-width:0.264583px;stroke-linecap:butt;stroke-linejoin:miter;stroke-opacity:1"
       d="m 53.02519,76.848026 v 14.9996 h 5.62498 v -4.470527 h -2.500106 v -2.499588 c -1.46e-4,-1.369573 1.101689,-2.484197 2.471167,-2.500107 h 0.02894 2.500106 c 1.380794,-5e-5 2.500161,1.119314 2.500105,2.500107 v 2.499588 h -2.500105 v 4.470527 h 6.12469 v 17.000004 h 4.249871 v -3.99976 h 2.999816 v 3.99976 H 78.77504 V 91.847626 h 6.12469 v -4.470527 h -2.49959 v -2.489772 c -1.3e-5,-0.0033 -5.16e-4,-0.0065 -5.16e-4,-0.0098 -1.45e-4,-1.369573 1.101688,-2.484197 2.471166,-2.500107 h 0.02894 2.500622 c 1.380795,-5e-5 2.500162,1.119314 2.500106,2.500107 0,0.0033 -5.02e-4,0.0065 -5.15e-4,0.0098 v 2.489772 h -2.499591 v 4.470527 h 5.624981 v -14.9996 z" />
    <path
       id="path1220"
       style="fill:none;fill-opacity:0.294773;stroke:#000000;stroke-width:0.2;stroke-miterlimit:4;stroke-dasharray:none;paint-order:stroke fill markers"
       d="m 80.456654,117.71057 -1.374816,-0.79375 -10.741081,-5.04614 -1.374815,-0.79375 -1.65778,2.87136 0.25088,0.93488 11.844805,6.83861 0.871803,-0.2336 z"
       sodipodi:nodetypes="ccccccccc" />
    <path
       id="path1222"
       style="fill:none;stroke:#000000;stroke-width:0.264583px;stroke-linecap:butt;stroke-linejoin:miter;stroke-opacity:1"
       d="m 14.700395,153.28577 c -1.369478,0.0159 -2.471312,1.13055 -2.471167,2.50011 v 2.49959 h 2.500105 v 4.47052 H 9.1043537 v 25.00005 H 49.103978 V 162.75599 H 43.479 v -4.47052 h 2.500106 v -2.49959 c 5.3e-5,-1.38078 -1.119312,-2.50016 -2.500106,-2.50011 h -2.500106 -0.02894 c -1.369478,0.0159 -2.471312,1.13055 -2.471166,2.50011 0,0.003 5.02e-4,0.007 5.16e-4,0.01 v 2.48977 h 2.49959 v 4.47053 h -3.124875 v 20.00034 H 20.354313 v -20.00034 h -3.124874 v -4.47053 h 2.500106 v -2.49959 c 5.6e-5,-1.38078 -1.119312,-2.50016 -2.500106,-2.5001 h -2.500106 z" />
    <path
       id="path1224"
       style="fill:none;stroke:#000000;stroke-width:0.264583px;stroke-linecap:butt;stroke-linejoin:miter;stroke-opacity:1"
       d="m 9.1043537,135.05638 v 14.99961 h 5.6249793 v -4.47053 h -2.500105 v -2.49959 c -1.47e-4,-1.36957 1.101689,-2.4842 2.471167,-2.50011 h 0.02894 2.500106 c 1.380794,-5e-5 2.500162,1.11932 2.500106,2.50011 v 2.49959 h -2.500106 v 4.47053 H 23.35413 V 167.056 H 27.604 v -3.99976 h 2.999817 v 3.99976 h 4.250385 v -17.00001 h 6.124692 v -4.47053 h -2.49959 v -2.48977 c -1.4e-5,-0.003 -5.16e-4,-0.007 -5.16e-4,-0.01 -1.46e-4,-1.36958 1.101688,-2.4842 2.471166,-2.50011 h 0.02894 2.500622 c 1.380794,-5e-5 2.500161,1.11931 2.500106,2.50011 0,0.003 -5.03e-4,0.007 -5.16e-4,0.01 v 2.48977 h -2.49959 v 4.47053 h 5.62498 v -14.99961 z" />
    <path
       id="path1228"
       style="fill:none;stroke:#000000;stroke-width:0.264583px;stroke-linecap:butt;stroke-linejoin:miter;stroke-opacity:1"
       d="m 58.621231,153.28577 c -1.369478,0.0159 -2.471312,1.13055 -2.471167,2.50011 v 2.49959 h 2.500106 v 4.47052 h -5.62498 v 25.00005 h 39.999625 v -25.00005 h -5.624979 v -4.47052 h 2.500107 v -2.49959 c 5.2e-5,-1.38078 -1.119312,-2.50016 -2.500107,-2.50011 H 84.89973 84.87079 c -1.369478,0.0159 -2.471311,1.13055 -2.471166,2.50011 0,0.003 5.03e-4,0.007 5.16e-4,0.01 v 2.48977 h 2.49959 v 4.47053 h -3.124874 v 20.00036 H 64.27515 v -20.00035 h -3.124874 v -4.47052 h 2.500105 v -2.49959 c 5.6e-5,-1.38078 -1.119311,-2.50016 -2.500105,-2.50011 H 58.65017 Z" />
    <path
       id="path1230"
       style="fill:none;stroke:#000000;stroke-width:0.264583px;stroke-linecap:butt;stroke-linejoin:miter;stroke-opacity:1"
       d="m 53.02519,135.05638 v 14.99961 h 5.62498 v -4.47053 h -2.500106 v -2.49959 c -1.46e-4,-1.36957 1.101689,-2.4842 2.471167,-2.50011 h 0.02894 2.500106 c 1.380794,-5e-5 2.500161,1.11932 2.500105,2.50011 v 2.49959 h -2.500105 v 4.47053 h 6.12469 V 167.056 h 4.249871 v -3.99976 h 2.999816 v 3.99976 h 4.250386 v -17.00001 h 6.12469 v -4.47053 h -2.49959 v -2.48977 c -1.3e-5,-0.003 -5.16e-4,-0.007 -5.16e-4,-0.01 -1.45e-4,-1.36958 1.101688,-2.4842 2.471166,-2.50011 h 0.02894 2.500622 c 1.380795,-5e-5 2.500162,1.11931 2.500106,2.50011 0,0.003 -5.02e-4,0.007 -5.15e-4,0.01 v 2.48977 h -2.499591 v 4.47053 h 5.624981 v -14.99961 z" />
    <path
       id="path1158"
       style="fill:none;stroke:#000000;stroke-width:0.264583px;stroke-linecap:butt;stroke-linejoin:miter;stroke-opacity:1"
       d="m 153.59099,173.45877 2.77555,-1.13843 -1.13844,-2.77554 h 2.99982 v -1.92237 h 8.29045 v -0.5488 h -8.29045 v -0.52917 h -7.47344 z" />
    <path
       id="path1160"
       style="fill:none;stroke:#000000;stroke-width:0.264583px;stroke-linecap:butt;stroke-linejoin:miter;stroke-opacity:1"
       d="m 180.55021,168.70144 -2.77555,1.13843 1.13844,2.77554 h -2.99982 v 1.92237 h -8.29045 v 0.5488 h 8.29045 v 0.52917 h 7.47344 z" />
    <path
       id="path1162"
       style="fill:none;stroke:#000000;stroke-width:0.264583px;stroke-linecap:butt;stroke-linejoin:miter;stroke-opacity:1"
       d="m 170.52431,173.45877 2.77555,-1.13843 -1.13844,-2.77554 h 2.99982 v -1.92237 h 8.29045 v -0.5488 h -8.29045 v -0.52917 h -7.47344 z" />
    <path
       id="path1164"
       style="fill:none;stroke:#000000;stroke-width:0.264583px;stroke-linecap:butt;stroke-linejoin:miter;stroke-opacity:1"
       d="m 163.61689,158.1181 -2.77555,1.13843 1.13844,2.77554 h -2.99982 v 1.92237 h -8.29045 v 0.5488 h 8.29045 v 0.52917 h 7.47344 z" />
    <path
       id="path1166"
       style="fill:none;stroke:#000000;stroke-width:0.264583px;stroke-linecap:butt;stroke-linejoin:miter;stroke-opacity:1"
       d="m 153.59099,162.87543 2.77555,-1.13843 -1.13844,-2.77554 h 2.99982 v -1.92237 h 8.29045 v -0.5488 h -8.29045 v -0.52917 h -7.47344 z" />
    <path
       id="path1168"
       style="fill:none;stroke:#000000;stroke-width:0.264583px;stroke-linecap:butt;stroke-linejoin:miter;stroke-opacity:1"
       d="m 180.55021,158.1181 -2.77555,1.13843 1.13844,2.77554 h -2.99982 v 1.92237 h -8.29045 v 0.5488 h 8.29045 v 0.52917 h 7.47344 z" />
    <path
       id="path1170"
       style="fill:none;stroke:#000000;stroke-width:0.264583px;stroke-linecap:butt;stroke-linejoin:miter;stroke-opacity:1"
       d="m 170.52431,162.87543 2.77555,-1.13843 -1.13844,-2.77554 h 2.99982 v -1.92237 h 8.29045 v -0.5488 h -8.29045 v -0.52917 h -7.47344 z" />
    <path
       id="path1172"
       style="fill:none;stroke:#000000;stroke-width:0.264583px;stroke-linecap:butt;stroke-linejoin:miter;stroke-opacity:1"
       d="m 163.61689,189.86812 -2.77555,1.13843 1.13844,2.77554 h -2.99982 v 1.92237 h -8.29045 v 0.5488 h 8.29045 v 0.52917 h 7.47344 z" />
    <path
       id="path1174"
       style="fill:none;stroke:#000000;stroke-width:0.264583px;stroke-linecap:butt;stroke-linejoin:miter;stroke-opacity:1"
       d="m 153.59099,194.62545 2.77555,-1.13843 -1.13844,-2.77554 h 2.99982 v -1.92237 h 8.29045 v -0.5488 h -8.29045 v -0.52917 h -7.47344 z" />
    <path
       id="path1176"
       style="fill:none;stroke:#000000;stroke-width:0.264583px;stroke-linecap:butt;stroke-linejoin:miter;stroke-opacity:1"
       d="m 180.55021,189.86812 -2.77555,1.13843 1.13844,2.77554 h -2.99982 v 1.92237 h -8.29045 v 0.5488 h 8.29045 v 0.52917 h 7.47344 z" />
    <path
       id="path1178"
       style="fill:none;stroke:#000000;stroke-width:0.264583px;stroke-linecap:butt;stroke-linejoin:miter;stroke-opacity:1"
       d="m 170.52431,194.62545 2.77555,-1.13843 -1.13844,-2.77554 h 2.99982 v -1.92237 h 8.29045 v -0.5488 h -8.29045 v -0.52917 h -7.47344 z" />
    <path
       id="path1180"
       style="fill:none;stroke:#000000;stroke-width:0.264583px;stroke-linecap:butt;stroke-linejoin:miter;stroke-opacity:1"
       d="m 163.61689,179.28478 -2.77555,1.13843 1.13844,2.77554 h -2.99982 v 1.92237 h -8.29045 v 0.5488 h 8.29045 v 0.52917 h 7.47344 z" />
    <path
       id="path1182"
       style="fill:none;stroke:#000000;stroke-width:0.264583px;stroke-linecap:butt;stroke-linejoin:miter;stroke-opacity:1"
       d="m 153.59099,184.04211 2.77555,-1.13843 -1.13844,-2.77554 h 2.99982 v -1.92237 h 8.29045 v -0.5488 h -8.29045 v -0.52917 h -7.47344 z" />
    <path
       id="path1184"
       style="fill:none;stroke:#000000;stroke-width:0.264583px;stroke-linecap:butt;stroke-linejoin:miter;stroke-opacity:1"
       d="m 180.55021,179.28478 -2.77555,1.13843 1.13844,2.77554 h -2.99982 v 1.92237 h -8.29045 v 0.5488 h 8.29045 v 0.52917 h 7.47344 z" />
    <path
       id="path1186"
       style="fill:none;stroke:#000000;stroke-width:0.264583px;stroke-linecap:butt;stroke-linejoin:miter;stroke-opacity:1"
       d="m 170.52431,184.04211 2.77555,-1.13843 -1.13844,-2.77554 h 2.99982 v -1.92237 h 8.29045 v -0.5488 h -8.29045 v -0.52917 h -7.47344 z" />
    <path
       id="path1188"
       style="fill:none;stroke:#000000;stroke-width:0.264583px;stroke-linecap:butt;stroke-linejoin:miter;stroke-opacity:1"
       d="m 163.61689,211.0348 -2.77555,1.13843 1.13844,2.77554 h -2.99982 v 1.92237 h -8.29045 v 0.5488 h 8.29045 v 0.52917 h 7.47344 z" />
    <path
       id="path1190"
       style="fill:none;stroke:#000000;stroke-width:0.264583px;stroke-linecap:butt;stroke-linejoin:miter;stroke-opacity:1"
       d="m 153.59099,215.79213 2.77555,-1.13843 -1.13844,-2.77554 h 2.99982 v -1.92237 h 8.29045 v -0.5488 h -8.29045 v -0.52917 h -7.47344 z" />
    <path
       id="path1192"
       style="fill:none;stroke:#000000;stroke-width:0.264583px;stroke-linecap:butt;stroke-linejoin:miter;stroke-opacity:1"
       d="m 180.55021,211.0348 -2.77555,1.13843 1.13844,2.77554 h -2.99982 v 1.92237 h -8.29045 v 0.5488 h 8.29045 v 0.52917 h 7.47344 z" />
    <path
       id="path1194"
       style="fill:none;stroke:#000000;stroke-width:0.264583px;stroke-linecap:butt;stroke-linejoin:miter;stroke-opacity:1"
       d="m 170.52431,215.79213 2.77555,-1.13843 -1.13844,-2.77554 h 2.99982 v -1.92237 h 8.29045 v -0.5488 h -8.29045 v -0.52917 h -7.47344 z" />
    <path
       id="path1196"
       style="fill:none;stroke:#000000;stroke-width:0.264583px;stroke-linecap:butt;stroke-linejoin:miter;stroke-opacity:1"
       d="m 163.61689,200.45146 -2.77555,1.13843 1.13844,2.77554 h -2.99982 v 1.92237 h -8.29045 v 0.5488 h 8.29045 v 0.52917 h 7.47344 z" />
    <path
       id="path1198"
       style="fill:none;stroke:#000000;stroke-width:0.264583px;stroke-linecap:butt;stroke-linejoin:miter;stroke-opacity:1"
       d="m 153.59099,205.20879 2.77555,-1.13843 -1.13844,-2.77554 h 2.99982 v -1.92237 h 8.29045 v -0.5488 h -8.29045 v -0.52917 h -7.47344 z" />
    <path
       id="path1200"
       style="fill:none;stroke:#000000;stroke-width:0.264583px;stroke-linecap:butt;stroke-linejoin:miter;stroke-opacity:1"
       d="m 180.55021,200.45146 -2.77555,1.13843 1.13844,2.77554 h -2.99982 v 1.92237 h -8.29045 v 0.5488 h 8.29045 v 0.52917 h 7.47344 z" />
    <path
       id="path1202"
       style="fill:none;stroke:#000000;stroke-width:0.264583px;stroke-linecap:butt;stroke-linejoin:miter;stroke-opacity:1"
       d="m 170.52431,205.20879 2.77555,-1.13843 -1.13844,-2.77554 h 2.99982 v -1.92237 h 8.29045 v -0.5488 h -8.29045 v -0.52917 h -7.47344 z" />
    <path
       id="path1205"
       style="fill:none;stroke:#000000;stroke-width:0.264583px;stroke-linecap:butt;stroke-linejoin:miter;stroke-opacity:1"
       d="m 163.61689,232.20148 -2.77555,1.13843 1.13844,2.77554 h -2.99982 v 1.92237 h -8.29045 v 0.5488 h 8.29045 v 0.52917 h 7.47344 z" />
    <path
       id="path1207"
       style="fill:none;stroke:#000000;stroke-width:0.264583px;stroke-linecap:butt;stroke-linejoin:miter;stroke-opacity:1"
       d="m 153.59099,236.95881 2.77555,-1.13843 -1.13844,-2.77554 h 2.99982 v -1.92237 h 8.29045 v -0.5488 h -8.29045 v -0.52917 h -7.47344 z" />
    <path
       id="path1209"
       style="fill:none;stroke:#000000;stroke-width:0.264583px;stroke-linecap:butt;stroke-linejoin:miter;stroke-opacity:1"
       d="m 180.55021,232.20148 -2.77555,1.13843 1.13844,2.77554 h -2.99982 v 1.92237 h -8.29045 v 0.5488 h 8.29045 v 0.52917 h 7.47344 z" />
    <path
       id="path1211"
       style="fill:none;stroke:#000000;stroke-width:0.264583px;stroke-linecap:butt;stroke-linejoin:miter;stroke-opacity:1"
       d="m 170.52431,236.95881 2.77555,-1.13843 -1.13844,-2.77554 h 2.99982 v -1.92237 h 8.29045 v -0.5488 h -8.29045 v -0.52917 h -7.47344 z" />
    <path
       id="path1213"
       style="fill:none;stroke:#000000;stroke-width:0.264583px;stroke-linecap:butt;stroke-linejoin:miter;stroke-opacity:1"
       d="m 163.61689,221.61814 -2.77555,1.13843 1.13844,2.77554 h -2.99982 v 1.92237 h -8.29045 v 0.5488 h 8.29045 v 0.52917 h 7.47344 z" />
    <path
       id="path1215"
       style="fill:none;stroke:#000000;stroke-width:0.264583px;stroke-linecap:butt;stroke-linejoin:miter;stroke-opacity:1"
       d="m 153.59099,226.37547 2.77555,-1.13843 -1.13844,-2.77554 h 2.99982 v -1.92237 h 8.29045 v -0.5488 h -8.29045 v -0.52917 h -7.47344 z" />
    <path
       id="path1217"
       style="fill:none;stroke:#000000;stroke-width:0.264583px;stroke-linecap:butt;stroke-linejoin:miter;stroke-opacity:1"
       d="m 180.55021,221.61814 -2.77555,1.13843 1.13844,2.77554 h -2.99982 v 1.92237 h -8.29045 v 0.5488 h 8.29045 v 0.52917 h 7.47344 z" />
    <path
       id="path1219"
       style="fill:none;stroke:#000000;stroke-width:0.264583px;stroke-linecap:butt;stroke-linejoin:miter;stroke-opacity:1"
       d="m 170.52431,226.37547 2.77555,-1.13843 -1.13844,-2.77554 h 2.99982 v -1.92237 h 8.29045 v -0.5488 h -8.29045 v -0.52917 h -7.47344 z" />
    <path
       id="path1221"
       style="fill:none;stroke:#000000;stroke-width:0.264583px;stroke-linecap:butt;stroke-linejoin:miter;stroke-opacity:1"
       d="m 129.22105,168.70144 -2.77555,1.13843 1.13844,2.77554 h -2.99982 v 1.92237 h -8.29045 v 0.5488 h 8.29045 v 0.52917 h 7.47344 z" />
    <path
       id="path1223"
       style="fill:none;stroke:#000000;stroke-width:0.264583px;stroke-linecap:butt;stroke-linejoin:miter;stroke-opacity:1"
       d="m 119.19515,173.45877 2.77555,-1.13843 -1.13844,-2.77554 h 2.99982 v -1.92237 h 8.29045 v -0.5488 h -8.29045 v -0.52917 h -7.47344 z" />
    <path
       id="path1225"
       style="fill:none;stroke:#000000;stroke-width:0.264583px;stroke-linecap:butt;stroke-linejoin:miter;stroke-opacity:1"
       d="m 146.15437,168.70144 -2.77555,1.13843 1.13844,2.77554 h -2.99982 v 1.92237 h -8.29045 v 0.5488 h 8.29045 v 0.52917 h 7.47344 z" />
    <path
       id="path1227"
       style="fill:none;stroke:#000000;stroke-width:0.264583px;stroke-linecap:butt;stroke-linejoin:miter;stroke-opacity:1"
       d="m 136.12847,173.45877 2.77555,-1.13843 -1.13844,-2.77554 h 2.99982 v -1.92237 h 8.29045 v -0.5488 h -8.29045 v -0.52917 h -7.47344 z" />
    <path
       id="path1229"
       style="fill:none;stroke:#000000;stroke-width:0.264583px;stroke-linecap:butt;stroke-linejoin:miter;stroke-opacity:1"
       d="m 129.22105,158.1181 -2.77555,1.13843 1.13844,2.77554 h -2.99982 v 1.92237 h -8.29045 v 0.5488 h 8.29045 v 0.52917 h 7.47344 z" />
    <path
       id="path1231"
       style="fill:none;stroke:#000000;stroke-width:0.264583px;stroke-linecap:butt;stroke-linejoin:miter;stroke-opacity:1"
       d="m 119.19515,162.87543 2.77555,-1.13843 -1.13844,-2.77554 h 2.99982 v -1.92237 h 8.29045 v -0.5488 h -8.29045 v -0.52917 h -7.47344 z" />
    <path
       id="path1233"
       style="fill:none;stroke:#000000;stroke-width:0.264583px;stroke-linecap:butt;stroke-linejoin:miter;stroke-opacity:1"
       d="m 146.15437,158.1181 -2.77555,1.13843 1.13844,2.77554 h -2.99982 v 1.92237 h -8.29045 v 0.5488 h 8.29045 v 0.52917 h 7.47344 z" />
    <path
       id="path1235"
       style="fill:none;stroke:#000000;stroke-width:0.264583px;stroke-linecap:butt;stroke-linejoin:miter;stroke-opacity:1"
       d="m 136.12847,162.87543 2.77555,-1.13843 -1.13844,-2.77554 h 2.99982 v -1.92237 h 8.29045 v -0.5488 h -8.29045 v -0.52917 h -7.47344 z" />
    <path
       id="path1237"
       style="fill:none;stroke:#000000;stroke-width:0.264583px;stroke-linecap:butt;stroke-linejoin:miter;stroke-opacity:1"
       d="m 129.22105,189.86812 -2.77555,1.13843 1.13844,2.77554 h -2.99982 v 1.92237 h -8.29045 v 0.5488 h 8.29045 v 0.52917 h 7.47344 z" />
    <path
       id="path1239"
       style="fill:none;stroke:#000000;stroke-width:0.264583px;stroke-linecap:butt;stroke-linejoin:miter;stroke-opacity:1"
       d="m 119.19515,194.62545 2.77555,-1.13843 -1.13844,-2.77554 h 2.99982 v -1.92237 h 8.29045 v -0.5488 h -8.29045 v -0.52917 h -7.47344 z" />
    <path
       id="path1241"
       style="fill:none;stroke:#000000;stroke-width:0.264583px;stroke-linecap:butt;stroke-linejoin:miter;stroke-opacity:1"
       d="m 146.15437,189.86812 -2.77555,1.13843 1.13844,2.77554 h -2.99982 v 1.92237 h -8.29045 v 0.5488 h 8.29045 v 0.52917 h 7.47344 z" />
    <path
       id="path1243"
       style="fill:none;stroke:#000000;stroke-width:0.264583px;stroke-linecap:butt;stroke-linejoin:miter;stroke-opacity:1"
       d="m 136.12847,194.62545 2.77555,-1.13843 -1.13844,-2.77554 h 2.99982 v -1.92237 h 8.29045 v -0.5488 h -8.29045 v -0.52917 h -7.47344 z" />
    <path
       id="path1245"
       style="fill:none;stroke:#000000;stroke-width:0.264583px;stroke-linecap:butt;stroke-linejoin:miter;stroke-opacity:1"
       d="m 129.22105,179.28478 -2.77555,1.13843 1.13844,2.77554 h -2.99982 v 1.92237 h -8.29045 v 0.5488 h 8.29045 v 0.52917 h 7.47344 z" />
    <path
       id="path1247"
       style="fill:none;stroke:#000000;stroke-width:0.264583px;stroke-linecap:butt;stroke-linejoin:miter;stroke-opacity:1"
       d="m 119.19515,184.04211 2.77555,-1.13843 -1.13844,-2.77554 h 2.99982 v -1.92237 h 8.29045 v -0.5488 h -8.29045 v -0.52917 h -7.47344 z" />
    <path
       id="path1249"
       style="fill:none;stroke:#000000;stroke-width:0.264583px;stroke-linecap:butt;stroke-linejoin:miter;stroke-opacity:1"
       d="m 146.15437,179.28478 -2.77555,1.13843 1.13844,2.77554 h -2.99982 v 1.92237 h -8.29045 v 0.5488 h 8.29045 v 0.52917 h 7.47344 z" />
    <path
       id="path1251"
       style="fill:none;stroke:#000000;stroke-width:0.264583px;stroke-linecap:butt;stroke-linejoin:miter;stroke-opacity:1"
       d="m 136.12847,184.04211 2.77555,-1.13843 -1.13844,-2.77554 h 2.99982 v -1.92237 h 8.29045 v -0.5488 h -8.29045 v -0.52917 h -7.47344 z" />
    <path
       id="path1253"
       style="fill:none;stroke:#000000;stroke-width:0.264583px;stroke-linecap:butt;stroke-linejoin:miter;stroke-opacity:1"
       d="m 129.22105,211.0348 -2.77555,1.13843 1.13844,2.77554 h -2.99982 v 1.92237 h -8.29045 v 0.5488 h 8.29045 v 0.52917 h 7.47344 z" />
    <path
       id="path1255"
       style="fill:none;stroke:#000000;stroke-width:0.264583px;stroke-linecap:butt;stroke-linejoin:miter;stroke-opacity:1"
       d="m 119.19515,215.79213 2.77555,-1.13843 -1.13844,-2.77554 h 2.99982 v -1.92237 h 8.29045 v -0.5488 h -8.29045 v -0.52917 h -7.47344 z" />
    <path
       id="path1257"
       style="fill:none;stroke:#000000;stroke-width:0.264583px;stroke-linecap:butt;stroke-linejoin:miter;stroke-opacity:1"
       d="m 146.15437,211.0348 -2.77555,1.13843 1.13844,2.77554 h -2.99982 v 1.92237 h -8.29045 v 0.5488 h 8.29045 v 0.52917 h 7.47344 z" />
    <path
       id="path1259"
       style="fill:none;stroke:#000000;stroke-width:0.264583px;stroke-linecap:butt;stroke-linejoin:miter;stroke-opacity:1"
       d="m 136.12847,215.79213 2.77555,-1.13843 -1.13844,-2.77554 h 2.99982 v -1.92237 h 8.29045 v -0.5488 h -8.29045 v -0.52917 h -7.47344 z" />
    <path
       id="path1261"
       style="fill:none;stroke:#000000;stroke-width:0.264583px;stroke-linecap:butt;stroke-linejoin:miter;stroke-opacity:1"
       d="m 129.22105,200.45146 -2.77555,1.13843 1.13844,2.77554 h -2.99982 v 1.92237 h -8.29045 v 0.5488 h 8.29045 v 0.52917 h 7.47344 z" />
    <path
       id="path1263"
       style="fill:none;stroke:#000000;stroke-width:0.264583px;stroke-linecap:butt;stroke-linejoin:miter;stroke-opacity:1"
       d="m 119.19515,205.20879 2.77555,-1.13843 -1.13844,-2.77554 h 2.99982 v -1.92237 h 8.29045 v -0.5488 h -8.29045 v -0.52917 h -7.47344 z" />
    <path
       id="path1265"
       style="fill:none;stroke:#000000;stroke-width:0.264583px;stroke-linecap:butt;stroke-linejoin:miter;stroke-opacity:1"
       d="m 146.15437,200.45146 -2.77555,1.13843 1.13844,2.77554 h -2.99982 v 1.92237 h -8.29045 v 0.5488 h 8.29045 v 0.52917 h 7.47344 z" />
    <path
       id="path1267"
       style="fill:none;stroke:#000000;stroke-width:0.264583px;stroke-linecap:butt;stroke-linejoin:miter;stroke-opacity:1"
       d="m 136.12847,205.20879 2.77555,-1.13843 -1.13844,-2.77554 h 2.99982 v -1.92237 h 8.29045 v -0.5488 h -8.29045 v -0.52917 h -7.47344 z" />
    <path
       id="path1269"
       style="fill:none;stroke:#000000;stroke-width:0.264583px;stroke-linecap:butt;stroke-linejoin:miter;stroke-opacity:1"
       d="m 129.22105,232.20148 -2.77555,1.13843 1.13844,2.77554 h -2.99982 v 1.92237 h -8.29045 v 0.5488 h 8.29045 v 0.52917 h 7.47344 z" />
    <path
       id="path1271"
       style="fill:none;stroke:#000000;stroke-width:0.264583px;stroke-linecap:butt;stroke-linejoin:miter;stroke-opacity:1"
       d="m 119.19515,236.95881 2.77555,-1.13843 -1.13844,-2.77554 h 2.99982 v -1.92237 h 8.29045 v -0.5488 h -8.29045 v -0.52917 h -7.47344 z" />
    <path
       id="path1273"
       style="fill:none;stroke:#000000;stroke-width:0.264583px;stroke-linecap:butt;stroke-linejoin:miter;stroke-opacity:1"
       d="m 146.15437,232.20148 -2.77555,1.13843 1.13844,2.77554 h -2.99982 v 1.92237 h -8.29045 v 0.5488 h 8.29045 v 0.52917 h 7.47344 z" />
    <path
       id="path1275"
       style="fill:none;stroke:#000000;stroke-width:0.264583px;stroke-linecap:butt;stroke-linejoin:miter;stroke-opacity:1"
       d="m 136.12847,236.95881 2.77555,-1.13843 -1.13844,-2.77554 h 2.99982 v -1.92237 h 8.29045 v -0.5488 h -8.29045 v -0.52917 h -7.47344 z" />
    <path
       id="path1277"
       style="fill:none;stroke:#000000;stroke-width:0.264583px;stroke-linecap:butt;stroke-linejoin:miter;stroke-opacity:1"
       d="m 129.22105,221.61814 -2.77555,1.13843 1.13844,2.77554 h -2.99982 v 1.92237 h -8.29045 v 0.5488 h 8.29045 v 0.52917 h 7.47344 z" />
    <path
       id="path1279"
       style="fill:none;stroke:#000000;stroke-width:0.264583px;stroke-linecap:butt;stroke-linejoin:miter;stroke-opacity:1"
       d="m 119.19515,226.37547 2.77555,-1.13843 -1.13844,-2.77554 h 2.99982 v -1.92237 h 8.29045 v -0.5488 h -8.29045 v -0.52917 h -7.47344 z" />
    <path
       id="path1281"
       style="fill:none;stroke:#000000;stroke-width:0.264583px;stroke-linecap:butt;stroke-linejoin:miter;stroke-opacity:1"
       d="m 146.15437,221.61814 -2.77555,1.13843 1.13844,2.77554 h -2.99982 v 1.92237 h -8.29045 v 0.5488 h 8.29045 v 0.52917 h 7.47344 z" />
    <path
       id="path1283"
       style="fill:none;stroke:#000000;stroke-width:0.264583px;stroke-linecap:butt;stroke-linejoin:miter;stroke-opacity:1"
       d="m 136.12847,226.37547 2.77555,-1.13843 -1.13844,-2.77554 h 2.99982 v -1.92237 h 8.29045 v -0.5488 h -8.29045 v -0.52917 h -7.47344 z" />
    <path
       id="path1285"
       style="fill:none;stroke:#000000;stroke-width:0.264583px;stroke-linecap:butt;stroke-linejoin:miter;stroke-opacity:1"
       d="m 197.48353,168.70144 -2.77555,1.13843 1.13844,2.77554 h -2.99982 v 1.92237 h -8.29045 v 0.5488 h 8.29045 v 0.52917 h 7.47344 z" />
    <path
       id="path1287"
       style="fill:none;stroke:#000000;stroke-width:0.264583px;stroke-linecap:butt;stroke-linejoin:miter;stroke-opacity:1"
       d="m 187.45763,173.45877 2.77555,-1.13843 -1.13844,-2.77554 h 2.99982 v -1.92237 h 8.29045 v -0.5488 h -8.29045 v -0.52917 h -7.47344 z" />
    <path
       id="path1289"
       style="fill:none;stroke:#000000;stroke-width:0.264583px;stroke-linecap:butt;stroke-linejoin:miter;stroke-opacity:1"
       d="m 197.48353,158.1181 -2.77555,1.13843 1.13844,2.77554 h -2.99982 v 1.92237 h -8.29045 v 0.5488 h 8.29045 v 0.52917 h 7.47344 z" />
    <path
       id="path1291"
       style="fill:none;stroke:#000000;stroke-width:0.264583px;stroke-linecap:butt;stroke-linejoin:miter;stroke-opacity:1"
       d="m 187.45763,162.87543 2.77555,-1.13843 -1.13844,-2.77554 h 2.99982 v -1.92237 h 8.29045 v -0.5488 h -8.29045 v -0.52917 h -7.47344 z" />
    <path
       id="path1293"
       style="fill:none;stroke:#000000;stroke-width:0.264583px;stroke-linecap:butt;stroke-linejoin:miter;stroke-opacity:1"
       d="m 197.48353,189.86812 -2.77555,1.13843 1.13844,2.77554 h -2.99982 v 1.92237 h -8.29045 v 0.5488 h 8.29045 v 0.52917 h 7.47344 z" />
    <path
       id="path1295"
       style="fill:none;stroke:#000000;stroke-width:0.264583px;stroke-linecap:butt;stroke-linejoin:miter;stroke-opacity:1"
       d="m 187.45763,194.62545 2.77555,-1.13843 -1.13844,-2.77554 h 2.99982 v -1.92237 h 8.29045 v -0.5488 h -8.29045 v -0.52917 h -7.47344 z" />
    <path
       id="path1297"
       style="fill:none;stroke:#000000;stroke-width:0.264583px;stroke-linecap:butt;stroke-linejoin:miter;stroke-opacity:1"
       d="m 197.48353,179.28478 -2.77555,1.13843 1.13844,2.77554 h -2.99982 v 1.92237 h -8.29045 v 0.5488 h 8.29045 v 0.52917 h 7.47344 z" />
    <path
       id="path1299"
       style="fill:none;stroke:#000000;stroke-width:0.264583px;stroke-linecap:butt;stroke-linejoin:miter;stroke-opacity:1"
       d="m 187.45763,184.04211 2.77555,-1.13843 -1.13844,-2.77554 h 2.99982 v -1.92237 h 8.29045 v -0.5488 h -8.29045 v -0.52917 h -7.47344 z" />
    <path
       id="path1301"
       style="fill:none;stroke:#000000;stroke-width:0.264583px;stroke-linecap:butt;stroke-linejoin:miter;stroke-opacity:1"
       d="m 197.48353,211.0348 -2.77555,1.13843 1.13844,2.77554 h -2.99982 v 1.92237 h -8.29045 v 0.5488 h 8.29045 v 0.52917 h 7.47344 z" />
    <path
       id="path1303"
       style="fill:none;stroke:#000000;stroke-width:0.264583px;stroke-linecap:butt;stroke-linejoin:miter;stroke-opacity:1"
       d="m 187.45763,215.79213 2.77555,-1.13843 -1.13844,-2.77554 h 2.99982 v -1.92237 h 8.29045 v -0.5488 h -8.29045 v -0.52917 h -7.47344 z" />
    <path
       id="path1305"
       style="fill:none;stroke:#000000;stroke-width:0.264583px;stroke-linecap:butt;stroke-linejoin:miter;stroke-opacity:1"
       d="m 197.48353,200.45146 -2.77555,1.13843 1.13844,2.77554 h -2.99982 v 1.92237 h -8.29045 v 0.5488 h 8.29045 v 0.52917 h 7.47344 z" />
    <path
       id="path1307"
       style="fill:none;stroke:#000000;stroke-width:0.264583px;stroke-linecap:butt;stroke-linejoin:miter;stroke-opacity:1"
       d="m 187.45763,205.20879 2.77555,-1.13843 -1.13844,-2.77554 h 2.99982 v -1.92237 h 8.29045 v -0.5488 h -8.29045 v -0.52917 h -7.47344 z" />
    <path
       id="path1309"
       style="fill:none;stroke:#000000;stroke-width:0.264583px;stroke-linecap:butt;stroke-linejoin:miter;stroke-opacity:1"
       d="m 197.48353,232.20148 -2.77555,1.13843 1.13844,2.77554 h -2.99982 v 1.92237 h -8.29045 v 0.5488 h 8.29045 v 0.52917 h 7.47344 z" />
    <path
       id="path1311"
       style="fill:none;stroke:#000000;stroke-width:0.264583px;stroke-linecap:butt;stroke-linejoin:miter;stroke-opacity:1"
       d="m 187.45763,236.95881 2.77555,-1.13843 -1.13844,-2.77554 h 2.99982 v -1.92237 h 8.29045 v -0.5488 h -8.29045 v -0.52917 h -7.47344 z" />
    <path
       id="path1313"
       style="fill:none;stroke:#000000;stroke-width:0.264583px;stroke-linecap:butt;stroke-linejoin:miter;stroke-opacity:1"
       d="m 197.48353,221.61814 -2.77555,1.13843 1.13844,2.77554 h -2.99982 v 1.92237 h -8.29045 v 0.5488 h 8.29045 v 0.52917 h 7.47344 z" />
    <path
       id="path1315"
       style="fill:none;stroke:#000000;stroke-width:0.264583px;stroke-linecap:butt;stroke-linejoin:miter;stroke-opacity:1"
       d="m 187.45763,226.37547 2.77555,-1.13843 -1.13844,-2.77554 h 2.99982 v -1.92237 h 8.29045 v -0.5488 h -8.29045 v -0.52917 h -7.47344 z" />
    <path
       id="path1341"
       style="fill:none;stroke:#000000;stroke-width:0.264583px;stroke-linecap:butt;stroke-linejoin:miter;stroke-opacity:1"
       d="m 222.06188,194.351 v 2.99981 h 2.99982 l 1.13843,2.77554 0.88315,-0.36225 0.71159,1.73426 -0.93018,0.38138 1.90221,4.63692 h 5.01158 v -3.00033 h -2.99981 l -1.13844,-2.77503 -1.39216,0.57103 -0.71158,-1.73426 1.43918,-0.59067 -1.9022,-4.6364 z" />
    <path
       id="path1343"
       style="fill:none;stroke:#000000;stroke-width:0.264583px;stroke-linecap:butt;stroke-linejoin:miter;stroke-opacity:1"
       d="m 229.9994,181.65098 v 2.99981 h 2.99982 l 1.13843,2.77554 0.88315,-0.36225 0.71159,1.73426 -0.93018,0.38138 1.90221,4.63692 h 5.01158 v -3.00033 h -2.99981 l -1.13844,-2.77503 -1.39216,0.57103 -0.71158,-1.73426 1.43918,-0.59067 -1.9022,-4.6364 z" />
    <path
       id="path1345"
       style="fill:none;stroke:#000000;stroke-width:0.264583px;stroke-linecap:butt;stroke-linejoin:miter;stroke-opacity:1"
       d="m 227.35355,185.88434 v 2.99981 h 2.99982 l 1.13843,2.77554 0.88315,-0.36225 0.71159,1.73426 -0.93018,0.38138 1.90221,4.63692 h 5.01158 v -3.00033 h -2.99981 l -1.13844,-2.77503 -1.39216,0.57103 -0.71158,-1.73426 1.43918,-0.59067 -1.9022,-4.6364 z" />
    <path
       id="path1347"
       style="fill:none;stroke:#000000;stroke-width:0.264583px;stroke-linecap:butt;stroke-linejoin:miter;stroke-opacity:1"
       d="m 235.29107,173.18429 v 2.99981 h 2.99982 l 1.13843,2.77554 0.88315,-0.36225 0.71159,1.73426 -0.93018,0.38138 1.90221,4.63692 h 5.01158 v -3.00033 h -2.99981 l -1.13844,-2.77503 -1.39216,0.57103 -0.71158,-1.73426 1.43918,-0.59067 -1.9022,-4.6364 z" />
    <path
       id="path1349"
       style="fill:none;stroke:#000000;stroke-width:0.264583px;stroke-linecap:butt;stroke-linejoin:miter;stroke-opacity:1"
       d="m 232.64522,177.41765 v 2.99981 h 2.99982 l 1.13843,2.77554 0.88315,-0.36225 0.71159,1.73426 -0.93018,0.38138 1.90221,4.63692 h 5.01158 v -3.00033 h -2.99981 l -1.13844,-2.77503 -1.39216,0.57103 -0.71158,-1.73426 1.43918,-0.59067 -1.9022,-4.6364 z" />
    <path
       id="path1351"
       style="fill:none;stroke:#000000;stroke-width:0.264583px;stroke-linecap:butt;stroke-linejoin:miter;stroke-opacity:1"
       d="m 240.58274,164.71763 v 2.99981 h 2.99982 l 1.13843,2.77554 0.88315,-0.36225 0.71159,1.73426 -0.93018,0.38138 1.90221,4.63692 h 5.01158 v -3.00033 h -2.99981 l -1.13844,-2.77503 -1.39216,0.57103 -0.71158,-1.73426 1.43918,-0.59067 -1.9022,-4.6364 z" />
    <path
       id="path1353"
       style="fill:none;stroke:#000000;stroke-width:0.264583px;stroke-linecap:butt;stroke-linejoin:miter;stroke-opacity:1"
       d="m 237.93689,168.95099 v 2.99981 h 2.99982 l 1.13843,2.77554 0.88315,-0.36225 0.71159,1.73426 -0.93018,0.38138 1.90221,4.63692 h 5.01158 v -3.00033 h -2.99981 l -1.13844,-2.77503 -1.39216,0.57103 -0.71158,-1.73426 1.43918,-0.59067 -1.9022,-4.6364 z" />
    <path
       id="path1355"
       style="fill:none;stroke:#000000;stroke-width:0.264583px;stroke-linecap:butt;stroke-linejoin:miter;stroke-opacity:1"
       d="m 242.69951,190.64681 v 2.99981 h 2.99982 l 1.13843,2.77554 0.88315,-0.36225 0.71159,1.73426 -0.93018,0.38138 1.90221,4.63692 h 5.01158 v -3.00033 h -2.99981 l -1.13844,-2.77503 -1.39216,0.57103 -0.71158,-1.73426 1.43918,-0.59067 -1.9022,-4.6364 z" />
    <path
       id="path1357"
       style="fill:none;stroke:#000000;stroke-width:0.264583px;stroke-linecap:butt;stroke-linejoin:miter;stroke-opacity:1"
       d="m 240.05366,194.88017 v 2.99981 h 2.99982 l 1.13843,2.77554 0.88315,-0.36225 0.71159,1.73426 -0.93018,0.38138 1.90221,4.63692 h 5.01158 v -3.00033 h -2.99981 l -1.13844,-2.77503 -1.39216,0.57103 -0.71158,-1.73426 1.43918,-0.59067 -1.9022,-4.6364 z" />
    <path
       id="path1359"
       style="fill:none;stroke:#000000;stroke-width:0.264583px;stroke-linecap:butt;stroke-linejoin:miter;stroke-opacity:1"
       d="m 247.99118,182.18015 v 2.99981 h 2.99982 l 1.13843,2.77554 0.88315,-0.36225 0.71159,1.73426 -0.93018,0.38138 1.90221,4.63692 h 5.01158 v -3.00033 h -2.99981 l -1.13844,-2.77503 -1.39216,0.57103 -0.71158,-1.73426 1.43918,-0.59067 -1.9022,-4.6364 z" />
    <path
       id="path1361"
       style="fill:none;stroke:#000000;stroke-width:0.264583px;stroke-linecap:butt;stroke-linejoin:miter;stroke-opacity:1"
       d="m 245.34533,186.41351 v 2.99981 h 2.99982 l 1.13843,2.77554 0.88315,-0.36225 0.71159,1.73426 -0.93018,0.38138 1.90221,4.63692 h 5.01158 v -3.00033 h -2.99981 l -1.13844,-2.77503 -1.39216,0.57103 -0.71158,-1.73426 1.43918,-0.59067 -1.9022,-4.6364 z" />
    <path
       id="path1363"
       style="fill:none;stroke:#000000;stroke-width:0.264583px;stroke-linecap:butt;stroke-linejoin:miter;stroke-opacity:1"
       d="m 253.28285,173.71346 v 2.99981 h 2.99982 l 1.13843,2.77554 0.88315,-0.36225 0.71159,1.73426 -0.93018,0.38138 1.90221,4.63692 h 5.01158 v -3.00033 h -2.99981 l -1.13844,-2.77503 -1.39216,0.57103 -0.71158,-1.73426 1.43918,-0.59067 -1.9022,-4.6364 z" />
    <path
       id="path1365"
       style="fill:none;stroke:#000000;stroke-width:0.264583px;stroke-linecap:butt;stroke-linejoin:miter;stroke-opacity:1"
       d="m 250.637,177.94682 v 2.99981 h 2.99982 l 1.13843,2.77554 0.88315,-0.36225 0.71159,1.73426 -0.93018,0.38138 1.90221,4.63692 h 5.01158 v -3.00033 h -2.99981 l -1.13844,-2.77503 -1.39216,0.57103 -0.71158,-1.73426 1.43918,-0.59067 -1.9022,-4.6364 z" />
    <path
       id="path1367"
       style="fill:none;stroke:#000000;stroke-width:0.264583px;stroke-linecap:butt;stroke-linejoin:miter;stroke-opacity:1"
       d="m 258.57452,165.2468 v 2.99981 h 2.99982 l 1.13843,2.77554 0.88315,-0.36225 0.71159,1.73426 -0.93018,0.38138 1.90221,4.63692 h 5.01158 v -3.00033 h -2.99981 l -1.13844,-2.77503 -1.39216,0.57103 -0.71158,-1.73426 1.43918,-0.59067 -1.9022,-4.6364 z" />
    <path
       id="path1369"
       style="fill:none;stroke:#000000;stroke-width:0.264583px;stroke-linecap:butt;stroke-linejoin:miter;stroke-opacity:1"
       d="m 255.92867,169.48016 v 2.99981 h 2.99982 l 1.13843,2.77554 0.88315,-0.36225 0.71159,1.73426 -0.93018,0.38138 1.90221,4.63692 h 5.01158 v -3.00033 h -2.99981 l -1.13844,-2.77503 -1.39216,0.57103 -0.71158,-1.73426 1.43918,-0.59067 -1.9022,-4.6364 z" />
    <path
       id="path1371"
       style="fill:none;stroke:#000000;stroke-width:0.264583px;stroke-linecap:butt;stroke-linejoin:miter;stroke-opacity:1"
       d="m 260.69129,191.17598 v 2.99981 h 2.99982 l 1.13843,2.77554 0.88315,-0.36225 0.71159,1.73426 -0.93018,0.38138 1.90221,4.63692 h 5.01158 v -3.00033 h -2.99981 l -1.13844,-2.77503 -1.39216,0.57103 -0.71158,-1.73426 1.43918,-0.59067 -1.9022,-4.6364 z" />
    <path
       id="path1373"
       style="fill:none;stroke:#000000;stroke-width:0.264583px;stroke-linecap:butt;stroke-linejoin:miter;stroke-opacity:1"
       d="m 258.04544,195.40934 v 2.99981 h 2.99982 l 1.13843,2.77554 0.88315,-0.36225 0.71159,1.73426 -0.93018,0.38138 1.90221,4.63692 h 5.01158 v -3.00033 h -2.99981 l -1.13844,-2.77503 -1.39216,0.57103 -0.71158,-1.73426 1.43918,-0.59067 -1.9022,-4.6364 z" />
    <path
       id="path1375"
       style="fill:none;stroke:#000000;stroke-width:0.264583px;stroke-linecap:butt;stroke-linejoin:miter;stroke-opacity:1"
       d="m 265.98296,182.70932 v 2.99981 h 2.99982 l 1.13843,2.77554 0.88315,-0.36225 0.71159,1.73426 -0.93018,0.38138 1.90221,4.63692 h 5.01158 v -3.00033 h -2.99981 l -1.13844,-2.77503 -1.39216,0.57103 -0.71158,-1.73426 1.43918,-0.59067 -1.9022,-4.6364 z" />
    <path
       id="path1377"
       style="fill:none;stroke:#000000;stroke-width:0.264583px;stroke-linecap:butt;stroke-linejoin:miter;stroke-opacity:1"
       d="m 263.33711,186.94268 v 2.99981 h 2.99982 l 1.13843,2.77554 0.88315,-0.36225 0.71159,1.73426 -0.93018,0.38138 1.90221,4.63692 h 5.01158 v -3.00033 h -2.99981 l -1.13844,-2.77503 -1.39216,0.57103 -0.71158,-1.73426 1.43918,-0.59067 -1.9022,-4.6364 z" />
    <path
       id="path1379"
       style="fill:none;stroke:#000000;stroke-width:0.264583px;stroke-linecap:butt;stroke-linejoin:miter;stroke-opacity:1"
       d="m 271.27463,174.24263 v 2.99981 h 2.99982 l 1.13843,2.77554 0.88315,-0.36225 0.71159,1.73426 -0.93018,0.38138 1.90221,4.63692 h 5.01158 v -3.00033 h -2.99981 l -1.13844,-2.77503 -1.39216,0.57103 -0.71158,-1.73426 1.43918,-0.59067 -1.9022,-4.6364 z" />
    <path
       id="path1381"
       style="fill:none;stroke:#000000;stroke-width:0.264583px;stroke-linecap:butt;stroke-linejoin:miter;stroke-opacity:1"
       d="m 268.62878,178.47599 v 2.99981 h 2.99982 l 1.13843,2.77554 0.88315,-0.36225 0.71159,1.73426 -0.93018,0.38138 1.90221,4.63692 h 5.01158 v -3.00033 h -2.99981 l -1.13844,-2.77503 -1.39216,0.57103 -0.71158,-1.73426 1.43918,-0.59067 -1.9022,-4.6364 z" />
    <path
       id="path1383"
       style="fill:none;stroke:#000000;stroke-width:0.264583px;stroke-linecap:butt;stroke-linejoin:miter;stroke-opacity:1"
       d="m 276.5663,165.77597 v 2.99981 h 2.99982 l 1.13843,2.77554 0.88315,-0.36225 0.71159,1.73426 -0.93018,0.38138 1.90221,4.63692 h 5.01158 v -3.00033 h -2.99981 l -1.13844,-2.77503 -1.39216,0.57103 -0.71158,-1.73426 1.43918,-0.59067 -1.9022,-4.6364 z" />
    <path
       id="path1385"
       style="fill:none;stroke:#000000;stroke-width:0.264583px;stroke-linecap:butt;stroke-linejoin:miter;stroke-opacity:1"
       d="m 273.92045,170.00933 v 2.99981 h 2.99982 l 1.13843,2.77554 0.88315,-0.36225 0.71159,1.73426 -0.93018,0.38138 1.90221,4.63692 h 5.01158 v -3.00033 h -2.99981 l -1.13844,-2.77503 -1.39216,0.57103 -0.71158,-1.73426 1.43918,-0.59067 -1.9022,-4.6364 z" />
    <path
       id="path1387"
       style="fill:none;stroke:#000000;stroke-width:0.264583px;stroke-linecap:butt;stroke-linejoin:miter;stroke-opacity:1"
       d="m 278.68307,191.70515 v 2.99981 h 2.99982 l 1.13843,2.77554 0.88315,-0.36225 0.71159,1.73426 -0.93018,0.38138 1.90221,4.63692 h 5.01158 v -3.00033 h -2.99981 l -1.13844,-2.77503 -1.39216,0.57103 -0.71158,-1.73426 1.43918,-0.59067 -1.9022,-4.6364 z" />
    <path
       id="path1389"
       style="fill:none;stroke:#000000;stroke-width:0.264583px;stroke-linecap:butt;stroke-linejoin:miter;stroke-opacity:1"
       d="m 276.03722,195.93851 v 2.99981 h 2.99982 l 1.13843,2.77554 0.88315,-0.36225 0.71159,1.73426 -0.93018,0.38138 1.90221,4.63692 h 5.01158 v -3.00033 h -2.99981 l -1.13844,-2.77503 -1.39216,0.57103 -0.71158,-1.73426 1.43918,-0.59067 -1.9022,-4.6364 z" />
    <path
       id="path1391"
       style="fill:none;stroke:#000000;stroke-width:0.264583px;stroke-linecap:butt;stroke-linejoin:miter;stroke-opacity:1"
       d="m 283.97474,183.23849 v 2.99981 h 2.99982 l 1.13843,2.77554 0.88315,-0.36225 0.71159,1.73426 -0.93018,0.38138 1.90221,4.63692 h 5.01158 v -3.00033 h -2.99981 l -1.13844,-2.77503 -1.39216,0.57103 -0.71158,-1.73426 1.43918,-0.59067 -1.9022,-4.6364 z" />
    <path
       id="path1393"
       style="fill:none;stroke:#000000;stroke-width:0.264583px;stroke-linecap:butt;stroke-linejoin:miter;stroke-opacity:1"
       d="m 281.32889,187.47185 v 2.99981 h 2.99982 l 1.13843,2.77554 0.88315,-0.36225 0.71159,1.73426 -0.93018,0.38138 1.90221,4.63692 h 5.01158 v -3.00033 h -2.99981 l -1.13844,-2.77503 -1.39216,0.57103 -0.71158,-1.73426 1.43918,-0.59067 -1.9022,-4.6364 z" />
    <path
       id="path1395"
       style="fill:none;stroke:#000000;stroke-width:0.264583px;stroke-linecap:butt;stroke-linejoin:miter;stroke-opacity:1"
       d="m 289.26641,174.7718 v 2.99981 h 2.99982 l 1.13843,2.77554 0.88315,-0.36225 0.71159,1.73426 -0.93018,0.38138 1.90221,4.63692 h 5.01158 v -3.00033 h -2.99981 l -1.13844,-2.77503 -1.39216,0.57103 -0.71158,-1.73426 1.43918,-0.59067 -1.9022,-4.6364 z" />
    <path
       id="path1397"
       style="fill:none;stroke:#000000;stroke-width:0.264583px;stroke-linecap:butt;stroke-linejoin:miter;stroke-opacity:1"
       d="m 286.62056,179.00516 v 2.99981 h 2.99982 l 1.13843,2.77554 0.88315,-0.36225 0.71159,1.73426 -0.93018,0.38138 1.90221,4.63692 h 5.01158 v -3.00033 h -2.99981 l -1.13844,-2.77503 -1.39216,0.57103 -0.71158,-1.73426 1.43918,-0.59067 -1.9022,-4.6364 z" />
    <path
       id="path1399"
       style="fill:none;stroke:#000000;stroke-width:0.264583px;stroke-linecap:butt;stroke-linejoin:miter;stroke-opacity:1"
       d="m 294.55808,166.30514 v 2.99981 h 2.99982 l 1.13843,2.77554 0.88315,-0.36225 0.71159,1.73426 -0.93018,0.38138 1.90221,4.63692 h 5.01158 v -3.00033 h -2.99981 l -1.13844,-2.77503 -1.39216,0.57103 -0.71158,-1.73426 1.43918,-0.59067 -1.9022,-4.6364 z" />
    <path
       id="path1401"
       style="fill:none;stroke:#000000;stroke-width:0.264583px;stroke-linecap:butt;stroke-linejoin:miter;stroke-opacity:1"
       d="m 291.91223,170.5385 v 2.99981 h 2.99982 l 1.13843,2.77554 0.88315,-0.36225 0.71159,1.73426 -0.93018,0.38138 1.90221,4.63692 h 5.01158 v -3.00033 h -2.99981 l -1.13844,-2.77503 -1.39216,0.57103 -0.71158,-1.73426 1.43918,-0.59067 -1.9022,-4.6364 z" />
    <path
       id="path1403"
       style="fill:none;stroke:#000000;stroke-width:0.264583px;stroke-linecap:butt;stroke-linejoin:miter;stroke-opacity:1"
       d="m 296.67485,192.23432 v 2.99981 h 2.99982 l 1.13843,2.77554 0.88315,-0.36225 0.71159,1.73426 -0.93018,0.38138 1.90221,4.63692 h 5.01158 v -3.00033 h -2.99981 l -1.13844,-2.77503 -1.39216,0.57103 -0.71158,-1.73426 1.43918,-0.59067 -1.9022,-4.6364 z" />
    <path
       id="path1405"
       style="fill:none;stroke:#000000;stroke-width:0.264583px;stroke-linecap:butt;stroke-linejoin:miter;stroke-opacity:1"
       d="m 294.029,196.46768 v 2.99981 h 2.99982 l 1.13843,2.77554 0.88315,-0.36225 0.71159,1.73426 -0.93018,0.38138 1.90221,4.63692 h 5.01158 v -3.00033 h -2.99981 l -1.13844,-2.77503 -1.39216,0.57103 -0.71158,-1.73426 1.43918,-0.59067 -1.9022,-4.6364 z" />
    <path
       id="path1407"
       style="fill:none;stroke:#000000;stroke-width:0.264583px;stroke-linecap:butt;stroke-linejoin:miter;stroke-opacity:1"
       d="m 301.96652,183.76766 v 2.99981 h 2.99982 l 1.13843,2.77554 0.88315,-0.36225 0.71159,1.73426 -0.93018,0.38138 1.90221,4.63692 h 5.01158 v -3.00033 h -2.99981 l -1.13844,-2.77503 -1.39216,0.57103 -0.71158,-1.73426 1.43918,-0.59067 -1.9022,-4.6364 z" />
    <path
       id="path1409"
       style="fill:none;stroke:#000000;stroke-width:0.264583px;stroke-linecap:butt;stroke-linejoin:miter;stroke-opacity:1"
       d="m 299.32067,188.00102 v 2.99981 h 2.99982 l 1.13843,2.77554 0.88315,-0.36225 0.71159,1.73426 -0.93018,0.38138 1.90221,4.63692 h 5.01158 v -3.00033 h -2.99981 l -1.13844,-2.77503 -1.39216,0.57103 -0.71158,-1.73426 1.43918,-0.59067 -1.9022,-4.6364 z" />
    <path
       id="path1411"
       style="fill:none;stroke:#000000;stroke-width:0.264583px;stroke-linecap:butt;stroke-linejoin:miter;stroke-opacity:1"
       d="m 307.25819,175.30097 v 2.99981 h 2.99982 l 1.13843,2.77554 0.88315,-0.36225 0.71159,1.73426 -0.93018,0.38138 1.90221,4.63692 h 5.01158 v -3.00033 h -2.99981 l -1.13844,-2.77503 -1.39216,0.57103 -0.71158,-1.73426 1.43918,-0.59067 -1.9022,-4.6364 z" />
    <path
       id="path1413"
       style="fill:none;stroke:#000000;stroke-width:0.264583px;stroke-linecap:butt;stroke-linejoin:miter;stroke-opacity:1"
       d="m 304.61234,179.53433 v 2.99981 h 2.99982 l 1.13843,2.77554 0.88315,-0.36225 0.71159,1.73426 -0.93018,0.38138 1.90221,4.63692 h 5.01158 v -3.00033 h -2.99981 l -1.13844,-2.77503 -1.39216,0.57103 -0.71158,-1.73426 1.43918,-0.59067 -1.9022,-4.6364 z" />
    <path
       id="path1415"
       style="fill:none;stroke:#000000;stroke-width:0.264583px;stroke-linecap:butt;stroke-linejoin:miter;stroke-opacity:1"
       d="m 312.54986,166.83431 v 2.99981 h 2.99982 l 1.13843,2.77554 0.88315,-0.36225 0.71159,1.73426 -0.93018,0.38138 1.90221,4.63692 h 5.01158 v -3.00033 h -2.99981 l -1.13844,-2.77503 -1.39216,0.57103 -0.71158,-1.73426 1.43918,-0.59067 -1.9022,-4.6364 z" />
    <path
       id="path1417"
       style="fill:none;stroke:#000000;stroke-width:0.264583px;stroke-linecap:butt;stroke-linejoin:miter;stroke-opacity:1"
       d="m 309.90401,171.06767 v 2.99981 h 2.99982 l 1.13843,2.77554 0.88315,-0.36225 0.71159,1.73426 -0.93018,0.38138 1.90221,4.63692 h 5.01158 V 180.233 h -2.99981 l -1.13844,-2.77503 -1.39216,0.57103 -0.71158,-1.73426 1.43918,-0.59067 -1.9022,-4.6364 z" />
  </g>
</svg>
