<?xml version="1.0" encoding="UTF-8" standalone="no"?>
<svg
   xmlns:dc="http://purl.org/dc/elements/1.1/"
   xmlns:cc="http://creativecommons.org/ns#"
   xmlns:rdf="http://www.w3.org/1999/02/22-rdf-syntax-ns#"
   xmlns:svg="http://www.w3.org/2000/svg"
   xmlns="http://www.w3.org/2000/svg"
   xmlns:sodipodi="http://sodipodi.sourceforge.net/DTD/sodipodi-0.dtd"
   xmlns:inkscape="http://www.inkscape.org/namespaces/inkscape"
   width="600mm"
   height="400mm"
   viewBox="0 0 600 400"
   version="1.1"
   id="svg8"
   inkscape:version="1.0.2 (e86c870879, 2021-01-15)"
   sodipodi:docname="led.svg">
  <metadata
     id="metadata43">
    <rdf:RDF>
      <cc:Work
         rdf:about="">
        <dc:format>image/svg+xml</dc:format>
        <dc:type
           rdf:resource="http://purl.org/dc/dcmitype/StillImage" />
      </cc:Work>
    </rdf:RDF>
  </metadata>
  <defs
     id="defs41" />
  <sodipodi:namedview
     id="base"
     pagecolor="#ffffff"
     bordercolor="#666666"
     borderopacity="1.0"
     inkscape:pageopacity="0.0"
     inkscape:pageshadow="2"
     inkscape:zoom="0.35"
     inkscape:cx="773.60604"
     inkscape:cy="-6.3412703"
     inkscape:document-units="mm"
     inkscape:current-layer="layer1"
     inkscape:document-rotation="0"
     showgrid="false"
     inkscape:snap-midpoints="true"
     inkscape:snap-smooth-nodes="true"
     inkscape:snap-global="true"
     inkscape:window-width="1364"
     inkscape:window-height="750"
     inkscape:window-x="1"
     inkscape:window-y="17"
     inkscape:window-maximized="0"
     inkscape:snap-intersection-paths="true"
     inkscape:object-paths="true"
     showguides="true"
     inkscape:guide-bbox="true"
     inkscape:snap-center="true" />
  <g
     inkscape:label="Layer 1"
     inkscape:groupmode="layer"
     id="layer1">
    <path
       id="path868"
       style="fill:none;fill-opacity:0.294773;stroke-width:0.755906;paint-order:stroke fill markers;stroke:#000000;stroke-opacity:1"
       d="M 995.99414 -200.7793 L 995.27539 -200 L 995.27539 -189.4668 L 983.9375 -189.4668 L 981.15234 -189.4668 L 981.15234 -139.52734 L 983.9375 -139.52734 L 983.9375 -128.18945 L 995.27539 -128.18945 L 995.27539 -139.52734 L 1016.4746 -139.52734 L 1016.4746 -128.18945 L 1027.8125 -128.18945 L 1038.8574 -125.625 L 1041.4219 -136.66992 L 1200.8809 -99.648438 L 1198.3184 -88.603516 L 1209.3633 -86.041016 L 1219.541 -81.044922 L 1224.5371 -91.222656 L 1371.4941 -19.101562 L 1366.498 -8.921875 L 1376.6777 -3.9257812 L 1385.4629 3.2421875 L 1392.6309 -5.5449219 L 1519.4707 97.943359 L 1512.3027 106.72852 L 1521.0879 113.89648 L 1528.0254 122.86719 L 1536.9941 115.92969 L 1549.9629 132.69727 L 1540.9941 139.63477 L 1547.9297 148.60352 L 1596.4023 111.11328 L 1589.4668 102.14453 L 1598.4531 95.195312 A 888.18896 888.18896 0 0 0 995.99414 -200.7793 z "
       transform="scale(0.26458333)" />
    <g
       transform="translate(80.656329, 8.750000)"
       id="g13">
      <path
         style="fill:none;stroke:#000000;stroke-width:0.264583px;stroke-linecap:butt;stroke-linejoin:miter;stroke-opacity:1"
         d="M 21.656329 -5.750000 L 21.656329 -8.750000 L -21.656329 -8.750000 L -21.656329 -5.750000 L -24.656329 -5.750000 L -24.656329 5.750000 L -21.656329 5.750000 L -21.656329 8.750000 L -16.047702 8.750000 L -16.047702 5.750000 L -13.047702 5.750000 L -13.047702 8.750000 L -10.272215 9.888713 L -11.410928 12.664201 L -14.186416 11.525488 L -16.315288 16.714380 L -13.539800 17.853093 L -14.678513 20.628581 L -4.039143 24.993647 L -2.900430 22.218159 L -0.124942 23.356872 L 4.729178 11.525488 L 1.953690 10.386775 L 3.092403 7.611287 L 5.867891 8.750000 L 5.867891 5.750000 L 8.867891 5.750000 L 8.867891 8.750000 L 21.656329 8.750000 L 21.656329 5.750000 L 24.656329 5.750000 L 24.656329 -5.750000z"
         id="path9" />
      <text
         xml:space="preserve"
         style="font-size:5pt;line-height:1.25;font-family:sans-serif;text-anchor:middle;text-align:center;fill:#ff0000;fill-opacity:1;"
         x="-0.000000"
         y="8.121824"
         id="text11">bottom joint 60x</text>
    </g>
    <g
       transform="translate(142.0313,8.75)"
       id="g25">
      <path
         style="fill:none;stroke:#000000;stroke-width:0.264583px;stroke-linecap:butt;stroke-linejoin:miter;stroke-opacity:1"
         d="m 21.656329,-5.75 v -3 h -43.312658 v 3 h -3 v 11.5 h 3 v 3 h 43.312658 v -3 h 3 v -11.5 z"
         id="path21" />
      <text
         xml:space="preserve"
         style="font-size:6.66667px;line-height:1.25;font-family:sans-serif;text-align:center;text-anchor:middle;fill:#ff0000;fill-opacity:1"
         x="0"
         y="0"
         id="text23">bottom division 90x</text>
    </g>
    <text
       xml:space="preserve"
       style="font-size:6.66667px;line-height:1.25;font-family:sans-serif;text-align:center;text-anchor:middle;fill:#ff0000;fill-opacity:1"
       x="342.45969"
       y="-6.7993174"
       id="text29">large side 60x</text>
    <g
       id="g1001">
      <path
         id="path33"
         style="fill:none;stroke:#000000;stroke-width:0.264583px;stroke-linecap:butt;stroke-linejoin:miter;stroke-opacity:1"
         d="m 153.37015,-53.51663 c 29.89392,1.129208 59.29733,7.95576 86.63089,20.112985 l -1.32136,2.693376 2.69337,1.32085 -7.31325,14.902448 -2.69337,-1.321883 1.32188,-2.693376 -11.48043,-5.633764 -1.32189,2.692859 -2.69286,-1.321884 -2.9223,-0.677994 0.67851,-2.922303 -42.1907,-9.795267 -0.67852,2.922302 -2.9223,-0.678511 h -2.99981 v -2.999816 h -12.78889 v 2.999816 h -2.99981 v -16.600021 h 3.00084 z"
         sodipodi:nodetypes="ccccccccccccccccccccccc" />
      <text
         xml:space="preserve"
         style="font-size:6.66667px;line-height:1.25;font-family:sans-serif;text-align:center;text-anchor:middle;fill:#ff0000;fill-opacity:1"
         x="196.39995"
         y="-33.701885"
         id="text35">small side 60x</text>
    </g>
    <path
       style="fill:none;stroke:#000000;stroke-width:0.264583px;stroke-linecap:butt;stroke-linejoin:miter;stroke-opacity:1"
       d="M 21.409735,5.256105 V 2.2561081 h 5.011827 l 1.90237,4.6367727 -2.775487,1.138711 -1.13871,-2.7754868 z"
       id="path894" />
    <path
       style="fill:none;stroke:#000000;stroke-width:0.264583px;stroke-linecap:butt;stroke-linejoin:miter;stroke-opacity:1"
       d="M 16.404798,16.060035 13.568061,9.1458358 h 7.473504 v 2.9999982 h -2.999997 l 1.13871,2.775487 z"
       id="path896" />
  </g>
</svg>
